<?xml version="1.0" encoding="utf-8" standalone="no"?>
<!DOCTYPE svg PUBLIC "-//W3C//DTD SVG 1.1//EN"
  "http://www.w3.org/Graphics/SVG/1.1/DTD/svg11.dtd">
<svg xmlns:xlink="http://www.w3.org/1999/xlink" width="864pt" height="360pt" viewBox="0 0 864 360" xmlns="http://www.w3.org/2000/svg" version="1.1">
 <metadata>
  <rdf:RDF xmlns:dc="http://purl.org/dc/elements/1.1/" xmlns:cc="http://creativecommons.org/ns#" xmlns:rdf="http://www.w3.org/1999/02/22-rdf-syntax-ns#">
   <cc:Work>
    <dc:type rdf:resource="http://purl.org/dc/dcmitype/StillImage"/>
    <dc:date>2024-09-09T20:06:05.442140</dc:date>
    <dc:format>image/svg+xml</dc:format>
    <dc:creator>
     <cc:Agent>
      <dc:title>Matplotlib v3.9.2, https://matplotlib.org/</dc:title>
     </cc:Agent>
    </dc:creator>
   </cc:Work>
  </rdf:RDF>
 </metadata>
 <defs>
  <style type="text/css">*{stroke-linejoin: round; stroke-linecap: butt}</style>
 </defs>
 <g id="figure_1">
  <g id="patch_1">
   <path d="M 0 360 
L 864 360 
L 864 0 
L 0 0 
L 0 360 
z
" style="fill: none; opacity: 0"/>
  </g>
  <g id="axes_1">
   <g id="patch_2">
    <path d="M 108 320.4 
L 777.6 320.4 
L 777.6 43.2 
L 108 43.2 
L 108 320.4 
z
" style="fill: none; opacity: 0"/>
   </g>
   <g id="matplotlib.axis_1">
    <g id="xtick_1">
     <g id="line2d_1">
      <path d="M 159.206586 320.4 
L 159.206586 43.2 
" clip-path="url(#p346db6ccb6)" style="fill: none; stroke-dasharray: 5.12,1.28,0.8,1.28; stroke-dashoffset: 0; stroke: #b0b0b0; stroke-width: 0.8"/>
     </g>
     <g id="line2d_2">
      <defs>
       <path id="m06e0263da1" d="M 0 0 
L 0 3.5 
" style="stroke: #a9a9a9; stroke-width: 0.8"/>
      </defs>
      <g>
       <use xlink:href="#m06e0263da1" x="159.206586" y="320.4" style="fill: #a9a9a9; stroke: #a9a9a9; stroke-width: 0.8"/>
      </g>
     </g>
     <g id="text_1">
      <!-- 2021-09 -->
      <g style="fill: #a9a9a9" transform="translate(138.315179 334.998438) scale(0.1 -0.1)">
       <defs>
        <path id="DejaVuSans-32" d="M 1228 531 
L 3431 531 
L 3431 0 
L 469 0 
L 469 531 
Q 828 903 1448 1529 
Q 2069 2156 2228 2338 
Q 2531 2678 2651 2914 
Q 2772 3150 2772 3378 
Q 2772 3750 2511 3984 
Q 2250 4219 1831 4219 
Q 1534 4219 1204 4116 
Q 875 4013 500 3803 
L 500 4441 
Q 881 4594 1212 4672 
Q 1544 4750 1819 4750 
Q 2544 4750 2975 4387 
Q 3406 4025 3406 3419 
Q 3406 3131 3298 2873 
Q 3191 2616 2906 2266 
Q 2828 2175 2409 1742 
Q 1991 1309 1228 531 
z
" transform="scale(0.015625)"/>
        <path id="DejaVuSans-30" d="M 2034 4250 
Q 1547 4250 1301 3770 
Q 1056 3291 1056 2328 
Q 1056 1369 1301 889 
Q 1547 409 2034 409 
Q 2525 409 2770 889 
Q 3016 1369 3016 2328 
Q 3016 3291 2770 3770 
Q 2525 4250 2034 4250 
z
M 2034 4750 
Q 2819 4750 3233 4129 
Q 3647 3509 3647 2328 
Q 3647 1150 3233 529 
Q 2819 -91 2034 -91 
Q 1250 -91 836 529 
Q 422 1150 422 2328 
Q 422 3509 836 4129 
Q 1250 4750 2034 4750 
z
" transform="scale(0.015625)"/>
        <path id="DejaVuSans-31" d="M 794 531 
L 1825 531 
L 1825 4091 
L 703 3866 
L 703 4441 
L 1819 4666 
L 2450 4666 
L 2450 531 
L 3481 531 
L 3481 0 
L 794 0 
L 794 531 
z
" transform="scale(0.015625)"/>
        <path id="DejaVuSans-2d" d="M 313 2009 
L 1997 2009 
L 1997 1497 
L 313 1497 
L 313 2009 
z
" transform="scale(0.015625)"/>
        <path id="DejaVuSans-39" d="M 703 97 
L 703 672 
Q 941 559 1184 500 
Q 1428 441 1663 441 
Q 2288 441 2617 861 
Q 2947 1281 2994 2138 
Q 2813 1869 2534 1725 
Q 2256 1581 1919 1581 
Q 1219 1581 811 2004 
Q 403 2428 403 3163 
Q 403 3881 828 4315 
Q 1253 4750 1959 4750 
Q 2769 4750 3195 4129 
Q 3622 3509 3622 2328 
Q 3622 1225 3098 567 
Q 2575 -91 1691 -91 
Q 1453 -91 1209 -44 
Q 966 3 703 97 
z
M 1959 2075 
Q 2384 2075 2632 2365 
Q 2881 2656 2881 3163 
Q 2881 3666 2632 3958 
Q 2384 4250 1959 4250 
Q 1534 4250 1286 3958 
Q 1038 3666 1038 3163 
Q 1038 2656 1286 2365 
Q 1534 2075 1959 2075 
z
" transform="scale(0.015625)"/>
       </defs>
       <use xlink:href="#DejaVuSans-32"/>
       <use xlink:href="#DejaVuSans-30" x="63.623047"/>
       <use xlink:href="#DejaVuSans-32" x="127.246094"/>
       <use xlink:href="#DejaVuSans-31" x="190.869141"/>
       <use xlink:href="#DejaVuSans-2d" x="254.492188"/>
       <use xlink:href="#DejaVuSans-30" x="290.576172"/>
       <use xlink:href="#DejaVuSans-39" x="354.199219"/>
      </g>
     </g>
    </g>
    <g id="xtick_2">
     <g id="line2d_3">
      <path d="M 224.1801 320.4 
L 224.1801 43.2 
" clip-path="url(#p346db6ccb6)" style="fill: none; stroke-dasharray: 5.12,1.28,0.8,1.28; stroke-dashoffset: 0; stroke: #b0b0b0; stroke-width: 0.8"/>
     </g>
     <g id="line2d_4">
      <g>
       <use xlink:href="#m06e0263da1" x="224.1801" y="320.4" style="fill: #a9a9a9; stroke: #a9a9a9; stroke-width: 0.8"/>
      </g>
     </g>
     <g id="text_2">
      <!-- 2022-01 -->
      <g style="fill: #a9a9a9" transform="translate(203.288694 334.998438) scale(0.1 -0.1)">
       <use xlink:href="#DejaVuSans-32"/>
       <use xlink:href="#DejaVuSans-30" x="63.623047"/>
       <use xlink:href="#DejaVuSans-32" x="127.246094"/>
       <use xlink:href="#DejaVuSans-32" x="190.869141"/>
       <use xlink:href="#DejaVuSans-2d" x="254.492188"/>
       <use xlink:href="#DejaVuSans-30" x="290.576172"/>
       <use xlink:href="#DejaVuSans-31" x="354.199219"/>
      </g>
     </g>
    </g>
    <g id="xtick_3">
     <g id="line2d_5">
      <path d="M 288.088475 320.4 
L 288.088475 43.2 
" clip-path="url(#p346db6ccb6)" style="fill: none; stroke-dasharray: 5.12,1.28,0.8,1.28; stroke-dashoffset: 0; stroke: #b0b0b0; stroke-width: 0.8"/>
     </g>
     <g id="line2d_6">
      <g>
       <use xlink:href="#m06e0263da1" x="288.088475" y="320.4" style="fill: #a9a9a9; stroke: #a9a9a9; stroke-width: 0.8"/>
      </g>
     </g>
     <g id="text_3">
      <!-- 2022-05 -->
      <g style="fill: #a9a9a9" transform="translate(267.197069 334.998438) scale(0.1 -0.1)">
       <defs>
        <path id="DejaVuSans-35" d="M 691 4666 
L 3169 4666 
L 3169 4134 
L 1269 4134 
L 1269 2991 
Q 1406 3038 1543 3061 
Q 1681 3084 1819 3084 
Q 2600 3084 3056 2656 
Q 3513 2228 3513 1497 
Q 3513 744 3044 326 
Q 2575 -91 1722 -91 
Q 1428 -91 1123 -41 
Q 819 9 494 109 
L 494 744 
Q 775 591 1075 516 
Q 1375 441 1709 441 
Q 2250 441 2565 725 
Q 2881 1009 2881 1497 
Q 2881 1984 2565 2268 
Q 2250 2553 1709 2553 
Q 1456 2553 1204 2497 
Q 953 2441 691 2322 
L 691 4666 
z
" transform="scale(0.015625)"/>
       </defs>
       <use xlink:href="#DejaVuSans-32"/>
       <use xlink:href="#DejaVuSans-30" x="63.623047"/>
       <use xlink:href="#DejaVuSans-32" x="127.246094"/>
       <use xlink:href="#DejaVuSans-32" x="190.869141"/>
       <use xlink:href="#DejaVuSans-2d" x="254.492188"/>
       <use xlink:href="#DejaVuSans-30" x="290.576172"/>
       <use xlink:href="#DejaVuSans-35" x="354.199219"/>
      </g>
     </g>
    </g>
    <g id="xtick_4">
     <g id="line2d_7">
      <path d="M 353.59456 320.4 
L 353.59456 43.2 
" clip-path="url(#p346db6ccb6)" style="fill: none; stroke-dasharray: 5.12,1.28,0.8,1.28; stroke-dashoffset: 0; stroke: #b0b0b0; stroke-width: 0.8"/>
     </g>
     <g id="line2d_8">
      <g>
       <use xlink:href="#m06e0263da1" x="353.59456" y="320.4" style="fill: #a9a9a9; stroke: #a9a9a9; stroke-width: 0.8"/>
      </g>
     </g>
     <g id="text_4">
      <!-- 2022-09 -->
      <g style="fill: #a9a9a9" transform="translate(332.703154 334.998438) scale(0.1 -0.1)">
       <use xlink:href="#DejaVuSans-32"/>
       <use xlink:href="#DejaVuSans-30" x="63.623047"/>
       <use xlink:href="#DejaVuSans-32" x="127.246094"/>
       <use xlink:href="#DejaVuSans-32" x="190.869141"/>
       <use xlink:href="#DejaVuSans-2d" x="254.492188"/>
       <use xlink:href="#DejaVuSans-30" x="290.576172"/>
       <use xlink:href="#DejaVuSans-39" x="354.199219"/>
      </g>
     </g>
    </g>
    <g id="xtick_5">
     <g id="line2d_9">
      <path d="M 418.568074 320.4 
L 418.568074 43.2 
" clip-path="url(#p346db6ccb6)" style="fill: none; stroke-dasharray: 5.12,1.28,0.8,1.28; stroke-dashoffset: 0; stroke: #b0b0b0; stroke-width: 0.8"/>
     </g>
     <g id="line2d_10">
      <g>
       <use xlink:href="#m06e0263da1" x="418.568074" y="320.4" style="fill: #a9a9a9; stroke: #a9a9a9; stroke-width: 0.8"/>
      </g>
     </g>
     <g id="text_5">
      <!-- 2023-01 -->
      <g style="fill: #a9a9a9" transform="translate(397.676668 334.998438) scale(0.1 -0.1)">
       <defs>
        <path id="DejaVuSans-33" d="M 2597 2516 
Q 3050 2419 3304 2112 
Q 3559 1806 3559 1356 
Q 3559 666 3084 287 
Q 2609 -91 1734 -91 
Q 1441 -91 1130 -33 
Q 819 25 488 141 
L 488 750 
Q 750 597 1062 519 
Q 1375 441 1716 441 
Q 2309 441 2620 675 
Q 2931 909 2931 1356 
Q 2931 1769 2642 2001 
Q 2353 2234 1838 2234 
L 1294 2234 
L 1294 2753 
L 1863 2753 
Q 2328 2753 2575 2939 
Q 2822 3125 2822 3475 
Q 2822 3834 2567 4026 
Q 2313 4219 1838 4219 
Q 1578 4219 1281 4162 
Q 984 4106 628 3988 
L 628 4550 
Q 988 4650 1302 4700 
Q 1616 4750 1894 4750 
Q 2613 4750 3031 4423 
Q 3450 4097 3450 3541 
Q 3450 3153 3228 2886 
Q 3006 2619 2597 2516 
z
" transform="scale(0.015625)"/>
       </defs>
       <use xlink:href="#DejaVuSans-32"/>
       <use xlink:href="#DejaVuSans-30" x="63.623047"/>
       <use xlink:href="#DejaVuSans-32" x="127.246094"/>
       <use xlink:href="#DejaVuSans-33" x="190.869141"/>
       <use xlink:href="#DejaVuSans-2d" x="254.492188"/>
       <use xlink:href="#DejaVuSans-30" x="290.576172"/>
       <use xlink:href="#DejaVuSans-31" x="354.199219"/>
      </g>
     </g>
    </g>
    <g id="xtick_6">
     <g id="line2d_11">
      <path d="M 482.47645 320.4 
L 482.47645 43.2 
" clip-path="url(#p346db6ccb6)" style="fill: none; stroke-dasharray: 5.12,1.28,0.8,1.28; stroke-dashoffset: 0; stroke: #b0b0b0; stroke-width: 0.8"/>
     </g>
     <g id="line2d_12">
      <g>
       <use xlink:href="#m06e0263da1" x="482.47645" y="320.4" style="fill: #a9a9a9; stroke: #a9a9a9; stroke-width: 0.8"/>
      </g>
     </g>
     <g id="text_6">
      <!-- 2023-05 -->
      <g style="fill: #a9a9a9" transform="translate(461.585043 334.998438) scale(0.1 -0.1)">
       <use xlink:href="#DejaVuSans-32"/>
       <use xlink:href="#DejaVuSans-30" x="63.623047"/>
       <use xlink:href="#DejaVuSans-32" x="127.246094"/>
       <use xlink:href="#DejaVuSans-33" x="190.869141"/>
       <use xlink:href="#DejaVuSans-2d" x="254.492188"/>
       <use xlink:href="#DejaVuSans-30" x="290.576172"/>
       <use xlink:href="#DejaVuSans-35" x="354.199219"/>
      </g>
     </g>
    </g>
    <g id="xtick_7">
     <g id="line2d_13">
      <path d="M 547.982534 320.4 
L 547.982534 43.2 
" clip-path="url(#p346db6ccb6)" style="fill: none; stroke-dasharray: 5.12,1.28,0.8,1.28; stroke-dashoffset: 0; stroke: #b0b0b0; stroke-width: 0.8"/>
     </g>
     <g id="line2d_14">
      <g>
       <use xlink:href="#m06e0263da1" x="547.982534" y="320.4" style="fill: #a9a9a9; stroke: #a9a9a9; stroke-width: 0.8"/>
      </g>
     </g>
     <g id="text_7">
      <!-- 2023-09 -->
      <g style="fill: #a9a9a9" transform="translate(527.091128 334.998438) scale(0.1 -0.1)">
       <use xlink:href="#DejaVuSans-32"/>
       <use xlink:href="#DejaVuSans-30" x="63.623047"/>
       <use xlink:href="#DejaVuSans-32" x="127.246094"/>
       <use xlink:href="#DejaVuSans-33" x="190.869141"/>
       <use xlink:href="#DejaVuSans-2d" x="254.492188"/>
       <use xlink:href="#DejaVuSans-30" x="290.576172"/>
       <use xlink:href="#DejaVuSans-39" x="354.199219"/>
      </g>
     </g>
    </g>
    <g id="xtick_8">
     <g id="line2d_15">
      <path d="M 612.956049 320.4 
L 612.956049 43.2 
" clip-path="url(#p346db6ccb6)" style="fill: none; stroke-dasharray: 5.12,1.28,0.8,1.28; stroke-dashoffset: 0; stroke: #b0b0b0; stroke-width: 0.8"/>
     </g>
     <g id="line2d_16">
      <g>
       <use xlink:href="#m06e0263da1" x="612.956049" y="320.4" style="fill: #a9a9a9; stroke: #a9a9a9; stroke-width: 0.8"/>
      </g>
     </g>
     <g id="text_8">
      <!-- 2024-01 -->
      <g style="fill: #a9a9a9" transform="translate(592.064642 334.998438) scale(0.1 -0.1)">
       <defs>
        <path id="DejaVuSans-34" d="M 2419 4116 
L 825 1625 
L 2419 1625 
L 2419 4116 
z
M 2253 4666 
L 3047 4666 
L 3047 1625 
L 3713 1625 
L 3713 1100 
L 3047 1100 
L 3047 0 
L 2419 0 
L 2419 1100 
L 313 1100 
L 313 1709 
L 2253 4666 
z
" transform="scale(0.015625)"/>
       </defs>
       <use xlink:href="#DejaVuSans-32"/>
       <use xlink:href="#DejaVuSans-30" x="63.623047"/>
       <use xlink:href="#DejaVuSans-32" x="127.246094"/>
       <use xlink:href="#DejaVuSans-34" x="190.869141"/>
       <use xlink:href="#DejaVuSans-2d" x="254.492188"/>
       <use xlink:href="#DejaVuSans-30" x="290.576172"/>
       <use xlink:href="#DejaVuSans-31" x="354.199219"/>
      </g>
     </g>
    </g>
    <g id="xtick_9">
     <g id="line2d_17">
      <path d="M 677.396994 320.4 
L 677.396994 43.2 
" clip-path="url(#p346db6ccb6)" style="fill: none; stroke-dasharray: 5.12,1.28,0.8,1.28; stroke-dashoffset: 0; stroke: #b0b0b0; stroke-width: 0.8"/>
     </g>
     <g id="line2d_18">
      <g>
       <use xlink:href="#m06e0263da1" x="677.396994" y="320.4" style="fill: #a9a9a9; stroke: #a9a9a9; stroke-width: 0.8"/>
      </g>
     </g>
     <g id="text_9">
      <!-- 2024-05 -->
      <g style="fill: #a9a9a9" transform="translate(656.505587 334.998438) scale(0.1 -0.1)">
       <use xlink:href="#DejaVuSans-32"/>
       <use xlink:href="#DejaVuSans-30" x="63.623047"/>
       <use xlink:href="#DejaVuSans-32" x="127.246094"/>
       <use xlink:href="#DejaVuSans-34" x="190.869141"/>
       <use xlink:href="#DejaVuSans-2d" x="254.492188"/>
       <use xlink:href="#DejaVuSans-30" x="290.576172"/>
       <use xlink:href="#DejaVuSans-35" x="354.199219"/>
      </g>
     </g>
    </g>
    <g id="xtick_10">
     <g id="line2d_19">
      <path d="M 742.903078 320.4 
L 742.903078 43.2 
" clip-path="url(#p346db6ccb6)" style="fill: none; stroke-dasharray: 5.12,1.28,0.8,1.28; stroke-dashoffset: 0; stroke: #b0b0b0; stroke-width: 0.8"/>
     </g>
     <g id="line2d_20">
      <g>
       <use xlink:href="#m06e0263da1" x="742.903078" y="320.4" style="fill: #a9a9a9; stroke: #a9a9a9; stroke-width: 0.8"/>
      </g>
     </g>
     <g id="text_10">
      <!-- 2024-09 -->
      <g style="fill: #a9a9a9" transform="translate(722.011672 334.998438) scale(0.1 -0.1)">
       <use xlink:href="#DejaVuSans-32"/>
       <use xlink:href="#DejaVuSans-30" x="63.623047"/>
       <use xlink:href="#DejaVuSans-32" x="127.246094"/>
       <use xlink:href="#DejaVuSans-34" x="190.869141"/>
       <use xlink:href="#DejaVuSans-2d" x="254.492188"/>
       <use xlink:href="#DejaVuSans-30" x="290.576172"/>
       <use xlink:href="#DejaVuSans-39" x="354.199219"/>
      </g>
     </g>
    </g>
   </g>
   <g id="matplotlib.axis_2">
    <g id="ytick_1">
     <g id="line2d_21">
      <path d="M 108 307.837975 
L 777.6 307.837975 
" clip-path="url(#p346db6ccb6)" style="fill: none; stroke-dasharray: 5.12,1.28,0.8,1.28; stroke-dashoffset: 0; stroke: #b0b0b0; stroke-width: 0.8"/>
     </g>
     <g id="line2d_22">
      <defs>
       <path id="me7c1f25a48" d="M 0 0 
L -3.5 0 
" style="stroke: #a9a9a9; stroke-width: 0.8"/>
      </defs>
      <g>
       <use xlink:href="#me7c1f25a48" x="108" y="307.837975" style="fill: #a9a9a9; stroke: #a9a9a9; stroke-width: 0.8"/>
      </g>
     </g>
     <g id="text_11">
      <!-- 0 -->
      <g style="fill: #a9a9a9" transform="translate(94.6375 311.637193) scale(0.1 -0.1)">
       <use xlink:href="#DejaVuSans-30"/>
      </g>
     </g>
    </g>
    <g id="ytick_2">
     <g id="line2d_23">
      <path d="M 108 277.458228 
L 777.6 277.458228 
" clip-path="url(#p346db6ccb6)" style="fill: none; stroke-dasharray: 5.12,1.28,0.8,1.28; stroke-dashoffset: 0; stroke: #b0b0b0; stroke-width: 0.8"/>
     </g>
     <g id="line2d_24">
      <g>
       <use xlink:href="#me7c1f25a48" x="108" y="277.458228" style="fill: #a9a9a9; stroke: #a9a9a9; stroke-width: 0.8"/>
      </g>
     </g>
     <g id="text_12">
      <!-- 800 -->
      <g style="fill: #a9a9a9" transform="translate(81.9125 281.257447) scale(0.1 -0.1)">
       <defs>
        <path id="DejaVuSans-38" d="M 2034 2216 
Q 1584 2216 1326 1975 
Q 1069 1734 1069 1313 
Q 1069 891 1326 650 
Q 1584 409 2034 409 
Q 2484 409 2743 651 
Q 3003 894 3003 1313 
Q 3003 1734 2745 1975 
Q 2488 2216 2034 2216 
z
M 1403 2484 
Q 997 2584 770 2862 
Q 544 3141 544 3541 
Q 544 4100 942 4425 
Q 1341 4750 2034 4750 
Q 2731 4750 3128 4425 
Q 3525 4100 3525 3541 
Q 3525 3141 3298 2862 
Q 3072 2584 2669 2484 
Q 3125 2378 3379 2068 
Q 3634 1759 3634 1313 
Q 3634 634 3220 271 
Q 2806 -91 2034 -91 
Q 1263 -91 848 271 
Q 434 634 434 1313 
Q 434 1759 690 2068 
Q 947 2378 1403 2484 
z
M 1172 3481 
Q 1172 3119 1398 2916 
Q 1625 2713 2034 2713 
Q 2441 2713 2670 2916 
Q 2900 3119 2900 3481 
Q 2900 3844 2670 4047 
Q 2441 4250 2034 4250 
Q 1625 4250 1398 4047 
Q 1172 3844 1172 3481 
z
" transform="scale(0.015625)"/>
       </defs>
       <use xlink:href="#DejaVuSans-38"/>
       <use xlink:href="#DejaVuSans-30" x="63.623047"/>
       <use xlink:href="#DejaVuSans-30" x="127.246094"/>
      </g>
     </g>
    </g>
    <g id="ytick_3">
     <g id="line2d_25">
      <path d="M 108 247.078481 
L 777.6 247.078481 
" clip-path="url(#p346db6ccb6)" style="fill: none; stroke-dasharray: 5.12,1.28,0.8,1.28; stroke-dashoffset: 0; stroke: #b0b0b0; stroke-width: 0.8"/>
     </g>
     <g id="line2d_26">
      <g>
       <use xlink:href="#me7c1f25a48" x="108" y="247.078481" style="fill: #a9a9a9; stroke: #a9a9a9; stroke-width: 0.8"/>
      </g>
     </g>
     <g id="text_13">
      <!-- 1600 -->
      <g style="fill: #a9a9a9" transform="translate(75.55 250.8777) scale(0.1 -0.1)">
       <defs>
        <path id="DejaVuSans-36" d="M 2113 2584 
Q 1688 2584 1439 2293 
Q 1191 2003 1191 1497 
Q 1191 994 1439 701 
Q 1688 409 2113 409 
Q 2538 409 2786 701 
Q 3034 994 3034 1497 
Q 3034 2003 2786 2293 
Q 2538 2584 2113 2584 
z
M 3366 4563 
L 3366 3988 
Q 3128 4100 2886 4159 
Q 2644 4219 2406 4219 
Q 1781 4219 1451 3797 
Q 1122 3375 1075 2522 
Q 1259 2794 1537 2939 
Q 1816 3084 2150 3084 
Q 2853 3084 3261 2657 
Q 3669 2231 3669 1497 
Q 3669 778 3244 343 
Q 2819 -91 2113 -91 
Q 1303 -91 875 529 
Q 447 1150 447 2328 
Q 447 3434 972 4092 
Q 1497 4750 2381 4750 
Q 2619 4750 2861 4703 
Q 3103 4656 3366 4563 
z
" transform="scale(0.015625)"/>
       </defs>
       <use xlink:href="#DejaVuSans-31"/>
       <use xlink:href="#DejaVuSans-36" x="63.623047"/>
       <use xlink:href="#DejaVuSans-30" x="127.246094"/>
       <use xlink:href="#DejaVuSans-30" x="190.869141"/>
      </g>
     </g>
    </g>
    <g id="ytick_4">
     <g id="line2d_27">
      <path d="M 108 216.698734 
L 777.6 216.698734 
" clip-path="url(#p346db6ccb6)" style="fill: none; stroke-dasharray: 5.12,1.28,0.8,1.28; stroke-dashoffset: 0; stroke: #b0b0b0; stroke-width: 0.8"/>
     </g>
     <g id="line2d_28">
      <g>
       <use xlink:href="#me7c1f25a48" x="108" y="216.698734" style="fill: #a9a9a9; stroke: #a9a9a9; stroke-width: 0.8"/>
      </g>
     </g>
     <g id="text_14">
      <!-- 2400 -->
      <g style="fill: #a9a9a9" transform="translate(75.55 220.497953) scale(0.1 -0.1)">
       <use xlink:href="#DejaVuSans-32"/>
       <use xlink:href="#DejaVuSans-34" x="63.623047"/>
       <use xlink:href="#DejaVuSans-30" x="127.246094"/>
       <use xlink:href="#DejaVuSans-30" x="190.869141"/>
      </g>
     </g>
    </g>
    <g id="ytick_5">
     <g id="line2d_29">
      <path d="M 108 186.318987 
L 777.6 186.318987 
" clip-path="url(#p346db6ccb6)" style="fill: none; stroke-dasharray: 5.12,1.28,0.8,1.28; stroke-dashoffset: 0; stroke: #b0b0b0; stroke-width: 0.8"/>
     </g>
     <g id="line2d_30">
      <g>
       <use xlink:href="#me7c1f25a48" x="108" y="186.318987" style="fill: #a9a9a9; stroke: #a9a9a9; stroke-width: 0.8"/>
      </g>
     </g>
     <g id="text_15">
      <!-- 3200 -->
      <g style="fill: #a9a9a9" transform="translate(75.55 190.118206) scale(0.1 -0.1)">
       <use xlink:href="#DejaVuSans-33"/>
       <use xlink:href="#DejaVuSans-32" x="63.623047"/>
       <use xlink:href="#DejaVuSans-30" x="127.246094"/>
       <use xlink:href="#DejaVuSans-30" x="190.869141"/>
      </g>
     </g>
    </g>
    <g id="ytick_6">
     <g id="line2d_31">
      <path d="M 108 155.939241 
L 777.6 155.939241 
" clip-path="url(#p346db6ccb6)" style="fill: none; stroke-dasharray: 5.12,1.28,0.8,1.28; stroke-dashoffset: 0; stroke: #b0b0b0; stroke-width: 0.8"/>
     </g>
     <g id="line2d_32">
      <g>
       <use xlink:href="#me7c1f25a48" x="108" y="155.939241" style="fill: #a9a9a9; stroke: #a9a9a9; stroke-width: 0.8"/>
      </g>
     </g>
     <g id="text_16">
      <!-- 4000 -->
      <g style="fill: #a9a9a9" transform="translate(75.55 159.738459) scale(0.1 -0.1)">
       <use xlink:href="#DejaVuSans-34"/>
       <use xlink:href="#DejaVuSans-30" x="63.623047"/>
       <use xlink:href="#DejaVuSans-30" x="127.246094"/>
       <use xlink:href="#DejaVuSans-30" x="190.869141"/>
      </g>
     </g>
    </g>
    <g id="ytick_7">
     <g id="line2d_33">
      <path d="M 108 125.559494 
L 777.6 125.559494 
" clip-path="url(#p346db6ccb6)" style="fill: none; stroke-dasharray: 5.12,1.28,0.8,1.28; stroke-dashoffset: 0; stroke: #b0b0b0; stroke-width: 0.8"/>
     </g>
     <g id="line2d_34">
      <g>
       <use xlink:href="#me7c1f25a48" x="108" y="125.559494" style="fill: #a9a9a9; stroke: #a9a9a9; stroke-width: 0.8"/>
      </g>
     </g>
     <g id="text_17">
      <!-- 4800 -->
      <g style="fill: #a9a9a9" transform="translate(75.55 129.358712) scale(0.1 -0.1)">
       <use xlink:href="#DejaVuSans-34"/>
       <use xlink:href="#DejaVuSans-38" x="63.623047"/>
       <use xlink:href="#DejaVuSans-30" x="127.246094"/>
       <use xlink:href="#DejaVuSans-30" x="190.869141"/>
      </g>
     </g>
    </g>
    <g id="ytick_8">
     <g id="line2d_35">
      <path d="M 108 95.179747 
L 777.6 95.179747 
" clip-path="url(#p346db6ccb6)" style="fill: none; stroke-dasharray: 5.12,1.28,0.8,1.28; stroke-dashoffset: 0; stroke: #b0b0b0; stroke-width: 0.8"/>
     </g>
     <g id="line2d_36">
      <g>
       <use xlink:href="#me7c1f25a48" x="108" y="95.179747" style="fill: #a9a9a9; stroke: #a9a9a9; stroke-width: 0.8"/>
      </g>
     </g>
     <g id="text_18">
      <!-- 5600 -->
      <g style="fill: #a9a9a9" transform="translate(75.55 98.978966) scale(0.1 -0.1)">
       <use xlink:href="#DejaVuSans-35"/>
       <use xlink:href="#DejaVuSans-36" x="63.623047"/>
       <use xlink:href="#DejaVuSans-30" x="127.246094"/>
       <use xlink:href="#DejaVuSans-30" x="190.869141"/>
      </g>
     </g>
    </g>
    <g id="ytick_9">
     <g id="line2d_37">
      <path d="M 108 64.8 
L 777.6 64.8 
" clip-path="url(#p346db6ccb6)" style="fill: none; stroke-dasharray: 5.12,1.28,0.8,1.28; stroke-dashoffset: 0; stroke: #b0b0b0; stroke-width: 0.8"/>
     </g>
     <g id="line2d_38">
      <g>
       <use xlink:href="#me7c1f25a48" x="108" y="64.8" style="fill: #a9a9a9; stroke: #a9a9a9; stroke-width: 0.8"/>
      </g>
     </g>
     <g id="text_19">
      <!-- 6400 -->
      <g style="fill: #a9a9a9" transform="translate(75.55 68.599219) scale(0.1 -0.1)">
       <use xlink:href="#DejaVuSans-36"/>
       <use xlink:href="#DejaVuSans-34" x="63.623047"/>
       <use xlink:href="#DejaVuSans-30" x="127.246094"/>
       <use xlink:href="#DejaVuSans-30" x="190.869141"/>
      </g>
     </g>
    </g>
   </g>
   <g id="line2d_39">
    <path d="M 138.436364 307.724051 
L 141.631782 307.458228 
L 142.164352 307.23038 
L 143.762062 307.078481 
L 146.95748 306.432911 
L 150.152899 306.167089 
L 151.218039 305.749367 
L 151.750608 305.065823 
L 152.283178 304.686076 
L 152.815748 303.508861 
L 153.348318 303.432911 
L 153.880888 303.01519 
L 154.946027 302.483544 
L 157.076306 300.812658 
L 159.206586 299.787342 
L 160.804295 299.065823 
L 161.336865 298.23038 
L 162.402004 297.470886 
L 162.934574 297.243038 
L 168.260272 296.483544 
L 168.792842 296.255696 
L 172.52083 295.951899 
L 174.65111 295.458228 
L 178.911668 294.888608 
L 179.444238 294.58481 
L 179.976807 294.508861 
L 181.041947 294.167089 
L 184.769936 293.559494 
L 185.835075 293.255696 
L 187.432785 293.103797 
L 188.497924 292.989873 
L 191.160773 292.306329 
L 192.225913 292.23038 
L 193.291052 292.078481 
L 194.356192 291.850633 
L 194.888762 291.698734 
L 195.421331 290.977215 
L 197.019041 290.36962 
L 198.61675 289.951899 
L 199.14932 289.686076 
L 199.68189 289.648101 
L 202.344739 288.888608 
L 203.409878 288.812658 
L 203.942448 288.736709 
L 205.540157 288.243038 
L 207.670437 287.711392 
L 208.203006 287.483544 
L 208.735576 287.407595 
L 209.268146 287.141772 
L 214.593844 286.344304 
L 217.256693 285.58481 
L 217.789263 285.243038 
L 220.452112 284.36962 
L 221.517251 283.648101 
L 223.114961 283.344304 
L 233.233787 280.420253 
L 234.298926 280.002532 
L 235.364066 279.926582 
L 236.961775 279.470886 
L 237.494345 279.470886 
L 238.026915 279.243038 
L 239.092054 279.129114 
L 239.624624 278.939241 
L 240.689764 278.901266 
L 242.820043 278.635443 
L 243.885183 278.103797 
L 250.27602 275.255696 
L 250.80859 274.686076 
L 251.873729 273.091139 
L 252.406299 272.939241 
L 252.938869 272.939241 
L 254.004009 272.141772 
L 255.601718 271.610127 
L 256.134288 271.116456 
L 257.199427 270.698734 
L 258.264567 270.205063 
L 259.329707 268.686076 
L 259.862276 268.344304 
L 260.394846 267.432911 
L 260.927416 266.863291 
L 264.122835 265.23038 
L 265.187974 264.394937 
L 265.720544 264.053165 
L 266.253114 263.255696 
L 266.785684 262.078481 
L 267.318253 261.281013 
L 267.850823 260.863291 
L 268.383393 260.635443 
L 269.981102 259.23038 
L 272.111382 257.483544 
L 272.643951 256.762025 
L 273.709091 255.812658 
L 275.83937 254.407595 
L 276.37194 253.951899 
L 276.90451 253.837975 
L 277.969649 253.268354 
L 280.099928 252.167089 
L 281.165068 251.141772 
L 281.697638 250.496203 
L 282.762777 249.736709 
L 283.827917 249.318987 
L 284.893057 248.597468 
L 285.425626 248.293671 
L 285.958196 248.217722 
L 289.686185 245.901266 
L 291.816464 244.762025 
L 292.349034 244.268354 
L 300.87015 241.306329 
L 301.93529 240.356962 
L 303.000429 239.863291 
L 304.065569 239.293671 
L 304.598139 238.989873 
L 305.663278 238.686076 
L 306.195848 238.344304 
L 306.728418 238.192405 
L 308.326127 237.167089 
L 310.988976 236.559494 
L 312.586686 235.648101 
L 313.119256 235.572152 
L 314.184395 235.306329 
L 314.716965 235.15443 
L 316.314674 233.939241 
L 317.912384 233.559494 
L 318.444953 233.36962 
L 318.977523 232.951899 
L 322.172942 231.888608 
L 322.705512 231.850633 
L 323.770651 231.432911 
L 328.03121 229.913924 
L 329.096349 229.762025 
L 330.694059 229.23038 
L 333.356908 227.977215 
L 335.487187 226.837975 
L 339.747745 225.129114 
L 340.280315 225.053165 
L 341.345455 224.407595 
L 341.878024 224.331646 
L 344.008304 223.458228 
L 346.138583 223.15443 
L 347.203722 222.622785 
L 347.736292 222.167089 
L 348.268862 221.217722 
L 349.866571 220.913924 
L 351.99685 219.850633 
L 352.52942 219.736709 
L 356.789979 217.724051 
L 358.387688 217.382278 
L 359.452827 216.850633 
L 359.985397 216.622785 
L 360.517967 216.546835 
L 362.648246 215.597468 
L 364.245956 214.610127 
L 364.778525 214.534177 
L 365.311095 214.344304 
L 365.843665 214.306329 
L 368.506514 213.660759 
L 369.039084 213.243038 
L 370.636793 212.673418 
L 372.767072 211.837975 
L 373.299642 211.458228 
L 373.832212 211.268354 
L 374.897351 210.698734 
L 377.5602 209.825316 
L 379.15791 208.572152 
L 379.69048 208.458228 
L 380.755619 207.622785 
L 381.288189 207.546835 
L 381.820759 206.711392 
L 382.353329 206.483544 
L 382.885898 206.065823 
L 383.418468 205.989873 
L 384.483608 205.344304 
L 385.016178 205.23038 
L 385.548747 205.002532 
L 386.081317 204.58481 
L 386.613887 204.394937 
L 388.211596 203.293671 
L 390.341875 202.192405 
L 390.874445 202.116456 
L 392.472155 201.318987 
L 393.004724 200.44557 
L 393.537294 199.989873 
L 394.069864 199.686076 
L 394.602434 199.572152 
L 395.667573 198.888608 
L 396.200143 198.774684 
L 397.265283 198.243038 
L 398.862992 197.559494 
L 399.928132 196.8 
L 401.525841 195.356962 
L 402.590981 194.749367 
L 403.12355 194.179747 
L 405.25383 192.736709 
L 405.786399 192.129114 
L 406.318969 191.711392 
L 407.384109 191.331646 
L 408.449248 190.610127 
L 410.046958 189.812658 
L 410.579528 189.736709 
L 412.177237 188.901266 
L 413.242377 188.255696 
L 418.568074 186.356962 
L 419.100644 185.939241 
L 421.230923 185.141772 
L 421.763493 184.989873 
L 422.296063 184.572152 
L 424.958912 183.129114 
L 426.024052 181.040506 
L 427.089191 179.825316 
L 428.154331 179.179747 
L 429.75204 178.534177 
L 430.28461 178.458228 
L 430.81718 178.15443 
L 433.480029 177.318987 
L 434.012598 177.091139 
L 435.077738 176.36962 
L 436.675447 175.686076 
L 437.740587 175.116456 
L 438.273157 174.736709 
L 438.805727 174.508861 
L 439.338296 174.129114 
L 439.870866 173.559494 
L 440.936006 172.989873 
L 443.598855 171.58481 
L 446.794273 170.027848 
L 447.326843 169.913924 
L 448.924553 169.344304 
L 449.989692 168.926582 
L 450.522262 168.546835 
L 451.587402 168.243038 
L 452.652541 167.825316 
L 453.185111 167.407595 
L 454.250251 167.065823 
L 457.445669 165.432911 
L 458.510809 164.597468 
L 459.575948 164.217722 
L 460.108518 163.762025 
L 460.641088 163.686076 
L 461.706228 162.888608 
L 462.771367 162.356962 
L 463.303937 162.129114 
L 463.836507 161.597468 
L 467.564495 160.15443 
L 468.629635 159.698734 
L 470.227344 159.205063 
L 471.292484 159.053165 
L 471.825054 158.825316 
L 472.357623 158.749367 
L 473.422763 158.293671 
L 473.955333 158.255696 
L 476.085612 157.458228 
L 477.683321 156.356962 
L 480.34617 155.103797 
L 483.009019 153.660759 
L 483.541589 153.546835 
L 485.139298 152.635443 
L 486.737008 152.103797 
L 487.802147 151.762025 
L 489.932427 151.078481 
L 490.997566 150.736709 
L 492.595276 150.470886 
L 494.725555 149.787342 
L 495.258125 149.559494 
L 495.790694 149.483544 
L 496.323264 149.217722 
L 497.388404 149.027848 
L 498.986113 148.458228 
L 500.051253 148.344304 
L 501.648962 148.002532 
L 502.714102 147.812658 
L 503.779241 147.622785 
L 504.844381 147.394937 
L 505.376951 147.281013 
L 505.90952 147.053165 
L 506.44209 147.01519 
L 509.104939 146.141772 
L 509.637509 145.951899 
L 510.170079 145.951899 
L 516.028346 144.243038 
L 516.560916 143.977215 
L 517.093486 143.977215 
L 518.158626 143.597468 
L 518.691195 143.065823 
L 519.756335 142.648101 
L 522.951754 141.508861 
L 523.484324 141.167089 
L 524.016893 141.053165 
L 524.549463 140.749367 
L 525.614603 140.559494 
L 526.679742 140.141772 
L 527.212312 140.027848 
L 527.744882 139.686076 
L 528.277452 139.572152 
L 528.810021 139.116456 
L 530.407731 138.812658 
L 531.47287 138.318987 
L 532.00544 137.749367 
L 534.135719 137.255696 
L 537.863708 136.496203 
L 538.396278 136.496203 
L 538.928848 136.268354 
L 541.059127 135.888608 
L 541.591696 135.660759 
L 543.721976 135.281013 
L 544.787115 134.825316 
L 545.319685 134.787342 
L 554.373372 132.091139 
L 554.905941 131.863291 
L 555.438511 131.483544 
L 556.503651 131.179747 
L 557.56879 130.837975 
L 558.63393 130.420253 
L 560.231639 129.736709 
L 561.829349 129.622785 
L 563.959628 129.01519 
L 564.492198 128.673418 
L 565.557337 128.36962 
L 568.220186 127.192405 
L 568.752756 127.15443 
L 574.611024 125.141772 
L 576.741303 124.610127 
L 577.806442 124.192405 
L 578.339012 123.964557 
L 579.404152 123.736709 
L 579.936722 123.622785 
L 580.469291 123.205063 
L 581.001861 122.939241 
L 581.534431 122.293671 
L 582.067001 121.913924 
L 583.13214 121.610127 
L 583.66471 121.192405 
L 586.327559 120.091139 
L 586.860129 119.977215 
L 587.392699 119.635443 
L 588.457838 119.331646 
L 588.990408 118.989873 
L 591.653257 118.116456 
L 593.250966 117.205063 
L 593.783536 117.091139 
L 594.848676 116.483544 
L 595.381246 116.255696 
L 596.446385 115.610127 
L 598.044094 114.850633 
L 598.576664 114.470886 
L 599.641804 114.129114 
L 600.706943 113.521519 
L 601.239513 113.331646 
L 601.772083 112.951899 
L 608.69549 110.559494 
L 609.22806 110.44557 
L 609.76063 110.103797 
L 610.2932 110.027848 
L 611.358339 109.762025 
L 612.423479 109.534177 
L 616.151467 107.711392 
L 616.684037 107.635443 
L 618.281747 106.762025 
L 621.477165 105.508861 
L 623.607445 104.673418 
L 624.140014 104.521519 
L 624.672584 104.179747 
L 625.737724 104.027848 
L 626.270293 103.686076 
L 626.802863 103.648101 
L 627.868003 103.306329 
L 628.933142 102.774684 
L 629.465712 102.698734 
L 632.128561 101.635443 
L 632.661131 101.521519 
L 633.726271 101.179747 
L 634.79141 100.913924 
L 635.85655 100.648101 
L 637.454259 100.040506 
L 639.584538 98.863291 
L 640.649678 98.44557 
L 641.182248 98.103797 
L 642.247387 97.875949 
L 642.779957 97.572152 
L 643.312527 97.458228 
L 644.910236 96.622785 
L 645.975376 96.205063 
L 647.573085 95.483544 
L 649.170795 95.065823 
L 652.366213 93.812658 
L 653.963923 93.281013 
L 661.95247 89.863291 
L 662.485039 89.787342 
L 664.615319 88.951899 
L 666.213028 88.078481 
L 666.745598 87.964557 
L 667.810737 87.546835 
L 668.343307 87.546835 
L 669.408447 87.091139 
L 670.473586 86.141772 
L 671.006156 85.686076 
L 672.603865 84.926582 
L 673.136435 84.812658 
L 673.669005 84.546835 
L 674.201575 84.470886 
L 674.734145 84.091139 
L 675.266714 83.977215 
L 676.331854 83.331646 
L 677.929563 82.534177 
L 678.994703 82.116456 
L 679.527273 81.850633 
L 681.124982 81.470886 
L 683.787831 80.597468 
L 684.320401 80.483544 
L 686.45068 79.458228 
L 687.51582 78.964557 
L 688.580959 78.698734 
L 692.308948 76.951899 
L 694.971797 76.002532 
L 696.569506 75.053165 
L 697.102076 74.939241 
L 698.167215 74.407595 
L 699.232355 74.027848 
L 699.764925 73.572152 
L 700.297495 73.268354 
L 701.895204 72.774684 
L 702.960344 72.053165 
L 703.492913 72.01519 
L 704.558053 71.711392 
L 705.090623 71.597468 
L 707.220902 70.8 
L 708.818611 70.306329 
L 709.351181 70.23038 
L 710.416321 69.660759 
L 710.94889 69.470886 
L 711.48146 69.053165 
L 713.07917 68.635443 
L 713.611739 68.331646 
L 714.676879 68.065823 
L 716.274588 67.192405 
L 716.807158 67.15443 
L 718.404868 66.660759 
L 719.470007 66.546835 
L 720.535147 66.129114 
L 723.730565 65.217722 
L 724.795705 65.179747 
L 727.991124 64.15443 
L 728.523694 64.078481 
L 730.121403 63.243038 
L 730.653973 62.787342 
L 731.719112 62.141772 
L 733.316822 61.116456 
L 736.512241 59.977215 
L 737.04481 59.559494 
L 738.64252 58.837975 
L 739.175089 58.724051 
L 740.240229 58.23038 
L 741.837938 57.812658 
L 743.435648 57.129114 
L 744.500787 56.635443 
L 746.098497 55.989873 
L 747.163636 55.8 
L 747.163636 55.8 
" clip-path="url(#p346db6ccb6)" style="fill: none; stroke: #1f77b4; stroke-width: 1.5; stroke-linecap: square"/>
   </g>
   <g id="line2d_40">
    <path d="M 138.968933 307.8 
L 140.566643 307.724051 
L 142.164352 307.686076 
L 145.359771 307.610127 
L 148.02262 307.496203 
L 150.152899 307.496203 
L 150.685469 307.344304 
L 152.815748 307.268354 
L 154.413457 307.078481 
L 156.011167 306.926582 
L 159.206586 306.774684 
L 159.739155 306.774684 
L 160.271725 306.660759 
L 162.402004 306.58481 
L 163.467144 306.508861 
L 167.727702 306.432911 
L 170.390551 306.318987 
L 176.781389 306.243038 
L 179.444238 306.129114 
L 182.639656 306.053165 
L 184.769936 305.977215 
L 189.563064 305.901266 
L 191.160773 305.863291 
L 192.758482 305.825316 
L 194.356192 305.635443 
L 197.551611 305.597468 
L 198.61675 305.521519 
L 202.344739 305.44557 
L 208.203006 305.103797 
L 211.930995 305.027848 
L 212.996135 304.951899 
L 214.593844 304.875949 
L 217.789263 304.724051 
L 219.919542 304.686076 
L 221.517251 304.534177 
L 228.440659 304.116456 
L 231.103508 304.040506 
L 235.896636 303.774684 
L 237.494345 303.698734 
L 242.820043 303.394937 
L 248.678311 303.318987 
L 250.80859 303.091139 
L 251.873729 303.01519 
L 258.797137 302.44557 
L 261.992555 302.027848 
L 264.122835 301.951899 
L 268.383393 301.382278 
L 271.578812 301.306329 
L 273.176521 301.15443 
L 274.241661 301.116456 
L 275.3068 301.002532 
L 276.90451 300.926582 
L 277.969649 300.774684 
L 280.632498 300.470886 
L 282.762777 300.394937 
L 283.827917 300.318987 
L 285.958196 300.243038 
L 287.023336 300.167089 
L 289.686185 299.901266 
L 290.751324 299.711392 
L 292.349034 299.673418 
L 293.414173 299.597468 
L 296.077022 299.521519 
L 303.000429 299.103797 
L 304.598139 299.027848 
L 311.521546 298.610127 
L 315.249535 298.534177 
L 315.782105 298.420253 
L 320.042663 298.344304 
L 323.770651 298.15443 
L 329.628919 298.078481 
L 333.356908 297.888608 
L 337.617466 297.812658 
L 341.878024 297.58481 
L 345.606013 297.508861 
L 355.724839 296.863291 
L 361.050537 296.787342 
L 363.180816 296.559494 
L 364.778525 296.521519 
L 366.376235 296.483544 
L 368.506514 296.255696 
L 373.832212 295.951899 
L 377.027631 295.875949 
L 378.62534 295.837975 
L 380.223049 295.8 
L 381.820759 295.648101 
L 386.081317 295.572152 
L 387.146457 295.420253 
L 388.211596 295.344304 
L 390.874445 295.23038 
L 391.939585 295.15443 
L 393.004724 295.078481 
L 397.797853 295.002532 
L 398.862992 294.888608 
L 400.993271 294.850633 
L 401.525841 294.736709 
L 402.590981 294.660759 
L 403.12355 294.546835 
L 404.72126 294.470886 
L 409.514388 294.205063 
L 410.579528 294.167089 
L 412.177237 294.01519 
L 413.774946 293.977215 
L 415.372656 293.901266 
L 418.035505 293.787342 
L 425.491482 293.711392 
L 429.21947 293.521519 
L 433.480029 293.44557 
L 435.610308 293.36962 
L 437.740587 293.331646 
L 438.805727 293.217722 
L 440.936006 293.141772 
L 446.261704 292.837975 
L 449.457122 292.8 
L 451.054832 292.648101 
L 452.652541 292.610127 
L 456.38053 292.534177 
L 458.510809 292.458228 
L 464.901646 292.382278 
L 467.564495 292.268354 
L 470.759914 292.192405 
L 472.357623 292.002532 
L 475.553042 291.964557 
L 477.150752 291.812658 
L 479.281031 291.736709 
L 485.671868 291.660759 
L 488.334717 291.546835 
L 497.388404 291.508861 
L 498.453543 291.432911 
L 500.051253 291.394937 
L 506.97466 291.318987 
L 508.0398 291.243038 
L 513.898067 291.167089 
L 516.028346 291.091139 
L 526.147173 291.01519 
L 527.744882 290.977215 
L 532.53801 290.901266 
L 533.60315 290.825316 
L 546.384825 290.749367 
L 547.982534 290.711392 
L 562.361918 290.635443 
L 563.959628 290.597468 
L 573.545884 290.521519 
L 574.611024 290.44557 
L 577.273873 290.36962 
L 578.871582 290.217722 
L 581.534431 290.141772 
L 584.72985 289.989873 
L 588.990408 289.913924 
L 590.055548 289.837975 
L 594.316106 289.762025 
L 597.511525 289.610127 
L 600.174374 289.534177 
L 604.434932 289.306329 
L 607.630351 289.23038 
L 609.76063 289.15443 
L 616.684037 289.078481 
L 618.814316 289.002532 
L 623.074875 288.926582 
L 626.802863 288.736709 
L 631.595991 288.660759 
L 632.661131 288.58481 
L 642.247387 288.508861 
L 643.845097 288.470886 
L 646.507946 288.432911 
L 648.638225 288.205063 
L 650.235934 288.167089 
L 653.431353 288.091139 
L 658.757051 287.787342 
L 661.4199 287.711392 
L 663.550179 287.635443 
L 669.408447 287.559494 
L 672.071296 287.255696 
L 674.201575 287.179747 
L 677.929563 287.103797 
L 678.462133 286.989873 
L 683.255261 286.913924 
L 685.91811 286.8 
L 692.841518 286.762025 
L 693.374087 286.648101 
L 697.634646 286.572152 
L 699.232355 286.534177 
L 701.895204 286.458228 
L 703.492913 286.420253 
L 712.5466 286.344304 
L 715.209449 286.23038 
L 722.665426 286.15443 
L 724.795705 286.078481 
L 730.653973 286.002532 
L 731.186543 285.888608 
L 736.512241 285.850633 
L 737.57738 285.774684 
L 740.240229 285.698734 
L 741.837938 285.660759 
L 747.163636 285.58481 
L 747.163636 285.58481 
" clip-path="url(#p346db6ccb6)" style="fill: none; stroke: #ff7f0e; stroke-width: 1.5; stroke-linecap: square"/>
   </g>
   <g id="patch_3">
    <path d="M 108 320.4 
L 108 43.2 
" style="fill: none; stroke: #a9a9a9; stroke-width: 0.8; stroke-linejoin: miter; stroke-linecap: square"/>
   </g>
   <g id="patch_4">
    <path d="M 777.6 320.4 
L 777.6 43.2 
" style="fill: none"/>
   </g>
   <g id="patch_5">
    <path d="M 108 320.4 
L 777.6 320.4 
" style="fill: none; stroke: #a9a9a9; stroke-width: 0.8; stroke-linejoin: miter; stroke-linecap: square"/>
   </g>
   <g id="patch_6">
    <path d="M 108 43.2 
L 777.6 43.2 
" style="fill: none"/>
   </g>
   <g id="text_20">
    <!-- get_subscribe history -->
    <g style="fill: #a9a9a9" transform="translate(378.6075 37.2) scale(0.12 -0.12)">
     <defs>
      <path id="DejaVuSans-67" d="M 2906 1791 
Q 2906 2416 2648 2759 
Q 2391 3103 1925 3103 
Q 1463 3103 1205 2759 
Q 947 2416 947 1791 
Q 947 1169 1205 825 
Q 1463 481 1925 481 
Q 2391 481 2648 825 
Q 2906 1169 2906 1791 
z
M 3481 434 
Q 3481 -459 3084 -895 
Q 2688 -1331 1869 -1331 
Q 1566 -1331 1297 -1286 
Q 1028 -1241 775 -1147 
L 775 -588 
Q 1028 -725 1275 -790 
Q 1522 -856 1778 -856 
Q 2344 -856 2625 -561 
Q 2906 -266 2906 331 
L 2906 616 
Q 2728 306 2450 153 
Q 2172 0 1784 0 
Q 1141 0 747 490 
Q 353 981 353 1791 
Q 353 2603 747 3093 
Q 1141 3584 1784 3584 
Q 2172 3584 2450 3431 
Q 2728 3278 2906 2969 
L 2906 3500 
L 3481 3500 
L 3481 434 
z
" transform="scale(0.015625)"/>
      <path id="DejaVuSans-65" d="M 3597 1894 
L 3597 1613 
L 953 1613 
Q 991 1019 1311 708 
Q 1631 397 2203 397 
Q 2534 397 2845 478 
Q 3156 559 3463 722 
L 3463 178 
Q 3153 47 2828 -22 
Q 2503 -91 2169 -91 
Q 1331 -91 842 396 
Q 353 884 353 1716 
Q 353 2575 817 3079 
Q 1281 3584 2069 3584 
Q 2775 3584 3186 3129 
Q 3597 2675 3597 1894 
z
M 3022 2063 
Q 3016 2534 2758 2815 
Q 2500 3097 2075 3097 
Q 1594 3097 1305 2825 
Q 1016 2553 972 2059 
L 3022 2063 
z
" transform="scale(0.015625)"/>
      <path id="DejaVuSans-74" d="M 1172 4494 
L 1172 3500 
L 2356 3500 
L 2356 3053 
L 1172 3053 
L 1172 1153 
Q 1172 725 1289 603 
Q 1406 481 1766 481 
L 2356 481 
L 2356 0 
L 1766 0 
Q 1100 0 847 248 
Q 594 497 594 1153 
L 594 3053 
L 172 3053 
L 172 3500 
L 594 3500 
L 594 4494 
L 1172 4494 
z
" transform="scale(0.015625)"/>
      <path id="DejaVuSans-5f" d="M 3263 -1063 
L 3263 -1509 
L -63 -1509 
L -63 -1063 
L 3263 -1063 
z
" transform="scale(0.015625)"/>
      <path id="DejaVuSans-73" d="M 2834 3397 
L 2834 2853 
Q 2591 2978 2328 3040 
Q 2066 3103 1784 3103 
Q 1356 3103 1142 2972 
Q 928 2841 928 2578 
Q 928 2378 1081 2264 
Q 1234 2150 1697 2047 
L 1894 2003 
Q 2506 1872 2764 1633 
Q 3022 1394 3022 966 
Q 3022 478 2636 193 
Q 2250 -91 1575 -91 
Q 1294 -91 989 -36 
Q 684 19 347 128 
L 347 722 
Q 666 556 975 473 
Q 1284 391 1588 391 
Q 1994 391 2212 530 
Q 2431 669 2431 922 
Q 2431 1156 2273 1281 
Q 2116 1406 1581 1522 
L 1381 1569 
Q 847 1681 609 1914 
Q 372 2147 372 2553 
Q 372 3047 722 3315 
Q 1072 3584 1716 3584 
Q 2034 3584 2315 3537 
Q 2597 3491 2834 3397 
z
" transform="scale(0.015625)"/>
      <path id="DejaVuSans-75" d="M 544 1381 
L 544 3500 
L 1119 3500 
L 1119 1403 
Q 1119 906 1312 657 
Q 1506 409 1894 409 
Q 2359 409 2629 706 
Q 2900 1003 2900 1516 
L 2900 3500 
L 3475 3500 
L 3475 0 
L 2900 0 
L 2900 538 
Q 2691 219 2414 64 
Q 2138 -91 1772 -91 
Q 1169 -91 856 284 
Q 544 659 544 1381 
z
M 1991 3584 
L 1991 3584 
z
" transform="scale(0.015625)"/>
      <path id="DejaVuSans-62" d="M 3116 1747 
Q 3116 2381 2855 2742 
Q 2594 3103 2138 3103 
Q 1681 3103 1420 2742 
Q 1159 2381 1159 1747 
Q 1159 1113 1420 752 
Q 1681 391 2138 391 
Q 2594 391 2855 752 
Q 3116 1113 3116 1747 
z
M 1159 2969 
Q 1341 3281 1617 3432 
Q 1894 3584 2278 3584 
Q 2916 3584 3314 3078 
Q 3713 2572 3713 1747 
Q 3713 922 3314 415 
Q 2916 -91 2278 -91 
Q 1894 -91 1617 61 
Q 1341 213 1159 525 
L 1159 0 
L 581 0 
L 581 4863 
L 1159 4863 
L 1159 2969 
z
" transform="scale(0.015625)"/>
      <path id="DejaVuSans-63" d="M 3122 3366 
L 3122 2828 
Q 2878 2963 2633 3030 
Q 2388 3097 2138 3097 
Q 1578 3097 1268 2742 
Q 959 2388 959 1747 
Q 959 1106 1268 751 
Q 1578 397 2138 397 
Q 2388 397 2633 464 
Q 2878 531 3122 666 
L 3122 134 
Q 2881 22 2623 -34 
Q 2366 -91 2075 -91 
Q 1284 -91 818 406 
Q 353 903 353 1747 
Q 353 2603 823 3093 
Q 1294 3584 2113 3584 
Q 2378 3584 2631 3529 
Q 2884 3475 3122 3366 
z
" transform="scale(0.015625)"/>
      <path id="DejaVuSans-72" d="M 2631 2963 
Q 2534 3019 2420 3045 
Q 2306 3072 2169 3072 
Q 1681 3072 1420 2755 
Q 1159 2438 1159 1844 
L 1159 0 
L 581 0 
L 581 3500 
L 1159 3500 
L 1159 2956 
Q 1341 3275 1631 3429 
Q 1922 3584 2338 3584 
Q 2397 3584 2469 3576 
Q 2541 3569 2628 3553 
L 2631 2963 
z
" transform="scale(0.015625)"/>
      <path id="DejaVuSans-69" d="M 603 3500 
L 1178 3500 
L 1178 0 
L 603 0 
L 603 3500 
z
M 603 4863 
L 1178 4863 
L 1178 4134 
L 603 4134 
L 603 4863 
z
" transform="scale(0.015625)"/>
      <path id="DejaVuSans-20" transform="scale(0.015625)"/>
      <path id="DejaVuSans-68" d="M 3513 2113 
L 3513 0 
L 2938 0 
L 2938 2094 
Q 2938 2591 2744 2837 
Q 2550 3084 2163 3084 
Q 1697 3084 1428 2787 
Q 1159 2491 1159 1978 
L 1159 0 
L 581 0 
L 581 4863 
L 1159 4863 
L 1159 2956 
Q 1366 3272 1645 3428 
Q 1925 3584 2291 3584 
Q 2894 3584 3203 3211 
Q 3513 2838 3513 2113 
z
" transform="scale(0.015625)"/>
      <path id="DejaVuSans-6f" d="M 1959 3097 
Q 1497 3097 1228 2736 
Q 959 2375 959 1747 
Q 959 1119 1226 758 
Q 1494 397 1959 397 
Q 2419 397 2687 759 
Q 2956 1122 2956 1747 
Q 2956 2369 2687 2733 
Q 2419 3097 1959 3097 
z
M 1959 3584 
Q 2709 3584 3137 3096 
Q 3566 2609 3566 1747 
Q 3566 888 3137 398 
Q 2709 -91 1959 -91 
Q 1206 -91 779 398 
Q 353 888 353 1747 
Q 353 2609 779 3096 
Q 1206 3584 1959 3584 
z
" transform="scale(0.015625)"/>
      <path id="DejaVuSans-79" d="M 2059 -325 
Q 1816 -950 1584 -1140 
Q 1353 -1331 966 -1331 
L 506 -1331 
L 506 -850 
L 844 -850 
Q 1081 -850 1212 -737 
Q 1344 -625 1503 -206 
L 1606 56 
L 191 3500 
L 800 3500 
L 1894 763 
L 2988 3500 
L 3597 3500 
L 2059 -325 
z
" transform="scale(0.015625)"/>
     </defs>
     <use xlink:href="#DejaVuSans-67"/>
     <use xlink:href="#DejaVuSans-65" x="63.476562"/>
     <use xlink:href="#DejaVuSans-74" x="125"/>
     <use xlink:href="#DejaVuSans-5f" x="164.208984"/>
     <use xlink:href="#DejaVuSans-73" x="214.208984"/>
     <use xlink:href="#DejaVuSans-75" x="266.308594"/>
     <use xlink:href="#DejaVuSans-62" x="329.6875"/>
     <use xlink:href="#DejaVuSans-73" x="393.164062"/>
     <use xlink:href="#DejaVuSans-63" x="445.263672"/>
     <use xlink:href="#DejaVuSans-72" x="500.244141"/>
     <use xlink:href="#DejaVuSans-69" x="541.357422"/>
     <use xlink:href="#DejaVuSans-62" x="569.140625"/>
     <use xlink:href="#DejaVuSans-65" x="632.617188"/>
     <use xlink:href="#DejaVuSans-20" x="694.140625"/>
     <use xlink:href="#DejaVuSans-68" x="725.927734"/>
     <use xlink:href="#DejaVuSans-69" x="789.306641"/>
     <use xlink:href="#DejaVuSans-73" x="817.089844"/>
     <use xlink:href="#DejaVuSans-74" x="869.189453"/>
     <use xlink:href="#DejaVuSans-6f" x="908.398438"/>
     <use xlink:href="#DejaVuSans-72" x="969.580078"/>
     <use xlink:href="#DejaVuSans-79" x="1010.693359"/>
    </g>
   </g>
   <g id="legend_1">
    <g id="line2d_41">
     <path d="M 815.08 328.498438 
L 825.08 328.498438 
L 835.08 328.498438 
" style="fill: none; stroke: #1f77b4; stroke-width: 1.5; stroke-linecap: square"/>
    </g>
    <g id="text_21">
     <!-- star -->
     <g style="fill: #a9a9a9" transform="translate(843.08 331.998438) scale(0.1 -0.1)">
      <defs>
       <path id="DejaVuSans-61" d="M 2194 1759 
Q 1497 1759 1228 1600 
Q 959 1441 959 1056 
Q 959 750 1161 570 
Q 1363 391 1709 391 
Q 2188 391 2477 730 
Q 2766 1069 2766 1631 
L 2766 1759 
L 2194 1759 
z
M 3341 1997 
L 3341 0 
L 2766 0 
L 2766 531 
Q 2569 213 2275 61 
Q 1981 -91 1556 -91 
Q 1019 -91 701 211 
Q 384 513 384 1019 
Q 384 1609 779 1909 
Q 1175 2209 1959 2209 
L 2766 2209 
L 2766 2266 
Q 2766 2663 2505 2880 
Q 2244 3097 1772 3097 
Q 1472 3097 1187 3025 
Q 903 2953 641 2809 
L 641 3341 
Q 956 3463 1253 3523 
Q 1550 3584 1831 3584 
Q 2591 3584 2966 3190 
Q 3341 2797 3341 1997 
z
" transform="scale(0.015625)"/>
      </defs>
      <use xlink:href="#DejaVuSans-73"/>
      <use xlink:href="#DejaVuSans-74" x="52.099609"/>
      <use xlink:href="#DejaVuSans-61" x="91.308594"/>
      <use xlink:href="#DejaVuSans-72" x="152.587891"/>
     </g>
    </g>
    <g id="line2d_42">
     <path d="M 815.08 343.176562 
L 825.08 343.176562 
L 835.08 343.176562 
" style="fill: none; stroke: #ff7f0e; stroke-width: 1.5; stroke-linecap: square"/>
    </g>
    <g id="text_22">
     <!-- fork -->
     <g style="fill: #a9a9a9" transform="translate(843.08 346.676562) scale(0.1 -0.1)">
      <defs>
       <path id="DejaVuSans-66" d="M 2375 4863 
L 2375 4384 
L 1825 4384 
Q 1516 4384 1395 4259 
Q 1275 4134 1275 3809 
L 1275 3500 
L 2222 3500 
L 2222 3053 
L 1275 3053 
L 1275 0 
L 697 0 
L 697 3053 
L 147 3053 
L 147 3500 
L 697 3500 
L 697 3744 
Q 697 4328 969 4595 
Q 1241 4863 1831 4863 
L 2375 4863 
z
" transform="scale(0.015625)"/>
       <path id="DejaVuSans-6b" d="M 581 4863 
L 1159 4863 
L 1159 1991 
L 2875 3500 
L 3609 3500 
L 1753 1863 
L 3688 0 
L 2938 0 
L 1159 1709 
L 1159 0 
L 581 0 
L 581 4863 
z
" transform="scale(0.015625)"/>
      </defs>
      <use xlink:href="#DejaVuSans-66"/>
      <use xlink:href="#DejaVuSans-6f" x="35.205078"/>
      <use xlink:href="#DejaVuSans-72" x="96.386719"/>
      <use xlink:href="#DejaVuSans-6b" x="137.5"/>
     </g>
    </g>
   </g>
  </g>
 </g>
 <defs>
  <clipPath id="p346db6ccb6">
   <rect x="108" y="43.2" width="669.6" height="277.2"/>
  </clipPath>
 </defs>
</svg>
