<?xml version="1.0" encoding="utf-8" standalone="no"?>
<!DOCTYPE svg PUBLIC "-//W3C//DTD SVG 1.1//EN"
  "http://www.w3.org/Graphics/SVG/1.1/DTD/svg11.dtd">
<svg xmlns:xlink="http://www.w3.org/1999/xlink" width="864pt" height="360pt" viewBox="0 0 864 360" xmlns="http://www.w3.org/2000/svg" version="1.1">
 <metadata>
  <rdf:RDF xmlns:dc="http://purl.org/dc/elements/1.1/" xmlns:cc="http://creativecommons.org/ns#" xmlns:rdf="http://www.w3.org/1999/02/22-rdf-syntax-ns#">
   <cc:Work>
    <dc:type rdf:resource="http://purl.org/dc/dcmitype/StillImage"/>
    <dc:date>2024-09-13T20:05:19.491199</dc:date>
    <dc:format>image/svg+xml</dc:format>
    <dc:creator>
     <cc:Agent>
      <dc:title>Matplotlib v3.9.2, https://matplotlib.org/</dc:title>
     </cc:Agent>
    </dc:creator>
   </cc:Work>
  </rdf:RDF>
 </metadata>
 <defs>
  <style type="text/css">*{stroke-linejoin: round; stroke-linecap: butt}</style>
 </defs>
 <g id="figure_1">
  <g id="patch_1">
   <path d="M 0 360 
L 864 360 
L 864 0 
L 0 0 
L 0 360 
z
" style="fill: none; opacity: 0"/>
  </g>
  <g id="axes_1">
   <g id="patch_2">
    <path d="M 108 320.4 
L 777.6 320.4 
L 777.6 43.2 
L 108 43.2 
L 108 320.4 
z
" style="fill: none; opacity: 0"/>
   </g>
   <g id="matplotlib.axis_1">
    <g id="xtick_1">
     <g id="line2d_1">
      <path d="M 159.134152 320.4 
L 159.134152 43.2 
" clip-path="url(#pf334061394)" style="fill: none; stroke-dasharray: 5.12,1.28,0.8,1.28; stroke-dashoffset: 0; stroke: #b0b0b0; stroke-width: 0.8"/>
     </g>
     <g id="line2d_2">
      <defs>
       <path id="m81ae5ee705" d="M 0 0 
L 0 3.5 
" style="stroke: #a9a9a9; stroke-width: 0.8"/>
      </defs>
      <g>
       <use xlink:href="#m81ae5ee705" x="159.134152" y="320.4" style="fill: #a9a9a9; stroke: #a9a9a9; stroke-width: 0.8"/>
      </g>
     </g>
     <g id="text_1">
      <!-- 2021-09 -->
      <g style="fill: #a9a9a9" transform="translate(138.242746 334.998438) scale(0.1 -0.1)">
       <defs>
        <path id="DejaVuSans-32" d="M 1228 531 
L 3431 531 
L 3431 0 
L 469 0 
L 469 531 
Q 828 903 1448 1529 
Q 2069 2156 2228 2338 
Q 2531 2678 2651 2914 
Q 2772 3150 2772 3378 
Q 2772 3750 2511 3984 
Q 2250 4219 1831 4219 
Q 1534 4219 1204 4116 
Q 875 4013 500 3803 
L 500 4441 
Q 881 4594 1212 4672 
Q 1544 4750 1819 4750 
Q 2544 4750 2975 4387 
Q 3406 4025 3406 3419 
Q 3406 3131 3298 2873 
Q 3191 2616 2906 2266 
Q 2828 2175 2409 1742 
Q 1991 1309 1228 531 
z
" transform="scale(0.015625)"/>
        <path id="DejaVuSans-30" d="M 2034 4250 
Q 1547 4250 1301 3770 
Q 1056 3291 1056 2328 
Q 1056 1369 1301 889 
Q 1547 409 2034 409 
Q 2525 409 2770 889 
Q 3016 1369 3016 2328 
Q 3016 3291 2770 3770 
Q 2525 4250 2034 4250 
z
M 2034 4750 
Q 2819 4750 3233 4129 
Q 3647 3509 3647 2328 
Q 3647 1150 3233 529 
Q 2819 -91 2034 -91 
Q 1250 -91 836 529 
Q 422 1150 422 2328 
Q 422 3509 836 4129 
Q 1250 4750 2034 4750 
z
" transform="scale(0.015625)"/>
        <path id="DejaVuSans-31" d="M 794 531 
L 1825 531 
L 1825 4091 
L 703 3866 
L 703 4441 
L 1819 4666 
L 2450 4666 
L 2450 531 
L 3481 531 
L 3481 0 
L 794 0 
L 794 531 
z
" transform="scale(0.015625)"/>
        <path id="DejaVuSans-2d" d="M 313 2009 
L 1997 2009 
L 1997 1497 
L 313 1497 
L 313 2009 
z
" transform="scale(0.015625)"/>
        <path id="DejaVuSans-39" d="M 703 97 
L 703 672 
Q 941 559 1184 500 
Q 1428 441 1663 441 
Q 2288 441 2617 861 
Q 2947 1281 2994 2138 
Q 2813 1869 2534 1725 
Q 2256 1581 1919 1581 
Q 1219 1581 811 2004 
Q 403 2428 403 3163 
Q 403 3881 828 4315 
Q 1253 4750 1959 4750 
Q 2769 4750 3195 4129 
Q 3622 3509 3622 2328 
Q 3622 1225 3098 567 
Q 2575 -91 1691 -91 
Q 1453 -91 1209 -44 
Q 966 3 703 97 
z
M 1959 2075 
Q 2384 2075 2632 2365 
Q 2881 2656 2881 3163 
Q 2881 3666 2632 3958 
Q 2384 4250 1959 4250 
Q 1534 4250 1286 3958 
Q 1038 3666 1038 3163 
Q 1038 2656 1286 2365 
Q 1534 2075 1959 2075 
z
" transform="scale(0.015625)"/>
       </defs>
       <use xlink:href="#DejaVuSans-32"/>
       <use xlink:href="#DejaVuSans-30" x="63.623047"/>
       <use xlink:href="#DejaVuSans-32" x="127.246094"/>
       <use xlink:href="#DejaVuSans-31" x="190.869141"/>
       <use xlink:href="#DejaVuSans-2d" x="254.492188"/>
       <use xlink:href="#DejaVuSans-30" x="290.576172"/>
       <use xlink:href="#DejaVuSans-39" x="354.199219"/>
      </g>
     </g>
    </g>
    <g id="xtick_2">
     <g id="line2d_3">
      <path d="M 223.881081 320.4 
L 223.881081 43.2 
" clip-path="url(#pf334061394)" style="fill: none; stroke-dasharray: 5.12,1.28,0.8,1.28; stroke-dashoffset: 0; stroke: #b0b0b0; stroke-width: 0.8"/>
     </g>
     <g id="line2d_4">
      <g>
       <use xlink:href="#m81ae5ee705" x="223.881081" y="320.4" style="fill: #a9a9a9; stroke: #a9a9a9; stroke-width: 0.8"/>
      </g>
     </g>
     <g id="text_2">
      <!-- 2022-01 -->
      <g style="fill: #a9a9a9" transform="translate(202.989675 334.998438) scale(0.1 -0.1)">
       <use xlink:href="#DejaVuSans-32"/>
       <use xlink:href="#DejaVuSans-30" x="63.623047"/>
       <use xlink:href="#DejaVuSans-32" x="127.246094"/>
       <use xlink:href="#DejaVuSans-32" x="190.869141"/>
       <use xlink:href="#DejaVuSans-2d" x="254.492188"/>
       <use xlink:href="#DejaVuSans-30" x="290.576172"/>
       <use xlink:href="#DejaVuSans-31" x="354.199219"/>
      </g>
     </g>
    </g>
    <g id="xtick_3">
     <g id="line2d_5">
      <path d="M 287.566585 320.4 
L 287.566585 43.2 
" clip-path="url(#pf334061394)" style="fill: none; stroke-dasharray: 5.12,1.28,0.8,1.28; stroke-dashoffset: 0; stroke: #b0b0b0; stroke-width: 0.8"/>
     </g>
     <g id="line2d_6">
      <g>
       <use xlink:href="#m81ae5ee705" x="287.566585" y="320.4" style="fill: #a9a9a9; stroke: #a9a9a9; stroke-width: 0.8"/>
      </g>
     </g>
     <g id="text_3">
      <!-- 2022-05 -->
      <g style="fill: #a9a9a9" transform="translate(266.675179 334.998438) scale(0.1 -0.1)">
       <defs>
        <path id="DejaVuSans-35" d="M 691 4666 
L 3169 4666 
L 3169 4134 
L 1269 4134 
L 1269 2991 
Q 1406 3038 1543 3061 
Q 1681 3084 1819 3084 
Q 2600 3084 3056 2656 
Q 3513 2228 3513 1497 
Q 3513 744 3044 326 
Q 2575 -91 1722 -91 
Q 1428 -91 1123 -41 
Q 819 9 494 109 
L 494 744 
Q 775 591 1075 516 
Q 1375 441 1709 441 
Q 2250 441 2565 725 
Q 2881 1009 2881 1497 
Q 2881 1984 2565 2268 
Q 2250 2553 1709 2553 
Q 1456 2553 1204 2497 
Q 953 2441 691 2322 
L 691 4666 
z
" transform="scale(0.015625)"/>
       </defs>
       <use xlink:href="#DejaVuSans-32"/>
       <use xlink:href="#DejaVuSans-30" x="63.623047"/>
       <use xlink:href="#DejaVuSans-32" x="127.246094"/>
       <use xlink:href="#DejaVuSans-32" x="190.869141"/>
       <use xlink:href="#DejaVuSans-2d" x="254.492188"/>
       <use xlink:href="#DejaVuSans-30" x="290.576172"/>
       <use xlink:href="#DejaVuSans-35" x="354.199219"/>
      </g>
     </g>
    </g>
    <g id="xtick_4">
     <g id="line2d_7">
      <path d="M 352.844226 320.4 
L 352.844226 43.2 
" clip-path="url(#pf334061394)" style="fill: none; stroke-dasharray: 5.12,1.28,0.8,1.28; stroke-dashoffset: 0; stroke: #b0b0b0; stroke-width: 0.8"/>
     </g>
     <g id="line2d_8">
      <g>
       <use xlink:href="#m81ae5ee705" x="352.844226" y="320.4" style="fill: #a9a9a9; stroke: #a9a9a9; stroke-width: 0.8"/>
      </g>
     </g>
     <g id="text_4">
      <!-- 2022-09 -->
      <g style="fill: #a9a9a9" transform="translate(331.95282 334.998438) scale(0.1 -0.1)">
       <use xlink:href="#DejaVuSans-32"/>
       <use xlink:href="#DejaVuSans-30" x="63.623047"/>
       <use xlink:href="#DejaVuSans-32" x="127.246094"/>
       <use xlink:href="#DejaVuSans-32" x="190.869141"/>
       <use xlink:href="#DejaVuSans-2d" x="254.492188"/>
       <use xlink:href="#DejaVuSans-30" x="290.576172"/>
       <use xlink:href="#DejaVuSans-39" x="354.199219"/>
      </g>
     </g>
    </g>
    <g id="xtick_5">
     <g id="line2d_9">
      <path d="M 417.591155 320.4 
L 417.591155 43.2 
" clip-path="url(#pf334061394)" style="fill: none; stroke-dasharray: 5.12,1.28,0.8,1.28; stroke-dashoffset: 0; stroke: #b0b0b0; stroke-width: 0.8"/>
     </g>
     <g id="line2d_10">
      <g>
       <use xlink:href="#m81ae5ee705" x="417.591155" y="320.4" style="fill: #a9a9a9; stroke: #a9a9a9; stroke-width: 0.8"/>
      </g>
     </g>
     <g id="text_5">
      <!-- 2023-01 -->
      <g style="fill: #a9a9a9" transform="translate(396.699749 334.998438) scale(0.1 -0.1)">
       <defs>
        <path id="DejaVuSans-33" d="M 2597 2516 
Q 3050 2419 3304 2112 
Q 3559 1806 3559 1356 
Q 3559 666 3084 287 
Q 2609 -91 1734 -91 
Q 1441 -91 1130 -33 
Q 819 25 488 141 
L 488 750 
Q 750 597 1062 519 
Q 1375 441 1716 441 
Q 2309 441 2620 675 
Q 2931 909 2931 1356 
Q 2931 1769 2642 2001 
Q 2353 2234 1838 2234 
L 1294 2234 
L 1294 2753 
L 1863 2753 
Q 2328 2753 2575 2939 
Q 2822 3125 2822 3475 
Q 2822 3834 2567 4026 
Q 2313 4219 1838 4219 
Q 1578 4219 1281 4162 
Q 984 4106 628 3988 
L 628 4550 
Q 988 4650 1302 4700 
Q 1616 4750 1894 4750 
Q 2613 4750 3031 4423 
Q 3450 4097 3450 3541 
Q 3450 3153 3228 2886 
Q 3006 2619 2597 2516 
z
" transform="scale(0.015625)"/>
       </defs>
       <use xlink:href="#DejaVuSans-32"/>
       <use xlink:href="#DejaVuSans-30" x="63.623047"/>
       <use xlink:href="#DejaVuSans-32" x="127.246094"/>
       <use xlink:href="#DejaVuSans-33" x="190.869141"/>
       <use xlink:href="#DejaVuSans-2d" x="254.492188"/>
       <use xlink:href="#DejaVuSans-30" x="290.576172"/>
       <use xlink:href="#DejaVuSans-31" x="354.199219"/>
      </g>
     </g>
    </g>
    <g id="xtick_6">
     <g id="line2d_11">
      <path d="M 481.276658 320.4 
L 481.276658 43.2 
" clip-path="url(#pf334061394)" style="fill: none; stroke-dasharray: 5.12,1.28,0.8,1.28; stroke-dashoffset: 0; stroke: #b0b0b0; stroke-width: 0.8"/>
     </g>
     <g id="line2d_12">
      <g>
       <use xlink:href="#m81ae5ee705" x="481.276658" y="320.4" style="fill: #a9a9a9; stroke: #a9a9a9; stroke-width: 0.8"/>
      </g>
     </g>
     <g id="text_6">
      <!-- 2023-05 -->
      <g style="fill: #a9a9a9" transform="translate(460.385252 334.998438) scale(0.1 -0.1)">
       <use xlink:href="#DejaVuSans-32"/>
       <use xlink:href="#DejaVuSans-30" x="63.623047"/>
       <use xlink:href="#DejaVuSans-32" x="127.246094"/>
       <use xlink:href="#DejaVuSans-33" x="190.869141"/>
       <use xlink:href="#DejaVuSans-2d" x="254.492188"/>
       <use xlink:href="#DejaVuSans-30" x="290.576172"/>
       <use xlink:href="#DejaVuSans-35" x="354.199219"/>
      </g>
     </g>
    </g>
    <g id="xtick_7">
     <g id="line2d_13">
      <path d="M 546.5543 320.4 
L 546.5543 43.2 
" clip-path="url(#pf334061394)" style="fill: none; stroke-dasharray: 5.12,1.28,0.8,1.28; stroke-dashoffset: 0; stroke: #b0b0b0; stroke-width: 0.8"/>
     </g>
     <g id="line2d_14">
      <g>
       <use xlink:href="#m81ae5ee705" x="546.5543" y="320.4" style="fill: #a9a9a9; stroke: #a9a9a9; stroke-width: 0.8"/>
      </g>
     </g>
     <g id="text_7">
      <!-- 2023-09 -->
      <g style="fill: #a9a9a9" transform="translate(525.662894 334.998438) scale(0.1 -0.1)">
       <use xlink:href="#DejaVuSans-32"/>
       <use xlink:href="#DejaVuSans-30" x="63.623047"/>
       <use xlink:href="#DejaVuSans-32" x="127.246094"/>
       <use xlink:href="#DejaVuSans-33" x="190.869141"/>
       <use xlink:href="#DejaVuSans-2d" x="254.492188"/>
       <use xlink:href="#DejaVuSans-30" x="290.576172"/>
       <use xlink:href="#DejaVuSans-39" x="354.199219"/>
      </g>
     </g>
    </g>
    <g id="xtick_8">
     <g id="line2d_15">
      <path d="M 611.301229 320.4 
L 611.301229 43.2 
" clip-path="url(#pf334061394)" style="fill: none; stroke-dasharray: 5.12,1.28,0.8,1.28; stroke-dashoffset: 0; stroke: #b0b0b0; stroke-width: 0.8"/>
     </g>
     <g id="line2d_16">
      <g>
       <use xlink:href="#m81ae5ee705" x="611.301229" y="320.4" style="fill: #a9a9a9; stroke: #a9a9a9; stroke-width: 0.8"/>
      </g>
     </g>
     <g id="text_8">
      <!-- 2024-01 -->
      <g style="fill: #a9a9a9" transform="translate(590.409822 334.998438) scale(0.1 -0.1)">
       <defs>
        <path id="DejaVuSans-34" d="M 2419 4116 
L 825 1625 
L 2419 1625 
L 2419 4116 
z
M 2253 4666 
L 3047 4666 
L 3047 1625 
L 3713 1625 
L 3713 1100 
L 3047 1100 
L 3047 0 
L 2419 0 
L 2419 1100 
L 313 1100 
L 313 1709 
L 2253 4666 
z
" transform="scale(0.015625)"/>
       </defs>
       <use xlink:href="#DejaVuSans-32"/>
       <use xlink:href="#DejaVuSans-30" x="63.623047"/>
       <use xlink:href="#DejaVuSans-32" x="127.246094"/>
       <use xlink:href="#DejaVuSans-34" x="190.869141"/>
       <use xlink:href="#DejaVuSans-2d" x="254.492188"/>
       <use xlink:href="#DejaVuSans-30" x="290.576172"/>
       <use xlink:href="#DejaVuSans-31" x="354.199219"/>
      </g>
     </g>
    </g>
    <g id="xtick_9">
     <g id="line2d_17">
      <path d="M 675.517445 320.4 
L 675.517445 43.2 
" clip-path="url(#pf334061394)" style="fill: none; stroke-dasharray: 5.12,1.28,0.8,1.28; stroke-dashoffset: 0; stroke: #b0b0b0; stroke-width: 0.8"/>
     </g>
     <g id="line2d_18">
      <g>
       <use xlink:href="#m81ae5ee705" x="675.517445" y="320.4" style="fill: #a9a9a9; stroke: #a9a9a9; stroke-width: 0.8"/>
      </g>
     </g>
     <g id="text_9">
      <!-- 2024-05 -->
      <g style="fill: #a9a9a9" transform="translate(654.626038 334.998438) scale(0.1 -0.1)">
       <use xlink:href="#DejaVuSans-32"/>
       <use xlink:href="#DejaVuSans-30" x="63.623047"/>
       <use xlink:href="#DejaVuSans-32" x="127.246094"/>
       <use xlink:href="#DejaVuSans-34" x="190.869141"/>
       <use xlink:href="#DejaVuSans-2d" x="254.492188"/>
       <use xlink:href="#DejaVuSans-30" x="290.576172"/>
       <use xlink:href="#DejaVuSans-35" x="354.199219"/>
      </g>
     </g>
    </g>
    <g id="xtick_10">
     <g id="line2d_19">
      <path d="M 740.795086 320.4 
L 740.795086 43.2 
" clip-path="url(#pf334061394)" style="fill: none; stroke-dasharray: 5.12,1.28,0.8,1.28; stroke-dashoffset: 0; stroke: #b0b0b0; stroke-width: 0.8"/>
     </g>
     <g id="line2d_20">
      <g>
       <use xlink:href="#m81ae5ee705" x="740.795086" y="320.4" style="fill: #a9a9a9; stroke: #a9a9a9; stroke-width: 0.8"/>
      </g>
     </g>
     <g id="text_10">
      <!-- 2024-09 -->
      <g style="fill: #a9a9a9" transform="translate(719.90368 334.998438) scale(0.1 -0.1)">
       <use xlink:href="#DejaVuSans-32"/>
       <use xlink:href="#DejaVuSans-30" x="63.623047"/>
       <use xlink:href="#DejaVuSans-32" x="127.246094"/>
       <use xlink:href="#DejaVuSans-34" x="190.869141"/>
       <use xlink:href="#DejaVuSans-2d" x="254.492188"/>
       <use xlink:href="#DejaVuSans-30" x="290.576172"/>
       <use xlink:href="#DejaVuSans-39" x="354.199219"/>
      </g>
     </g>
    </g>
   </g>
   <g id="matplotlib.axis_2">
    <g id="ytick_1">
     <g id="line2d_21">
      <path d="M 108 307.837815 
L 777.6 307.837815 
" clip-path="url(#pf334061394)" style="fill: none; stroke-dasharray: 5.12,1.28,0.8,1.28; stroke-dashoffset: 0; stroke: #b0b0b0; stroke-width: 0.8"/>
     </g>
     <g id="line2d_22">
      <defs>
       <path id="m4b684891b2" d="M 0 0 
L -3.5 0 
" style="stroke: #a9a9a9; stroke-width: 0.8"/>
      </defs>
      <g>
       <use xlink:href="#m4b684891b2" x="108" y="307.837815" style="fill: #a9a9a9; stroke: #a9a9a9; stroke-width: 0.8"/>
      </g>
     </g>
     <g id="text_11">
      <!-- 0 -->
      <g style="fill: #a9a9a9" transform="translate(94.6375 311.637034) scale(0.1 -0.1)">
       <use xlink:href="#DejaVuSans-30"/>
      </g>
     </g>
    </g>
    <g id="ytick_2">
     <g id="line2d_23">
      <path d="M 108 277.585714 
L 777.6 277.585714 
" clip-path="url(#pf334061394)" style="fill: none; stroke-dasharray: 5.12,1.28,0.8,1.28; stroke-dashoffset: 0; stroke: #b0b0b0; stroke-width: 0.8"/>
     </g>
     <g id="line2d_24">
      <g>
       <use xlink:href="#m4b684891b2" x="108" y="277.585714" style="fill: #a9a9a9; stroke: #a9a9a9; stroke-width: 0.8"/>
      </g>
     </g>
     <g id="text_12">
      <!-- 800 -->
      <g style="fill: #a9a9a9" transform="translate(81.9125 281.384933) scale(0.1 -0.1)">
       <defs>
        <path id="DejaVuSans-38" d="M 2034 2216 
Q 1584 2216 1326 1975 
Q 1069 1734 1069 1313 
Q 1069 891 1326 650 
Q 1584 409 2034 409 
Q 2484 409 2743 651 
Q 3003 894 3003 1313 
Q 3003 1734 2745 1975 
Q 2488 2216 2034 2216 
z
M 1403 2484 
Q 997 2584 770 2862 
Q 544 3141 544 3541 
Q 544 4100 942 4425 
Q 1341 4750 2034 4750 
Q 2731 4750 3128 4425 
Q 3525 4100 3525 3541 
Q 3525 3141 3298 2862 
Q 3072 2584 2669 2484 
Q 3125 2378 3379 2068 
Q 3634 1759 3634 1313 
Q 3634 634 3220 271 
Q 2806 -91 2034 -91 
Q 1263 -91 848 271 
Q 434 634 434 1313 
Q 434 1759 690 2068 
Q 947 2378 1403 2484 
z
M 1172 3481 
Q 1172 3119 1398 2916 
Q 1625 2713 2034 2713 
Q 2441 2713 2670 2916 
Q 2900 3119 2900 3481 
Q 2900 3844 2670 4047 
Q 2441 4250 2034 4250 
Q 1625 4250 1398 4047 
Q 1172 3844 1172 3481 
z
" transform="scale(0.015625)"/>
       </defs>
       <use xlink:href="#DejaVuSans-38"/>
       <use xlink:href="#DejaVuSans-30" x="63.623047"/>
       <use xlink:href="#DejaVuSans-30" x="127.246094"/>
      </g>
     </g>
    </g>
    <g id="ytick_3">
     <g id="line2d_25">
      <path d="M 108 247.333613 
L 777.6 247.333613 
" clip-path="url(#pf334061394)" style="fill: none; stroke-dasharray: 5.12,1.28,0.8,1.28; stroke-dashoffset: 0; stroke: #b0b0b0; stroke-width: 0.8"/>
     </g>
     <g id="line2d_26">
      <g>
       <use xlink:href="#m4b684891b2" x="108" y="247.333613" style="fill: #a9a9a9; stroke: #a9a9a9; stroke-width: 0.8"/>
      </g>
     </g>
     <g id="text_13">
      <!-- 1600 -->
      <g style="fill: #a9a9a9" transform="translate(75.55 251.132832) scale(0.1 -0.1)">
       <defs>
        <path id="DejaVuSans-36" d="M 2113 2584 
Q 1688 2584 1439 2293 
Q 1191 2003 1191 1497 
Q 1191 994 1439 701 
Q 1688 409 2113 409 
Q 2538 409 2786 701 
Q 3034 994 3034 1497 
Q 3034 2003 2786 2293 
Q 2538 2584 2113 2584 
z
M 3366 4563 
L 3366 3988 
Q 3128 4100 2886 4159 
Q 2644 4219 2406 4219 
Q 1781 4219 1451 3797 
Q 1122 3375 1075 2522 
Q 1259 2794 1537 2939 
Q 1816 3084 2150 3084 
Q 2853 3084 3261 2657 
Q 3669 2231 3669 1497 
Q 3669 778 3244 343 
Q 2819 -91 2113 -91 
Q 1303 -91 875 529 
Q 447 1150 447 2328 
Q 447 3434 972 4092 
Q 1497 4750 2381 4750 
Q 2619 4750 2861 4703 
Q 3103 4656 3366 4563 
z
" transform="scale(0.015625)"/>
       </defs>
       <use xlink:href="#DejaVuSans-31"/>
       <use xlink:href="#DejaVuSans-36" x="63.623047"/>
       <use xlink:href="#DejaVuSans-30" x="127.246094"/>
       <use xlink:href="#DejaVuSans-30" x="190.869141"/>
      </g>
     </g>
    </g>
    <g id="ytick_4">
     <g id="line2d_27">
      <path d="M 108 217.081513 
L 777.6 217.081513 
" clip-path="url(#pf334061394)" style="fill: none; stroke-dasharray: 5.12,1.28,0.8,1.28; stroke-dashoffset: 0; stroke: #b0b0b0; stroke-width: 0.8"/>
     </g>
     <g id="line2d_28">
      <g>
       <use xlink:href="#m4b684891b2" x="108" y="217.081513" style="fill: #a9a9a9; stroke: #a9a9a9; stroke-width: 0.8"/>
      </g>
     </g>
     <g id="text_14">
      <!-- 2400 -->
      <g style="fill: #a9a9a9" transform="translate(75.55 220.880731) scale(0.1 -0.1)">
       <use xlink:href="#DejaVuSans-32"/>
       <use xlink:href="#DejaVuSans-34" x="63.623047"/>
       <use xlink:href="#DejaVuSans-30" x="127.246094"/>
       <use xlink:href="#DejaVuSans-30" x="190.869141"/>
      </g>
     </g>
    </g>
    <g id="ytick_5">
     <g id="line2d_29">
      <path d="M 108 186.829412 
L 777.6 186.829412 
" clip-path="url(#pf334061394)" style="fill: none; stroke-dasharray: 5.12,1.28,0.8,1.28; stroke-dashoffset: 0; stroke: #b0b0b0; stroke-width: 0.8"/>
     </g>
     <g id="line2d_30">
      <g>
       <use xlink:href="#m4b684891b2" x="108" y="186.829412" style="fill: #a9a9a9; stroke: #a9a9a9; stroke-width: 0.8"/>
      </g>
     </g>
     <g id="text_15">
      <!-- 3200 -->
      <g style="fill: #a9a9a9" transform="translate(75.55 190.628631) scale(0.1 -0.1)">
       <use xlink:href="#DejaVuSans-33"/>
       <use xlink:href="#DejaVuSans-32" x="63.623047"/>
       <use xlink:href="#DejaVuSans-30" x="127.246094"/>
       <use xlink:href="#DejaVuSans-30" x="190.869141"/>
      </g>
     </g>
    </g>
    <g id="ytick_6">
     <g id="line2d_31">
      <path d="M 108 156.577311 
L 777.6 156.577311 
" clip-path="url(#pf334061394)" style="fill: none; stroke-dasharray: 5.12,1.28,0.8,1.28; stroke-dashoffset: 0; stroke: #b0b0b0; stroke-width: 0.8"/>
     </g>
     <g id="line2d_32">
      <g>
       <use xlink:href="#m4b684891b2" x="108" y="156.577311" style="fill: #a9a9a9; stroke: #a9a9a9; stroke-width: 0.8"/>
      </g>
     </g>
     <g id="text_16">
      <!-- 4000 -->
      <g style="fill: #a9a9a9" transform="translate(75.55 160.37653) scale(0.1 -0.1)">
       <use xlink:href="#DejaVuSans-34"/>
       <use xlink:href="#DejaVuSans-30" x="63.623047"/>
       <use xlink:href="#DejaVuSans-30" x="127.246094"/>
       <use xlink:href="#DejaVuSans-30" x="190.869141"/>
      </g>
     </g>
    </g>
    <g id="ytick_7">
     <g id="line2d_33">
      <path d="M 108 126.32521 
L 777.6 126.32521 
" clip-path="url(#pf334061394)" style="fill: none; stroke-dasharray: 5.12,1.28,0.8,1.28; stroke-dashoffset: 0; stroke: #b0b0b0; stroke-width: 0.8"/>
     </g>
     <g id="line2d_34">
      <g>
       <use xlink:href="#m4b684891b2" x="108" y="126.32521" style="fill: #a9a9a9; stroke: #a9a9a9; stroke-width: 0.8"/>
      </g>
     </g>
     <g id="text_17">
      <!-- 4800 -->
      <g style="fill: #a9a9a9" transform="translate(75.55 130.124429) scale(0.1 -0.1)">
       <use xlink:href="#DejaVuSans-34"/>
       <use xlink:href="#DejaVuSans-38" x="63.623047"/>
       <use xlink:href="#DejaVuSans-30" x="127.246094"/>
       <use xlink:href="#DejaVuSans-30" x="190.869141"/>
      </g>
     </g>
    </g>
    <g id="ytick_8">
     <g id="line2d_35">
      <path d="M 108 96.073109 
L 777.6 96.073109 
" clip-path="url(#pf334061394)" style="fill: none; stroke-dasharray: 5.12,1.28,0.8,1.28; stroke-dashoffset: 0; stroke: #b0b0b0; stroke-width: 0.8"/>
     </g>
     <g id="line2d_36">
      <g>
       <use xlink:href="#m4b684891b2" x="108" y="96.073109" style="fill: #a9a9a9; stroke: #a9a9a9; stroke-width: 0.8"/>
      </g>
     </g>
     <g id="text_18">
      <!-- 5600 -->
      <g style="fill: #a9a9a9" transform="translate(75.55 99.872328) scale(0.1 -0.1)">
       <use xlink:href="#DejaVuSans-35"/>
       <use xlink:href="#DejaVuSans-36" x="63.623047"/>
       <use xlink:href="#DejaVuSans-30" x="127.246094"/>
       <use xlink:href="#DejaVuSans-30" x="190.869141"/>
      </g>
     </g>
    </g>
    <g id="ytick_9">
     <g id="line2d_37">
      <path d="M 108 65.821008 
L 777.6 65.821008 
" clip-path="url(#pf334061394)" style="fill: none; stroke-dasharray: 5.12,1.28,0.8,1.28; stroke-dashoffset: 0; stroke: #b0b0b0; stroke-width: 0.8"/>
     </g>
     <g id="line2d_38">
      <g>
       <use xlink:href="#m4b684891b2" x="108" y="65.821008" style="fill: #a9a9a9; stroke: #a9a9a9; stroke-width: 0.8"/>
      </g>
     </g>
     <g id="text_19">
      <!-- 6400 -->
      <g style="fill: #a9a9a9" transform="translate(75.55 69.620227) scale(0.1 -0.1)">
       <use xlink:href="#DejaVuSans-36"/>
       <use xlink:href="#DejaVuSans-34" x="63.623047"/>
       <use xlink:href="#DejaVuSans-30" x="127.246094"/>
       <use xlink:href="#DejaVuSans-30" x="190.869141"/>
      </g>
     </g>
    </g>
   </g>
   <g id="line2d_39">
    <path d="M 138.436364 307.72437 
L 141.620639 307.459664 
L 142.151351 307.232773 
L 143.743489 307.081513 
L 147.458477 306.40084 
L 150.112039 306.17395 
L 151.173464 305.757983 
L 151.704177 305.077311 
L 152.234889 304.69916 
L 152.765602 303.526891 
L 153.296314 303.451261 
L 153.827027 303.035294 
L 154.888452 302.505882 
L 157.011302 300.842017 
L 159.134152 299.821008 
L 160.72629 299.102521 
L 161.257002 298.270588 
L 162.318428 297.514286 
L 162.84914 297.287395 
L 168.156265 296.531092 
L 168.686978 296.304202 
L 172.401966 296.001681 
L 174.524816 295.510084 
L 178.770516 294.942857 
L 179.301229 294.640336 
L 179.831941 294.564706 
L 180.893366 294.22437 
L 184.608354 293.619328 
L 185.669779 293.316807 
L 187.261916 293.165546 
L 188.323342 293.052101 
L 190.976904 292.371429 
L 192.038329 292.295798 
L 193.099754 292.144538 
L 194.161179 291.917647 
L 194.691892 291.766387 
L 195.222604 291.047899 
L 196.814742 290.442857 
L 198.40688 290.026891 
L 198.937592 289.762185 
L 199.468305 289.72437 
L 202.121867 288.968067 
L 203.183292 288.892437 
L 203.714005 288.816807 
L 205.306143 288.32521 
L 207.428993 287.795798 
L 207.959705 287.568908 
L 208.490418 287.493277 
L 209.02113 287.228571 
L 214.328256 286.434454 
L 216.981818 285.678151 
L 217.512531 285.337815 
L 220.166093 284.468067 
L 221.227518 283.74958 
L 222.819656 283.447059 
L 232.903194 280.535294 
L 233.964619 280.119328 
L 235.026044 280.043697 
L 236.618182 279.589916 
L 237.148894 279.589916 
L 237.679607 279.363025 
L 238.741032 279.24958 
L 239.271744 279.060504 
L 240.33317 279.022689 
L 242.45602 278.757983 
L 243.517445 278.228571 
L 249.885995 275.392437 
L 250.416708 274.82521 
L 251.478133 273.236975 
L 252.008845 273.085714 
L 252.539558 273.085714 
L 253.600983 272.291597 
L 255.19312 271.762185 
L 255.723833 271.270588 
L 256.785258 270.854622 
L 257.846683 270.363025 
L 258.908108 268.85042 
L 259.438821 268.510084 
L 259.969533 267.602521 
L 260.500246 267.035294 
L 263.684521 265.409244 
L 264.745946 264.577311 
L 265.276658 264.236975 
L 265.807371 263.442857 
L 266.338084 262.270588 
L 266.868796 261.476471 
L 267.399509 261.060504 
L 267.930221 260.833613 
L 270.053071 259.018487 
L 271.114496 258.148739 
L 271.645209 257.694958 
L 272.175921 256.976471 
L 273.237346 256.031092 
L 275.360197 254.631933 
L 275.890909 254.178151 
L 276.952334 253.837815 
L 278.544472 252.930252 
L 280.136609 251.909244 
L 282.259459 250.018487 
L 283.320885 249.602521 
L 284.38231 248.884034 
L 284.913022 248.581513 
L 285.443735 248.505882 
L 289.158722 246.19916 
L 291.281572 245.064706 
L 291.812285 244.573109 
L 300.303686 241.623529 
L 301.365111 240.678151 
L 302.426536 240.186555 
L 303.487961 239.619328 
L 304.018673 239.316807 
L 305.080098 239.014286 
L 305.610811 238.67395 
L 306.141523 238.522689 
L 307.733661 237.501681 
L 310.387224 236.896639 
L 311.979361 235.989076 
L 312.510074 235.913445 
L 313.571499 235.648739 
L 314.102211 235.497479 
L 315.694349 234.287395 
L 317.817199 233.720168 
L 318.347912 233.304202 
L 321.532187 232.245378 
L 322.062899 232.207563 
L 323.124324 231.791597 
L 327.370025 230.278992 
L 328.43145 230.127731 
L 330.023587 229.598319 
L 332.67715 228.35042 
L 334.8 227.215966 
L 339.0457 225.514286 
L 339.576413 225.438655 
L 340.637838 224.795798 
L 341.16855 224.720168 
L 343.2914 223.85042 
L 345.414251 223.547899 
L 346.475676 223.018487 
L 347.006388 222.564706 
L 347.537101 221.619328 
L 349.659951 221.052101 
L 351.252088 220.257983 
L 351.782801 220.144538 
L 356.028501 218.140336 
L 357.620639 217.8 
L 358.682064 217.270588 
L 359.212776 217.043697 
L 359.743489 216.968067 
L 361.866339 216.022689 
L 363.458477 215.039496 
L 363.989189 214.963866 
L 364.519902 214.77479 
L 365.050614 214.736975 
L 367.704177 214.094118 
L 368.234889 213.678151 
L 369.827027 213.110924 
L 371.949877 212.278992 
L 372.48059 211.90084 
L 373.011302 211.711765 
L 374.072727 211.144538 
L 376.72629 210.27479 
L 378.318428 209.026891 
L 378.84914 208.913445 
L 379.910565 208.081513 
L 380.441278 208.005882 
L 380.97199 207.17395 
L 381.502703 206.947059 
L 382.033415 206.531092 
L 382.564128 206.455462 
L 383.625553 205.812605 
L 384.686978 205.472269 
L 385.21769 205.056303 
L 385.748403 204.867227 
L 387.340541 203.770588 
L 389.463391 202.67395 
L 389.994103 202.598319 
L 391.586241 201.804202 
L 392.116953 200.934454 
L 392.647666 200.480672 
L 393.178378 200.178151 
L 393.709091 200.064706 
L 394.770516 199.384034 
L 395.301229 199.270588 
L 396.362654 198.741176 
L 397.954791 198.060504 
L 399.016216 197.304202 
L 400.608354 195.867227 
L 401.669779 195.262185 
L 402.200491 194.694958 
L 404.323342 193.257983 
L 404.854054 192.652941 
L 405.384767 192.236975 
L 406.446192 191.858824 
L 407.507617 191.140336 
L 409.099754 190.346218 
L 409.630467 190.270588 
L 411.222604 189.438655 
L 412.284029 188.795798 
L 417.591155 186.905042 
L 418.121867 186.489076 
L 420.244717 185.694958 
L 420.77543 185.543697 
L 421.306143 185.127731 
L 423.959705 183.690756 
L 425.02113 181.610924 
L 426.082555 180.40084 
L 427.14398 179.757983 
L 428.736118 179.115126 
L 429.26683 179.039496 
L 429.797543 178.736975 
L 432.451106 177.905042 
L 432.981818 177.678151 
L 434.043243 176.959664 
L 435.635381 176.278992 
L 436.696806 175.711765 
L 437.227518 175.333613 
L 437.758231 175.106723 
L 438.288943 174.728571 
L 438.819656 174.161345 
L 439.881081 173.594118 
L 442.534644 172.194958 
L 445.718919 170.644538 
L 446.780344 170.304202 
L 448.372482 169.812605 
L 450.495332 168.867227 
L 451.556757 168.451261 
L 452.087469 168.035294 
L 453.148894 167.694958 
L 456.33317 166.068908 
L 457.394595 165.236975 
L 458.45602 164.858824 
L 458.986732 164.405042 
L 459.517445 164.329412 
L 460.57887 163.535294 
L 461.640295 163.005882 
L 462.171007 162.778992 
L 462.70172 162.24958 
L 466.416708 160.812605 
L 467.478133 160.358824 
L 469.07027 159.867227 
L 470.131695 159.715966 
L 470.662408 159.489076 
L 471.19312 159.413445 
L 472.254545 158.959664 
L 472.785258 158.921849 
L 474.908108 158.127731 
L 476.500246 157.031092 
L 479.153808 155.783193 
L 481.807371 154.346218 
L 482.338084 154.232773 
L 483.930221 153.32521 
L 485.522359 152.795798 
L 486.583784 152.455462 
L 488.706634 151.77479 
L 489.768059 151.434454 
L 491.360197 151.169748 
L 493.483047 150.489076 
L 494.013759 150.262185 
L 494.544472 150.186555 
L 495.075184 149.921849 
L 496.136609 149.732773 
L 497.728747 149.165546 
L 498.790172 149.052101 
L 500.38231 148.711765 
L 501.443735 148.522689 
L 502.50516 148.333613 
L 503.566585 148.106723 
L 506.75086 147.312605 
L 507.281572 147.010084 
L 509.935135 146.367227 
L 510.99656 146.026891 
L 516.834398 144.32521 
L 517.365111 143.795798 
L 518.426536 143.379832 
L 521.610811 142.245378 
L 522.141523 141.905042 
L 522.672236 141.791597 
L 523.202948 141.489076 
L 524.795086 141.035294 
L 525.856511 140.770588 
L 526.387224 140.430252 
L 526.917936 140.316807 
L 527.448649 139.863025 
L 529.040786 139.560504 
L 530.102211 139.068908 
L 530.632924 138.463866 
L 532.755774 137.972269 
L 536.470762 137.215966 
L 537.001474 137.215966 
L 537.532187 136.989076 
L 539.655037 136.610924 
L 540.185749 136.384034 
L 542.3086 136.005882 
L 543.370025 135.552101 
L 543.900737 135.514286 
L 552.92285 132.829412 
L 553.453563 132.602521 
L 553.984275 132.22437 
L 555.0457 131.921849 
L 556.107125 131.581513 
L 557.16855 131.165546 
L 558.760688 130.484874 
L 560.352826 130.371429 
L 562.475676 129.766387 
L 563.006388 129.42605 
L 564.067813 129.123529 
L 566.721376 127.951261 
L 567.252088 127.913445 
L 573.089926 125.909244 
L 575.743489 125.228571 
L 576.804914 124.736975 
L 577.866339 124.510084 
L 578.397052 124.396639 
L 578.927764 123.980672 
L 579.458477 123.715966 
L 579.989189 123.073109 
L 580.519902 122.694958 
L 581.581327 122.392437 
L 582.112039 121.976471 
L 584.765602 120.879832 
L 585.296314 120.766387 
L 585.827027 120.42605 
L 586.888452 120.123529 
L 587.419165 119.783193 
L 590.072727 118.913445 
L 591.664865 118.005882 
L 592.195577 117.892437 
L 593.257002 117.287395 
L 593.787715 117.060504 
L 594.84914 116.417647 
L 596.441278 115.661345 
L 596.97199 115.283193 
L 598.033415 114.942857 
L 599.09484 114.337815 
L 599.625553 114.148739 
L 600.156265 113.770588 
L 607.055528 111.388235 
L 607.586241 111.27479 
L 608.116953 110.934454 
L 608.647666 110.858824 
L 609.709091 110.594118 
L 610.770516 110.367227 
L 614.485504 108.552101 
L 615.016216 108.476471 
L 616.608354 107.606723 
L 619.792629 106.358824 
L 621.915479 105.526891 
L 622.446192 105.37563 
L 622.976904 105.035294 
L 624.038329 104.884034 
L 624.569042 104.543697 
L 625.099754 104.505882 
L 626.161179 104.165546 
L 627.222604 103.636134 
L 627.753317 103.560504 
L 630.40688 102.501681 
L 631.999017 102.047899 
L 633.060442 101.783193 
L 634.65258 101.329412 
L 635.714005 100.913445 
L 637.836855 99.778992 
L 638.89828 99.363025 
L 639.428993 99.022689 
L 640.490418 98.795798 
L 641.02113 98.493277 
L 641.551843 98.379832 
L 643.14398 97.547899 
L 644.205405 97.131933 
L 645.797543 96.413445 
L 647.389681 95.997479 
L 650.573956 94.74958 
L 652.166093 94.220168 
L 660.126781 90.816807 
L 660.657494 90.741176 
L 662.780344 89.909244 
L 664.372482 89.039496 
L 664.903194 88.92605 
L 665.964619 88.510084 
L 666.495332 88.510084 
L 667.556757 88.056303 
L 668.618182 87.110924 
L 669.148894 86.657143 
L 670.741032 85.90084 
L 671.271744 85.787395 
L 671.802457 85.522689 
L 672.33317 85.447059 
L 672.863882 85.068908 
L 673.394595 84.955462 
L 674.45602 84.312605 
L 676.048157 83.518487 
L 677.109582 83.102521 
L 677.640295 82.837815 
L 680.293857 82.194958 
L 680.82457 81.930252 
L 682.416708 81.476471 
L 684.539558 80.455462 
L 685.600983 79.963866 
L 686.662408 79.69916 
L 690.377396 77.959664 
L 693.030958 77.014286 
L 694.623096 76.068908 
L 695.153808 75.955462 
L 696.215233 75.42605 
L 697.276658 75.047899 
L 697.807371 74.594118 
L 698.338084 74.291597 
L 699.930221 73.8 
L 700.991646 73.081513 
L 701.522359 73.043697 
L 702.583784 72.741176 
L 703.645209 72.40084 
L 704.175921 72.136134 
L 704.706634 72.060504 
L 706.298771 71.493277 
L 707.890909 70.92605 
L 708.952334 70.510084 
L 709.483047 70.094118 
L 711.075184 69.678151 
L 711.605897 69.37563 
L 712.667322 69.110924 
L 714.259459 68.241176 
L 714.790172 68.203361 
L 716.38231 67.711765 
L 717.443735 67.598319 
L 718.50516 67.182353 
L 721.689435 66.27479 
L 722.75086 66.236975 
L 725.935135 65.215966 
L 726.465848 65.140336 
L 728.057985 64.308403 
L 728.588698 63.854622 
L 729.650123 63.24958 
L 731.24226 62.228571 
L 734.426536 61.131933 
L 734.957248 60.715966 
L 736.549386 59.997479 
L 737.080098 59.884034 
L 738.141523 59.392437 
L 739.733661 58.976471 
L 741.325799 58.295798 
L 742.387224 57.804202 
L 743.979361 57.161345 
L 744.510074 57.047899 
L 746.102211 56.291597 
L 746.632924 56.140336 
L 747.163636 55.8 
L 747.163636 55.8 
" clip-path="url(#pf334061394)" style="fill: none; stroke: #1f77b4; stroke-width: 1.5; stroke-linecap: square"/>
   </g>
   <g id="line2d_40">
    <path d="M 138.967076 307.8 
L 140.559214 307.72437 
L 142.151351 307.686555 
L 145.335627 307.610924 
L 147.989189 307.497479 
L 150.112039 307.497479 
L 150.642752 307.346218 
L 152.765602 307.270588 
L 154.35774 307.081513 
L 155.949877 306.930252 
L 159.134152 306.778992 
L 159.664865 306.778992 
L 160.72629 306.665546 
L 163.910565 306.514286 
L 167.625553 306.438655 
L 170.279115 306.32521 
L 176.647666 306.24958 
L 179.301229 306.136134 
L 182.485504 306.060504 
L 184.608354 305.984874 
L 189.384767 305.909244 
L 190.976904 305.871429 
L 192.569042 305.833613 
L 194.161179 305.644538 
L 197.345455 305.606723 
L 198.40688 305.531092 
L 202.65258 305.455462 
L 207.959705 305.152941 
L 211.674693 305.077311 
L 212.736118 305.001681 
L 214.328256 304.92605 
L 217.512531 304.77479 
L 219.635381 304.736975 
L 221.227518 304.585714 
L 228.126781 304.169748 
L 230.780344 304.094118 
L 235.556757 303.829412 
L 237.148894 303.753782 
L 242.45602 303.451261 
L 248.293857 303.37563 
L 250.416708 303.148739 
L 251.478133 303.073109 
L 258.377396 302.505882 
L 261.561671 302.089916 
L 263.684521 302.014286 
L 267.930221 301.447059 
L 271.114496 301.371429 
L 272.706634 301.220168 
L 273.768059 301.182353 
L 274.829484 301.068908 
L 276.421622 300.993277 
L 278.013759 300.766387 
L 278.544472 300.766387 
L 280.136609 300.539496 
L 282.259459 300.463866 
L 283.320885 300.388235 
L 285.443735 300.312605 
L 286.50516 300.236975 
L 289.158722 299.972269 
L 290.220147 299.783193 
L 291.812285 299.745378 
L 292.87371 299.669748 
L 295.527273 299.594118 
L 302.426536 299.178151 
L 304.018673 299.102521 
L 310.917936 298.686555 
L 314.632924 298.610924 
L 315.694349 298.497479 
L 319.409337 298.421849 
L 323.124324 298.232773 
L 328.962162 298.157143 
L 332.67715 297.968067 
L 336.92285 297.892437 
L 341.16855 297.665546 
L 344.883538 297.589916 
L 354.967076 296.947059 
L 360.274201 296.871429 
L 362.397052 296.644538 
L 363.989189 296.606723 
L 365.581327 296.568908 
L 367.704177 296.342017 
L 373.011302 296.039496 
L 376.195577 295.963866 
L 377.787715 295.92605 
L 379.379853 295.888235 
L 380.97199 295.736975 
L 385.21769 295.661345 
L 386.279115 295.510084 
L 387.340541 295.434454 
L 389.994103 295.321008 
L 391.055528 295.245378 
L 392.116953 295.169748 
L 396.893366 295.094118 
L 397.954791 294.980672 
L 400.077641 294.942857 
L 401.139066 294.829412 
L 402.731204 294.640336 
L 403.792629 294.564706 
L 408.569042 294.3 
L 409.630467 294.262185 
L 411.222604 294.110924 
L 412.814742 294.073109 
L 414.40688 293.997479 
L 417.060442 293.884034 
L 424.490418 293.808403 
L 428.205405 293.619328 
L 432.451106 293.543697 
L 434.573956 293.468067 
L 436.696806 293.430252 
L 437.758231 293.316807 
L 439.881081 293.241176 
L 445.188206 292.938655 
L 448.372482 292.90084 
L 449.964619 292.74958 
L 451.556757 292.711765 
L 455.271744 292.636134 
L 457.394595 292.560504 
L 463.763145 292.484874 
L 466.416708 292.371429 
L 469.600983 292.295798 
L 471.19312 292.106723 
L 474.377396 292.068908 
L 475.969533 291.917647 
L 478.092383 291.842017 
L 484.460934 291.766387 
L 487.114496 291.652941 
L 496.136609 291.615126 
L 497.198034 291.539496 
L 498.790172 291.501681 
L 505.689435 291.42605 
L 506.75086 291.35042 
L 512.588698 291.27479 
L 514.711548 291.19916 
L 524.795086 291.123529 
L 526.387224 291.085714 
L 531.163636 291.010084 
L 532.225061 290.934454 
L 544.962162 290.858824 
L 546.5543 290.821008 
L 560.883538 290.745378 
L 562.475676 290.707563 
L 572.028501 290.631933 
L 573.089926 290.556303 
L 575.743489 290.480672 
L 577.335627 290.329412 
L 579.989189 290.253782 
L 583.173464 290.102521 
L 587.419165 290.026891 
L 588.48059 289.951261 
L 592.72629 289.87563 
L 595.910565 289.72437 
L 598.564128 289.648739 
L 602.809828 289.421849 
L 605.994103 289.346218 
L 608.116953 289.270588 
L 615.016216 289.194958 
L 617.139066 289.119328 
L 621.384767 289.043697 
L 625.099754 288.854622 
L 629.876167 288.778992 
L 630.937592 288.703361 
L 640.490418 288.627731 
L 642.082555 288.589916 
L 644.736118 288.552101 
L 646.858968 288.32521 
L 648.451106 288.287395 
L 651.635381 288.211765 
L 656.942506 287.909244 
L 659.596069 287.833613 
L 661.718919 287.757983 
L 667.556757 287.682353 
L 670.210319 287.379832 
L 672.33317 287.304202 
L 676.048157 287.228571 
L 677.109582 287.115126 
L 681.355283 287.039496 
L 684.008845 286.92605 
L 690.908108 286.888235 
L 691.969533 286.77479 
L 695.684521 286.69916 
L 697.276658 286.661345 
L 699.930221 286.585714 
L 701.522359 286.547899 
L 710.544472 286.472269 
L 713.198034 286.358824 
L 720.62801 286.283193 
L 722.75086 286.207563 
L 728.588698 286.131933 
L 729.650123 286.018487 
L 734.426536 285.980672 
L 735.487961 285.905042 
L 738.141523 285.829412 
L 739.733661 285.791597 
L 746.632924 285.715966 
L 747.163636 285.678151 
L 747.163636 285.678151 
" clip-path="url(#pf334061394)" style="fill: none; stroke: #ff7f0e; stroke-width: 1.5; stroke-linecap: square"/>
   </g>
   <g id="patch_3">
    <path d="M 108 320.4 
L 108 43.2 
" style="fill: none; stroke: #a9a9a9; stroke-width: 0.8; stroke-linejoin: miter; stroke-linecap: square"/>
   </g>
   <g id="patch_4">
    <path d="M 777.6 320.4 
L 777.6 43.2 
" style="fill: none"/>
   </g>
   <g id="patch_5">
    <path d="M 108 320.4 
L 777.6 320.4 
" style="fill: none; stroke: #a9a9a9; stroke-width: 0.8; stroke-linejoin: miter; stroke-linecap: square"/>
   </g>
   <g id="patch_6">
    <path d="M 108 43.2 
L 777.6 43.2 
" style="fill: none"/>
   </g>
   <g id="text_20">
    <!-- get_subscribe history -->
    <g style="fill: #a9a9a9" transform="translate(378.6075 37.2) scale(0.12 -0.12)">
     <defs>
      <path id="DejaVuSans-67" d="M 2906 1791 
Q 2906 2416 2648 2759 
Q 2391 3103 1925 3103 
Q 1463 3103 1205 2759 
Q 947 2416 947 1791 
Q 947 1169 1205 825 
Q 1463 481 1925 481 
Q 2391 481 2648 825 
Q 2906 1169 2906 1791 
z
M 3481 434 
Q 3481 -459 3084 -895 
Q 2688 -1331 1869 -1331 
Q 1566 -1331 1297 -1286 
Q 1028 -1241 775 -1147 
L 775 -588 
Q 1028 -725 1275 -790 
Q 1522 -856 1778 -856 
Q 2344 -856 2625 -561 
Q 2906 -266 2906 331 
L 2906 616 
Q 2728 306 2450 153 
Q 2172 0 1784 0 
Q 1141 0 747 490 
Q 353 981 353 1791 
Q 353 2603 747 3093 
Q 1141 3584 1784 3584 
Q 2172 3584 2450 3431 
Q 2728 3278 2906 2969 
L 2906 3500 
L 3481 3500 
L 3481 434 
z
" transform="scale(0.015625)"/>
      <path id="DejaVuSans-65" d="M 3597 1894 
L 3597 1613 
L 953 1613 
Q 991 1019 1311 708 
Q 1631 397 2203 397 
Q 2534 397 2845 478 
Q 3156 559 3463 722 
L 3463 178 
Q 3153 47 2828 -22 
Q 2503 -91 2169 -91 
Q 1331 -91 842 396 
Q 353 884 353 1716 
Q 353 2575 817 3079 
Q 1281 3584 2069 3584 
Q 2775 3584 3186 3129 
Q 3597 2675 3597 1894 
z
M 3022 2063 
Q 3016 2534 2758 2815 
Q 2500 3097 2075 3097 
Q 1594 3097 1305 2825 
Q 1016 2553 972 2059 
L 3022 2063 
z
" transform="scale(0.015625)"/>
      <path id="DejaVuSans-74" d="M 1172 4494 
L 1172 3500 
L 2356 3500 
L 2356 3053 
L 1172 3053 
L 1172 1153 
Q 1172 725 1289 603 
Q 1406 481 1766 481 
L 2356 481 
L 2356 0 
L 1766 0 
Q 1100 0 847 248 
Q 594 497 594 1153 
L 594 3053 
L 172 3053 
L 172 3500 
L 594 3500 
L 594 4494 
L 1172 4494 
z
" transform="scale(0.015625)"/>
      <path id="DejaVuSans-5f" d="M 3263 -1063 
L 3263 -1509 
L -63 -1509 
L -63 -1063 
L 3263 -1063 
z
" transform="scale(0.015625)"/>
      <path id="DejaVuSans-73" d="M 2834 3397 
L 2834 2853 
Q 2591 2978 2328 3040 
Q 2066 3103 1784 3103 
Q 1356 3103 1142 2972 
Q 928 2841 928 2578 
Q 928 2378 1081 2264 
Q 1234 2150 1697 2047 
L 1894 2003 
Q 2506 1872 2764 1633 
Q 3022 1394 3022 966 
Q 3022 478 2636 193 
Q 2250 -91 1575 -91 
Q 1294 -91 989 -36 
Q 684 19 347 128 
L 347 722 
Q 666 556 975 473 
Q 1284 391 1588 391 
Q 1994 391 2212 530 
Q 2431 669 2431 922 
Q 2431 1156 2273 1281 
Q 2116 1406 1581 1522 
L 1381 1569 
Q 847 1681 609 1914 
Q 372 2147 372 2553 
Q 372 3047 722 3315 
Q 1072 3584 1716 3584 
Q 2034 3584 2315 3537 
Q 2597 3491 2834 3397 
z
" transform="scale(0.015625)"/>
      <path id="DejaVuSans-75" d="M 544 1381 
L 544 3500 
L 1119 3500 
L 1119 1403 
Q 1119 906 1312 657 
Q 1506 409 1894 409 
Q 2359 409 2629 706 
Q 2900 1003 2900 1516 
L 2900 3500 
L 3475 3500 
L 3475 0 
L 2900 0 
L 2900 538 
Q 2691 219 2414 64 
Q 2138 -91 1772 -91 
Q 1169 -91 856 284 
Q 544 659 544 1381 
z
M 1991 3584 
L 1991 3584 
z
" transform="scale(0.015625)"/>
      <path id="DejaVuSans-62" d="M 3116 1747 
Q 3116 2381 2855 2742 
Q 2594 3103 2138 3103 
Q 1681 3103 1420 2742 
Q 1159 2381 1159 1747 
Q 1159 1113 1420 752 
Q 1681 391 2138 391 
Q 2594 391 2855 752 
Q 3116 1113 3116 1747 
z
M 1159 2969 
Q 1341 3281 1617 3432 
Q 1894 3584 2278 3584 
Q 2916 3584 3314 3078 
Q 3713 2572 3713 1747 
Q 3713 922 3314 415 
Q 2916 -91 2278 -91 
Q 1894 -91 1617 61 
Q 1341 213 1159 525 
L 1159 0 
L 581 0 
L 581 4863 
L 1159 4863 
L 1159 2969 
z
" transform="scale(0.015625)"/>
      <path id="DejaVuSans-63" d="M 3122 3366 
L 3122 2828 
Q 2878 2963 2633 3030 
Q 2388 3097 2138 3097 
Q 1578 3097 1268 2742 
Q 959 2388 959 1747 
Q 959 1106 1268 751 
Q 1578 397 2138 397 
Q 2388 397 2633 464 
Q 2878 531 3122 666 
L 3122 134 
Q 2881 22 2623 -34 
Q 2366 -91 2075 -91 
Q 1284 -91 818 406 
Q 353 903 353 1747 
Q 353 2603 823 3093 
Q 1294 3584 2113 3584 
Q 2378 3584 2631 3529 
Q 2884 3475 3122 3366 
z
" transform="scale(0.015625)"/>
      <path id="DejaVuSans-72" d="M 2631 2963 
Q 2534 3019 2420 3045 
Q 2306 3072 2169 3072 
Q 1681 3072 1420 2755 
Q 1159 2438 1159 1844 
L 1159 0 
L 581 0 
L 581 3500 
L 1159 3500 
L 1159 2956 
Q 1341 3275 1631 3429 
Q 1922 3584 2338 3584 
Q 2397 3584 2469 3576 
Q 2541 3569 2628 3553 
L 2631 2963 
z
" transform="scale(0.015625)"/>
      <path id="DejaVuSans-69" d="M 603 3500 
L 1178 3500 
L 1178 0 
L 603 0 
L 603 3500 
z
M 603 4863 
L 1178 4863 
L 1178 4134 
L 603 4134 
L 603 4863 
z
" transform="scale(0.015625)"/>
      <path id="DejaVuSans-20" transform="scale(0.015625)"/>
      <path id="DejaVuSans-68" d="M 3513 2113 
L 3513 0 
L 2938 0 
L 2938 2094 
Q 2938 2591 2744 2837 
Q 2550 3084 2163 3084 
Q 1697 3084 1428 2787 
Q 1159 2491 1159 1978 
L 1159 0 
L 581 0 
L 581 4863 
L 1159 4863 
L 1159 2956 
Q 1366 3272 1645 3428 
Q 1925 3584 2291 3584 
Q 2894 3584 3203 3211 
Q 3513 2838 3513 2113 
z
" transform="scale(0.015625)"/>
      <path id="DejaVuSans-6f" d="M 1959 3097 
Q 1497 3097 1228 2736 
Q 959 2375 959 1747 
Q 959 1119 1226 758 
Q 1494 397 1959 397 
Q 2419 397 2687 759 
Q 2956 1122 2956 1747 
Q 2956 2369 2687 2733 
Q 2419 3097 1959 3097 
z
M 1959 3584 
Q 2709 3584 3137 3096 
Q 3566 2609 3566 1747 
Q 3566 888 3137 398 
Q 2709 -91 1959 -91 
Q 1206 -91 779 398 
Q 353 888 353 1747 
Q 353 2609 779 3096 
Q 1206 3584 1959 3584 
z
" transform="scale(0.015625)"/>
      <path id="DejaVuSans-79" d="M 2059 -325 
Q 1816 -950 1584 -1140 
Q 1353 -1331 966 -1331 
L 506 -1331 
L 506 -850 
L 844 -850 
Q 1081 -850 1212 -737 
Q 1344 -625 1503 -206 
L 1606 56 
L 191 3500 
L 800 3500 
L 1894 763 
L 2988 3500 
L 3597 3500 
L 2059 -325 
z
" transform="scale(0.015625)"/>
     </defs>
     <use xlink:href="#DejaVuSans-67"/>
     <use xlink:href="#DejaVuSans-65" x="63.476562"/>
     <use xlink:href="#DejaVuSans-74" x="125"/>
     <use xlink:href="#DejaVuSans-5f" x="164.208984"/>
     <use xlink:href="#DejaVuSans-73" x="214.208984"/>
     <use xlink:href="#DejaVuSans-75" x="266.308594"/>
     <use xlink:href="#DejaVuSans-62" x="329.6875"/>
     <use xlink:href="#DejaVuSans-73" x="393.164062"/>
     <use xlink:href="#DejaVuSans-63" x="445.263672"/>
     <use xlink:href="#DejaVuSans-72" x="500.244141"/>
     <use xlink:href="#DejaVuSans-69" x="541.357422"/>
     <use xlink:href="#DejaVuSans-62" x="569.140625"/>
     <use xlink:href="#DejaVuSans-65" x="632.617188"/>
     <use xlink:href="#DejaVuSans-20" x="694.140625"/>
     <use xlink:href="#DejaVuSans-68" x="725.927734"/>
     <use xlink:href="#DejaVuSans-69" x="789.306641"/>
     <use xlink:href="#DejaVuSans-73" x="817.089844"/>
     <use xlink:href="#DejaVuSans-74" x="869.189453"/>
     <use xlink:href="#DejaVuSans-6f" x="908.398438"/>
     <use xlink:href="#DejaVuSans-72" x="969.580078"/>
     <use xlink:href="#DejaVuSans-79" x="1010.693359"/>
    </g>
   </g>
   <g id="legend_1">
    <g id="line2d_41">
     <path d="M 815.08 328.498438 
L 825.08 328.498438 
L 835.08 328.498438 
" style="fill: none; stroke: #1f77b4; stroke-width: 1.5; stroke-linecap: square"/>
    </g>
    <g id="text_21">
     <!-- star -->
     <g style="fill: #a9a9a9" transform="translate(843.08 331.998438) scale(0.1 -0.1)">
      <defs>
       <path id="DejaVuSans-61" d="M 2194 1759 
Q 1497 1759 1228 1600 
Q 959 1441 959 1056 
Q 959 750 1161 570 
Q 1363 391 1709 391 
Q 2188 391 2477 730 
Q 2766 1069 2766 1631 
L 2766 1759 
L 2194 1759 
z
M 3341 1997 
L 3341 0 
L 2766 0 
L 2766 531 
Q 2569 213 2275 61 
Q 1981 -91 1556 -91 
Q 1019 -91 701 211 
Q 384 513 384 1019 
Q 384 1609 779 1909 
Q 1175 2209 1959 2209 
L 2766 2209 
L 2766 2266 
Q 2766 2663 2505 2880 
Q 2244 3097 1772 3097 
Q 1472 3097 1187 3025 
Q 903 2953 641 2809 
L 641 3341 
Q 956 3463 1253 3523 
Q 1550 3584 1831 3584 
Q 2591 3584 2966 3190 
Q 3341 2797 3341 1997 
z
" transform="scale(0.015625)"/>
      </defs>
      <use xlink:href="#DejaVuSans-73"/>
      <use xlink:href="#DejaVuSans-74" x="52.099609"/>
      <use xlink:href="#DejaVuSans-61" x="91.308594"/>
      <use xlink:href="#DejaVuSans-72" x="152.587891"/>
     </g>
    </g>
    <g id="line2d_42">
     <path d="M 815.08 343.176562 
L 825.08 343.176562 
L 835.08 343.176562 
" style="fill: none; stroke: #ff7f0e; stroke-width: 1.5; stroke-linecap: square"/>
    </g>
    <g id="text_22">
     <!-- fork -->
     <g style="fill: #a9a9a9" transform="translate(843.08 346.676562) scale(0.1 -0.1)">
      <defs>
       <path id="DejaVuSans-66" d="M 2375 4863 
L 2375 4384 
L 1825 4384 
Q 1516 4384 1395 4259 
Q 1275 4134 1275 3809 
L 1275 3500 
L 2222 3500 
L 2222 3053 
L 1275 3053 
L 1275 0 
L 697 0 
L 697 3053 
L 147 3053 
L 147 3500 
L 697 3500 
L 697 3744 
Q 697 4328 969 4595 
Q 1241 4863 1831 4863 
L 2375 4863 
z
" transform="scale(0.015625)"/>
       <path id="DejaVuSans-6b" d="M 581 4863 
L 1159 4863 
L 1159 1991 
L 2875 3500 
L 3609 3500 
L 1753 1863 
L 3688 0 
L 2938 0 
L 1159 1709 
L 1159 0 
L 581 0 
L 581 4863 
z
" transform="scale(0.015625)"/>
      </defs>
      <use xlink:href="#DejaVuSans-66"/>
      <use xlink:href="#DejaVuSans-6f" x="35.205078"/>
      <use xlink:href="#DejaVuSans-72" x="96.386719"/>
      <use xlink:href="#DejaVuSans-6b" x="137.5"/>
     </g>
    </g>
   </g>
  </g>
 </g>
 <defs>
  <clipPath id="pf334061394">
   <rect x="108" y="43.2" width="669.6" height="277.2"/>
  </clipPath>
 </defs>
</svg>
