<?xml version="1.0" encoding="utf-8" standalone="no"?>
<!DOCTYPE svg PUBLIC "-//W3C//DTD SVG 1.1//EN"
  "http://www.w3.org/Graphics/SVG/1.1/DTD/svg11.dtd">
<svg xmlns:xlink="http://www.w3.org/1999/xlink" width="864pt" height="360pt" viewBox="0 0 864 360" xmlns="http://www.w3.org/2000/svg" version="1.1">
 <metadata>
  <rdf:RDF xmlns:dc="http://purl.org/dc/elements/1.1/" xmlns:cc="http://creativecommons.org/ns#" xmlns:rdf="http://www.w3.org/1999/02/22-rdf-syntax-ns#">
   <cc:Work>
    <dc:type rdf:resource="http://purl.org/dc/dcmitype/StillImage"/>
    <dc:date>2024-09-10T08:13:19.818622</dc:date>
    <dc:format>image/svg+xml</dc:format>
    <dc:creator>
     <cc:Agent>
      <dc:title>Matplotlib v3.9.2, https://matplotlib.org/</dc:title>
     </cc:Agent>
    </dc:creator>
   </cc:Work>
  </rdf:RDF>
 </metadata>
 <defs>
  <style type="text/css">*{stroke-linejoin: round; stroke-linecap: butt}</style>
 </defs>
 <g id="figure_1">
  <g id="patch_1">
   <path d="M 0 360 
L 864 360 
L 864 0 
L 0 0 
L 0 360 
z
" style="fill: none; opacity: 0"/>
  </g>
  <g id="axes_1">
   <g id="patch_2">
    <path d="M 108 320.4 
L 777.6 320.4 
L 777.6 43.2 
L 108 43.2 
L 108 320.4 
z
" style="fill: none; opacity: 0"/>
   </g>
   <g id="matplotlib.axis_1">
    <g id="xtick_1">
     <g id="line2d_1">
      <path d="M 159.18843 320.4 
L 159.18843 43.2 
" clip-path="url(#p156822b887)" style="fill: none; stroke-dasharray: 5.12,1.28,0.8,1.28; stroke-dashoffset: 0; stroke: #b0b0b0; stroke-width: 0.8"/>
     </g>
     <g id="line2d_2">
      <defs>
       <path id="m86e0fc62a7" d="M 0 0 
L 0 3.5 
" style="stroke: #a9a9a9; stroke-width: 0.8"/>
      </defs>
      <g>
       <use xlink:href="#m86e0fc62a7" x="159.18843" y="320.4" style="fill: #a9a9a9; stroke: #a9a9a9; stroke-width: 0.8"/>
      </g>
     </g>
     <g id="text_1">
      <!-- 2021-09 -->
      <g style="fill: #a9a9a9" transform="translate(138.297024 334.998438) scale(0.1 -0.1)">
       <defs>
        <path id="DejaVuSans-32" d="M 1228 531 
L 3431 531 
L 3431 0 
L 469 0 
L 469 531 
Q 828 903 1448 1529 
Q 2069 2156 2228 2338 
Q 2531 2678 2651 2914 
Q 2772 3150 2772 3378 
Q 2772 3750 2511 3984 
Q 2250 4219 1831 4219 
Q 1534 4219 1204 4116 
Q 875 4013 500 3803 
L 500 4441 
Q 881 4594 1212 4672 
Q 1544 4750 1819 4750 
Q 2544 4750 2975 4387 
Q 3406 4025 3406 3419 
Q 3406 3131 3298 2873 
Q 3191 2616 2906 2266 
Q 2828 2175 2409 1742 
Q 1991 1309 1228 531 
z
" transform="scale(0.015625)"/>
        <path id="DejaVuSans-30" d="M 2034 4250 
Q 1547 4250 1301 3770 
Q 1056 3291 1056 2328 
Q 1056 1369 1301 889 
Q 1547 409 2034 409 
Q 2525 409 2770 889 
Q 3016 1369 3016 2328 
Q 3016 3291 2770 3770 
Q 2525 4250 2034 4250 
z
M 2034 4750 
Q 2819 4750 3233 4129 
Q 3647 3509 3647 2328 
Q 3647 1150 3233 529 
Q 2819 -91 2034 -91 
Q 1250 -91 836 529 
Q 422 1150 422 2328 
Q 422 3509 836 4129 
Q 1250 4750 2034 4750 
z
" transform="scale(0.015625)"/>
        <path id="DejaVuSans-31" d="M 794 531 
L 1825 531 
L 1825 4091 
L 703 3866 
L 703 4441 
L 1819 4666 
L 2450 4666 
L 2450 531 
L 3481 531 
L 3481 0 
L 794 0 
L 794 531 
z
" transform="scale(0.015625)"/>
        <path id="DejaVuSans-2d" d="M 313 2009 
L 1997 2009 
L 1997 1497 
L 313 1497 
L 313 2009 
z
" transform="scale(0.015625)"/>
        <path id="DejaVuSans-39" d="M 703 97 
L 703 672 
Q 941 559 1184 500 
Q 1428 441 1663 441 
Q 2288 441 2617 861 
Q 2947 1281 2994 2138 
Q 2813 1869 2534 1725 
Q 2256 1581 1919 1581 
Q 1219 1581 811 2004 
Q 403 2428 403 3163 
Q 403 3881 828 4315 
Q 1253 4750 1959 4750 
Q 2769 4750 3195 4129 
Q 3622 3509 3622 2328 
Q 3622 1225 3098 567 
Q 2575 -91 1691 -91 
Q 1453 -91 1209 -44 
Q 966 3 703 97 
z
M 1959 2075 
Q 2384 2075 2632 2365 
Q 2881 2656 2881 3163 
Q 2881 3666 2632 3958 
Q 2384 4250 1959 4250 
Q 1534 4250 1286 3958 
Q 1038 3666 1038 3163 
Q 1038 2656 1286 2365 
Q 1534 2075 1959 2075 
z
" transform="scale(0.015625)"/>
       </defs>
       <use xlink:href="#DejaVuSans-32"/>
       <use xlink:href="#DejaVuSans-30" x="63.623047"/>
       <use xlink:href="#DejaVuSans-32" x="127.246094"/>
       <use xlink:href="#DejaVuSans-31" x="190.869141"/>
       <use xlink:href="#DejaVuSans-2d" x="254.492188"/>
       <use xlink:href="#DejaVuSans-30" x="290.576172"/>
       <use xlink:href="#DejaVuSans-39" x="354.199219"/>
      </g>
     </g>
    </g>
    <g id="xtick_2">
     <g id="line2d_3">
      <path d="M 224.105149 320.4 
L 224.105149 43.2 
" clip-path="url(#p156822b887)" style="fill: none; stroke-dasharray: 5.12,1.28,0.8,1.28; stroke-dashoffset: 0; stroke: #b0b0b0; stroke-width: 0.8"/>
     </g>
     <g id="line2d_4">
      <g>
       <use xlink:href="#m86e0fc62a7" x="224.105149" y="320.4" style="fill: #a9a9a9; stroke: #a9a9a9; stroke-width: 0.8"/>
      </g>
     </g>
     <g id="text_2">
      <!-- 2022-01 -->
      <g style="fill: #a9a9a9" transform="translate(203.213743 334.998438) scale(0.1 -0.1)">
       <use xlink:href="#DejaVuSans-32"/>
       <use xlink:href="#DejaVuSans-30" x="63.623047"/>
       <use xlink:href="#DejaVuSans-32" x="127.246094"/>
       <use xlink:href="#DejaVuSans-32" x="190.869141"/>
       <use xlink:href="#DejaVuSans-2d" x="254.492188"/>
       <use xlink:href="#DejaVuSans-30" x="290.576172"/>
       <use xlink:href="#DejaVuSans-31" x="354.199219"/>
      </g>
     </g>
    </g>
    <g id="xtick_3">
     <g id="line2d_5">
      <path d="M 287.957661 320.4 
L 287.957661 43.2 
" clip-path="url(#p156822b887)" style="fill: none; stroke-dasharray: 5.12,1.28,0.8,1.28; stroke-dashoffset: 0; stroke: #b0b0b0; stroke-width: 0.8"/>
     </g>
     <g id="line2d_6">
      <g>
       <use xlink:href="#m86e0fc62a7" x="287.957661" y="320.4" style="fill: #a9a9a9; stroke: #a9a9a9; stroke-width: 0.8"/>
      </g>
     </g>
     <g id="text_3">
      <!-- 2022-05 -->
      <g style="fill: #a9a9a9" transform="translate(267.066254 334.998438) scale(0.1 -0.1)">
       <defs>
        <path id="DejaVuSans-35" d="M 691 4666 
L 3169 4666 
L 3169 4134 
L 1269 4134 
L 1269 2991 
Q 1406 3038 1543 3061 
Q 1681 3084 1819 3084 
Q 2600 3084 3056 2656 
Q 3513 2228 3513 1497 
Q 3513 744 3044 326 
Q 2575 -91 1722 -91 
Q 1428 -91 1123 -41 
Q 819 9 494 109 
L 494 744 
Q 775 591 1075 516 
Q 1375 441 1709 441 
Q 2250 441 2565 725 
Q 2881 1009 2881 1497 
Q 2881 1984 2565 2268 
Q 2250 2553 1709 2553 
Q 1456 2553 1204 2497 
Q 953 2441 691 2322 
L 691 4666 
z
" transform="scale(0.015625)"/>
       </defs>
       <use xlink:href="#DejaVuSans-32"/>
       <use xlink:href="#DejaVuSans-30" x="63.623047"/>
       <use xlink:href="#DejaVuSans-32" x="127.246094"/>
       <use xlink:href="#DejaVuSans-32" x="190.869141"/>
       <use xlink:href="#DejaVuSans-2d" x="254.492188"/>
       <use xlink:href="#DejaVuSans-30" x="290.576172"/>
       <use xlink:href="#DejaVuSans-35" x="354.199219"/>
      </g>
     </g>
    </g>
    <g id="xtick_4">
     <g id="line2d_7">
      <path d="M 353.406484 320.4 
L 353.406484 43.2 
" clip-path="url(#p156822b887)" style="fill: none; stroke-dasharray: 5.12,1.28,0.8,1.28; stroke-dashoffset: 0; stroke: #b0b0b0; stroke-width: 0.8"/>
     </g>
     <g id="line2d_8">
      <g>
       <use xlink:href="#m86e0fc62a7" x="353.406484" y="320.4" style="fill: #a9a9a9; stroke: #a9a9a9; stroke-width: 0.8"/>
      </g>
     </g>
     <g id="text_4">
      <!-- 2022-09 -->
      <g style="fill: #a9a9a9" transform="translate(332.515078 334.998438) scale(0.1 -0.1)">
       <use xlink:href="#DejaVuSans-32"/>
       <use xlink:href="#DejaVuSans-30" x="63.623047"/>
       <use xlink:href="#DejaVuSans-32" x="127.246094"/>
       <use xlink:href="#DejaVuSans-32" x="190.869141"/>
       <use xlink:href="#DejaVuSans-2d" x="254.492188"/>
       <use xlink:href="#DejaVuSans-30" x="290.576172"/>
       <use xlink:href="#DejaVuSans-39" x="354.199219"/>
      </g>
     </g>
    </g>
    <g id="xtick_5">
     <g id="line2d_9">
      <path d="M 418.323204 320.4 
L 418.323204 43.2 
" clip-path="url(#p156822b887)" style="fill: none; stroke-dasharray: 5.12,1.28,0.8,1.28; stroke-dashoffset: 0; stroke: #b0b0b0; stroke-width: 0.8"/>
     </g>
     <g id="line2d_10">
      <g>
       <use xlink:href="#m86e0fc62a7" x="418.323204" y="320.4" style="fill: #a9a9a9; stroke: #a9a9a9; stroke-width: 0.8"/>
      </g>
     </g>
     <g id="text_5">
      <!-- 2023-01 -->
      <g style="fill: #a9a9a9" transform="translate(397.431798 334.998438) scale(0.1 -0.1)">
       <defs>
        <path id="DejaVuSans-33" d="M 2597 2516 
Q 3050 2419 3304 2112 
Q 3559 1806 3559 1356 
Q 3559 666 3084 287 
Q 2609 -91 1734 -91 
Q 1441 -91 1130 -33 
Q 819 25 488 141 
L 488 750 
Q 750 597 1062 519 
Q 1375 441 1716 441 
Q 2309 441 2620 675 
Q 2931 909 2931 1356 
Q 2931 1769 2642 2001 
Q 2353 2234 1838 2234 
L 1294 2234 
L 1294 2753 
L 1863 2753 
Q 2328 2753 2575 2939 
Q 2822 3125 2822 3475 
Q 2822 3834 2567 4026 
Q 2313 4219 1838 4219 
Q 1578 4219 1281 4162 
Q 984 4106 628 3988 
L 628 4550 
Q 988 4650 1302 4700 
Q 1616 4750 1894 4750 
Q 2613 4750 3031 4423 
Q 3450 4097 3450 3541 
Q 3450 3153 3228 2886 
Q 3006 2619 2597 2516 
z
" transform="scale(0.015625)"/>
       </defs>
       <use xlink:href="#DejaVuSans-32"/>
       <use xlink:href="#DejaVuSans-30" x="63.623047"/>
       <use xlink:href="#DejaVuSans-32" x="127.246094"/>
       <use xlink:href="#DejaVuSans-33" x="190.869141"/>
       <use xlink:href="#DejaVuSans-2d" x="254.492188"/>
       <use xlink:href="#DejaVuSans-30" x="290.576172"/>
       <use xlink:href="#DejaVuSans-31" x="354.199219"/>
      </g>
     </g>
    </g>
    <g id="xtick_6">
     <g id="line2d_11">
      <path d="M 482.175715 320.4 
L 482.175715 43.2 
" clip-path="url(#p156822b887)" style="fill: none; stroke-dasharray: 5.12,1.28,0.8,1.28; stroke-dashoffset: 0; stroke: #b0b0b0; stroke-width: 0.8"/>
     </g>
     <g id="line2d_12">
      <g>
       <use xlink:href="#m86e0fc62a7" x="482.175715" y="320.4" style="fill: #a9a9a9; stroke: #a9a9a9; stroke-width: 0.8"/>
      </g>
     </g>
     <g id="text_6">
      <!-- 2023-05 -->
      <g style="fill: #a9a9a9" transform="translate(461.284309 334.998438) scale(0.1 -0.1)">
       <use xlink:href="#DejaVuSans-32"/>
       <use xlink:href="#DejaVuSans-30" x="63.623047"/>
       <use xlink:href="#DejaVuSans-32" x="127.246094"/>
       <use xlink:href="#DejaVuSans-33" x="190.869141"/>
       <use xlink:href="#DejaVuSans-2d" x="254.492188"/>
       <use xlink:href="#DejaVuSans-30" x="290.576172"/>
       <use xlink:href="#DejaVuSans-35" x="354.199219"/>
      </g>
     </g>
    </g>
    <g id="xtick_7">
     <g id="line2d_13">
      <path d="M 547.624539 320.4 
L 547.624539 43.2 
" clip-path="url(#p156822b887)" style="fill: none; stroke-dasharray: 5.12,1.28,0.8,1.28; stroke-dashoffset: 0; stroke: #b0b0b0; stroke-width: 0.8"/>
     </g>
     <g id="line2d_14">
      <g>
       <use xlink:href="#m86e0fc62a7" x="547.624539" y="320.4" style="fill: #a9a9a9; stroke: #a9a9a9; stroke-width: 0.8"/>
      </g>
     </g>
     <g id="text_7">
      <!-- 2023-09 -->
      <g style="fill: #a9a9a9" transform="translate(526.733133 334.998438) scale(0.1 -0.1)">
       <use xlink:href="#DejaVuSans-32"/>
       <use xlink:href="#DejaVuSans-30" x="63.623047"/>
       <use xlink:href="#DejaVuSans-32" x="127.246094"/>
       <use xlink:href="#DejaVuSans-33" x="190.869141"/>
       <use xlink:href="#DejaVuSans-2d" x="254.492188"/>
       <use xlink:href="#DejaVuSans-30" x="290.576172"/>
       <use xlink:href="#DejaVuSans-39" x="354.199219"/>
      </g>
     </g>
    </g>
    <g id="xtick_8">
     <g id="line2d_15">
      <path d="M 612.541259 320.4 
L 612.541259 43.2 
" clip-path="url(#p156822b887)" style="fill: none; stroke-dasharray: 5.12,1.28,0.8,1.28; stroke-dashoffset: 0; stroke: #b0b0b0; stroke-width: 0.8"/>
     </g>
     <g id="line2d_16">
      <g>
       <use xlink:href="#m86e0fc62a7" x="612.541259" y="320.4" style="fill: #a9a9a9; stroke: #a9a9a9; stroke-width: 0.8"/>
      </g>
     </g>
     <g id="text_8">
      <!-- 2024-01 -->
      <g style="fill: #a9a9a9" transform="translate(591.649852 334.998438) scale(0.1 -0.1)">
       <defs>
        <path id="DejaVuSans-34" d="M 2419 4116 
L 825 1625 
L 2419 1625 
L 2419 4116 
z
M 2253 4666 
L 3047 4666 
L 3047 1625 
L 3713 1625 
L 3713 1100 
L 3047 1100 
L 3047 0 
L 2419 0 
L 2419 1100 
L 313 1100 
L 313 1709 
L 2253 4666 
z
" transform="scale(0.015625)"/>
       </defs>
       <use xlink:href="#DejaVuSans-32"/>
       <use xlink:href="#DejaVuSans-30" x="63.623047"/>
       <use xlink:href="#DejaVuSans-32" x="127.246094"/>
       <use xlink:href="#DejaVuSans-34" x="190.869141"/>
       <use xlink:href="#DejaVuSans-2d" x="254.492188"/>
       <use xlink:href="#DejaVuSans-30" x="290.576172"/>
       <use xlink:href="#DejaVuSans-31" x="354.199219"/>
      </g>
     </g>
    </g>
    <g id="xtick_9">
     <g id="line2d_17">
      <path d="M 676.925874 320.4 
L 676.925874 43.2 
" clip-path="url(#p156822b887)" style="fill: none; stroke-dasharray: 5.12,1.28,0.8,1.28; stroke-dashoffset: 0; stroke: #b0b0b0; stroke-width: 0.8"/>
     </g>
     <g id="line2d_18">
      <g>
       <use xlink:href="#m86e0fc62a7" x="676.925874" y="320.4" style="fill: #a9a9a9; stroke: #a9a9a9; stroke-width: 0.8"/>
      </g>
     </g>
     <g id="text_9">
      <!-- 2024-05 -->
      <g style="fill: #a9a9a9" transform="translate(656.034468 334.998438) scale(0.1 -0.1)">
       <use xlink:href="#DejaVuSans-32"/>
       <use xlink:href="#DejaVuSans-30" x="63.623047"/>
       <use xlink:href="#DejaVuSans-32" x="127.246094"/>
       <use xlink:href="#DejaVuSans-34" x="190.869141"/>
       <use xlink:href="#DejaVuSans-2d" x="254.492188"/>
       <use xlink:href="#DejaVuSans-30" x="290.576172"/>
       <use xlink:href="#DejaVuSans-35" x="354.199219"/>
      </g>
     </g>
    </g>
    <g id="xtick_10">
     <g id="line2d_19">
      <path d="M 742.374698 320.4 
L 742.374698 43.2 
" clip-path="url(#p156822b887)" style="fill: none; stroke-dasharray: 5.12,1.28,0.8,1.28; stroke-dashoffset: 0; stroke: #b0b0b0; stroke-width: 0.8"/>
     </g>
     <g id="line2d_20">
      <g>
       <use xlink:href="#m86e0fc62a7" x="742.374698" y="320.4" style="fill: #a9a9a9; stroke: #a9a9a9; stroke-width: 0.8"/>
      </g>
     </g>
     <g id="text_10">
      <!-- 2024-09 -->
      <g style="fill: #a9a9a9" transform="translate(721.483292 334.998438) scale(0.1 -0.1)">
       <use xlink:href="#DejaVuSans-32"/>
       <use xlink:href="#DejaVuSans-30" x="63.623047"/>
       <use xlink:href="#DejaVuSans-32" x="127.246094"/>
       <use xlink:href="#DejaVuSans-34" x="190.869141"/>
       <use xlink:href="#DejaVuSans-2d" x="254.492188"/>
       <use xlink:href="#DejaVuSans-30" x="290.576172"/>
       <use xlink:href="#DejaVuSans-39" x="354.199219"/>
      </g>
     </g>
    </g>
   </g>
   <g id="matplotlib.axis_2">
    <g id="ytick_1">
     <g id="line2d_21">
      <path d="M 108 307.837952 
L 777.6 307.837952 
" clip-path="url(#p156822b887)" style="fill: none; stroke-dasharray: 5.12,1.28,0.8,1.28; stroke-dashoffset: 0; stroke: #b0b0b0; stroke-width: 0.8"/>
     </g>
     <g id="line2d_22">
      <defs>
       <path id="mcf72ac53ab" d="M 0 0 
L -3.5 0 
" style="stroke: #a9a9a9; stroke-width: 0.8"/>
      </defs>
      <g>
       <use xlink:href="#mcf72ac53ab" x="108" y="307.837952" style="fill: #a9a9a9; stroke: #a9a9a9; stroke-width: 0.8"/>
      </g>
     </g>
     <g id="text_11">
      <!-- 0 -->
      <g style="fill: #a9a9a9" transform="translate(94.6375 311.637171) scale(0.1 -0.1)">
       <use xlink:href="#DejaVuSans-30"/>
      </g>
     </g>
    </g>
    <g id="ytick_2">
     <g id="line2d_23">
      <path d="M 108 277.476506 
L 777.6 277.476506 
" clip-path="url(#p156822b887)" style="fill: none; stroke-dasharray: 5.12,1.28,0.8,1.28; stroke-dashoffset: 0; stroke: #b0b0b0; stroke-width: 0.8"/>
     </g>
     <g id="line2d_24">
      <g>
       <use xlink:href="#mcf72ac53ab" x="108" y="277.476506" style="fill: #a9a9a9; stroke: #a9a9a9; stroke-width: 0.8"/>
      </g>
     </g>
     <g id="text_12">
      <!-- 800 -->
      <g style="fill: #a9a9a9" transform="translate(81.9125 281.275725) scale(0.1 -0.1)">
       <defs>
        <path id="DejaVuSans-38" d="M 2034 2216 
Q 1584 2216 1326 1975 
Q 1069 1734 1069 1313 
Q 1069 891 1326 650 
Q 1584 409 2034 409 
Q 2484 409 2743 651 
Q 3003 894 3003 1313 
Q 3003 1734 2745 1975 
Q 2488 2216 2034 2216 
z
M 1403 2484 
Q 997 2584 770 2862 
Q 544 3141 544 3541 
Q 544 4100 942 4425 
Q 1341 4750 2034 4750 
Q 2731 4750 3128 4425 
Q 3525 4100 3525 3541 
Q 3525 3141 3298 2862 
Q 3072 2584 2669 2484 
Q 3125 2378 3379 2068 
Q 3634 1759 3634 1313 
Q 3634 634 3220 271 
Q 2806 -91 2034 -91 
Q 1263 -91 848 271 
Q 434 634 434 1313 
Q 434 1759 690 2068 
Q 947 2378 1403 2484 
z
M 1172 3481 
Q 1172 3119 1398 2916 
Q 1625 2713 2034 2713 
Q 2441 2713 2670 2916 
Q 2900 3119 2900 3481 
Q 2900 3844 2670 4047 
Q 2441 4250 2034 4250 
Q 1625 4250 1398 4047 
Q 1172 3844 1172 3481 
z
" transform="scale(0.015625)"/>
       </defs>
       <use xlink:href="#DejaVuSans-38"/>
       <use xlink:href="#DejaVuSans-30" x="63.623047"/>
       <use xlink:href="#DejaVuSans-30" x="127.246094"/>
      </g>
     </g>
    </g>
    <g id="ytick_3">
     <g id="line2d_25">
      <path d="M 108 247.11506 
L 777.6 247.11506 
" clip-path="url(#p156822b887)" style="fill: none; stroke-dasharray: 5.12,1.28,0.8,1.28; stroke-dashoffset: 0; stroke: #b0b0b0; stroke-width: 0.8"/>
     </g>
     <g id="line2d_26">
      <g>
       <use xlink:href="#mcf72ac53ab" x="108" y="247.11506" style="fill: #a9a9a9; stroke: #a9a9a9; stroke-width: 0.8"/>
      </g>
     </g>
     <g id="text_13">
      <!-- 1600 -->
      <g style="fill: #a9a9a9" transform="translate(75.55 250.914279) scale(0.1 -0.1)">
       <defs>
        <path id="DejaVuSans-36" d="M 2113 2584 
Q 1688 2584 1439 2293 
Q 1191 2003 1191 1497 
Q 1191 994 1439 701 
Q 1688 409 2113 409 
Q 2538 409 2786 701 
Q 3034 994 3034 1497 
Q 3034 2003 2786 2293 
Q 2538 2584 2113 2584 
z
M 3366 4563 
L 3366 3988 
Q 3128 4100 2886 4159 
Q 2644 4219 2406 4219 
Q 1781 4219 1451 3797 
Q 1122 3375 1075 2522 
Q 1259 2794 1537 2939 
Q 1816 3084 2150 3084 
Q 2853 3084 3261 2657 
Q 3669 2231 3669 1497 
Q 3669 778 3244 343 
Q 2819 -91 2113 -91 
Q 1303 -91 875 529 
Q 447 1150 447 2328 
Q 447 3434 972 4092 
Q 1497 4750 2381 4750 
Q 2619 4750 2861 4703 
Q 3103 4656 3366 4563 
z
" transform="scale(0.015625)"/>
       </defs>
       <use xlink:href="#DejaVuSans-31"/>
       <use xlink:href="#DejaVuSans-36" x="63.623047"/>
       <use xlink:href="#DejaVuSans-30" x="127.246094"/>
       <use xlink:href="#DejaVuSans-30" x="190.869141"/>
      </g>
     </g>
    </g>
    <g id="ytick_4">
     <g id="line2d_27">
      <path d="M 108 216.753614 
L 777.6 216.753614 
" clip-path="url(#p156822b887)" style="fill: none; stroke-dasharray: 5.12,1.28,0.8,1.28; stroke-dashoffset: 0; stroke: #b0b0b0; stroke-width: 0.8"/>
     </g>
     <g id="line2d_28">
      <g>
       <use xlink:href="#mcf72ac53ab" x="108" y="216.753614" style="fill: #a9a9a9; stroke: #a9a9a9; stroke-width: 0.8"/>
      </g>
     </g>
     <g id="text_14">
      <!-- 2400 -->
      <g style="fill: #a9a9a9" transform="translate(75.55 220.552833) scale(0.1 -0.1)">
       <use xlink:href="#DejaVuSans-32"/>
       <use xlink:href="#DejaVuSans-34" x="63.623047"/>
       <use xlink:href="#DejaVuSans-30" x="127.246094"/>
       <use xlink:href="#DejaVuSans-30" x="190.869141"/>
      </g>
     </g>
    </g>
    <g id="ytick_5">
     <g id="line2d_29">
      <path d="M 108 186.392169 
L 777.6 186.392169 
" clip-path="url(#p156822b887)" style="fill: none; stroke-dasharray: 5.12,1.28,0.8,1.28; stroke-dashoffset: 0; stroke: #b0b0b0; stroke-width: 0.8"/>
     </g>
     <g id="line2d_30">
      <g>
       <use xlink:href="#mcf72ac53ab" x="108" y="186.392169" style="fill: #a9a9a9; stroke: #a9a9a9; stroke-width: 0.8"/>
      </g>
     </g>
     <g id="text_15">
      <!-- 3200 -->
      <g style="fill: #a9a9a9" transform="translate(75.55 190.191387) scale(0.1 -0.1)">
       <use xlink:href="#DejaVuSans-33"/>
       <use xlink:href="#DejaVuSans-32" x="63.623047"/>
       <use xlink:href="#DejaVuSans-30" x="127.246094"/>
       <use xlink:href="#DejaVuSans-30" x="190.869141"/>
      </g>
     </g>
    </g>
    <g id="ytick_6">
     <g id="line2d_31">
      <path d="M 108 156.030723 
L 777.6 156.030723 
" clip-path="url(#p156822b887)" style="fill: none; stroke-dasharray: 5.12,1.28,0.8,1.28; stroke-dashoffset: 0; stroke: #b0b0b0; stroke-width: 0.8"/>
     </g>
     <g id="line2d_32">
      <g>
       <use xlink:href="#mcf72ac53ab" x="108" y="156.030723" style="fill: #a9a9a9; stroke: #a9a9a9; stroke-width: 0.8"/>
      </g>
     </g>
     <g id="text_16">
      <!-- 4000 -->
      <g style="fill: #a9a9a9" transform="translate(75.55 159.829942) scale(0.1 -0.1)">
       <use xlink:href="#DejaVuSans-34"/>
       <use xlink:href="#DejaVuSans-30" x="63.623047"/>
       <use xlink:href="#DejaVuSans-30" x="127.246094"/>
       <use xlink:href="#DejaVuSans-30" x="190.869141"/>
      </g>
     </g>
    </g>
    <g id="ytick_7">
     <g id="line2d_33">
      <path d="M 108 125.669277 
L 777.6 125.669277 
" clip-path="url(#p156822b887)" style="fill: none; stroke-dasharray: 5.12,1.28,0.8,1.28; stroke-dashoffset: 0; stroke: #b0b0b0; stroke-width: 0.8"/>
     </g>
     <g id="line2d_34">
      <g>
       <use xlink:href="#mcf72ac53ab" x="108" y="125.669277" style="fill: #a9a9a9; stroke: #a9a9a9; stroke-width: 0.8"/>
      </g>
     </g>
     <g id="text_17">
      <!-- 4800 -->
      <g style="fill: #a9a9a9" transform="translate(75.55 129.468496) scale(0.1 -0.1)">
       <use xlink:href="#DejaVuSans-34"/>
       <use xlink:href="#DejaVuSans-38" x="63.623047"/>
       <use xlink:href="#DejaVuSans-30" x="127.246094"/>
       <use xlink:href="#DejaVuSans-30" x="190.869141"/>
      </g>
     </g>
    </g>
    <g id="ytick_8">
     <g id="line2d_35">
      <path d="M 108 95.307831 
L 777.6 95.307831 
" clip-path="url(#p156822b887)" style="fill: none; stroke-dasharray: 5.12,1.28,0.8,1.28; stroke-dashoffset: 0; stroke: #b0b0b0; stroke-width: 0.8"/>
     </g>
     <g id="line2d_36">
      <g>
       <use xlink:href="#mcf72ac53ab" x="108" y="95.307831" style="fill: #a9a9a9; stroke: #a9a9a9; stroke-width: 0.8"/>
      </g>
     </g>
     <g id="text_18">
      <!-- 5600 -->
      <g style="fill: #a9a9a9" transform="translate(75.55 99.10705) scale(0.1 -0.1)">
       <use xlink:href="#DejaVuSans-35"/>
       <use xlink:href="#DejaVuSans-36" x="63.623047"/>
       <use xlink:href="#DejaVuSans-30" x="127.246094"/>
       <use xlink:href="#DejaVuSans-30" x="190.869141"/>
      </g>
     </g>
    </g>
    <g id="ytick_9">
     <g id="line2d_37">
      <path d="M 108 64.946386 
L 777.6 64.946386 
" clip-path="url(#p156822b887)" style="fill: none; stroke-dasharray: 5.12,1.28,0.8,1.28; stroke-dashoffset: 0; stroke: #b0b0b0; stroke-width: 0.8"/>
     </g>
     <g id="line2d_38">
      <g>
       <use xlink:href="#mcf72ac53ab" x="108" y="64.946386" style="fill: #a9a9a9; stroke: #a9a9a9; stroke-width: 0.8"/>
      </g>
     </g>
     <g id="text_19">
      <!-- 6400 -->
      <g style="fill: #a9a9a9" transform="translate(75.55 68.745604) scale(0.1 -0.1)">
       <use xlink:href="#DejaVuSans-36"/>
       <use xlink:href="#DejaVuSans-34" x="63.623047"/>
       <use xlink:href="#DejaVuSans-30" x="127.246094"/>
       <use xlink:href="#DejaVuSans-30" x="190.869141"/>
      </g>
     </g>
    </g>
   </g>
   <g id="line2d_39">
    <path d="M 138.436364 307.724096 
L 141.628989 307.458434 
L 142.161093 307.230723 
L 143.757406 307.078916 
L 146.950032 306.433735 
L 150.142657 306.168072 
L 151.206866 305.750602 
L 151.73897 305.06747 
L 152.271074 304.687952 
L 152.803179 303.511446 
L 153.335283 303.435542 
L 153.867387 303.018072 
L 154.931596 302.486747 
L 157.060013 300.816867 
L 159.18843 299.792169 
L 160.784743 299.071084 
L 161.316847 298.236145 
L 162.381055 297.477108 
L 162.91316 297.249398 
L 168.234202 296.490361 
L 168.766306 296.262651 
L 172.491036 295.959036 
L 174.619453 295.465663 
L 178.876287 294.896386 
L 179.408392 294.592771 
L 179.940496 294.516867 
L 181.004704 294.175301 
L 184.729434 293.568072 
L 185.793643 293.264458 
L 187.389955 293.112651 
L 188.454164 292.998795 
L 191.114685 292.315663 
L 192.178894 292.239759 
L 193.243102 292.087952 
L 194.307311 291.860241 
L 194.839415 291.708434 
L 195.371519 290.987349 
L 196.967832 290.38012 
L 198.564145 289.962651 
L 199.096249 289.696988 
L 199.628353 289.659036 
L 202.288875 288.9 
L 203.353083 288.824096 
L 203.885188 288.748193 
L 205.4815 288.254819 
L 207.609917 287.723494 
L 208.142022 287.495783 
L 208.674126 287.41988 
L 209.20623 287.154217 
L 214.527273 286.357229 
L 217.187794 285.598193 
L 217.719898 285.256627 
L 220.38042 284.383735 
L 221.444628 283.662651 
L 223.040941 283.359036 
L 233.150922 280.436747 
L 234.21513 280.019277 
L 235.279339 279.943373 
L 236.875652 279.487952 
L 237.407756 279.487952 
L 237.93986 279.260241 
L 239.004069 279.146386 
L 239.536173 278.956627 
L 240.600381 278.918675 
L 242.728798 278.653012 
L 243.793007 278.121687 
L 250.178258 275.275301 
L 250.710362 274.706024 
L 251.774571 273.112048 
L 252.306675 272.960241 
L 252.838779 272.960241 
L 253.902988 272.163253 
L 255.499301 271.631928 
L 256.031405 271.138554 
L 257.095613 270.721084 
L 258.159822 270.227711 
L 259.224031 268.709639 
L 259.756135 268.368072 
L 260.288239 267.457229 
L 260.820343 266.887952 
L 264.012969 265.256024 
L 265.077177 264.421084 
L 265.609282 264.079518 
L 266.141386 263.28253 
L 266.67349 262.106024 
L 267.205594 261.309036 
L 267.737699 260.891566 
L 268.269803 260.663855 
L 269.866116 259.259639 
L 271.994533 257.513855 
L 272.526637 256.792771 
L 273.590846 255.843976 
L 275.719263 254.439759 
L 276.251367 253.984337 
L 276.783471 253.870482 
L 277.84768 253.301205 
L 279.976097 252.200602 
L 281.040305 251.175904 
L 281.572409 250.530723 
L 282.636618 249.771687 
L 283.700826 249.354217 
L 284.765035 248.633133 
L 285.297139 248.329518 
L 285.829243 248.253614 
L 289.553973 245.938554 
L 291.68239 244.8 
L 292.214495 244.306627 
L 300.728163 241.346386 
L 301.792371 240.39759 
L 302.85658 239.904217 
L 303.920788 239.33494 
L 304.452893 239.031325 
L 305.517101 238.727711 
L 306.049205 238.386145 
L 306.58131 238.234337 
L 308.177622 237.209639 
L 310.838144 236.60241 
L 312.434456 235.691566 
L 312.966561 235.615663 
L 314.030769 235.35 
L 314.562873 235.198193 
L 316.159186 233.983735 
L 317.755499 233.604217 
L 318.287603 233.414458 
L 318.819708 232.996988 
L 322.012333 231.934337 
L 322.544437 231.896386 
L 323.608646 231.478916 
L 327.86548 229.960843 
L 328.929688 229.809036 
L 330.526001 229.277711 
L 333.186523 228.025301 
L 335.31494 226.886747 
L 339.571774 225.178916 
L 340.103878 225.103012 
L 341.168086 224.457831 
L 341.700191 224.381928 
L 343.828608 223.509036 
L 345.957025 223.205422 
L 347.021233 222.674096 
L 347.553338 222.218675 
L 348.085442 221.26988 
L 349.681755 220.966265 
L 351.810172 219.903614 
L 352.342276 219.789759 
L 356.59911 217.778313 
L 358.195423 217.436747 
L 359.259631 216.905422 
L 359.791736 216.677711 
L 360.32384 216.601807 
L 362.452257 215.653012 
L 364.04857 214.666265 
L 364.580674 214.590361 
L 365.112778 214.400602 
L 365.644882 214.362651 
L 368.305404 213.71747 
L 368.837508 213.3 
L 370.433821 212.730723 
L 372.562238 211.895783 
L 373.094342 211.516265 
L 373.626446 211.326506 
L 374.690655 210.757229 
L 377.351176 209.884337 
L 378.947489 208.631928 
L 379.479593 208.518072 
L 380.543802 207.683133 
L 381.075906 207.607229 
L 381.60801 206.772289 
L 382.140114 206.544578 
L 382.672219 206.127108 
L 383.204323 206.051205 
L 384.268531 205.406024 
L 384.800636 205.292169 
L 385.33274 205.064458 
L 385.864844 204.646988 
L 386.396949 204.457229 
L 387.993261 203.356627 
L 390.121678 202.256024 
L 390.653783 202.18012 
L 392.250095 201.383133 
L 392.7822 200.510241 
L 393.314304 200.054819 
L 393.846408 199.751205 
L 394.378512 199.637349 
L 395.442721 198.954217 
L 395.974825 198.840361 
L 397.039034 198.309036 
L 398.635346 197.625904 
L 399.699555 196.866867 
L 401.295868 195.424699 
L 402.360076 194.81747 
L 402.892181 194.248193 
L 405.020598 192.806024 
L 405.552702 192.198795 
L 406.084806 191.781325 
L 407.149015 191.401807 
L 408.213223 190.680723 
L 409.809536 189.883735 
L 410.34164 189.807831 
L 411.937953 188.972892 
L 413.002161 188.327711 
L 418.323204 186.43012 
L 418.855308 186.012651 
L 420.983725 185.215663 
L 421.51583 185.063855 
L 422.047934 184.646386 
L 424.708455 183.204217 
L 425.772664 181.116867 
L 426.836872 179.90241 
L 427.901081 179.257229 
L 429.497394 178.612048 
L 430.029498 178.536145 
L 430.561602 178.23253 
L 433.222123 177.39759 
L 433.754228 177.16988 
L 434.818436 176.448795 
L 436.414749 175.765663 
L 437.478957 175.196386 
L 438.011062 174.816867 
L 438.543166 174.589157 
L 439.07527 174.209639 
L 439.607374 173.640361 
L 440.671583 173.071084 
L 443.332104 171.666867 
L 446.52473 170.110843 
L 447.056834 169.996988 
L 448.653147 169.427711 
L 449.717355 169.010241 
L 450.24946 168.630723 
L 451.313668 168.327108 
L 452.377877 167.909639 
L 452.909981 167.492169 
L 453.974189 167.150602 
L 457.166815 165.518675 
L 458.231024 164.683735 
L 459.295232 164.304217 
L 459.827336 163.848795 
L 460.359441 163.772892 
L 461.423649 162.975904 
L 462.487858 162.444578 
L 463.019962 162.216867 
L 463.552066 161.685542 
L 467.276796 160.243373 
L 468.341004 159.787952 
L 469.937317 159.294578 
L 471.001526 159.142771 
L 471.53363 158.91506 
L 472.065734 158.839157 
L 473.129943 158.383735 
L 473.662047 158.345783 
L 475.790464 157.548795 
L 477.386777 156.448193 
L 480.047298 155.195783 
L 482.707819 153.753614 
L 483.239924 153.639759 
L 484.836236 152.728916 
L 486.432549 152.19759 
L 487.496758 151.856024 
L 489.625175 151.172892 
L 490.689383 150.831325 
L 492.285696 150.565663 
L 494.414113 149.88253 
L 494.946217 149.654819 
L 495.478322 149.578916 
L 496.010426 149.313253 
L 497.074634 149.123494 
L 498.670947 148.554217 
L 499.735156 148.440361 
L 501.331469 148.098795 
L 502.395677 147.909036 
L 503.459886 147.719277 
L 504.524094 147.491566 
L 505.056198 147.377711 
L 505.588303 147.15 
L 506.120407 147.112048 
L 508.780928 146.239157 
L 509.313032 146.049398 
L 509.845137 146.049398 
L 515.698284 144.341566 
L 516.230388 144.075904 
L 516.762492 144.075904 
L 517.826701 143.696386 
L 518.358805 143.16506 
L 519.423013 142.74759 
L 522.615639 141.609036 
L 523.147743 141.26747 
L 523.679847 141.153614 
L 524.211952 140.85 
L 525.27616 140.660241 
L 526.340369 140.242771 
L 526.872473 140.128916 
L 527.404577 139.787349 
L 527.936682 139.673494 
L 528.468786 139.218072 
L 530.065099 138.914458 
L 531.129307 138.421084 
L 531.661411 137.851807 
L 533.789828 137.358434 
L 537.514558 136.599398 
L 538.046662 136.599398 
L 538.578767 136.371687 
L 540.707184 135.992169 
L 541.239288 135.764458 
L 543.367705 135.38494 
L 544.431914 134.929518 
L 544.964018 134.891566 
L 554.00979 132.196988 
L 554.541894 131.969277 
L 555.073999 131.589759 
L 556.138207 131.286145 
L 557.202416 130.944578 
L 558.266624 130.527108 
L 559.862937 129.843976 
L 561.45925 129.73012 
L 563.587667 129.122892 
L 564.119771 128.781325 
L 565.18398 128.477711 
L 567.844501 127.301205 
L 568.376605 127.263253 
L 574.229752 125.251807 
L 576.358169 124.720482 
L 577.422378 124.303012 
L 577.954482 124.075301 
L 579.01869 123.84759 
L 579.550795 123.733735 
L 580.082899 123.316265 
L 580.615003 123.050602 
L 581.147107 122.405422 
L 581.679212 122.025904 
L 582.74342 121.722289 
L 583.275524 121.304819 
L 585.936046 120.204217 
L 586.46815 120.090361 
L 587.000254 119.748795 
L 588.064463 119.445181 
L 588.596567 119.103614 
L 591.257088 118.230723 
L 592.853401 117.31988 
L 593.385505 117.206024 
L 594.449714 116.598795 
L 594.981818 116.371084 
L 596.046027 115.725904 
L 597.642339 114.966867 
L 598.174444 114.587349 
L 599.238652 114.245783 
L 600.302861 113.638554 
L 600.834965 113.448795 
L 601.367069 113.069277 
L 608.284425 110.678313 
L 608.816529 110.564458 
L 609.348633 110.222892 
L 609.880737 110.146988 
L 610.944946 109.881325 
L 612.009154 109.653614 
L 615.733884 107.831928 
L 616.265989 107.756024 
L 617.862301 106.883133 
L 621.054927 105.630723 
L 623.183344 104.795783 
L 623.715448 104.643976 
L 624.247552 104.30241 
L 625.311761 104.150602 
L 625.843865 103.809036 
L 626.375969 103.771084 
L 627.440178 103.429518 
L 628.504387 102.898193 
L 629.036491 102.822289 
L 631.697012 101.759639 
L 632.229116 101.645783 
L 633.293325 101.304217 
L 634.357533 101.038554 
L 635.421742 100.772892 
L 637.018055 100.165663 
L 639.146472 98.989157 
L 640.21068 98.571687 
L 640.742784 98.23012 
L 641.806993 98.00241 
L 642.339097 97.698795 
L 642.871202 97.58494 
L 644.467514 96.75 
L 645.531723 96.33253 
L 647.128036 95.611446 
L 648.724348 95.193976 
L 651.916974 93.941566 
L 653.513287 93.410241 
L 661.494851 89.994578 
L 662.026955 89.918675 
L 664.155372 89.083735 
L 665.751685 88.210843 
L 666.283789 88.096988 
L 667.347997 87.679518 
L 667.880102 87.679518 
L 668.94431 87.224096 
L 670.008519 86.275301 
L 670.540623 85.81988 
L 672.136936 85.060843 
L 672.66904 84.946988 
L 673.201144 84.681325 
L 673.733249 84.605422 
L 674.265353 84.225904 
L 674.797457 84.112048 
L 675.861666 83.466867 
L 677.457978 82.66988 
L 678.522187 82.25241 
L 679.054291 81.986747 
L 680.650604 81.607229 
L 683.311125 80.734337 
L 683.843229 80.620482 
L 685.971647 79.595783 
L 687.035855 79.10241 
L 688.100064 78.836747 
L 691.824793 77.090964 
L 694.485315 76.142169 
L 696.081627 75.193373 
L 696.613732 75.079518 
L 697.67794 74.548193 
L 698.742149 74.168675 
L 699.274253 73.713253 
L 699.806357 73.409639 
L 701.40267 72.916265 
L 702.466879 72.195181 
L 702.998983 72.157229 
L 704.063191 71.853614 
L 704.595296 71.739759 
L 706.723713 70.942771 
L 708.320025 70.449398 
L 708.85213 70.373494 
L 709.916338 69.804217 
L 710.448442 69.614458 
L 710.980547 69.196988 
L 712.57686 68.779518 
L 713.108964 68.475904 
L 714.173172 68.210241 
L 715.769485 67.337349 
L 716.301589 67.299398 
L 717.897902 66.806024 
L 718.962111 66.692169 
L 720.026319 66.274699 
L 723.218945 65.363855 
L 724.283153 65.325904 
L 727.475779 64.301205 
L 728.007883 64.225301 
L 729.604196 63.390361 
L 730.1363 62.93494 
L 731.200509 62.289759 
L 732.796821 61.26506 
L 735.989447 60.164458 
L 736.521551 59.746988 
L 738.117864 59.025904 
L 738.649968 58.912048 
L 739.714177 58.418675 
L 741.31049 58.001205 
L 742.906802 57.318072 
L 743.971011 56.824699 
L 745.567324 56.179518 
L 746.099428 56.065663 
L 746.631532 55.8 
L 747.163636 55.8 
L 747.163636 55.8 
" clip-path="url(#p156822b887)" style="fill: none; stroke: #1f77b4; stroke-width: 1.5; stroke-linecap: square"/>
   </g>
   <g id="line2d_40">
    <path d="M 138.968468 307.8 
L 140.564781 307.724096 
L 142.161093 307.686145 
L 145.353719 307.610241 
L 148.01424 307.496386 
L 150.142657 307.496386 
L 150.674762 307.344578 
L 152.803179 307.268675 
L 154.399491 307.078916 
L 155.995804 306.927108 
L 159.18843 306.775301 
L 159.720534 306.775301 
L 160.252638 306.661446 
L 162.381055 306.585542 
L 163.445264 306.509639 
L 167.702098 306.433735 
L 170.362619 306.31988 
L 176.74787 306.243976 
L 179.408392 306.13012 
L 182.601017 306.054217 
L 184.729434 305.978313 
L 189.518373 305.90241 
L 191.114685 305.864458 
L 192.710998 305.826506 
L 194.307311 305.636747 
L 197.499936 305.598795 
L 198.564145 305.522892 
L 202.288875 305.446988 
L 208.142022 305.105422 
L 211.866751 305.029518 
L 212.93096 304.953614 
L 214.527273 304.877711 
L 217.719898 304.725904 
L 219.848315 304.687952 
L 221.444628 304.536145 
L 228.361983 304.118675 
L 231.022505 304.042771 
L 235.811443 303.777108 
L 237.407756 303.701205 
L 242.728798 303.39759 
L 248.581945 303.321687 
L 250.710362 303.093976 
L 251.774571 303.018072 
L 258.691926 302.448795 
L 261.884552 302.031325 
L 264.012969 301.955422 
L 268.269803 301.386145 
L 271.462428 301.310241 
L 273.058741 301.158434 
L 274.12295 301.120482 
L 275.187158 301.006627 
L 276.783471 300.930723 
L 277.84768 300.778916 
L 280.508201 300.475301 
L 282.636618 300.399398 
L 283.700826 300.323494 
L 285.829243 300.24759 
L 286.893452 300.171687 
L 289.553973 299.906024 
L 290.618182 299.716265 
L 292.214495 299.678313 
L 293.278703 299.60241 
L 295.939224 299.526506 
L 302.85658 299.109036 
L 304.452893 299.033133 
L 311.370248 298.615663 
L 315.094978 298.539759 
L 315.627082 298.425904 
L 319.883916 298.35 
L 323.608646 298.160241 
L 329.461793 298.084337 
L 333.186523 297.894578 
L 337.443357 297.818675 
L 341.700191 297.590964 
L 345.424921 297.51506 
L 355.534901 296.86988 
L 360.855944 296.793976 
L 362.984361 296.566265 
L 364.580674 296.528313 
L 366.176987 296.490361 
L 368.305404 296.262651 
L 373.626446 295.959036 
L 376.819072 295.883133 
L 378.415385 295.845181 
L 380.011697 295.807229 
L 381.60801 295.655422 
L 385.864844 295.579518 
L 386.929053 295.427711 
L 387.993261 295.351807 
L 390.653783 295.237952 
L 391.717991 295.162048 
L 392.7822 295.086145 
L 397.571138 295.010241 
L 398.635346 294.896386 
L 400.763764 294.858434 
L 401.295868 294.744578 
L 402.360076 294.668675 
L 402.892181 294.554819 
L 404.488493 294.478916 
L 409.277432 294.213253 
L 410.34164 294.175301 
L 411.937953 294.023494 
L 413.534266 293.985542 
L 415.130579 293.909639 
L 417.7911 293.795783 
L 425.240559 293.71988 
L 428.965289 293.53012 
L 433.222123 293.454217 
L 435.35054 293.378313 
L 437.478957 293.340361 
L 438.543166 293.226506 
L 440.671583 293.150602 
L 445.992626 292.846988 
L 449.185251 292.809036 
L 450.781564 292.657229 
L 452.377877 292.619277 
L 456.102606 292.543373 
L 458.231024 292.46747 
L 464.616275 292.391566 
L 467.276796 292.277711 
L 470.469421 292.201807 
L 472.065734 292.012048 
L 475.25836 291.974096 
L 476.854673 291.822289 
L 478.98309 291.746386 
L 485.368341 291.670482 
L 488.028862 291.556627 
L 497.074634 291.518675 
L 498.138843 291.442771 
L 499.735156 291.404819 
L 506.652511 291.328916 
L 507.71672 291.253012 
L 513.569866 291.177108 
L 515.698284 291.101205 
L 525.808264 291.025301 
L 527.404577 290.987349 
L 532.193516 290.911446 
L 533.257724 290.835542 
L 546.028226 290.759639 
L 547.624539 290.721687 
L 561.991354 290.645783 
L 563.587667 290.607831 
L 573.165544 290.531928 
L 574.229752 290.456024 
L 576.890273 290.38012 
L 578.486586 290.228313 
L 581.147107 290.15241 
L 584.339733 290.000602 
L 588.596567 289.924699 
L 589.660776 289.848795 
L 593.91761 289.772892 
L 597.110235 289.621084 
L 599.770757 289.545181 
L 604.027591 289.31747 
L 607.220216 289.241566 
L 609.348633 289.165663 
L 616.265989 289.089759 
L 618.394406 289.013855 
L 622.65124 288.937952 
L 626.375969 288.748193 
L 631.164908 288.672289 
L 632.229116 288.596386 
L 641.806993 288.520482 
L 643.403306 288.48253 
L 646.063827 288.444578 
L 648.192244 288.216867 
L 649.788557 288.178916 
L 652.981182 288.103012 
L 658.302225 287.799398 
L 660.962746 287.723494 
L 663.091163 287.64759 
L 668.94431 287.571687 
L 671.604832 287.268072 
L 673.733249 287.192169 
L 677.457978 287.116265 
L 677.990083 287.00241 
L 682.779021 286.926506 
L 685.439542 286.812651 
L 692.356898 286.774699 
L 692.889002 286.660843 
L 697.145836 286.58494 
L 698.742149 286.546988 
L 701.40267 286.471084 
L 702.998983 286.433133 
L 712.044755 286.357229 
L 714.705277 286.243373 
L 722.154736 286.16747 
L 724.283153 286.091566 
L 730.1363 286.015663 
L 730.668404 285.901807 
L 735.989447 285.863855 
L 737.053655 285.787952 
L 739.714177 285.712048 
L 741.31049 285.674096 
L 747.163636 285.598193 
L 747.163636 285.598193 
" clip-path="url(#p156822b887)" style="fill: none; stroke: #ff7f0e; stroke-width: 1.5; stroke-linecap: square"/>
   </g>
   <g id="patch_3">
    <path d="M 108 320.4 
L 108 43.2 
" style="fill: none; stroke: #a9a9a9; stroke-width: 0.8; stroke-linejoin: miter; stroke-linecap: square"/>
   </g>
   <g id="patch_4">
    <path d="M 777.6 320.4 
L 777.6 43.2 
" style="fill: none"/>
   </g>
   <g id="patch_5">
    <path d="M 108 320.4 
L 777.6 320.4 
" style="fill: none; stroke: #a9a9a9; stroke-width: 0.8; stroke-linejoin: miter; stroke-linecap: square"/>
   </g>
   <g id="patch_6">
    <path d="M 108 43.2 
L 777.6 43.2 
" style="fill: none"/>
   </g>
   <g id="text_20">
    <!-- get_subscribe history -->
    <g style="fill: #a9a9a9" transform="translate(378.6075 37.2) scale(0.12 -0.12)">
     <defs>
      <path id="DejaVuSans-67" d="M 2906 1791 
Q 2906 2416 2648 2759 
Q 2391 3103 1925 3103 
Q 1463 3103 1205 2759 
Q 947 2416 947 1791 
Q 947 1169 1205 825 
Q 1463 481 1925 481 
Q 2391 481 2648 825 
Q 2906 1169 2906 1791 
z
M 3481 434 
Q 3481 -459 3084 -895 
Q 2688 -1331 1869 -1331 
Q 1566 -1331 1297 -1286 
Q 1028 -1241 775 -1147 
L 775 -588 
Q 1028 -725 1275 -790 
Q 1522 -856 1778 -856 
Q 2344 -856 2625 -561 
Q 2906 -266 2906 331 
L 2906 616 
Q 2728 306 2450 153 
Q 2172 0 1784 0 
Q 1141 0 747 490 
Q 353 981 353 1791 
Q 353 2603 747 3093 
Q 1141 3584 1784 3584 
Q 2172 3584 2450 3431 
Q 2728 3278 2906 2969 
L 2906 3500 
L 3481 3500 
L 3481 434 
z
" transform="scale(0.015625)"/>
      <path id="DejaVuSans-65" d="M 3597 1894 
L 3597 1613 
L 953 1613 
Q 991 1019 1311 708 
Q 1631 397 2203 397 
Q 2534 397 2845 478 
Q 3156 559 3463 722 
L 3463 178 
Q 3153 47 2828 -22 
Q 2503 -91 2169 -91 
Q 1331 -91 842 396 
Q 353 884 353 1716 
Q 353 2575 817 3079 
Q 1281 3584 2069 3584 
Q 2775 3584 3186 3129 
Q 3597 2675 3597 1894 
z
M 3022 2063 
Q 3016 2534 2758 2815 
Q 2500 3097 2075 3097 
Q 1594 3097 1305 2825 
Q 1016 2553 972 2059 
L 3022 2063 
z
" transform="scale(0.015625)"/>
      <path id="DejaVuSans-74" d="M 1172 4494 
L 1172 3500 
L 2356 3500 
L 2356 3053 
L 1172 3053 
L 1172 1153 
Q 1172 725 1289 603 
Q 1406 481 1766 481 
L 2356 481 
L 2356 0 
L 1766 0 
Q 1100 0 847 248 
Q 594 497 594 1153 
L 594 3053 
L 172 3053 
L 172 3500 
L 594 3500 
L 594 4494 
L 1172 4494 
z
" transform="scale(0.015625)"/>
      <path id="DejaVuSans-5f" d="M 3263 -1063 
L 3263 -1509 
L -63 -1509 
L -63 -1063 
L 3263 -1063 
z
" transform="scale(0.015625)"/>
      <path id="DejaVuSans-73" d="M 2834 3397 
L 2834 2853 
Q 2591 2978 2328 3040 
Q 2066 3103 1784 3103 
Q 1356 3103 1142 2972 
Q 928 2841 928 2578 
Q 928 2378 1081 2264 
Q 1234 2150 1697 2047 
L 1894 2003 
Q 2506 1872 2764 1633 
Q 3022 1394 3022 966 
Q 3022 478 2636 193 
Q 2250 -91 1575 -91 
Q 1294 -91 989 -36 
Q 684 19 347 128 
L 347 722 
Q 666 556 975 473 
Q 1284 391 1588 391 
Q 1994 391 2212 530 
Q 2431 669 2431 922 
Q 2431 1156 2273 1281 
Q 2116 1406 1581 1522 
L 1381 1569 
Q 847 1681 609 1914 
Q 372 2147 372 2553 
Q 372 3047 722 3315 
Q 1072 3584 1716 3584 
Q 2034 3584 2315 3537 
Q 2597 3491 2834 3397 
z
" transform="scale(0.015625)"/>
      <path id="DejaVuSans-75" d="M 544 1381 
L 544 3500 
L 1119 3500 
L 1119 1403 
Q 1119 906 1312 657 
Q 1506 409 1894 409 
Q 2359 409 2629 706 
Q 2900 1003 2900 1516 
L 2900 3500 
L 3475 3500 
L 3475 0 
L 2900 0 
L 2900 538 
Q 2691 219 2414 64 
Q 2138 -91 1772 -91 
Q 1169 -91 856 284 
Q 544 659 544 1381 
z
M 1991 3584 
L 1991 3584 
z
" transform="scale(0.015625)"/>
      <path id="DejaVuSans-62" d="M 3116 1747 
Q 3116 2381 2855 2742 
Q 2594 3103 2138 3103 
Q 1681 3103 1420 2742 
Q 1159 2381 1159 1747 
Q 1159 1113 1420 752 
Q 1681 391 2138 391 
Q 2594 391 2855 752 
Q 3116 1113 3116 1747 
z
M 1159 2969 
Q 1341 3281 1617 3432 
Q 1894 3584 2278 3584 
Q 2916 3584 3314 3078 
Q 3713 2572 3713 1747 
Q 3713 922 3314 415 
Q 2916 -91 2278 -91 
Q 1894 -91 1617 61 
Q 1341 213 1159 525 
L 1159 0 
L 581 0 
L 581 4863 
L 1159 4863 
L 1159 2969 
z
" transform="scale(0.015625)"/>
      <path id="DejaVuSans-63" d="M 3122 3366 
L 3122 2828 
Q 2878 2963 2633 3030 
Q 2388 3097 2138 3097 
Q 1578 3097 1268 2742 
Q 959 2388 959 1747 
Q 959 1106 1268 751 
Q 1578 397 2138 397 
Q 2388 397 2633 464 
Q 2878 531 3122 666 
L 3122 134 
Q 2881 22 2623 -34 
Q 2366 -91 2075 -91 
Q 1284 -91 818 406 
Q 353 903 353 1747 
Q 353 2603 823 3093 
Q 1294 3584 2113 3584 
Q 2378 3584 2631 3529 
Q 2884 3475 3122 3366 
z
" transform="scale(0.015625)"/>
      <path id="DejaVuSans-72" d="M 2631 2963 
Q 2534 3019 2420 3045 
Q 2306 3072 2169 3072 
Q 1681 3072 1420 2755 
Q 1159 2438 1159 1844 
L 1159 0 
L 581 0 
L 581 3500 
L 1159 3500 
L 1159 2956 
Q 1341 3275 1631 3429 
Q 1922 3584 2338 3584 
Q 2397 3584 2469 3576 
Q 2541 3569 2628 3553 
L 2631 2963 
z
" transform="scale(0.015625)"/>
      <path id="DejaVuSans-69" d="M 603 3500 
L 1178 3500 
L 1178 0 
L 603 0 
L 603 3500 
z
M 603 4863 
L 1178 4863 
L 1178 4134 
L 603 4134 
L 603 4863 
z
" transform="scale(0.015625)"/>
      <path id="DejaVuSans-20" transform="scale(0.015625)"/>
      <path id="DejaVuSans-68" d="M 3513 2113 
L 3513 0 
L 2938 0 
L 2938 2094 
Q 2938 2591 2744 2837 
Q 2550 3084 2163 3084 
Q 1697 3084 1428 2787 
Q 1159 2491 1159 1978 
L 1159 0 
L 581 0 
L 581 4863 
L 1159 4863 
L 1159 2956 
Q 1366 3272 1645 3428 
Q 1925 3584 2291 3584 
Q 2894 3584 3203 3211 
Q 3513 2838 3513 2113 
z
" transform="scale(0.015625)"/>
      <path id="DejaVuSans-6f" d="M 1959 3097 
Q 1497 3097 1228 2736 
Q 959 2375 959 1747 
Q 959 1119 1226 758 
Q 1494 397 1959 397 
Q 2419 397 2687 759 
Q 2956 1122 2956 1747 
Q 2956 2369 2687 2733 
Q 2419 3097 1959 3097 
z
M 1959 3584 
Q 2709 3584 3137 3096 
Q 3566 2609 3566 1747 
Q 3566 888 3137 398 
Q 2709 -91 1959 -91 
Q 1206 -91 779 398 
Q 353 888 353 1747 
Q 353 2609 779 3096 
Q 1206 3584 1959 3584 
z
" transform="scale(0.015625)"/>
      <path id="DejaVuSans-79" d="M 2059 -325 
Q 1816 -950 1584 -1140 
Q 1353 -1331 966 -1331 
L 506 -1331 
L 506 -850 
L 844 -850 
Q 1081 -850 1212 -737 
Q 1344 -625 1503 -206 
L 1606 56 
L 191 3500 
L 800 3500 
L 1894 763 
L 2988 3500 
L 3597 3500 
L 2059 -325 
z
" transform="scale(0.015625)"/>
     </defs>
     <use xlink:href="#DejaVuSans-67"/>
     <use xlink:href="#DejaVuSans-65" x="63.476562"/>
     <use xlink:href="#DejaVuSans-74" x="125"/>
     <use xlink:href="#DejaVuSans-5f" x="164.208984"/>
     <use xlink:href="#DejaVuSans-73" x="214.208984"/>
     <use xlink:href="#DejaVuSans-75" x="266.308594"/>
     <use xlink:href="#DejaVuSans-62" x="329.6875"/>
     <use xlink:href="#DejaVuSans-73" x="393.164062"/>
     <use xlink:href="#DejaVuSans-63" x="445.263672"/>
     <use xlink:href="#DejaVuSans-72" x="500.244141"/>
     <use xlink:href="#DejaVuSans-69" x="541.357422"/>
     <use xlink:href="#DejaVuSans-62" x="569.140625"/>
     <use xlink:href="#DejaVuSans-65" x="632.617188"/>
     <use xlink:href="#DejaVuSans-20" x="694.140625"/>
     <use xlink:href="#DejaVuSans-68" x="725.927734"/>
     <use xlink:href="#DejaVuSans-69" x="789.306641"/>
     <use xlink:href="#DejaVuSans-73" x="817.089844"/>
     <use xlink:href="#DejaVuSans-74" x="869.189453"/>
     <use xlink:href="#DejaVuSans-6f" x="908.398438"/>
     <use xlink:href="#DejaVuSans-72" x="969.580078"/>
     <use xlink:href="#DejaVuSans-79" x="1010.693359"/>
    </g>
   </g>
   <g id="legend_1">
    <g id="line2d_41">
     <path d="M 815.08 328.498438 
L 825.08 328.498438 
L 835.08 328.498438 
" style="fill: none; stroke: #1f77b4; stroke-width: 1.5; stroke-linecap: square"/>
    </g>
    <g id="text_21">
     <!-- star -->
     <g style="fill: #a9a9a9" transform="translate(843.08 331.998438) scale(0.1 -0.1)">
      <defs>
       <path id="DejaVuSans-61" d="M 2194 1759 
Q 1497 1759 1228 1600 
Q 959 1441 959 1056 
Q 959 750 1161 570 
Q 1363 391 1709 391 
Q 2188 391 2477 730 
Q 2766 1069 2766 1631 
L 2766 1759 
L 2194 1759 
z
M 3341 1997 
L 3341 0 
L 2766 0 
L 2766 531 
Q 2569 213 2275 61 
Q 1981 -91 1556 -91 
Q 1019 -91 701 211 
Q 384 513 384 1019 
Q 384 1609 779 1909 
Q 1175 2209 1959 2209 
L 2766 2209 
L 2766 2266 
Q 2766 2663 2505 2880 
Q 2244 3097 1772 3097 
Q 1472 3097 1187 3025 
Q 903 2953 641 2809 
L 641 3341 
Q 956 3463 1253 3523 
Q 1550 3584 1831 3584 
Q 2591 3584 2966 3190 
Q 3341 2797 3341 1997 
z
" transform="scale(0.015625)"/>
      </defs>
      <use xlink:href="#DejaVuSans-73"/>
      <use xlink:href="#DejaVuSans-74" x="52.099609"/>
      <use xlink:href="#DejaVuSans-61" x="91.308594"/>
      <use xlink:href="#DejaVuSans-72" x="152.587891"/>
     </g>
    </g>
    <g id="line2d_42">
     <path d="M 815.08 343.176562 
L 825.08 343.176562 
L 835.08 343.176562 
" style="fill: none; stroke: #ff7f0e; stroke-width: 1.5; stroke-linecap: square"/>
    </g>
    <g id="text_22">
     <!-- fork -->
     <g style="fill: #a9a9a9" transform="translate(843.08 346.676562) scale(0.1 -0.1)">
      <defs>
       <path id="DejaVuSans-66" d="M 2375 4863 
L 2375 4384 
L 1825 4384 
Q 1516 4384 1395 4259 
Q 1275 4134 1275 3809 
L 1275 3500 
L 2222 3500 
L 2222 3053 
L 1275 3053 
L 1275 0 
L 697 0 
L 697 3053 
L 147 3053 
L 147 3500 
L 697 3500 
L 697 3744 
Q 697 4328 969 4595 
Q 1241 4863 1831 4863 
L 2375 4863 
z
" transform="scale(0.015625)"/>
       <path id="DejaVuSans-6b" d="M 581 4863 
L 1159 4863 
L 1159 1991 
L 2875 3500 
L 3609 3500 
L 1753 1863 
L 3688 0 
L 2938 0 
L 1159 1709 
L 1159 0 
L 581 0 
L 581 4863 
z
" transform="scale(0.015625)"/>
      </defs>
      <use xlink:href="#DejaVuSans-66"/>
      <use xlink:href="#DejaVuSans-6f" x="35.205078"/>
      <use xlink:href="#DejaVuSans-72" x="96.386719"/>
      <use xlink:href="#DejaVuSans-6b" x="137.5"/>
     </g>
    </g>
   </g>
  </g>
 </g>
 <defs>
  <clipPath id="p156822b887">
   <rect x="108" y="43.2" width="669.6" height="277.2"/>
  </clipPath>
 </defs>
</svg>
