<?xml version="1.0" encoding="utf-8" standalone="no"?>
<!DOCTYPE svg PUBLIC "-//W3C//DTD SVG 1.1//EN"
  "http://www.w3.org/Graphics/SVG/1.1/DTD/svg11.dtd">
<svg xmlns:xlink="http://www.w3.org/1999/xlink" width="864pt" height="360pt" viewBox="0 0 864 360" xmlns="http://www.w3.org/2000/svg" version="1.1">
 <metadata>
  <rdf:RDF xmlns:dc="http://purl.org/dc/elements/1.1/" xmlns:cc="http://creativecommons.org/ns#" xmlns:rdf="http://www.w3.org/1999/02/22-rdf-syntax-ns#">
   <cc:Work>
    <dc:type rdf:resource="http://purl.org/dc/dcmitype/StillImage"/>
    <dc:date>2024-09-12T20:05:17.619331</dc:date>
    <dc:format>image/svg+xml</dc:format>
    <dc:creator>
     <cc:Agent>
      <dc:title>Matplotlib v3.9.2, https://matplotlib.org/</dc:title>
     </cc:Agent>
    </dc:creator>
   </cc:Work>
  </rdf:RDF>
 </metadata>
 <defs>
  <style type="text/css">*{stroke-linejoin: round; stroke-linecap: butt}</style>
 </defs>
 <g id="figure_1">
  <g id="patch_1">
   <path d="M 0 360 
L 864 360 
L 864 0 
L 0 0 
L 0 360 
z
" style="fill: none; opacity: 0"/>
  </g>
  <g id="axes_1">
   <g id="patch_2">
    <path d="M 108 320.4 
L 777.6 320.4 
L 777.6 43.2 
L 108 43.2 
L 108 320.4 
z
" style="fill: none; opacity: 0"/>
   </g>
   <g id="matplotlib.axis_1">
    <g id="xtick_1">
     <g id="line2d_1">
      <path d="M 159.152213 320.4 
L 159.152213 43.2 
" clip-path="url(#p09738b1ac0)" style="fill: none; stroke-dasharray: 5.12,1.28,0.8,1.28; stroke-dashoffset: 0; stroke: #b0b0b0; stroke-width: 0.8"/>
     </g>
     <g id="line2d_2">
      <defs>
       <path id="mf376a7ff3a" d="M 0 0 
L 0 3.5 
" style="stroke: #a9a9a9; stroke-width: 0.8"/>
      </defs>
      <g>
       <use xlink:href="#mf376a7ff3a" x="159.152213" y="320.4" style="fill: #a9a9a9; stroke: #a9a9a9; stroke-width: 0.8"/>
      </g>
     </g>
     <g id="text_1">
      <!-- 2021-09 -->
      <g style="fill: #a9a9a9" transform="translate(138.260807 334.998438) scale(0.1 -0.1)">
       <defs>
        <path id="DejaVuSans-32" d="M 1228 531 
L 3431 531 
L 3431 0 
L 469 0 
L 469 531 
Q 828 903 1448 1529 
Q 2069 2156 2228 2338 
Q 2531 2678 2651 2914 
Q 2772 3150 2772 3378 
Q 2772 3750 2511 3984 
Q 2250 4219 1831 4219 
Q 1534 4219 1204 4116 
Q 875 4013 500 3803 
L 500 4441 
Q 881 4594 1212 4672 
Q 1544 4750 1819 4750 
Q 2544 4750 2975 4387 
Q 3406 4025 3406 3419 
Q 3406 3131 3298 2873 
Q 3191 2616 2906 2266 
Q 2828 2175 2409 1742 
Q 1991 1309 1228 531 
z
" transform="scale(0.015625)"/>
        <path id="DejaVuSans-30" d="M 2034 4250 
Q 1547 4250 1301 3770 
Q 1056 3291 1056 2328 
Q 1056 1369 1301 889 
Q 1547 409 2034 409 
Q 2525 409 2770 889 
Q 3016 1369 3016 2328 
Q 3016 3291 2770 3770 
Q 2525 4250 2034 4250 
z
M 2034 4750 
Q 2819 4750 3233 4129 
Q 3647 3509 3647 2328 
Q 3647 1150 3233 529 
Q 2819 -91 2034 -91 
Q 1250 -91 836 529 
Q 422 1150 422 2328 
Q 422 3509 836 4129 
Q 1250 4750 2034 4750 
z
" transform="scale(0.015625)"/>
        <path id="DejaVuSans-31" d="M 794 531 
L 1825 531 
L 1825 4091 
L 703 3866 
L 703 4441 
L 1819 4666 
L 2450 4666 
L 2450 531 
L 3481 531 
L 3481 0 
L 794 0 
L 794 531 
z
" transform="scale(0.015625)"/>
        <path id="DejaVuSans-2d" d="M 313 2009 
L 1997 2009 
L 1997 1497 
L 313 1497 
L 313 2009 
z
" transform="scale(0.015625)"/>
        <path id="DejaVuSans-39" d="M 703 97 
L 703 672 
Q 941 559 1184 500 
Q 1428 441 1663 441 
Q 2288 441 2617 861 
Q 2947 1281 2994 2138 
Q 2813 1869 2534 1725 
Q 2256 1581 1919 1581 
Q 1219 1581 811 2004 
Q 403 2428 403 3163 
Q 403 3881 828 4315 
Q 1253 4750 1959 4750 
Q 2769 4750 3195 4129 
Q 3622 3509 3622 2328 
Q 3622 1225 3098 567 
Q 2575 -91 1691 -91 
Q 1453 -91 1209 -44 
Q 966 3 703 97 
z
M 1959 2075 
Q 2384 2075 2632 2365 
Q 2881 2656 2881 3163 
Q 2881 3666 2632 3958 
Q 2384 4250 1959 4250 
Q 1534 4250 1286 3958 
Q 1038 3666 1038 3163 
Q 1038 2656 1286 2365 
Q 1534 2075 1959 2075 
z
" transform="scale(0.015625)"/>
       </defs>
       <use xlink:href="#DejaVuSans-32"/>
       <use xlink:href="#DejaVuSans-30" x="63.623047"/>
       <use xlink:href="#DejaVuSans-32" x="127.246094"/>
       <use xlink:href="#DejaVuSans-31" x="190.869141"/>
       <use xlink:href="#DejaVuSans-2d" x="254.492188"/>
       <use xlink:href="#DejaVuSans-30" x="290.576172"/>
       <use xlink:href="#DejaVuSans-39" x="354.199219"/>
      </g>
     </g>
    </g>
    <g id="xtick_2">
     <g id="line2d_3">
      <path d="M 223.95564 320.4 
L 223.95564 43.2 
" clip-path="url(#p09738b1ac0)" style="fill: none; stroke-dasharray: 5.12,1.28,0.8,1.28; stroke-dashoffset: 0; stroke: #b0b0b0; stroke-width: 0.8"/>
     </g>
     <g id="line2d_4">
      <g>
       <use xlink:href="#mf376a7ff3a" x="223.95564" y="320.4" style="fill: #a9a9a9; stroke: #a9a9a9; stroke-width: 0.8"/>
      </g>
     </g>
     <g id="text_2">
      <!-- 2022-01 -->
      <g style="fill: #a9a9a9" transform="translate(203.064234 334.998438) scale(0.1 -0.1)">
       <use xlink:href="#DejaVuSans-32"/>
       <use xlink:href="#DejaVuSans-30" x="63.623047"/>
       <use xlink:href="#DejaVuSans-32" x="127.246094"/>
       <use xlink:href="#DejaVuSans-32" x="190.869141"/>
       <use xlink:href="#DejaVuSans-2d" x="254.492188"/>
       <use xlink:href="#DejaVuSans-30" x="290.576172"/>
       <use xlink:href="#DejaVuSans-31" x="354.199219"/>
      </g>
     </g>
    </g>
    <g id="xtick_3">
     <g id="line2d_5">
      <path d="M 287.696716 320.4 
L 287.696716 43.2 
" clip-path="url(#p09738b1ac0)" style="fill: none; stroke-dasharray: 5.12,1.28,0.8,1.28; stroke-dashoffset: 0; stroke: #b0b0b0; stroke-width: 0.8"/>
     </g>
     <g id="line2d_6">
      <g>
       <use xlink:href="#mf376a7ff3a" x="287.696716" y="320.4" style="fill: #a9a9a9; stroke: #a9a9a9; stroke-width: 0.8"/>
      </g>
     </g>
     <g id="text_3">
      <!-- 2022-05 -->
      <g style="fill: #a9a9a9" transform="translate(266.80531 334.998438) scale(0.1 -0.1)">
       <defs>
        <path id="DejaVuSans-35" d="M 691 4666 
L 3169 4666 
L 3169 4134 
L 1269 4134 
L 1269 2991 
Q 1406 3038 1543 3061 
Q 1681 3084 1819 3084 
Q 2600 3084 3056 2656 
Q 3513 2228 3513 1497 
Q 3513 744 3044 326 
Q 2575 -91 1722 -91 
Q 1428 -91 1123 -41 
Q 819 9 494 109 
L 494 744 
Q 775 591 1075 516 
Q 1375 441 1709 441 
Q 2250 441 2565 725 
Q 2881 1009 2881 1497 
Q 2881 1984 2565 2268 
Q 2250 2553 1709 2553 
Q 1456 2553 1204 2497 
Q 953 2441 691 2322 
L 691 4666 
z
" transform="scale(0.015625)"/>
       </defs>
       <use xlink:href="#DejaVuSans-32"/>
       <use xlink:href="#DejaVuSans-30" x="63.623047"/>
       <use xlink:href="#DejaVuSans-32" x="127.246094"/>
       <use xlink:href="#DejaVuSans-32" x="190.869141"/>
       <use xlink:href="#DejaVuSans-2d" x="254.492188"/>
       <use xlink:href="#DejaVuSans-30" x="290.576172"/>
       <use xlink:href="#DejaVuSans-35" x="354.199219"/>
      </g>
     </g>
    </g>
    <g id="xtick_4">
     <g id="line2d_7">
      <path d="M 353.031318 320.4 
L 353.031318 43.2 
" clip-path="url(#p09738b1ac0)" style="fill: none; stroke-dasharray: 5.12,1.28,0.8,1.28; stroke-dashoffset: 0; stroke: #b0b0b0; stroke-width: 0.8"/>
     </g>
     <g id="line2d_8">
      <g>
       <use xlink:href="#mf376a7ff3a" x="353.031318" y="320.4" style="fill: #a9a9a9; stroke: #a9a9a9; stroke-width: 0.8"/>
      </g>
     </g>
     <g id="text_4">
      <!-- 2022-09 -->
      <g style="fill: #a9a9a9" transform="translate(332.139912 334.998438) scale(0.1 -0.1)">
       <use xlink:href="#DejaVuSans-32"/>
       <use xlink:href="#DejaVuSans-30" x="63.623047"/>
       <use xlink:href="#DejaVuSans-32" x="127.246094"/>
       <use xlink:href="#DejaVuSans-32" x="190.869141"/>
       <use xlink:href="#DejaVuSans-2d" x="254.492188"/>
       <use xlink:href="#DejaVuSans-30" x="290.576172"/>
       <use xlink:href="#DejaVuSans-39" x="354.199219"/>
      </g>
     </g>
    </g>
    <g id="xtick_5">
     <g id="line2d_9">
      <path d="M 417.834745 320.4 
L 417.834745 43.2 
" clip-path="url(#p09738b1ac0)" style="fill: none; stroke-dasharray: 5.12,1.28,0.8,1.28; stroke-dashoffset: 0; stroke: #b0b0b0; stroke-width: 0.8"/>
     </g>
     <g id="line2d_10">
      <g>
       <use xlink:href="#mf376a7ff3a" x="417.834745" y="320.4" style="fill: #a9a9a9; stroke: #a9a9a9; stroke-width: 0.8"/>
      </g>
     </g>
     <g id="text_5">
      <!-- 2023-01 -->
      <g style="fill: #a9a9a9" transform="translate(396.943339 334.998438) scale(0.1 -0.1)">
       <defs>
        <path id="DejaVuSans-33" d="M 2597 2516 
Q 3050 2419 3304 2112 
Q 3559 1806 3559 1356 
Q 3559 666 3084 287 
Q 2609 -91 1734 -91 
Q 1441 -91 1130 -33 
Q 819 25 488 141 
L 488 750 
Q 750 597 1062 519 
Q 1375 441 1716 441 
Q 2309 441 2620 675 
Q 2931 909 2931 1356 
Q 2931 1769 2642 2001 
Q 2353 2234 1838 2234 
L 1294 2234 
L 1294 2753 
L 1863 2753 
Q 2328 2753 2575 2939 
Q 2822 3125 2822 3475 
Q 2822 3834 2567 4026 
Q 2313 4219 1838 4219 
Q 1578 4219 1281 4162 
Q 984 4106 628 3988 
L 628 4550 
Q 988 4650 1302 4700 
Q 1616 4750 1894 4750 
Q 2613 4750 3031 4423 
Q 3450 4097 3450 3541 
Q 3450 3153 3228 2886 
Q 3006 2619 2597 2516 
z
" transform="scale(0.015625)"/>
       </defs>
       <use xlink:href="#DejaVuSans-32"/>
       <use xlink:href="#DejaVuSans-30" x="63.623047"/>
       <use xlink:href="#DejaVuSans-32" x="127.246094"/>
       <use xlink:href="#DejaVuSans-33" x="190.869141"/>
       <use xlink:href="#DejaVuSans-2d" x="254.492188"/>
       <use xlink:href="#DejaVuSans-30" x="290.576172"/>
       <use xlink:href="#DejaVuSans-31" x="354.199219"/>
      </g>
     </g>
    </g>
    <g id="xtick_6">
     <g id="line2d_11">
      <path d="M 481.575821 320.4 
L 481.575821 43.2 
" clip-path="url(#p09738b1ac0)" style="fill: none; stroke-dasharray: 5.12,1.28,0.8,1.28; stroke-dashoffset: 0; stroke: #b0b0b0; stroke-width: 0.8"/>
     </g>
     <g id="line2d_12">
      <g>
       <use xlink:href="#mf376a7ff3a" x="481.575821" y="320.4" style="fill: #a9a9a9; stroke: #a9a9a9; stroke-width: 0.8"/>
      </g>
     </g>
     <g id="text_6">
      <!-- 2023-05 -->
      <g style="fill: #a9a9a9" transform="translate(460.684415 334.998438) scale(0.1 -0.1)">
       <use xlink:href="#DejaVuSans-32"/>
       <use xlink:href="#DejaVuSans-30" x="63.623047"/>
       <use xlink:href="#DejaVuSans-32" x="127.246094"/>
       <use xlink:href="#DejaVuSans-33" x="190.869141"/>
       <use xlink:href="#DejaVuSans-2d" x="254.492188"/>
       <use xlink:href="#DejaVuSans-30" x="290.576172"/>
       <use xlink:href="#DejaVuSans-35" x="354.199219"/>
      </g>
     </g>
    </g>
    <g id="xtick_7">
     <g id="line2d_13">
      <path d="M 546.910424 320.4 
L 546.910424 43.2 
" clip-path="url(#p09738b1ac0)" style="fill: none; stroke-dasharray: 5.12,1.28,0.8,1.28; stroke-dashoffset: 0; stroke: #b0b0b0; stroke-width: 0.8"/>
     </g>
     <g id="line2d_14">
      <g>
       <use xlink:href="#mf376a7ff3a" x="546.910424" y="320.4" style="fill: #a9a9a9; stroke: #a9a9a9; stroke-width: 0.8"/>
      </g>
     </g>
     <g id="text_7">
      <!-- 2023-09 -->
      <g style="fill: #a9a9a9" transform="translate(526.019017 334.998438) scale(0.1 -0.1)">
       <use xlink:href="#DejaVuSans-32"/>
       <use xlink:href="#DejaVuSans-30" x="63.623047"/>
       <use xlink:href="#DejaVuSans-32" x="127.246094"/>
       <use xlink:href="#DejaVuSans-33" x="190.869141"/>
       <use xlink:href="#DejaVuSans-2d" x="254.492188"/>
       <use xlink:href="#DejaVuSans-30" x="290.576172"/>
       <use xlink:href="#DejaVuSans-39" x="354.199219"/>
      </g>
     </g>
    </g>
    <g id="xtick_8">
     <g id="line2d_15">
      <path d="M 611.713851 320.4 
L 611.713851 43.2 
" clip-path="url(#p09738b1ac0)" style="fill: none; stroke-dasharray: 5.12,1.28,0.8,1.28; stroke-dashoffset: 0; stroke: #b0b0b0; stroke-width: 0.8"/>
     </g>
     <g id="line2d_16">
      <g>
       <use xlink:href="#mf376a7ff3a" x="611.713851" y="320.4" style="fill: #a9a9a9; stroke: #a9a9a9; stroke-width: 0.8"/>
      </g>
     </g>
     <g id="text_8">
      <!-- 2024-01 -->
      <g style="fill: #a9a9a9" transform="translate(590.822444 334.998438) scale(0.1 -0.1)">
       <defs>
        <path id="DejaVuSans-34" d="M 2419 4116 
L 825 1625 
L 2419 1625 
L 2419 4116 
z
M 2253 4666 
L 3047 4666 
L 3047 1625 
L 3713 1625 
L 3713 1100 
L 3047 1100 
L 3047 0 
L 2419 0 
L 2419 1100 
L 313 1100 
L 313 1709 
L 2253 4666 
z
" transform="scale(0.015625)"/>
       </defs>
       <use xlink:href="#DejaVuSans-32"/>
       <use xlink:href="#DejaVuSans-30" x="63.623047"/>
       <use xlink:href="#DejaVuSans-32" x="127.246094"/>
       <use xlink:href="#DejaVuSans-34" x="190.869141"/>
       <use xlink:href="#DejaVuSans-2d" x="254.492188"/>
       <use xlink:href="#DejaVuSans-30" x="290.576172"/>
       <use xlink:href="#DejaVuSans-31" x="354.199219"/>
      </g>
     </g>
    </g>
    <g id="xtick_9">
     <g id="line2d_17">
      <path d="M 675.986102 320.4 
L 675.986102 43.2 
" clip-path="url(#p09738b1ac0)" style="fill: none; stroke-dasharray: 5.12,1.28,0.8,1.28; stroke-dashoffset: 0; stroke: #b0b0b0; stroke-width: 0.8"/>
     </g>
     <g id="line2d_18">
      <g>
       <use xlink:href="#mf376a7ff3a" x="675.986102" y="320.4" style="fill: #a9a9a9; stroke: #a9a9a9; stroke-width: 0.8"/>
      </g>
     </g>
     <g id="text_9">
      <!-- 2024-05 -->
      <g style="fill: #a9a9a9" transform="translate(655.094696 334.998438) scale(0.1 -0.1)">
       <use xlink:href="#DejaVuSans-32"/>
       <use xlink:href="#DejaVuSans-30" x="63.623047"/>
       <use xlink:href="#DejaVuSans-32" x="127.246094"/>
       <use xlink:href="#DejaVuSans-34" x="190.869141"/>
       <use xlink:href="#DejaVuSans-2d" x="254.492188"/>
       <use xlink:href="#DejaVuSans-30" x="290.576172"/>
       <use xlink:href="#DejaVuSans-35" x="354.199219"/>
      </g>
     </g>
    </g>
    <g id="xtick_10">
     <g id="line2d_19">
      <path d="M 741.320704 320.4 
L 741.320704 43.2 
" clip-path="url(#p09738b1ac0)" style="fill: none; stroke-dasharray: 5.12,1.28,0.8,1.28; stroke-dashoffset: 0; stroke: #b0b0b0; stroke-width: 0.8"/>
     </g>
     <g id="line2d_20">
      <g>
       <use xlink:href="#mf376a7ff3a" x="741.320704" y="320.4" style="fill: #a9a9a9; stroke: #a9a9a9; stroke-width: 0.8"/>
      </g>
     </g>
     <g id="text_10">
      <!-- 2024-09 -->
      <g style="fill: #a9a9a9" transform="translate(720.429298 334.998438) scale(0.1 -0.1)">
       <use xlink:href="#DejaVuSans-32"/>
       <use xlink:href="#DejaVuSans-30" x="63.623047"/>
       <use xlink:href="#DejaVuSans-32" x="127.246094"/>
       <use xlink:href="#DejaVuSans-34" x="190.869141"/>
       <use xlink:href="#DejaVuSans-2d" x="254.492188"/>
       <use xlink:href="#DejaVuSans-30" x="290.576172"/>
       <use xlink:href="#DejaVuSans-39" x="354.199219"/>
      </g>
     </g>
    </g>
   </g>
   <g id="matplotlib.axis_2">
    <g id="ytick_1">
     <g id="line2d_21">
      <path d="M 108 307.837861 
L 777.6 307.837861 
" clip-path="url(#p09738b1ac0)" style="fill: none; stroke-dasharray: 5.12,1.28,0.8,1.28; stroke-dashoffset: 0; stroke: #b0b0b0; stroke-width: 0.8"/>
     </g>
     <g id="line2d_22">
      <defs>
       <path id="mb1eec33c22" d="M 0 0 
L -3.5 0 
" style="stroke: #a9a9a9; stroke-width: 0.8"/>
      </defs>
      <g>
       <use xlink:href="#mb1eec33c22" x="108" y="307.837861" style="fill: #a9a9a9; stroke: #a9a9a9; stroke-width: 0.8"/>
      </g>
     </g>
     <g id="text_11">
      <!-- 0 -->
      <g style="fill: #a9a9a9" transform="translate(94.6375 311.637079) scale(0.1 -0.1)">
       <use xlink:href="#DejaVuSans-30"/>
      </g>
     </g>
    </g>
    <g id="ytick_2">
     <g id="line2d_23">
      <path d="M 108 277.549399 
L 777.6 277.549399 
" clip-path="url(#p09738b1ac0)" style="fill: none; stroke-dasharray: 5.12,1.28,0.8,1.28; stroke-dashoffset: 0; stroke: #b0b0b0; stroke-width: 0.8"/>
     </g>
     <g id="line2d_24">
      <g>
       <use xlink:href="#mb1eec33c22" x="108" y="277.549399" style="fill: #a9a9a9; stroke: #a9a9a9; stroke-width: 0.8"/>
      </g>
     </g>
     <g id="text_12">
      <!-- 800 -->
      <g style="fill: #a9a9a9" transform="translate(81.9125 281.348618) scale(0.1 -0.1)">
       <defs>
        <path id="DejaVuSans-38" d="M 2034 2216 
Q 1584 2216 1326 1975 
Q 1069 1734 1069 1313 
Q 1069 891 1326 650 
Q 1584 409 2034 409 
Q 2484 409 2743 651 
Q 3003 894 3003 1313 
Q 3003 1734 2745 1975 
Q 2488 2216 2034 2216 
z
M 1403 2484 
Q 997 2584 770 2862 
Q 544 3141 544 3541 
Q 544 4100 942 4425 
Q 1341 4750 2034 4750 
Q 2731 4750 3128 4425 
Q 3525 4100 3525 3541 
Q 3525 3141 3298 2862 
Q 3072 2584 2669 2484 
Q 3125 2378 3379 2068 
Q 3634 1759 3634 1313 
Q 3634 634 3220 271 
Q 2806 -91 2034 -91 
Q 1263 -91 848 271 
Q 434 634 434 1313 
Q 434 1759 690 2068 
Q 947 2378 1403 2484 
z
M 1172 3481 
Q 1172 3119 1398 2916 
Q 1625 2713 2034 2713 
Q 2441 2713 2670 2916 
Q 2900 3119 2900 3481 
Q 2900 3844 2670 4047 
Q 2441 4250 2034 4250 
Q 1625 4250 1398 4047 
Q 1172 3844 1172 3481 
z
" transform="scale(0.015625)"/>
       </defs>
       <use xlink:href="#DejaVuSans-38"/>
       <use xlink:href="#DejaVuSans-30" x="63.623047"/>
       <use xlink:href="#DejaVuSans-30" x="127.246094"/>
      </g>
     </g>
    </g>
    <g id="ytick_3">
     <g id="line2d_25">
      <path d="M 108 247.260938 
L 777.6 247.260938 
" clip-path="url(#p09738b1ac0)" style="fill: none; stroke-dasharray: 5.12,1.28,0.8,1.28; stroke-dashoffset: 0; stroke: #b0b0b0; stroke-width: 0.8"/>
     </g>
     <g id="line2d_26">
      <g>
       <use xlink:href="#mb1eec33c22" x="108" y="247.260938" style="fill: #a9a9a9; stroke: #a9a9a9; stroke-width: 0.8"/>
      </g>
     </g>
     <g id="text_13">
      <!-- 1600 -->
      <g style="fill: #a9a9a9" transform="translate(75.55 251.060156) scale(0.1 -0.1)">
       <defs>
        <path id="DejaVuSans-36" d="M 2113 2584 
Q 1688 2584 1439 2293 
Q 1191 2003 1191 1497 
Q 1191 994 1439 701 
Q 1688 409 2113 409 
Q 2538 409 2786 701 
Q 3034 994 3034 1497 
Q 3034 2003 2786 2293 
Q 2538 2584 2113 2584 
z
M 3366 4563 
L 3366 3988 
Q 3128 4100 2886 4159 
Q 2644 4219 2406 4219 
Q 1781 4219 1451 3797 
Q 1122 3375 1075 2522 
Q 1259 2794 1537 2939 
Q 1816 3084 2150 3084 
Q 2853 3084 3261 2657 
Q 3669 2231 3669 1497 
Q 3669 778 3244 343 
Q 2819 -91 2113 -91 
Q 1303 -91 875 529 
Q 447 1150 447 2328 
Q 447 3434 972 4092 
Q 1497 4750 2381 4750 
Q 2619 4750 2861 4703 
Q 3103 4656 3366 4563 
z
" transform="scale(0.015625)"/>
       </defs>
       <use xlink:href="#DejaVuSans-31"/>
       <use xlink:href="#DejaVuSans-36" x="63.623047"/>
       <use xlink:href="#DejaVuSans-30" x="127.246094"/>
       <use xlink:href="#DejaVuSans-30" x="190.869141"/>
      </g>
     </g>
    </g>
    <g id="ytick_4">
     <g id="line2d_27">
      <path d="M 108 216.972476 
L 777.6 216.972476 
" clip-path="url(#p09738b1ac0)" style="fill: none; stroke-dasharray: 5.12,1.28,0.8,1.28; stroke-dashoffset: 0; stroke: #b0b0b0; stroke-width: 0.8"/>
     </g>
     <g id="line2d_28">
      <g>
       <use xlink:href="#mb1eec33c22" x="108" y="216.972476" style="fill: #a9a9a9; stroke: #a9a9a9; stroke-width: 0.8"/>
      </g>
     </g>
     <g id="text_14">
      <!-- 2400 -->
      <g style="fill: #a9a9a9" transform="translate(75.55 220.771695) scale(0.1 -0.1)">
       <use xlink:href="#DejaVuSans-32"/>
       <use xlink:href="#DejaVuSans-34" x="63.623047"/>
       <use xlink:href="#DejaVuSans-30" x="127.246094"/>
       <use xlink:href="#DejaVuSans-30" x="190.869141"/>
      </g>
     </g>
    </g>
    <g id="ytick_5">
     <g id="line2d_29">
      <path d="M 108 186.684014 
L 777.6 186.684014 
" clip-path="url(#p09738b1ac0)" style="fill: none; stroke-dasharray: 5.12,1.28,0.8,1.28; stroke-dashoffset: 0; stroke: #b0b0b0; stroke-width: 0.8"/>
     </g>
     <g id="line2d_30">
      <g>
       <use xlink:href="#mb1eec33c22" x="108" y="186.684014" style="fill: #a9a9a9; stroke: #a9a9a9; stroke-width: 0.8"/>
      </g>
     </g>
     <g id="text_15">
      <!-- 3200 -->
      <g style="fill: #a9a9a9" transform="translate(75.55 190.483233) scale(0.1 -0.1)">
       <use xlink:href="#DejaVuSans-33"/>
       <use xlink:href="#DejaVuSans-32" x="63.623047"/>
       <use xlink:href="#DejaVuSans-30" x="127.246094"/>
       <use xlink:href="#DejaVuSans-30" x="190.869141"/>
      </g>
     </g>
    </g>
    <g id="ytick_6">
     <g id="line2d_31">
      <path d="M 108 156.395553 
L 777.6 156.395553 
" clip-path="url(#p09738b1ac0)" style="fill: none; stroke-dasharray: 5.12,1.28,0.8,1.28; stroke-dashoffset: 0; stroke: #b0b0b0; stroke-width: 0.8"/>
     </g>
     <g id="line2d_32">
      <g>
       <use xlink:href="#mb1eec33c22" x="108" y="156.395553" style="fill: #a9a9a9; stroke: #a9a9a9; stroke-width: 0.8"/>
      </g>
     </g>
     <g id="text_16">
      <!-- 4000 -->
      <g style="fill: #a9a9a9" transform="translate(75.55 160.194772) scale(0.1 -0.1)">
       <use xlink:href="#DejaVuSans-34"/>
       <use xlink:href="#DejaVuSans-30" x="63.623047"/>
       <use xlink:href="#DejaVuSans-30" x="127.246094"/>
       <use xlink:href="#DejaVuSans-30" x="190.869141"/>
      </g>
     </g>
    </g>
    <g id="ytick_7">
     <g id="line2d_33">
      <path d="M 108 126.107091 
L 777.6 126.107091 
" clip-path="url(#p09738b1ac0)" style="fill: none; stroke-dasharray: 5.12,1.28,0.8,1.28; stroke-dashoffset: 0; stroke: #b0b0b0; stroke-width: 0.8"/>
     </g>
     <g id="line2d_34">
      <g>
       <use xlink:href="#mb1eec33c22" x="108" y="126.107091" style="fill: #a9a9a9; stroke: #a9a9a9; stroke-width: 0.8"/>
      </g>
     </g>
     <g id="text_17">
      <!-- 4800 -->
      <g style="fill: #a9a9a9" transform="translate(75.55 129.90631) scale(0.1 -0.1)">
       <use xlink:href="#DejaVuSans-34"/>
       <use xlink:href="#DejaVuSans-38" x="63.623047"/>
       <use xlink:href="#DejaVuSans-30" x="127.246094"/>
       <use xlink:href="#DejaVuSans-30" x="190.869141"/>
      </g>
     </g>
    </g>
    <g id="ytick_8">
     <g id="line2d_35">
      <path d="M 108 95.81863 
L 777.6 95.81863 
" clip-path="url(#p09738b1ac0)" style="fill: none; stroke-dasharray: 5.12,1.28,0.8,1.28; stroke-dashoffset: 0; stroke: #b0b0b0; stroke-width: 0.8"/>
     </g>
     <g id="line2d_36">
      <g>
       <use xlink:href="#mb1eec33c22" x="108" y="95.81863" style="fill: #a9a9a9; stroke: #a9a9a9; stroke-width: 0.8"/>
      </g>
     </g>
     <g id="text_18">
      <!-- 5600 -->
      <g style="fill: #a9a9a9" transform="translate(75.55 99.617849) scale(0.1 -0.1)">
       <use xlink:href="#DejaVuSans-35"/>
       <use xlink:href="#DejaVuSans-36" x="63.623047"/>
       <use xlink:href="#DejaVuSans-30" x="127.246094"/>
       <use xlink:href="#DejaVuSans-30" x="190.869141"/>
      </g>
     </g>
    </g>
    <g id="ytick_9">
     <g id="line2d_37">
      <path d="M 108 65.530168 
L 777.6 65.530168 
" clip-path="url(#p09738b1ac0)" style="fill: none; stroke-dasharray: 5.12,1.28,0.8,1.28; stroke-dashoffset: 0; stroke: #b0b0b0; stroke-width: 0.8"/>
     </g>
     <g id="line2d_38">
      <g>
       <use xlink:href="#mb1eec33c22" x="108" y="65.530168" style="fill: #a9a9a9; stroke: #a9a9a9; stroke-width: 0.8"/>
      </g>
     </g>
     <g id="text_19">
      <!-- 6400 -->
      <g style="fill: #a9a9a9" transform="translate(75.55 69.329387) scale(0.1 -0.1)">
       <use xlink:href="#DejaVuSans-36"/>
       <use xlink:href="#DejaVuSans-34" x="63.623047"/>
       <use xlink:href="#DejaVuSans-30" x="127.246094"/>
       <use xlink:href="#DejaVuSans-30" x="190.869141"/>
      </g>
     </g>
    </g>
   </g>
   <g id="line2d_39">
    <path d="M 138.436364 307.724279 
L 141.623417 307.459255 
L 142.154593 307.232091 
L 143.74812 307.080649 
L 147.466349 306.399159 
L 150.122228 306.171995 
L 151.184579 305.755529 
L 151.715754 305.074038 
L 152.24693 304.695433 
L 152.778106 303.521755 
L 153.309281 303.446034 
L 153.840457 303.029567 
L 154.902808 302.499519 
L 157.027511 300.833654 
L 159.152213 299.811418 
L 160.74574 299.092067 
L 161.276916 298.259135 
L 162.339267 297.501923 
L 162.870443 297.27476 
L 168.182199 296.517548 
L 168.713375 296.290385 
L 172.431604 295.9875 
L 174.556307 295.495313 
L 178.805712 294.927404 
L 179.336887 294.624519 
L 179.868063 294.548798 
L 180.930414 294.208053 
L 184.648644 293.602284 
L 185.710995 293.299399 
L 187.304522 293.147957 
L 188.366873 293.034375 
L 191.022751 292.352885 
L 192.085102 292.277163 
L 193.147454 292.125721 
L 194.209805 291.898558 
L 194.74098 291.747115 
L 195.272156 291.027764 
L 196.865683 290.421995 
L 198.45921 290.005529 
L 198.990386 289.740505 
L 199.521561 289.702644 
L 202.177439 288.945433 
L 203.239791 288.869712 
L 203.770966 288.79399 
L 205.364493 288.301803 
L 207.489196 287.771755 
L 208.020371 287.544591 
L 208.551547 287.46887 
L 209.082723 287.203846 
L 214.394479 286.408774 
L 217.050357 285.651563 
L 217.581533 285.310817 
L 220.237411 284.440024 
L 221.299762 283.720673 
L 222.893289 283.417788 
L 232.985626 280.502524 
L 234.047977 280.086058 
L 235.110328 280.010337 
L 236.703855 279.55601 
L 237.235031 279.55601 
L 237.766207 279.328846 
L 238.828558 279.215264 
L 239.359733 279.025962 
L 240.422085 278.988101 
L 242.546787 278.723077 
L 243.609139 278.193029 
L 249.983246 275.353486 
L 250.514422 274.785577 
L 251.576773 273.195433 
L 252.107949 273.04399 
L 252.639124 273.04399 
L 253.701475 272.248918 
L 255.295002 271.71887 
L 255.826178 271.226683 
L 256.888529 270.810216 
L 257.950881 270.318029 
L 259.013232 268.803606 
L 259.544407 268.462861 
L 260.075583 267.554207 
L 260.606759 266.986298 
L 263.793812 265.358293 
L 264.856164 264.525361 
L 265.387339 264.184615 
L 265.918515 263.389543 
L 266.449691 262.215865 
L 266.980866 261.420793 
L 267.512042 261.004327 
L 268.043218 260.777163 
L 270.16792 258.959856 
L 271.230271 258.089063 
L 271.761447 257.634736 
L 272.292623 256.915385 
L 273.354974 255.96887 
L 275.479676 254.568029 
L 276.010852 254.113702 
L 277.073203 253.772957 
L 278.66673 252.864303 
L 280.260257 251.842067 
L 282.38496 249.949038 
L 283.447311 249.532572 
L 284.509662 248.813221 
L 285.040838 248.510337 
L 285.572013 248.434615 
L 289.290243 246.12512 
L 291.414945 244.989303 
L 291.946121 244.497115 
L 300.444931 241.54399 
L 301.507282 240.597476 
L 302.569634 240.105288 
L 303.631985 239.53738 
L 304.16316 239.234495 
L 305.225512 238.931611 
L 305.756687 238.590865 
L 306.287863 238.439423 
L 307.88139 237.417188 
L 310.537268 236.811418 
L 312.130795 235.902764 
L 312.66197 235.827043 
L 313.724322 235.562019 
L 314.255497 235.410577 
L 315.849024 234.199038 
L 317.973727 233.63113 
L 318.504902 233.214663 
L 321.691956 232.154567 
L 322.223132 232.116707 
L 323.285483 231.70024 
L 327.534888 230.185817 
L 328.597239 230.034375 
L 330.190766 229.504327 
L 332.846644 228.254928 
L 334.971347 227.119111 
L 339.220752 225.415385 
L 339.751928 225.339663 
L 340.814279 224.696034 
L 341.345455 224.620313 
L 343.470157 223.749519 
L 345.59486 223.446635 
L 346.657211 222.916587 
L 347.188386 222.46226 
L 347.719562 221.515745 
L 349.844265 220.947837 
L 351.437792 220.152764 
L 351.968967 220.039183 
L 356.218372 218.032572 
L 357.811899 217.691827 
L 358.87425 217.161779 
L 359.405426 216.934615 
L 359.936602 216.858894 
L 362.061304 215.91238 
L 363.654831 214.928005 
L 364.186007 214.852284 
L 364.717182 214.662981 
L 365.248358 214.62512 
L 367.904236 213.98149 
L 368.435412 213.565024 
L 370.028939 212.997115 
L 372.153641 212.164183 
L 372.684817 211.785577 
L 373.215992 211.596274 
L 374.278344 211.028365 
L 376.934222 210.157572 
L 378.527749 208.908173 
L 379.058924 208.794591 
L 380.121276 207.961659 
L 380.652451 207.885938 
L 381.183627 207.053005 
L 381.714802 206.825841 
L 382.245978 206.409375 
L 382.777154 206.333654 
L 383.839505 205.690024 
L 384.901856 205.349279 
L 385.433032 204.932813 
L 385.964208 204.74351 
L 387.557734 203.645553 
L 389.682437 202.547596 
L 390.213613 202.471875 
L 391.807139 201.676803 
L 392.338315 200.80601 
L 392.869491 200.351683 
L 393.400666 200.048798 
L 393.931842 199.935216 
L 394.994193 199.253726 
L 395.525369 199.140144 
L 396.58772 198.610096 
L 398.181247 197.928606 
L 399.243598 197.171394 
L 400.837125 195.732692 
L 401.899476 195.126923 
L 402.430652 194.559014 
L 404.555355 193.120313 
L 405.08653 192.514543 
L 405.617706 192.098077 
L 406.680057 191.719471 
L 407.742408 191.00012 
L 409.335935 190.205048 
L 409.867111 190.129327 
L 411.460638 189.296394 
L 412.522989 188.652764 
L 417.834745 186.759736 
L 418.365921 186.343269 
L 420.490624 185.548197 
L 421.021799 185.396755 
L 421.552975 184.980288 
L 424.208853 183.541587 
L 425.271204 181.459255 
L 426.333555 180.247716 
L 427.395907 179.604087 
L 428.989434 178.960457 
L 429.520609 178.884736 
L 430.051785 178.581851 
L 432.707663 177.748918 
L 433.238839 177.521755 
L 434.30119 176.802404 
L 435.894717 176.120913 
L 436.957068 175.553005 
L 437.488244 175.174399 
L 438.019419 174.947236 
L 438.550595 174.56863 
L 439.081771 174.000721 
L 440.144122 173.432813 
L 442.8 172.031971 
L 445.987054 170.479688 
L 447.049405 170.138942 
L 448.642932 169.646755 
L 450.767634 168.70024 
L 451.829986 168.283774 
L 452.361161 167.867308 
L 453.423513 167.526563 
L 456.610566 165.898558 
L 457.672918 165.065625 
L 458.735269 164.687019 
L 459.266445 164.232692 
L 459.79762 164.156971 
L 460.859971 163.361899 
L 461.922323 162.831851 
L 462.453498 162.604688 
L 462.984674 162.074639 
L 466.702903 160.635938 
L 467.765255 160.181611 
L 469.358782 159.689423 
L 470.421133 159.537981 
L 470.952308 159.310817 
L 471.483484 159.235096 
L 472.545835 158.780769 
L 473.077011 158.742909 
L 475.201713 157.947837 
L 476.79524 156.84988 
L 479.451119 155.600481 
L 482.106997 154.161779 
L 482.638172 154.048197 
L 484.231699 153.139543 
L 485.825226 152.609495 
L 486.887577 152.26875 
L 489.01228 151.58726 
L 490.074631 151.246514 
L 491.668158 150.98149 
L 493.792861 150.3 
L 494.324036 150.072837 
L 494.855212 149.997115 
L 495.386387 149.732091 
L 496.448739 149.542788 
L 498.042266 148.97488 
L 499.104617 148.861298 
L 500.698144 148.520553 
L 501.760495 148.33125 
L 502.822846 148.141947 
L 503.885198 147.914784 
L 507.072251 147.119712 
L 507.603427 146.816827 
L 510.259305 146.173197 
L 511.321656 145.832452 
L 517.164588 144.128726 
L 517.695764 143.598678 
L 518.758115 143.182212 
L 521.945169 142.046394 
L 522.476345 141.705649 
L 523.00752 141.592067 
L 523.538696 141.289183 
L 525.132223 140.834856 
L 526.194574 140.569832 
L 526.72575 140.229087 
L 527.256925 140.115505 
L 527.788101 139.661178 
L 529.381628 139.358293 
L 530.443979 138.866106 
L 530.975155 138.260337 
L 533.099857 137.768149 
L 536.818087 137.010938 
L 537.349262 137.010938 
L 537.880438 136.783774 
L 540.00514 136.405168 
L 540.536316 136.178005 
L 542.661019 135.799399 
L 543.72337 135.345072 
L 544.254545 135.307212 
L 553.284531 132.619111 
L 553.815707 132.391947 
L 554.346882 132.013341 
L 555.409234 131.710457 
L 556.471585 131.369712 
L 557.533936 130.953245 
L 559.127463 130.271755 
L 560.72099 130.158173 
L 562.845693 129.552404 
L 563.376868 129.211659 
L 564.439219 128.908774 
L 567.095098 127.735096 
L 567.626273 127.697236 
L 573.469205 125.690625 
L 576.125083 125.009135 
L 577.187435 124.516947 
L 578.249786 124.289784 
L 578.780961 124.176202 
L 579.312137 123.759736 
L 579.843313 123.494712 
L 580.374488 122.851082 
L 580.905664 122.472476 
L 581.968015 122.169591 
L 582.499191 121.753125 
L 585.155069 120.655168 
L 585.686245 120.541587 
L 586.21742 120.200841 
L 587.279772 119.897957 
L 587.810947 119.557212 
L 590.466825 118.686418 
L 592.060352 117.777764 
L 592.591528 117.664183 
L 593.653879 117.058413 
L 594.185055 116.83125 
L 595.247406 116.18762 
L 596.840933 115.430409 
L 597.372109 115.051803 
L 598.43446 114.711058 
L 599.496811 114.105288 
L 600.027987 113.915986 
L 600.559162 113.53738 
L 607.464446 111.152163 
L 607.995621 111.038582 
L 608.526797 110.697837 
L 609.057972 110.622115 
L 610.120324 110.357091 
L 611.182675 110.129928 
L 614.900904 108.31262 
L 615.43208 108.236899 
L 617.025607 107.366106 
L 620.212661 106.116707 
L 622.337363 105.283774 
L 622.868539 105.132332 
L 623.399714 104.791587 
L 624.462066 104.640144 
L 624.993241 104.299399 
L 625.524417 104.261538 
L 626.586768 103.920793 
L 627.649119 103.390745 
L 628.180295 103.315024 
L 630.836173 102.254928 
L 632.4297 101.800601 
L 633.492051 101.535577 
L 635.085578 101.08125 
L 636.14793 100.664784 
L 638.272632 99.528966 
L 639.334983 99.1125 
L 639.866159 98.771755 
L 640.92851 98.544591 
L 641.459686 98.241707 
L 641.990861 98.128125 
L 643.584388 97.295192 
L 644.64674 96.878726 
L 646.240267 96.159375 
L 647.833793 95.742909 
L 651.020847 94.49351 
L 652.614374 93.963462 
L 660.582009 90.55601 
L 661.113184 90.480288 
L 663.237887 89.647356 
L 664.831414 88.776563 
L 665.362589 88.662981 
L 666.424941 88.246514 
L 666.956116 88.246514 
L 668.018467 87.792188 
L 669.080819 86.845673 
L 669.611994 86.391346 
L 671.205521 85.634135 
L 671.736697 85.520553 
L 672.267872 85.255529 
L 672.799048 85.179808 
L 673.330224 84.801202 
L 673.861399 84.68762 
L 674.923751 84.04399 
L 676.517277 83.248918 
L 677.579629 82.832452 
L 678.110804 82.567428 
L 680.766683 81.923798 
L 681.297858 81.658774 
L 682.891385 81.204447 
L 685.016088 80.182212 
L 686.078439 79.690024 
L 687.14079 79.425 
L 690.85902 77.683413 
L 693.514898 76.736899 
L 695.108425 75.790385 
L 695.6396 75.676803 
L 696.701951 75.146755 
L 697.764303 74.768149 
L 698.295478 74.313822 
L 698.826654 74.010938 
L 700.420181 73.51875 
L 701.482532 72.799399 
L 702.013708 72.761538 
L 703.076059 72.458654 
L 704.13841 72.117909 
L 704.669586 71.852885 
L 705.200762 71.777163 
L 706.794288 71.209255 
L 708.387815 70.641346 
L 709.450167 70.22488 
L 709.981342 69.808413 
L 711.574869 69.391947 
L 712.106045 69.089063 
L 713.168396 68.824038 
L 714.761923 67.953245 
L 715.293099 67.915385 
L 716.886625 67.423197 
L 717.948977 67.309615 
L 719.011328 66.893149 
L 722.198382 65.984495 
L 723.260733 65.946635 
L 726.447787 64.924399 
L 726.978962 64.848678 
L 728.572489 64.015745 
L 729.103665 63.561418 
L 730.166016 62.917788 
L 731.759543 61.895553 
L 734.946597 60.797596 
L 735.477772 60.38113 
L 737.071299 59.661779 
L 737.602475 59.548197 
L 738.664826 59.05601 
L 740.258353 58.639543 
L 741.85188 57.958053 
L 742.914231 57.465865 
L 744.507758 56.822236 
L 745.038934 56.708654 
L 746.632461 55.951442 
L 747.163636 55.8 
L 747.163636 55.8 
" clip-path="url(#p09738b1ac0)" style="fill: none; stroke: #1f77b4; stroke-width: 1.5; stroke-linecap: square"/>
   </g>
   <g id="line2d_40">
    <path d="M 138.967539 307.8 
L 140.561066 307.724279 
L 142.154593 307.686418 
L 145.341647 307.610697 
L 147.997525 307.497115 
L 150.122228 307.497115 
L 150.653403 307.345673 
L 152.778106 307.269952 
L 154.371633 307.080649 
L 155.965159 306.929207 
L 159.152213 306.777764 
L 159.683389 306.777764 
L 160.74574 306.664183 
L 163.932794 306.51274 
L 167.651023 306.437019 
L 170.306901 306.323438 
L 176.681009 306.247716 
L 179.336887 306.134135 
L 182.523941 306.058413 
L 184.648644 305.982692 
L 189.429224 305.906971 
L 191.022751 305.869111 
L 192.616278 305.83125 
L 194.209805 305.641947 
L 197.396859 305.604087 
L 198.45921 305.528365 
L 202.708615 305.452644 
L 208.020371 305.14976 
L 211.738601 305.074038 
L 212.800952 304.998317 
L 214.394479 304.922596 
L 217.581533 304.771154 
L 219.706235 304.733293 
L 221.299762 304.581851 
L 228.205045 304.165385 
L 230.860923 304.089663 
L 235.641504 303.824639 
L 237.235031 303.748918 
L 242.546787 303.446034 
L 248.389719 303.370313 
L 250.514422 303.143149 
L 251.576773 303.067428 
L 258.482056 302.499519 
L 261.66911 302.083053 
L 263.793812 302.007332 
L 268.043218 301.439423 
L 271.230271 301.363702 
L 272.823798 301.21226 
L 273.886149 301.174399 
L 274.948501 301.060817 
L 276.542028 300.985096 
L 278.135554 300.757933 
L 278.66673 300.757933 
L 280.260257 300.530769 
L 282.38496 300.455048 
L 283.447311 300.379327 
L 285.572013 300.303606 
L 286.634365 300.227885 
L 289.290243 299.962861 
L 290.352594 299.773558 
L 291.946121 299.735697 
L 293.008472 299.659976 
L 295.66435 299.584255 
L 302.569634 299.167788 
L 304.16316 299.092067 
L 311.068444 298.675601 
L 314.786673 298.59988 
L 315.849024 298.486298 
L 319.567254 298.410577 
L 323.285483 298.221274 
L 329.128415 298.145553 
L 332.846644 297.95625 
L 337.09605 297.880529 
L 341.345455 297.653365 
L 345.063684 297.577644 
L 355.156021 296.934014 
L 360.467777 296.858293 
L 362.59248 296.63113 
L 364.186007 296.593269 
L 365.779534 296.555409 
L 367.904236 296.328245 
L 373.215992 296.025361 
L 376.403046 295.949639 
L 377.996573 295.911779 
L 379.5901 295.873918 
L 381.183627 295.722476 
L 385.433032 295.646755 
L 386.495383 295.495313 
L 387.557734 295.419591 
L 390.213613 295.30601 
L 391.275964 295.230288 
L 392.338315 295.154567 
L 397.118896 295.078846 
L 398.181247 294.965264 
L 400.30595 294.927404 
L 401.368301 294.813822 
L 402.961828 294.624519 
L 404.024179 294.548798 
L 408.80476 294.283774 
L 409.867111 294.245913 
L 411.460638 294.094471 
L 413.054165 294.056611 
L 414.647692 293.980889 
L 417.30357 293.867308 
L 424.740029 293.791587 
L 428.458258 293.602284 
L 432.707663 293.526563 
L 434.832366 293.450841 
L 436.957068 293.412981 
L 438.019419 293.299399 
L 440.144122 293.223678 
L 445.455878 292.920793 
L 448.642932 292.882933 
L 450.236459 292.73149 
L 451.829986 292.69363 
L 455.548215 292.617909 
L 457.672918 292.542188 
L 464.047025 292.466466 
L 466.702903 292.352885 
L 469.889957 292.277163 
L 471.483484 292.087861 
L 474.670538 292.05 
L 476.264065 291.898558 
L 478.388767 291.822837 
L 484.762875 291.747115 
L 487.418753 291.633534 
L 496.448739 291.595673 
L 497.51109 291.519952 
L 499.104617 291.482091 
L 506.0099 291.40637 
L 507.072251 291.330649 
L 512.915183 291.254928 
L 515.039886 291.179207 
L 525.132223 291.103486 
L 526.72575 291.065625 
L 531.50633 290.989904 
L 532.568682 290.914183 
L 545.316897 290.838462 
L 546.910424 290.800601 
L 561.252166 290.72488 
L 562.845693 290.687019 
L 572.406854 290.611298 
L 573.469205 290.535577 
L 576.125083 290.459856 
L 577.71861 290.308413 
L 580.374488 290.232692 
L 583.561542 290.08125 
L 587.810947 290.005529 
L 588.873298 289.929808 
L 593.122703 289.854087 
L 596.309757 289.702644 
L 598.965635 289.626923 
L 603.21504 289.39976 
L 606.402094 289.324038 
L 608.526797 289.248317 
L 615.43208 289.172596 
L 617.556782 289.096875 
L 621.806188 289.021154 
L 625.524417 288.831851 
L 630.304998 288.75613 
L 631.367349 288.680409 
L 640.92851 288.604688 
L 642.522037 288.566827 
L 645.177915 288.528966 
L 647.302618 288.301803 
L 648.896145 288.263942 
L 652.083198 288.188221 
L 657.394955 287.885337 
L 660.050833 287.809615 
L 662.175535 287.733894 
L 668.018467 287.658173 
L 670.674346 287.355288 
L 672.799048 287.279567 
L 676.517277 287.203846 
L 677.579629 287.090264 
L 681.829034 287.014543 
L 684.484912 286.900962 
L 691.390195 286.863101 
L 692.452546 286.749519 
L 696.170776 286.673798 
L 697.764303 286.635938 
L 700.420181 286.560216 
L 702.013708 286.522356 
L 711.043693 286.446635 
L 713.699572 286.333053 
L 721.13603 286.257332 
L 723.260733 286.181611 
L 729.103665 286.105889 
L 730.166016 285.992308 
L 734.946597 285.954447 
L 736.008948 285.878726 
L 738.664826 285.803005 
L 740.258353 285.765144 
L 747.163636 285.689423 
L 747.163636 285.689423 
" clip-path="url(#p09738b1ac0)" style="fill: none; stroke: #ff7f0e; stroke-width: 1.5; stroke-linecap: square"/>
   </g>
   <g id="patch_3">
    <path d="M 108 320.4 
L 108 43.2 
" style="fill: none; stroke: #a9a9a9; stroke-width: 0.8; stroke-linejoin: miter; stroke-linecap: square"/>
   </g>
   <g id="patch_4">
    <path d="M 777.6 320.4 
L 777.6 43.2 
" style="fill: none"/>
   </g>
   <g id="patch_5">
    <path d="M 108 320.4 
L 777.6 320.4 
" style="fill: none; stroke: #a9a9a9; stroke-width: 0.8; stroke-linejoin: miter; stroke-linecap: square"/>
   </g>
   <g id="patch_6">
    <path d="M 108 43.2 
L 777.6 43.2 
" style="fill: none"/>
   </g>
   <g id="text_20">
    <!-- get_subscribe history -->
    <g style="fill: #a9a9a9" transform="translate(378.6075 37.2) scale(0.12 -0.12)">
     <defs>
      <path id="DejaVuSans-67" d="M 2906 1791 
Q 2906 2416 2648 2759 
Q 2391 3103 1925 3103 
Q 1463 3103 1205 2759 
Q 947 2416 947 1791 
Q 947 1169 1205 825 
Q 1463 481 1925 481 
Q 2391 481 2648 825 
Q 2906 1169 2906 1791 
z
M 3481 434 
Q 3481 -459 3084 -895 
Q 2688 -1331 1869 -1331 
Q 1566 -1331 1297 -1286 
Q 1028 -1241 775 -1147 
L 775 -588 
Q 1028 -725 1275 -790 
Q 1522 -856 1778 -856 
Q 2344 -856 2625 -561 
Q 2906 -266 2906 331 
L 2906 616 
Q 2728 306 2450 153 
Q 2172 0 1784 0 
Q 1141 0 747 490 
Q 353 981 353 1791 
Q 353 2603 747 3093 
Q 1141 3584 1784 3584 
Q 2172 3584 2450 3431 
Q 2728 3278 2906 2969 
L 2906 3500 
L 3481 3500 
L 3481 434 
z
" transform="scale(0.015625)"/>
      <path id="DejaVuSans-65" d="M 3597 1894 
L 3597 1613 
L 953 1613 
Q 991 1019 1311 708 
Q 1631 397 2203 397 
Q 2534 397 2845 478 
Q 3156 559 3463 722 
L 3463 178 
Q 3153 47 2828 -22 
Q 2503 -91 2169 -91 
Q 1331 -91 842 396 
Q 353 884 353 1716 
Q 353 2575 817 3079 
Q 1281 3584 2069 3584 
Q 2775 3584 3186 3129 
Q 3597 2675 3597 1894 
z
M 3022 2063 
Q 3016 2534 2758 2815 
Q 2500 3097 2075 3097 
Q 1594 3097 1305 2825 
Q 1016 2553 972 2059 
L 3022 2063 
z
" transform="scale(0.015625)"/>
      <path id="DejaVuSans-74" d="M 1172 4494 
L 1172 3500 
L 2356 3500 
L 2356 3053 
L 1172 3053 
L 1172 1153 
Q 1172 725 1289 603 
Q 1406 481 1766 481 
L 2356 481 
L 2356 0 
L 1766 0 
Q 1100 0 847 248 
Q 594 497 594 1153 
L 594 3053 
L 172 3053 
L 172 3500 
L 594 3500 
L 594 4494 
L 1172 4494 
z
" transform="scale(0.015625)"/>
      <path id="DejaVuSans-5f" d="M 3263 -1063 
L 3263 -1509 
L -63 -1509 
L -63 -1063 
L 3263 -1063 
z
" transform="scale(0.015625)"/>
      <path id="DejaVuSans-73" d="M 2834 3397 
L 2834 2853 
Q 2591 2978 2328 3040 
Q 2066 3103 1784 3103 
Q 1356 3103 1142 2972 
Q 928 2841 928 2578 
Q 928 2378 1081 2264 
Q 1234 2150 1697 2047 
L 1894 2003 
Q 2506 1872 2764 1633 
Q 3022 1394 3022 966 
Q 3022 478 2636 193 
Q 2250 -91 1575 -91 
Q 1294 -91 989 -36 
Q 684 19 347 128 
L 347 722 
Q 666 556 975 473 
Q 1284 391 1588 391 
Q 1994 391 2212 530 
Q 2431 669 2431 922 
Q 2431 1156 2273 1281 
Q 2116 1406 1581 1522 
L 1381 1569 
Q 847 1681 609 1914 
Q 372 2147 372 2553 
Q 372 3047 722 3315 
Q 1072 3584 1716 3584 
Q 2034 3584 2315 3537 
Q 2597 3491 2834 3397 
z
" transform="scale(0.015625)"/>
      <path id="DejaVuSans-75" d="M 544 1381 
L 544 3500 
L 1119 3500 
L 1119 1403 
Q 1119 906 1312 657 
Q 1506 409 1894 409 
Q 2359 409 2629 706 
Q 2900 1003 2900 1516 
L 2900 3500 
L 3475 3500 
L 3475 0 
L 2900 0 
L 2900 538 
Q 2691 219 2414 64 
Q 2138 -91 1772 -91 
Q 1169 -91 856 284 
Q 544 659 544 1381 
z
M 1991 3584 
L 1991 3584 
z
" transform="scale(0.015625)"/>
      <path id="DejaVuSans-62" d="M 3116 1747 
Q 3116 2381 2855 2742 
Q 2594 3103 2138 3103 
Q 1681 3103 1420 2742 
Q 1159 2381 1159 1747 
Q 1159 1113 1420 752 
Q 1681 391 2138 391 
Q 2594 391 2855 752 
Q 3116 1113 3116 1747 
z
M 1159 2969 
Q 1341 3281 1617 3432 
Q 1894 3584 2278 3584 
Q 2916 3584 3314 3078 
Q 3713 2572 3713 1747 
Q 3713 922 3314 415 
Q 2916 -91 2278 -91 
Q 1894 -91 1617 61 
Q 1341 213 1159 525 
L 1159 0 
L 581 0 
L 581 4863 
L 1159 4863 
L 1159 2969 
z
" transform="scale(0.015625)"/>
      <path id="DejaVuSans-63" d="M 3122 3366 
L 3122 2828 
Q 2878 2963 2633 3030 
Q 2388 3097 2138 3097 
Q 1578 3097 1268 2742 
Q 959 2388 959 1747 
Q 959 1106 1268 751 
Q 1578 397 2138 397 
Q 2388 397 2633 464 
Q 2878 531 3122 666 
L 3122 134 
Q 2881 22 2623 -34 
Q 2366 -91 2075 -91 
Q 1284 -91 818 406 
Q 353 903 353 1747 
Q 353 2603 823 3093 
Q 1294 3584 2113 3584 
Q 2378 3584 2631 3529 
Q 2884 3475 3122 3366 
z
" transform="scale(0.015625)"/>
      <path id="DejaVuSans-72" d="M 2631 2963 
Q 2534 3019 2420 3045 
Q 2306 3072 2169 3072 
Q 1681 3072 1420 2755 
Q 1159 2438 1159 1844 
L 1159 0 
L 581 0 
L 581 3500 
L 1159 3500 
L 1159 2956 
Q 1341 3275 1631 3429 
Q 1922 3584 2338 3584 
Q 2397 3584 2469 3576 
Q 2541 3569 2628 3553 
L 2631 2963 
z
" transform="scale(0.015625)"/>
      <path id="DejaVuSans-69" d="M 603 3500 
L 1178 3500 
L 1178 0 
L 603 0 
L 603 3500 
z
M 603 4863 
L 1178 4863 
L 1178 4134 
L 603 4134 
L 603 4863 
z
" transform="scale(0.015625)"/>
      <path id="DejaVuSans-20" transform="scale(0.015625)"/>
      <path id="DejaVuSans-68" d="M 3513 2113 
L 3513 0 
L 2938 0 
L 2938 2094 
Q 2938 2591 2744 2837 
Q 2550 3084 2163 3084 
Q 1697 3084 1428 2787 
Q 1159 2491 1159 1978 
L 1159 0 
L 581 0 
L 581 4863 
L 1159 4863 
L 1159 2956 
Q 1366 3272 1645 3428 
Q 1925 3584 2291 3584 
Q 2894 3584 3203 3211 
Q 3513 2838 3513 2113 
z
" transform="scale(0.015625)"/>
      <path id="DejaVuSans-6f" d="M 1959 3097 
Q 1497 3097 1228 2736 
Q 959 2375 959 1747 
Q 959 1119 1226 758 
Q 1494 397 1959 397 
Q 2419 397 2687 759 
Q 2956 1122 2956 1747 
Q 2956 2369 2687 2733 
Q 2419 3097 1959 3097 
z
M 1959 3584 
Q 2709 3584 3137 3096 
Q 3566 2609 3566 1747 
Q 3566 888 3137 398 
Q 2709 -91 1959 -91 
Q 1206 -91 779 398 
Q 353 888 353 1747 
Q 353 2609 779 3096 
Q 1206 3584 1959 3584 
z
" transform="scale(0.015625)"/>
      <path id="DejaVuSans-79" d="M 2059 -325 
Q 1816 -950 1584 -1140 
Q 1353 -1331 966 -1331 
L 506 -1331 
L 506 -850 
L 844 -850 
Q 1081 -850 1212 -737 
Q 1344 -625 1503 -206 
L 1606 56 
L 191 3500 
L 800 3500 
L 1894 763 
L 2988 3500 
L 3597 3500 
L 2059 -325 
z
" transform="scale(0.015625)"/>
     </defs>
     <use xlink:href="#DejaVuSans-67"/>
     <use xlink:href="#DejaVuSans-65" x="63.476562"/>
     <use xlink:href="#DejaVuSans-74" x="125"/>
     <use xlink:href="#DejaVuSans-5f" x="164.208984"/>
     <use xlink:href="#DejaVuSans-73" x="214.208984"/>
     <use xlink:href="#DejaVuSans-75" x="266.308594"/>
     <use xlink:href="#DejaVuSans-62" x="329.6875"/>
     <use xlink:href="#DejaVuSans-73" x="393.164062"/>
     <use xlink:href="#DejaVuSans-63" x="445.263672"/>
     <use xlink:href="#DejaVuSans-72" x="500.244141"/>
     <use xlink:href="#DejaVuSans-69" x="541.357422"/>
     <use xlink:href="#DejaVuSans-62" x="569.140625"/>
     <use xlink:href="#DejaVuSans-65" x="632.617188"/>
     <use xlink:href="#DejaVuSans-20" x="694.140625"/>
     <use xlink:href="#DejaVuSans-68" x="725.927734"/>
     <use xlink:href="#DejaVuSans-69" x="789.306641"/>
     <use xlink:href="#DejaVuSans-73" x="817.089844"/>
     <use xlink:href="#DejaVuSans-74" x="869.189453"/>
     <use xlink:href="#DejaVuSans-6f" x="908.398438"/>
     <use xlink:href="#DejaVuSans-72" x="969.580078"/>
     <use xlink:href="#DejaVuSans-79" x="1010.693359"/>
    </g>
   </g>
   <g id="legend_1">
    <g id="line2d_41">
     <path d="M 815.08 328.498438 
L 825.08 328.498438 
L 835.08 328.498438 
" style="fill: none; stroke: #1f77b4; stroke-width: 1.5; stroke-linecap: square"/>
    </g>
    <g id="text_21">
     <!-- star -->
     <g style="fill: #a9a9a9" transform="translate(843.08 331.998438) scale(0.1 -0.1)">
      <defs>
       <path id="DejaVuSans-61" d="M 2194 1759 
Q 1497 1759 1228 1600 
Q 959 1441 959 1056 
Q 959 750 1161 570 
Q 1363 391 1709 391 
Q 2188 391 2477 730 
Q 2766 1069 2766 1631 
L 2766 1759 
L 2194 1759 
z
M 3341 1997 
L 3341 0 
L 2766 0 
L 2766 531 
Q 2569 213 2275 61 
Q 1981 -91 1556 -91 
Q 1019 -91 701 211 
Q 384 513 384 1019 
Q 384 1609 779 1909 
Q 1175 2209 1959 2209 
L 2766 2209 
L 2766 2266 
Q 2766 2663 2505 2880 
Q 2244 3097 1772 3097 
Q 1472 3097 1187 3025 
Q 903 2953 641 2809 
L 641 3341 
Q 956 3463 1253 3523 
Q 1550 3584 1831 3584 
Q 2591 3584 2966 3190 
Q 3341 2797 3341 1997 
z
" transform="scale(0.015625)"/>
      </defs>
      <use xlink:href="#DejaVuSans-73"/>
      <use xlink:href="#DejaVuSans-74" x="52.099609"/>
      <use xlink:href="#DejaVuSans-61" x="91.308594"/>
      <use xlink:href="#DejaVuSans-72" x="152.587891"/>
     </g>
    </g>
    <g id="line2d_42">
     <path d="M 815.08 343.176562 
L 825.08 343.176562 
L 835.08 343.176562 
" style="fill: none; stroke: #ff7f0e; stroke-width: 1.5; stroke-linecap: square"/>
    </g>
    <g id="text_22">
     <!-- fork -->
     <g style="fill: #a9a9a9" transform="translate(843.08 346.676562) scale(0.1 -0.1)">
      <defs>
       <path id="DejaVuSans-66" d="M 2375 4863 
L 2375 4384 
L 1825 4384 
Q 1516 4384 1395 4259 
Q 1275 4134 1275 3809 
L 1275 3500 
L 2222 3500 
L 2222 3053 
L 1275 3053 
L 1275 0 
L 697 0 
L 697 3053 
L 147 3053 
L 147 3500 
L 697 3500 
L 697 3744 
Q 697 4328 969 4595 
Q 1241 4863 1831 4863 
L 2375 4863 
z
" transform="scale(0.015625)"/>
       <path id="DejaVuSans-6b" d="M 581 4863 
L 1159 4863 
L 1159 1991 
L 2875 3500 
L 3609 3500 
L 1753 1863 
L 3688 0 
L 2938 0 
L 1159 1709 
L 1159 0 
L 581 0 
L 581 4863 
z
" transform="scale(0.015625)"/>
      </defs>
      <use xlink:href="#DejaVuSans-66"/>
      <use xlink:href="#DejaVuSans-6f" x="35.205078"/>
      <use xlink:href="#DejaVuSans-72" x="96.386719"/>
      <use xlink:href="#DejaVuSans-6b" x="137.5"/>
     </g>
    </g>
   </g>
  </g>
 </g>
 <defs>
  <clipPath id="p09738b1ac0">
   <rect x="108" y="43.2" width="669.6" height="277.2"/>
  </clipPath>
 </defs>
</svg>
