<?xml version="1.0" encoding="utf-8" standalone="no"?>
<!DOCTYPE svg PUBLIC "-//W3C//DTD SVG 1.1//EN"
  "http://www.w3.org/Graphics/SVG/1.1/DTD/svg11.dtd">
<svg xmlns:xlink="http://www.w3.org/1999/xlink" width="864pt" height="360pt" viewBox="0 0 864 360" xmlns="http://www.w3.org/2000/svg" version="1.1">
 <metadata>
  <rdf:RDF xmlns:dc="http://purl.org/dc/elements/1.1/" xmlns:cc="http://creativecommons.org/ns#" xmlns:rdf="http://www.w3.org/1999/02/22-rdf-syntax-ns#">
   <cc:Work>
    <dc:type rdf:resource="http://purl.org/dc/dcmitype/StillImage"/>
    <dc:date>2024-09-13T08:12:48.060110</dc:date>
    <dc:format>image/svg+xml</dc:format>
    <dc:creator>
     <cc:Agent>
      <dc:title>Matplotlib v3.9.2, https://matplotlib.org/</dc:title>
     </cc:Agent>
    </dc:creator>
   </cc:Work>
  </rdf:RDF>
 </metadata>
 <defs>
  <style type="text/css">*{stroke-linejoin: round; stroke-linecap: butt}</style>
 </defs>
 <g id="figure_1">
  <g id="patch_1">
   <path d="M 0 360 
L 864 360 
L 864 0 
L 0 0 
L 0 360 
z
" style="fill: none; opacity: 0"/>
  </g>
  <g id="axes_1">
   <g id="patch_2">
    <path d="M 108 320.4 
L 777.6 320.4 
L 777.6 43.2 
L 108 43.2 
L 108 320.4 
z
" style="fill: none; opacity: 0"/>
   </g>
   <g id="matplotlib.axis_1">
    <g id="xtick_1">
     <g id="line2d_1">
      <path d="M 159.134152 320.4 
L 159.134152 43.2 
" clip-path="url(#p2a56b420ba)" style="fill: none; stroke-dasharray: 5.12,1.28,0.8,1.28; stroke-dashoffset: 0; stroke: #b0b0b0; stroke-width: 0.8"/>
     </g>
     <g id="line2d_2">
      <defs>
       <path id="m6f167b386b" d="M 0 0 
L 0 3.5 
" style="stroke: #a9a9a9; stroke-width: 0.8"/>
      </defs>
      <g>
       <use xlink:href="#m6f167b386b" x="159.134152" y="320.4" style="fill: #a9a9a9; stroke: #a9a9a9; stroke-width: 0.8"/>
      </g>
     </g>
     <g id="text_1">
      <!-- 2021-09 -->
      <g style="fill: #a9a9a9" transform="translate(138.242746 334.998438) scale(0.1 -0.1)">
       <defs>
        <path id="DejaVuSans-32" d="M 1228 531 
L 3431 531 
L 3431 0 
L 469 0 
L 469 531 
Q 828 903 1448 1529 
Q 2069 2156 2228 2338 
Q 2531 2678 2651 2914 
Q 2772 3150 2772 3378 
Q 2772 3750 2511 3984 
Q 2250 4219 1831 4219 
Q 1534 4219 1204 4116 
Q 875 4013 500 3803 
L 500 4441 
Q 881 4594 1212 4672 
Q 1544 4750 1819 4750 
Q 2544 4750 2975 4387 
Q 3406 4025 3406 3419 
Q 3406 3131 3298 2873 
Q 3191 2616 2906 2266 
Q 2828 2175 2409 1742 
Q 1991 1309 1228 531 
z
" transform="scale(0.015625)"/>
        <path id="DejaVuSans-30" d="M 2034 4250 
Q 1547 4250 1301 3770 
Q 1056 3291 1056 2328 
Q 1056 1369 1301 889 
Q 1547 409 2034 409 
Q 2525 409 2770 889 
Q 3016 1369 3016 2328 
Q 3016 3291 2770 3770 
Q 2525 4250 2034 4250 
z
M 2034 4750 
Q 2819 4750 3233 4129 
Q 3647 3509 3647 2328 
Q 3647 1150 3233 529 
Q 2819 -91 2034 -91 
Q 1250 -91 836 529 
Q 422 1150 422 2328 
Q 422 3509 836 4129 
Q 1250 4750 2034 4750 
z
" transform="scale(0.015625)"/>
        <path id="DejaVuSans-31" d="M 794 531 
L 1825 531 
L 1825 4091 
L 703 3866 
L 703 4441 
L 1819 4666 
L 2450 4666 
L 2450 531 
L 3481 531 
L 3481 0 
L 794 0 
L 794 531 
z
" transform="scale(0.015625)"/>
        <path id="DejaVuSans-2d" d="M 313 2009 
L 1997 2009 
L 1997 1497 
L 313 1497 
L 313 2009 
z
" transform="scale(0.015625)"/>
        <path id="DejaVuSans-39" d="M 703 97 
L 703 672 
Q 941 559 1184 500 
Q 1428 441 1663 441 
Q 2288 441 2617 861 
Q 2947 1281 2994 2138 
Q 2813 1869 2534 1725 
Q 2256 1581 1919 1581 
Q 1219 1581 811 2004 
Q 403 2428 403 3163 
Q 403 3881 828 4315 
Q 1253 4750 1959 4750 
Q 2769 4750 3195 4129 
Q 3622 3509 3622 2328 
Q 3622 1225 3098 567 
Q 2575 -91 1691 -91 
Q 1453 -91 1209 -44 
Q 966 3 703 97 
z
M 1959 2075 
Q 2384 2075 2632 2365 
Q 2881 2656 2881 3163 
Q 2881 3666 2632 3958 
Q 2384 4250 1959 4250 
Q 1534 4250 1286 3958 
Q 1038 3666 1038 3163 
Q 1038 2656 1286 2365 
Q 1534 2075 1959 2075 
z
" transform="scale(0.015625)"/>
       </defs>
       <use xlink:href="#DejaVuSans-32"/>
       <use xlink:href="#DejaVuSans-30" x="63.623047"/>
       <use xlink:href="#DejaVuSans-32" x="127.246094"/>
       <use xlink:href="#DejaVuSans-31" x="190.869141"/>
       <use xlink:href="#DejaVuSans-2d" x="254.492188"/>
       <use xlink:href="#DejaVuSans-30" x="290.576172"/>
       <use xlink:href="#DejaVuSans-39" x="354.199219"/>
      </g>
     </g>
    </g>
    <g id="xtick_2">
     <g id="line2d_3">
      <path d="M 223.881081 320.4 
L 223.881081 43.2 
" clip-path="url(#p2a56b420ba)" style="fill: none; stroke-dasharray: 5.12,1.28,0.8,1.28; stroke-dashoffset: 0; stroke: #b0b0b0; stroke-width: 0.8"/>
     </g>
     <g id="line2d_4">
      <g>
       <use xlink:href="#m6f167b386b" x="223.881081" y="320.4" style="fill: #a9a9a9; stroke: #a9a9a9; stroke-width: 0.8"/>
      </g>
     </g>
     <g id="text_2">
      <!-- 2022-01 -->
      <g style="fill: #a9a9a9" transform="translate(202.989675 334.998438) scale(0.1 -0.1)">
       <use xlink:href="#DejaVuSans-32"/>
       <use xlink:href="#DejaVuSans-30" x="63.623047"/>
       <use xlink:href="#DejaVuSans-32" x="127.246094"/>
       <use xlink:href="#DejaVuSans-32" x="190.869141"/>
       <use xlink:href="#DejaVuSans-2d" x="254.492188"/>
       <use xlink:href="#DejaVuSans-30" x="290.576172"/>
       <use xlink:href="#DejaVuSans-31" x="354.199219"/>
      </g>
     </g>
    </g>
    <g id="xtick_3">
     <g id="line2d_5">
      <path d="M 287.566585 320.4 
L 287.566585 43.2 
" clip-path="url(#p2a56b420ba)" style="fill: none; stroke-dasharray: 5.12,1.28,0.8,1.28; stroke-dashoffset: 0; stroke: #b0b0b0; stroke-width: 0.8"/>
     </g>
     <g id="line2d_6">
      <g>
       <use xlink:href="#m6f167b386b" x="287.566585" y="320.4" style="fill: #a9a9a9; stroke: #a9a9a9; stroke-width: 0.8"/>
      </g>
     </g>
     <g id="text_3">
      <!-- 2022-05 -->
      <g style="fill: #a9a9a9" transform="translate(266.675179 334.998438) scale(0.1 -0.1)">
       <defs>
        <path id="DejaVuSans-35" d="M 691 4666 
L 3169 4666 
L 3169 4134 
L 1269 4134 
L 1269 2991 
Q 1406 3038 1543 3061 
Q 1681 3084 1819 3084 
Q 2600 3084 3056 2656 
Q 3513 2228 3513 1497 
Q 3513 744 3044 326 
Q 2575 -91 1722 -91 
Q 1428 -91 1123 -41 
Q 819 9 494 109 
L 494 744 
Q 775 591 1075 516 
Q 1375 441 1709 441 
Q 2250 441 2565 725 
Q 2881 1009 2881 1497 
Q 2881 1984 2565 2268 
Q 2250 2553 1709 2553 
Q 1456 2553 1204 2497 
Q 953 2441 691 2322 
L 691 4666 
z
" transform="scale(0.015625)"/>
       </defs>
       <use xlink:href="#DejaVuSans-32"/>
       <use xlink:href="#DejaVuSans-30" x="63.623047"/>
       <use xlink:href="#DejaVuSans-32" x="127.246094"/>
       <use xlink:href="#DejaVuSans-32" x="190.869141"/>
       <use xlink:href="#DejaVuSans-2d" x="254.492188"/>
       <use xlink:href="#DejaVuSans-30" x="290.576172"/>
       <use xlink:href="#DejaVuSans-35" x="354.199219"/>
      </g>
     </g>
    </g>
    <g id="xtick_4">
     <g id="line2d_7">
      <path d="M 352.844226 320.4 
L 352.844226 43.2 
" clip-path="url(#p2a56b420ba)" style="fill: none; stroke-dasharray: 5.12,1.28,0.8,1.28; stroke-dashoffset: 0; stroke: #b0b0b0; stroke-width: 0.8"/>
     </g>
     <g id="line2d_8">
      <g>
       <use xlink:href="#m6f167b386b" x="352.844226" y="320.4" style="fill: #a9a9a9; stroke: #a9a9a9; stroke-width: 0.8"/>
      </g>
     </g>
     <g id="text_4">
      <!-- 2022-09 -->
      <g style="fill: #a9a9a9" transform="translate(331.95282 334.998438) scale(0.1 -0.1)">
       <use xlink:href="#DejaVuSans-32"/>
       <use xlink:href="#DejaVuSans-30" x="63.623047"/>
       <use xlink:href="#DejaVuSans-32" x="127.246094"/>
       <use xlink:href="#DejaVuSans-32" x="190.869141"/>
       <use xlink:href="#DejaVuSans-2d" x="254.492188"/>
       <use xlink:href="#DejaVuSans-30" x="290.576172"/>
       <use xlink:href="#DejaVuSans-39" x="354.199219"/>
      </g>
     </g>
    </g>
    <g id="xtick_5">
     <g id="line2d_9">
      <path d="M 417.591155 320.4 
L 417.591155 43.2 
" clip-path="url(#p2a56b420ba)" style="fill: none; stroke-dasharray: 5.12,1.28,0.8,1.28; stroke-dashoffset: 0; stroke: #b0b0b0; stroke-width: 0.8"/>
     </g>
     <g id="line2d_10">
      <g>
       <use xlink:href="#m6f167b386b" x="417.591155" y="320.4" style="fill: #a9a9a9; stroke: #a9a9a9; stroke-width: 0.8"/>
      </g>
     </g>
     <g id="text_5">
      <!-- 2023-01 -->
      <g style="fill: #a9a9a9" transform="translate(396.699749 334.998438) scale(0.1 -0.1)">
       <defs>
        <path id="DejaVuSans-33" d="M 2597 2516 
Q 3050 2419 3304 2112 
Q 3559 1806 3559 1356 
Q 3559 666 3084 287 
Q 2609 -91 1734 -91 
Q 1441 -91 1130 -33 
Q 819 25 488 141 
L 488 750 
Q 750 597 1062 519 
Q 1375 441 1716 441 
Q 2309 441 2620 675 
Q 2931 909 2931 1356 
Q 2931 1769 2642 2001 
Q 2353 2234 1838 2234 
L 1294 2234 
L 1294 2753 
L 1863 2753 
Q 2328 2753 2575 2939 
Q 2822 3125 2822 3475 
Q 2822 3834 2567 4026 
Q 2313 4219 1838 4219 
Q 1578 4219 1281 4162 
Q 984 4106 628 3988 
L 628 4550 
Q 988 4650 1302 4700 
Q 1616 4750 1894 4750 
Q 2613 4750 3031 4423 
Q 3450 4097 3450 3541 
Q 3450 3153 3228 2886 
Q 3006 2619 2597 2516 
z
" transform="scale(0.015625)"/>
       </defs>
       <use xlink:href="#DejaVuSans-32"/>
       <use xlink:href="#DejaVuSans-30" x="63.623047"/>
       <use xlink:href="#DejaVuSans-32" x="127.246094"/>
       <use xlink:href="#DejaVuSans-33" x="190.869141"/>
       <use xlink:href="#DejaVuSans-2d" x="254.492188"/>
       <use xlink:href="#DejaVuSans-30" x="290.576172"/>
       <use xlink:href="#DejaVuSans-31" x="354.199219"/>
      </g>
     </g>
    </g>
    <g id="xtick_6">
     <g id="line2d_11">
      <path d="M 481.276658 320.4 
L 481.276658 43.2 
" clip-path="url(#p2a56b420ba)" style="fill: none; stroke-dasharray: 5.12,1.28,0.8,1.28; stroke-dashoffset: 0; stroke: #b0b0b0; stroke-width: 0.8"/>
     </g>
     <g id="line2d_12">
      <g>
       <use xlink:href="#m6f167b386b" x="481.276658" y="320.4" style="fill: #a9a9a9; stroke: #a9a9a9; stroke-width: 0.8"/>
      </g>
     </g>
     <g id="text_6">
      <!-- 2023-05 -->
      <g style="fill: #a9a9a9" transform="translate(460.385252 334.998438) scale(0.1 -0.1)">
       <use xlink:href="#DejaVuSans-32"/>
       <use xlink:href="#DejaVuSans-30" x="63.623047"/>
       <use xlink:href="#DejaVuSans-32" x="127.246094"/>
       <use xlink:href="#DejaVuSans-33" x="190.869141"/>
       <use xlink:href="#DejaVuSans-2d" x="254.492188"/>
       <use xlink:href="#DejaVuSans-30" x="290.576172"/>
       <use xlink:href="#DejaVuSans-35" x="354.199219"/>
      </g>
     </g>
    </g>
    <g id="xtick_7">
     <g id="line2d_13">
      <path d="M 546.5543 320.4 
L 546.5543 43.2 
" clip-path="url(#p2a56b420ba)" style="fill: none; stroke-dasharray: 5.12,1.28,0.8,1.28; stroke-dashoffset: 0; stroke: #b0b0b0; stroke-width: 0.8"/>
     </g>
     <g id="line2d_14">
      <g>
       <use xlink:href="#m6f167b386b" x="546.5543" y="320.4" style="fill: #a9a9a9; stroke: #a9a9a9; stroke-width: 0.8"/>
      </g>
     </g>
     <g id="text_7">
      <!-- 2023-09 -->
      <g style="fill: #a9a9a9" transform="translate(525.662894 334.998438) scale(0.1 -0.1)">
       <use xlink:href="#DejaVuSans-32"/>
       <use xlink:href="#DejaVuSans-30" x="63.623047"/>
       <use xlink:href="#DejaVuSans-32" x="127.246094"/>
       <use xlink:href="#DejaVuSans-33" x="190.869141"/>
       <use xlink:href="#DejaVuSans-2d" x="254.492188"/>
       <use xlink:href="#DejaVuSans-30" x="290.576172"/>
       <use xlink:href="#DejaVuSans-39" x="354.199219"/>
      </g>
     </g>
    </g>
    <g id="xtick_8">
     <g id="line2d_15">
      <path d="M 611.301229 320.4 
L 611.301229 43.2 
" clip-path="url(#p2a56b420ba)" style="fill: none; stroke-dasharray: 5.12,1.28,0.8,1.28; stroke-dashoffset: 0; stroke: #b0b0b0; stroke-width: 0.8"/>
     </g>
     <g id="line2d_16">
      <g>
       <use xlink:href="#m6f167b386b" x="611.301229" y="320.4" style="fill: #a9a9a9; stroke: #a9a9a9; stroke-width: 0.8"/>
      </g>
     </g>
     <g id="text_8">
      <!-- 2024-01 -->
      <g style="fill: #a9a9a9" transform="translate(590.409822 334.998438) scale(0.1 -0.1)">
       <defs>
        <path id="DejaVuSans-34" d="M 2419 4116 
L 825 1625 
L 2419 1625 
L 2419 4116 
z
M 2253 4666 
L 3047 4666 
L 3047 1625 
L 3713 1625 
L 3713 1100 
L 3047 1100 
L 3047 0 
L 2419 0 
L 2419 1100 
L 313 1100 
L 313 1709 
L 2253 4666 
z
" transform="scale(0.015625)"/>
       </defs>
       <use xlink:href="#DejaVuSans-32"/>
       <use xlink:href="#DejaVuSans-30" x="63.623047"/>
       <use xlink:href="#DejaVuSans-32" x="127.246094"/>
       <use xlink:href="#DejaVuSans-34" x="190.869141"/>
       <use xlink:href="#DejaVuSans-2d" x="254.492188"/>
       <use xlink:href="#DejaVuSans-30" x="290.576172"/>
       <use xlink:href="#DejaVuSans-31" x="354.199219"/>
      </g>
     </g>
    </g>
    <g id="xtick_9">
     <g id="line2d_17">
      <path d="M 675.517445 320.4 
L 675.517445 43.2 
" clip-path="url(#p2a56b420ba)" style="fill: none; stroke-dasharray: 5.12,1.28,0.8,1.28; stroke-dashoffset: 0; stroke: #b0b0b0; stroke-width: 0.8"/>
     </g>
     <g id="line2d_18">
      <g>
       <use xlink:href="#m6f167b386b" x="675.517445" y="320.4" style="fill: #a9a9a9; stroke: #a9a9a9; stroke-width: 0.8"/>
      </g>
     </g>
     <g id="text_9">
      <!-- 2024-05 -->
      <g style="fill: #a9a9a9" transform="translate(654.626038 334.998438) scale(0.1 -0.1)">
       <use xlink:href="#DejaVuSans-32"/>
       <use xlink:href="#DejaVuSans-30" x="63.623047"/>
       <use xlink:href="#DejaVuSans-32" x="127.246094"/>
       <use xlink:href="#DejaVuSans-34" x="190.869141"/>
       <use xlink:href="#DejaVuSans-2d" x="254.492188"/>
       <use xlink:href="#DejaVuSans-30" x="290.576172"/>
       <use xlink:href="#DejaVuSans-35" x="354.199219"/>
      </g>
     </g>
    </g>
    <g id="xtick_10">
     <g id="line2d_19">
      <path d="M 740.795086 320.4 
L 740.795086 43.2 
" clip-path="url(#p2a56b420ba)" style="fill: none; stroke-dasharray: 5.12,1.28,0.8,1.28; stroke-dashoffset: 0; stroke: #b0b0b0; stroke-width: 0.8"/>
     </g>
     <g id="line2d_20">
      <g>
       <use xlink:href="#m6f167b386b" x="740.795086" y="320.4" style="fill: #a9a9a9; stroke: #a9a9a9; stroke-width: 0.8"/>
      </g>
     </g>
     <g id="text_10">
      <!-- 2024-09 -->
      <g style="fill: #a9a9a9" transform="translate(719.90368 334.998438) scale(0.1 -0.1)">
       <use xlink:href="#DejaVuSans-32"/>
       <use xlink:href="#DejaVuSans-30" x="63.623047"/>
       <use xlink:href="#DejaVuSans-32" x="127.246094"/>
       <use xlink:href="#DejaVuSans-34" x="190.869141"/>
       <use xlink:href="#DejaVuSans-2d" x="254.492188"/>
       <use xlink:href="#DejaVuSans-30" x="290.576172"/>
       <use xlink:href="#DejaVuSans-39" x="354.199219"/>
      </g>
     </g>
    </g>
   </g>
   <g id="matplotlib.axis_2">
    <g id="ytick_1">
     <g id="line2d_21">
      <path d="M 108 307.837861 
L 777.6 307.837861 
" clip-path="url(#p2a56b420ba)" style="fill: none; stroke-dasharray: 5.12,1.28,0.8,1.28; stroke-dashoffset: 0; stroke: #b0b0b0; stroke-width: 0.8"/>
     </g>
     <g id="line2d_22">
      <defs>
       <path id="md04bbc0426" d="M 0 0 
L -3.5 0 
" style="stroke: #a9a9a9; stroke-width: 0.8"/>
      </defs>
      <g>
       <use xlink:href="#md04bbc0426" x="108" y="307.837861" style="fill: #a9a9a9; stroke: #a9a9a9; stroke-width: 0.8"/>
      </g>
     </g>
     <g id="text_11">
      <!-- 0 -->
      <g style="fill: #a9a9a9" transform="translate(94.6375 311.637079) scale(0.1 -0.1)">
       <use xlink:href="#DejaVuSans-30"/>
      </g>
     </g>
    </g>
    <g id="ytick_2">
     <g id="line2d_23">
      <path d="M 108 277.549399 
L 777.6 277.549399 
" clip-path="url(#p2a56b420ba)" style="fill: none; stroke-dasharray: 5.12,1.28,0.8,1.28; stroke-dashoffset: 0; stroke: #b0b0b0; stroke-width: 0.8"/>
     </g>
     <g id="line2d_24">
      <g>
       <use xlink:href="#md04bbc0426" x="108" y="277.549399" style="fill: #a9a9a9; stroke: #a9a9a9; stroke-width: 0.8"/>
      </g>
     </g>
     <g id="text_12">
      <!-- 800 -->
      <g style="fill: #a9a9a9" transform="translate(81.9125 281.348618) scale(0.1 -0.1)">
       <defs>
        <path id="DejaVuSans-38" d="M 2034 2216 
Q 1584 2216 1326 1975 
Q 1069 1734 1069 1313 
Q 1069 891 1326 650 
Q 1584 409 2034 409 
Q 2484 409 2743 651 
Q 3003 894 3003 1313 
Q 3003 1734 2745 1975 
Q 2488 2216 2034 2216 
z
M 1403 2484 
Q 997 2584 770 2862 
Q 544 3141 544 3541 
Q 544 4100 942 4425 
Q 1341 4750 2034 4750 
Q 2731 4750 3128 4425 
Q 3525 4100 3525 3541 
Q 3525 3141 3298 2862 
Q 3072 2584 2669 2484 
Q 3125 2378 3379 2068 
Q 3634 1759 3634 1313 
Q 3634 634 3220 271 
Q 2806 -91 2034 -91 
Q 1263 -91 848 271 
Q 434 634 434 1313 
Q 434 1759 690 2068 
Q 947 2378 1403 2484 
z
M 1172 3481 
Q 1172 3119 1398 2916 
Q 1625 2713 2034 2713 
Q 2441 2713 2670 2916 
Q 2900 3119 2900 3481 
Q 2900 3844 2670 4047 
Q 2441 4250 2034 4250 
Q 1625 4250 1398 4047 
Q 1172 3844 1172 3481 
z
" transform="scale(0.015625)"/>
       </defs>
       <use xlink:href="#DejaVuSans-38"/>
       <use xlink:href="#DejaVuSans-30" x="63.623047"/>
       <use xlink:href="#DejaVuSans-30" x="127.246094"/>
      </g>
     </g>
    </g>
    <g id="ytick_3">
     <g id="line2d_25">
      <path d="M 108 247.260938 
L 777.6 247.260938 
" clip-path="url(#p2a56b420ba)" style="fill: none; stroke-dasharray: 5.12,1.28,0.8,1.28; stroke-dashoffset: 0; stroke: #b0b0b0; stroke-width: 0.8"/>
     </g>
     <g id="line2d_26">
      <g>
       <use xlink:href="#md04bbc0426" x="108" y="247.260938" style="fill: #a9a9a9; stroke: #a9a9a9; stroke-width: 0.8"/>
      </g>
     </g>
     <g id="text_13">
      <!-- 1600 -->
      <g style="fill: #a9a9a9" transform="translate(75.55 251.060156) scale(0.1 -0.1)">
       <defs>
        <path id="DejaVuSans-36" d="M 2113 2584 
Q 1688 2584 1439 2293 
Q 1191 2003 1191 1497 
Q 1191 994 1439 701 
Q 1688 409 2113 409 
Q 2538 409 2786 701 
Q 3034 994 3034 1497 
Q 3034 2003 2786 2293 
Q 2538 2584 2113 2584 
z
M 3366 4563 
L 3366 3988 
Q 3128 4100 2886 4159 
Q 2644 4219 2406 4219 
Q 1781 4219 1451 3797 
Q 1122 3375 1075 2522 
Q 1259 2794 1537 2939 
Q 1816 3084 2150 3084 
Q 2853 3084 3261 2657 
Q 3669 2231 3669 1497 
Q 3669 778 3244 343 
Q 2819 -91 2113 -91 
Q 1303 -91 875 529 
Q 447 1150 447 2328 
Q 447 3434 972 4092 
Q 1497 4750 2381 4750 
Q 2619 4750 2861 4703 
Q 3103 4656 3366 4563 
z
" transform="scale(0.015625)"/>
       </defs>
       <use xlink:href="#DejaVuSans-31"/>
       <use xlink:href="#DejaVuSans-36" x="63.623047"/>
       <use xlink:href="#DejaVuSans-30" x="127.246094"/>
       <use xlink:href="#DejaVuSans-30" x="190.869141"/>
      </g>
     </g>
    </g>
    <g id="ytick_4">
     <g id="line2d_27">
      <path d="M 108 216.972476 
L 777.6 216.972476 
" clip-path="url(#p2a56b420ba)" style="fill: none; stroke-dasharray: 5.12,1.28,0.8,1.28; stroke-dashoffset: 0; stroke: #b0b0b0; stroke-width: 0.8"/>
     </g>
     <g id="line2d_28">
      <g>
       <use xlink:href="#md04bbc0426" x="108" y="216.972476" style="fill: #a9a9a9; stroke: #a9a9a9; stroke-width: 0.8"/>
      </g>
     </g>
     <g id="text_14">
      <!-- 2400 -->
      <g style="fill: #a9a9a9" transform="translate(75.55 220.771695) scale(0.1 -0.1)">
       <use xlink:href="#DejaVuSans-32"/>
       <use xlink:href="#DejaVuSans-34" x="63.623047"/>
       <use xlink:href="#DejaVuSans-30" x="127.246094"/>
       <use xlink:href="#DejaVuSans-30" x="190.869141"/>
      </g>
     </g>
    </g>
    <g id="ytick_5">
     <g id="line2d_29">
      <path d="M 108 186.684014 
L 777.6 186.684014 
" clip-path="url(#p2a56b420ba)" style="fill: none; stroke-dasharray: 5.12,1.28,0.8,1.28; stroke-dashoffset: 0; stroke: #b0b0b0; stroke-width: 0.8"/>
     </g>
     <g id="line2d_30">
      <g>
       <use xlink:href="#md04bbc0426" x="108" y="186.684014" style="fill: #a9a9a9; stroke: #a9a9a9; stroke-width: 0.8"/>
      </g>
     </g>
     <g id="text_15">
      <!-- 3200 -->
      <g style="fill: #a9a9a9" transform="translate(75.55 190.483233) scale(0.1 -0.1)">
       <use xlink:href="#DejaVuSans-33"/>
       <use xlink:href="#DejaVuSans-32" x="63.623047"/>
       <use xlink:href="#DejaVuSans-30" x="127.246094"/>
       <use xlink:href="#DejaVuSans-30" x="190.869141"/>
      </g>
     </g>
    </g>
    <g id="ytick_6">
     <g id="line2d_31">
      <path d="M 108 156.395553 
L 777.6 156.395553 
" clip-path="url(#p2a56b420ba)" style="fill: none; stroke-dasharray: 5.12,1.28,0.8,1.28; stroke-dashoffset: 0; stroke: #b0b0b0; stroke-width: 0.8"/>
     </g>
     <g id="line2d_32">
      <g>
       <use xlink:href="#md04bbc0426" x="108" y="156.395553" style="fill: #a9a9a9; stroke: #a9a9a9; stroke-width: 0.8"/>
      </g>
     </g>
     <g id="text_16">
      <!-- 4000 -->
      <g style="fill: #a9a9a9" transform="translate(75.55 160.194772) scale(0.1 -0.1)">
       <use xlink:href="#DejaVuSans-34"/>
       <use xlink:href="#DejaVuSans-30" x="63.623047"/>
       <use xlink:href="#DejaVuSans-30" x="127.246094"/>
       <use xlink:href="#DejaVuSans-30" x="190.869141"/>
      </g>
     </g>
    </g>
    <g id="ytick_7">
     <g id="line2d_33">
      <path d="M 108 126.107091 
L 777.6 126.107091 
" clip-path="url(#p2a56b420ba)" style="fill: none; stroke-dasharray: 5.12,1.28,0.8,1.28; stroke-dashoffset: 0; stroke: #b0b0b0; stroke-width: 0.8"/>
     </g>
     <g id="line2d_34">
      <g>
       <use xlink:href="#md04bbc0426" x="108" y="126.107091" style="fill: #a9a9a9; stroke: #a9a9a9; stroke-width: 0.8"/>
      </g>
     </g>
     <g id="text_17">
      <!-- 4800 -->
      <g style="fill: #a9a9a9" transform="translate(75.55 129.90631) scale(0.1 -0.1)">
       <use xlink:href="#DejaVuSans-34"/>
       <use xlink:href="#DejaVuSans-38" x="63.623047"/>
       <use xlink:href="#DejaVuSans-30" x="127.246094"/>
       <use xlink:href="#DejaVuSans-30" x="190.869141"/>
      </g>
     </g>
    </g>
    <g id="ytick_8">
     <g id="line2d_35">
      <path d="M 108 95.81863 
L 777.6 95.81863 
" clip-path="url(#p2a56b420ba)" style="fill: none; stroke-dasharray: 5.12,1.28,0.8,1.28; stroke-dashoffset: 0; stroke: #b0b0b0; stroke-width: 0.8"/>
     </g>
     <g id="line2d_36">
      <g>
       <use xlink:href="#md04bbc0426" x="108" y="95.81863" style="fill: #a9a9a9; stroke: #a9a9a9; stroke-width: 0.8"/>
      </g>
     </g>
     <g id="text_18">
      <!-- 5600 -->
      <g style="fill: #a9a9a9" transform="translate(75.55 99.617849) scale(0.1 -0.1)">
       <use xlink:href="#DejaVuSans-35"/>
       <use xlink:href="#DejaVuSans-36" x="63.623047"/>
       <use xlink:href="#DejaVuSans-30" x="127.246094"/>
       <use xlink:href="#DejaVuSans-30" x="190.869141"/>
      </g>
     </g>
    </g>
    <g id="ytick_9">
     <g id="line2d_37">
      <path d="M 108 65.530168 
L 777.6 65.530168 
" clip-path="url(#p2a56b420ba)" style="fill: none; stroke-dasharray: 5.12,1.28,0.8,1.28; stroke-dashoffset: 0; stroke: #b0b0b0; stroke-width: 0.8"/>
     </g>
     <g id="line2d_38">
      <g>
       <use xlink:href="#md04bbc0426" x="108" y="65.530168" style="fill: #a9a9a9; stroke: #a9a9a9; stroke-width: 0.8"/>
      </g>
     </g>
     <g id="text_19">
      <!-- 6400 -->
      <g style="fill: #a9a9a9" transform="translate(75.55 69.329387) scale(0.1 -0.1)">
       <use xlink:href="#DejaVuSans-36"/>
       <use xlink:href="#DejaVuSans-34" x="63.623047"/>
       <use xlink:href="#DejaVuSans-30" x="127.246094"/>
       <use xlink:href="#DejaVuSans-30" x="190.869141"/>
      </g>
     </g>
    </g>
   </g>
   <g id="line2d_39">
    <path d="M 138.436364 307.724279 
L 141.620639 307.459255 
L 142.151351 307.232091 
L 143.743489 307.080649 
L 147.458477 306.399159 
L 150.112039 306.171995 
L 151.173464 305.755529 
L 151.704177 305.074038 
L 152.234889 304.695433 
L 152.765602 303.521755 
L 153.296314 303.446034 
L 153.827027 303.029567 
L 154.888452 302.499519 
L 157.011302 300.833654 
L 159.134152 299.811418 
L 160.72629 299.092067 
L 161.257002 298.259135 
L 162.318428 297.501923 
L 162.84914 297.27476 
L 168.156265 296.517548 
L 168.686978 296.290385 
L 172.401966 295.9875 
L 174.524816 295.495313 
L 178.770516 294.927404 
L 179.301229 294.624519 
L 179.831941 294.548798 
L 180.893366 294.208053 
L 184.608354 293.602284 
L 185.669779 293.299399 
L 187.261916 293.147957 
L 188.323342 293.034375 
L 190.976904 292.352885 
L 192.038329 292.277163 
L 193.099754 292.125721 
L 194.161179 291.898558 
L 194.691892 291.747115 
L 195.222604 291.027764 
L 196.814742 290.421995 
L 198.40688 290.005529 
L 198.937592 289.740505 
L 199.468305 289.702644 
L 202.121867 288.945433 
L 203.183292 288.869712 
L 203.714005 288.79399 
L 205.306143 288.301803 
L 207.428993 287.771755 
L 207.959705 287.544591 
L 208.490418 287.46887 
L 209.02113 287.203846 
L 214.328256 286.408774 
L 216.981818 285.651563 
L 217.512531 285.310817 
L 220.166093 284.440024 
L 221.227518 283.720673 
L 222.819656 283.417788 
L 232.903194 280.502524 
L 233.964619 280.086058 
L 235.026044 280.010337 
L 236.618182 279.55601 
L 237.148894 279.55601 
L 237.679607 279.328846 
L 238.741032 279.215264 
L 239.271744 279.025962 
L 240.33317 278.988101 
L 242.45602 278.723077 
L 243.517445 278.193029 
L 249.885995 275.353486 
L 250.416708 274.785577 
L 251.478133 273.195433 
L 252.008845 273.04399 
L 252.539558 273.04399 
L 253.600983 272.248918 
L 255.19312 271.71887 
L 255.723833 271.226683 
L 256.785258 270.810216 
L 257.846683 270.318029 
L 258.908108 268.803606 
L 259.438821 268.462861 
L 259.969533 267.554207 
L 260.500246 266.986298 
L 263.684521 265.358293 
L 264.745946 264.525361 
L 265.276658 264.184615 
L 265.807371 263.389543 
L 266.338084 262.215865 
L 266.868796 261.420793 
L 267.399509 261.004327 
L 267.930221 260.777163 
L 270.053071 258.959856 
L 271.114496 258.089063 
L 271.645209 257.634736 
L 272.175921 256.915385 
L 273.237346 255.96887 
L 275.360197 254.568029 
L 275.890909 254.113702 
L 276.952334 253.772957 
L 278.544472 252.864303 
L 280.136609 251.842067 
L 282.259459 249.949038 
L 283.320885 249.532572 
L 284.38231 248.813221 
L 284.913022 248.510337 
L 285.443735 248.434615 
L 289.158722 246.12512 
L 291.281572 244.989303 
L 291.812285 244.497115 
L 300.303686 241.54399 
L 301.365111 240.597476 
L 302.426536 240.105288 
L 303.487961 239.53738 
L 304.018673 239.234495 
L 305.080098 238.931611 
L 305.610811 238.590865 
L 306.141523 238.439423 
L 307.733661 237.417188 
L 310.387224 236.811418 
L 311.979361 235.902764 
L 312.510074 235.827043 
L 313.571499 235.562019 
L 314.102211 235.410577 
L 315.694349 234.199038 
L 317.817199 233.63113 
L 318.347912 233.214663 
L 321.532187 232.154567 
L 322.062899 232.116707 
L 323.124324 231.70024 
L 327.370025 230.185817 
L 328.43145 230.034375 
L 330.023587 229.504327 
L 332.67715 228.254928 
L 334.8 227.119111 
L 339.0457 225.415385 
L 339.576413 225.339663 
L 340.637838 224.696034 
L 341.16855 224.620313 
L 343.2914 223.749519 
L 345.414251 223.446635 
L 346.475676 222.916587 
L 347.006388 222.46226 
L 347.537101 221.515745 
L 349.659951 220.947837 
L 351.252088 220.152764 
L 351.782801 220.039183 
L 356.028501 218.032572 
L 357.620639 217.691827 
L 358.682064 217.161779 
L 359.212776 216.934615 
L 359.743489 216.858894 
L 361.866339 215.91238 
L 363.458477 214.928005 
L 363.989189 214.852284 
L 364.519902 214.662981 
L 365.050614 214.62512 
L 367.704177 213.98149 
L 368.234889 213.565024 
L 369.827027 212.997115 
L 371.949877 212.164183 
L 372.48059 211.785577 
L 373.011302 211.596274 
L 374.072727 211.028365 
L 376.72629 210.157572 
L 378.318428 208.908173 
L 378.84914 208.794591 
L 379.910565 207.961659 
L 380.441278 207.885938 
L 380.97199 207.053005 
L 381.502703 206.825841 
L 382.033415 206.409375 
L 382.564128 206.333654 
L 383.625553 205.690024 
L 384.686978 205.349279 
L 385.21769 204.932813 
L 385.748403 204.74351 
L 387.340541 203.645553 
L 389.463391 202.547596 
L 389.994103 202.471875 
L 391.586241 201.676803 
L 392.116953 200.80601 
L 392.647666 200.351683 
L 393.178378 200.048798 
L 393.709091 199.935216 
L 394.770516 199.253726 
L 395.301229 199.140144 
L 396.362654 198.610096 
L 397.954791 197.928606 
L 399.016216 197.171394 
L 400.608354 195.732692 
L 401.669779 195.126923 
L 402.200491 194.559014 
L 404.323342 193.120313 
L 404.854054 192.514543 
L 405.384767 192.098077 
L 406.446192 191.719471 
L 407.507617 191.00012 
L 409.099754 190.205048 
L 409.630467 190.129327 
L 411.222604 189.296394 
L 412.284029 188.652764 
L 417.591155 186.759736 
L 418.121867 186.343269 
L 420.244717 185.548197 
L 420.77543 185.396755 
L 421.306143 184.980288 
L 423.959705 183.541587 
L 425.02113 181.459255 
L 426.082555 180.247716 
L 427.14398 179.604087 
L 428.736118 178.960457 
L 429.26683 178.884736 
L 429.797543 178.581851 
L 432.451106 177.748918 
L 432.981818 177.521755 
L 434.043243 176.802404 
L 435.635381 176.120913 
L 436.696806 175.553005 
L 437.227518 175.174399 
L 437.758231 174.947236 
L 438.288943 174.56863 
L 438.819656 174.000721 
L 439.881081 173.432813 
L 442.534644 172.031971 
L 445.718919 170.479688 
L 446.780344 170.138942 
L 448.372482 169.646755 
L 450.495332 168.70024 
L 451.556757 168.283774 
L 452.087469 167.867308 
L 453.148894 167.526563 
L 456.33317 165.898558 
L 457.394595 165.065625 
L 458.45602 164.687019 
L 458.986732 164.232692 
L 459.517445 164.156971 
L 460.57887 163.361899 
L 461.640295 162.831851 
L 462.171007 162.604688 
L 462.70172 162.074639 
L 466.416708 160.635938 
L 467.478133 160.181611 
L 469.07027 159.689423 
L 470.131695 159.537981 
L 470.662408 159.310817 
L 471.19312 159.235096 
L 472.254545 158.780769 
L 472.785258 158.742909 
L 474.908108 157.947837 
L 476.500246 156.84988 
L 479.153808 155.600481 
L 481.807371 154.161779 
L 482.338084 154.048197 
L 483.930221 153.139543 
L 485.522359 152.609495 
L 486.583784 152.26875 
L 488.706634 151.58726 
L 489.768059 151.246514 
L 491.360197 150.98149 
L 493.483047 150.3 
L 494.013759 150.072837 
L 494.544472 149.997115 
L 495.075184 149.732091 
L 496.136609 149.542788 
L 497.728747 148.97488 
L 498.790172 148.861298 
L 500.38231 148.520553 
L 501.443735 148.33125 
L 502.50516 148.141947 
L 503.566585 147.914784 
L 506.75086 147.119712 
L 507.281572 146.816827 
L 509.935135 146.173197 
L 510.99656 145.832452 
L 516.834398 144.128726 
L 517.365111 143.598678 
L 518.426536 143.182212 
L 521.610811 142.046394 
L 522.141523 141.705649 
L 522.672236 141.592067 
L 523.202948 141.289183 
L 524.795086 140.834856 
L 525.856511 140.569832 
L 526.387224 140.229087 
L 526.917936 140.115505 
L 527.448649 139.661178 
L 529.040786 139.358293 
L 530.102211 138.866106 
L 530.632924 138.260337 
L 532.755774 137.768149 
L 536.470762 137.010938 
L 537.001474 137.010938 
L 537.532187 136.783774 
L 539.655037 136.405168 
L 540.185749 136.178005 
L 542.3086 135.799399 
L 543.370025 135.345072 
L 543.900737 135.307212 
L 552.92285 132.619111 
L 553.453563 132.391947 
L 553.984275 132.013341 
L 555.0457 131.710457 
L 556.107125 131.369712 
L 557.16855 130.953245 
L 558.760688 130.271755 
L 560.352826 130.158173 
L 562.475676 129.552404 
L 563.006388 129.211659 
L 564.067813 128.908774 
L 566.721376 127.735096 
L 567.252088 127.697236 
L 573.089926 125.690625 
L 575.743489 125.009135 
L 576.804914 124.516947 
L 577.866339 124.289784 
L 578.397052 124.176202 
L 578.927764 123.759736 
L 579.458477 123.494712 
L 579.989189 122.851082 
L 580.519902 122.472476 
L 581.581327 122.169591 
L 582.112039 121.753125 
L 584.765602 120.655168 
L 585.296314 120.541587 
L 585.827027 120.200841 
L 586.888452 119.897957 
L 587.419165 119.557212 
L 590.072727 118.686418 
L 591.664865 117.777764 
L 592.195577 117.664183 
L 593.257002 117.058413 
L 593.787715 116.83125 
L 594.84914 116.18762 
L 596.441278 115.430409 
L 596.97199 115.051803 
L 598.033415 114.711058 
L 599.09484 114.105288 
L 599.625553 113.915986 
L 600.156265 113.53738 
L 607.055528 111.152163 
L 607.586241 111.038582 
L 608.116953 110.697837 
L 608.647666 110.622115 
L 609.709091 110.357091 
L 610.770516 110.129928 
L 614.485504 108.31262 
L 615.016216 108.236899 
L 616.608354 107.366106 
L 619.792629 106.116707 
L 621.915479 105.283774 
L 622.446192 105.132332 
L 622.976904 104.791587 
L 624.038329 104.640144 
L 624.569042 104.299399 
L 625.099754 104.261538 
L 626.161179 103.920793 
L 627.222604 103.390745 
L 627.753317 103.315024 
L 630.40688 102.254928 
L 631.999017 101.800601 
L 633.060442 101.535577 
L 634.65258 101.08125 
L 635.714005 100.664784 
L 637.836855 99.528966 
L 638.89828 99.1125 
L 639.428993 98.771755 
L 640.490418 98.544591 
L 641.02113 98.241707 
L 641.551843 98.128125 
L 643.14398 97.295192 
L 644.205405 96.878726 
L 645.797543 96.159375 
L 647.389681 95.742909 
L 650.573956 94.49351 
L 652.166093 93.963462 
L 660.126781 90.55601 
L 660.657494 90.480288 
L 662.780344 89.647356 
L 664.372482 88.776563 
L 664.903194 88.662981 
L 665.964619 88.246514 
L 666.495332 88.246514 
L 667.556757 87.792188 
L 668.618182 86.845673 
L 669.148894 86.391346 
L 670.741032 85.634135 
L 671.271744 85.520553 
L 671.802457 85.255529 
L 672.33317 85.179808 
L 672.863882 84.801202 
L 673.394595 84.68762 
L 674.45602 84.04399 
L 676.048157 83.248918 
L 677.109582 82.832452 
L 677.640295 82.567428 
L 680.293857 81.923798 
L 680.82457 81.658774 
L 682.416708 81.204447 
L 684.539558 80.182212 
L 685.600983 79.690024 
L 686.662408 79.425 
L 690.377396 77.683413 
L 693.030958 76.736899 
L 694.623096 75.790385 
L 695.153808 75.676803 
L 696.215233 75.146755 
L 697.276658 74.768149 
L 697.807371 74.313822 
L 698.338084 74.010938 
L 699.930221 73.51875 
L 700.991646 72.799399 
L 701.522359 72.761538 
L 702.583784 72.458654 
L 703.645209 72.117909 
L 704.175921 71.852885 
L 704.706634 71.777163 
L 706.298771 71.209255 
L 707.890909 70.641346 
L 708.952334 70.22488 
L 709.483047 69.808413 
L 711.075184 69.391947 
L 711.605897 69.089063 
L 712.667322 68.824038 
L 714.259459 67.953245 
L 714.790172 67.915385 
L 716.38231 67.423197 
L 717.443735 67.309615 
L 718.50516 66.893149 
L 721.689435 65.984495 
L 722.75086 65.946635 
L 725.935135 64.924399 
L 726.465848 64.848678 
L 728.057985 64.015745 
L 728.588698 63.561418 
L 729.650123 62.917788 
L 731.24226 61.895553 
L 734.426536 60.797596 
L 734.957248 60.38113 
L 736.549386 59.661779 
L 737.080098 59.548197 
L 738.141523 59.05601 
L 739.733661 58.639543 
L 741.325799 57.958053 
L 742.387224 57.465865 
L 743.979361 56.822236 
L 744.510074 56.708654 
L 746.102211 55.951442 
L 746.632924 55.8 
L 747.163636 55.8 
L 747.163636 55.8 
" clip-path="url(#p2a56b420ba)" style="fill: none; stroke: #1f77b4; stroke-width: 1.5; stroke-linecap: square"/>
   </g>
   <g id="line2d_40">
    <path d="M 138.967076 307.8 
L 140.559214 307.724279 
L 142.151351 307.686418 
L 145.335627 307.610697 
L 147.989189 307.497115 
L 150.112039 307.497115 
L 150.642752 307.345673 
L 152.765602 307.269952 
L 154.35774 307.080649 
L 155.949877 306.929207 
L 159.134152 306.777764 
L 159.664865 306.777764 
L 160.72629 306.664183 
L 163.910565 306.51274 
L 167.625553 306.437019 
L 170.279115 306.323438 
L 176.647666 306.247716 
L 179.301229 306.134135 
L 182.485504 306.058413 
L 184.608354 305.982692 
L 189.384767 305.906971 
L 190.976904 305.869111 
L 192.569042 305.83125 
L 194.161179 305.641947 
L 197.345455 305.604087 
L 198.40688 305.528365 
L 202.65258 305.452644 
L 207.959705 305.14976 
L 211.674693 305.074038 
L 212.736118 304.998317 
L 214.328256 304.922596 
L 217.512531 304.771154 
L 219.635381 304.733293 
L 221.227518 304.581851 
L 228.126781 304.165385 
L 230.780344 304.089663 
L 235.556757 303.824639 
L 237.148894 303.748918 
L 242.45602 303.446034 
L 248.293857 303.370313 
L 250.416708 303.143149 
L 251.478133 303.067428 
L 258.377396 302.499519 
L 261.561671 302.083053 
L 263.684521 302.007332 
L 267.930221 301.439423 
L 271.114496 301.363702 
L 272.706634 301.21226 
L 273.768059 301.174399 
L 274.829484 301.060817 
L 276.421622 300.985096 
L 278.013759 300.757933 
L 278.544472 300.757933 
L 280.136609 300.530769 
L 282.259459 300.455048 
L 283.320885 300.379327 
L 285.443735 300.303606 
L 286.50516 300.227885 
L 289.158722 299.962861 
L 290.220147 299.773558 
L 291.812285 299.735697 
L 292.87371 299.659976 
L 295.527273 299.584255 
L 302.426536 299.167788 
L 304.018673 299.092067 
L 310.917936 298.675601 
L 314.632924 298.59988 
L 315.694349 298.486298 
L 319.409337 298.410577 
L 323.124324 298.221274 
L 328.962162 298.145553 
L 332.67715 297.95625 
L 336.92285 297.880529 
L 341.16855 297.653365 
L 344.883538 297.577644 
L 354.967076 296.934014 
L 360.274201 296.858293 
L 362.397052 296.63113 
L 363.989189 296.593269 
L 365.581327 296.555409 
L 367.704177 296.328245 
L 373.011302 296.025361 
L 376.195577 295.949639 
L 377.787715 295.911779 
L 379.379853 295.873918 
L 380.97199 295.722476 
L 385.21769 295.646755 
L 386.279115 295.495313 
L 387.340541 295.419591 
L 389.994103 295.30601 
L 391.055528 295.230288 
L 392.116953 295.154567 
L 396.893366 295.078846 
L 397.954791 294.965264 
L 400.077641 294.927404 
L 401.139066 294.813822 
L 402.731204 294.624519 
L 403.792629 294.548798 
L 408.569042 294.283774 
L 409.630467 294.245913 
L 411.222604 294.094471 
L 412.814742 294.056611 
L 414.40688 293.980889 
L 417.060442 293.867308 
L 424.490418 293.791587 
L 428.205405 293.602284 
L 432.451106 293.526563 
L 434.573956 293.450841 
L 436.696806 293.412981 
L 437.758231 293.299399 
L 439.881081 293.223678 
L 445.188206 292.920793 
L 448.372482 292.882933 
L 449.964619 292.73149 
L 451.556757 292.69363 
L 455.271744 292.617909 
L 457.394595 292.542188 
L 463.763145 292.466466 
L 466.416708 292.352885 
L 469.600983 292.277163 
L 471.19312 292.087861 
L 474.377396 292.05 
L 475.969533 291.898558 
L 478.092383 291.822837 
L 484.460934 291.747115 
L 487.114496 291.633534 
L 496.136609 291.595673 
L 497.198034 291.519952 
L 498.790172 291.482091 
L 505.689435 291.40637 
L 506.75086 291.330649 
L 512.588698 291.254928 
L 514.711548 291.179207 
L 524.795086 291.103486 
L 526.387224 291.065625 
L 531.163636 290.989904 
L 532.225061 290.914183 
L 544.962162 290.838462 
L 546.5543 290.800601 
L 560.883538 290.72488 
L 562.475676 290.687019 
L 572.028501 290.611298 
L 573.089926 290.535577 
L 575.743489 290.459856 
L 577.335627 290.308413 
L 579.989189 290.232692 
L 583.173464 290.08125 
L 587.419165 290.005529 
L 588.48059 289.929808 
L 592.72629 289.854087 
L 595.910565 289.702644 
L 598.564128 289.626923 
L 602.809828 289.39976 
L 605.994103 289.324038 
L 608.116953 289.248317 
L 615.016216 289.172596 
L 617.139066 289.096875 
L 621.384767 289.021154 
L 625.099754 288.831851 
L 629.876167 288.75613 
L 630.937592 288.680409 
L 640.490418 288.604688 
L 642.082555 288.566827 
L 644.736118 288.528966 
L 646.858968 288.301803 
L 648.451106 288.263942 
L 651.635381 288.188221 
L 656.942506 287.885337 
L 659.596069 287.809615 
L 661.718919 287.733894 
L 667.556757 287.658173 
L 670.210319 287.355288 
L 672.33317 287.279567 
L 676.048157 287.203846 
L 677.109582 287.090264 
L 681.355283 287.014543 
L 684.008845 286.900962 
L 690.908108 286.863101 
L 691.969533 286.749519 
L 695.684521 286.673798 
L 697.276658 286.635938 
L 699.930221 286.560216 
L 701.522359 286.522356 
L 710.544472 286.446635 
L 713.198034 286.333053 
L 720.62801 286.257332 
L 722.75086 286.181611 
L 728.588698 286.105889 
L 729.650123 285.992308 
L 734.426536 285.954447 
L 735.487961 285.878726 
L 738.141523 285.803005 
L 739.733661 285.765144 
L 747.163636 285.689423 
L 747.163636 285.689423 
" clip-path="url(#p2a56b420ba)" style="fill: none; stroke: #ff7f0e; stroke-width: 1.5; stroke-linecap: square"/>
   </g>
   <g id="patch_3">
    <path d="M 108 320.4 
L 108 43.2 
" style="fill: none; stroke: #a9a9a9; stroke-width: 0.8; stroke-linejoin: miter; stroke-linecap: square"/>
   </g>
   <g id="patch_4">
    <path d="M 777.6 320.4 
L 777.6 43.2 
" style="fill: none"/>
   </g>
   <g id="patch_5">
    <path d="M 108 320.4 
L 777.6 320.4 
" style="fill: none; stroke: #a9a9a9; stroke-width: 0.8; stroke-linejoin: miter; stroke-linecap: square"/>
   </g>
   <g id="patch_6">
    <path d="M 108 43.2 
L 777.6 43.2 
" style="fill: none"/>
   </g>
   <g id="text_20">
    <!-- get_subscribe history -->
    <g style="fill: #a9a9a9" transform="translate(378.6075 37.2) scale(0.12 -0.12)">
     <defs>
      <path id="DejaVuSans-67" d="M 2906 1791 
Q 2906 2416 2648 2759 
Q 2391 3103 1925 3103 
Q 1463 3103 1205 2759 
Q 947 2416 947 1791 
Q 947 1169 1205 825 
Q 1463 481 1925 481 
Q 2391 481 2648 825 
Q 2906 1169 2906 1791 
z
M 3481 434 
Q 3481 -459 3084 -895 
Q 2688 -1331 1869 -1331 
Q 1566 -1331 1297 -1286 
Q 1028 -1241 775 -1147 
L 775 -588 
Q 1028 -725 1275 -790 
Q 1522 -856 1778 -856 
Q 2344 -856 2625 -561 
Q 2906 -266 2906 331 
L 2906 616 
Q 2728 306 2450 153 
Q 2172 0 1784 0 
Q 1141 0 747 490 
Q 353 981 353 1791 
Q 353 2603 747 3093 
Q 1141 3584 1784 3584 
Q 2172 3584 2450 3431 
Q 2728 3278 2906 2969 
L 2906 3500 
L 3481 3500 
L 3481 434 
z
" transform="scale(0.015625)"/>
      <path id="DejaVuSans-65" d="M 3597 1894 
L 3597 1613 
L 953 1613 
Q 991 1019 1311 708 
Q 1631 397 2203 397 
Q 2534 397 2845 478 
Q 3156 559 3463 722 
L 3463 178 
Q 3153 47 2828 -22 
Q 2503 -91 2169 -91 
Q 1331 -91 842 396 
Q 353 884 353 1716 
Q 353 2575 817 3079 
Q 1281 3584 2069 3584 
Q 2775 3584 3186 3129 
Q 3597 2675 3597 1894 
z
M 3022 2063 
Q 3016 2534 2758 2815 
Q 2500 3097 2075 3097 
Q 1594 3097 1305 2825 
Q 1016 2553 972 2059 
L 3022 2063 
z
" transform="scale(0.015625)"/>
      <path id="DejaVuSans-74" d="M 1172 4494 
L 1172 3500 
L 2356 3500 
L 2356 3053 
L 1172 3053 
L 1172 1153 
Q 1172 725 1289 603 
Q 1406 481 1766 481 
L 2356 481 
L 2356 0 
L 1766 0 
Q 1100 0 847 248 
Q 594 497 594 1153 
L 594 3053 
L 172 3053 
L 172 3500 
L 594 3500 
L 594 4494 
L 1172 4494 
z
" transform="scale(0.015625)"/>
      <path id="DejaVuSans-5f" d="M 3263 -1063 
L 3263 -1509 
L -63 -1509 
L -63 -1063 
L 3263 -1063 
z
" transform="scale(0.015625)"/>
      <path id="DejaVuSans-73" d="M 2834 3397 
L 2834 2853 
Q 2591 2978 2328 3040 
Q 2066 3103 1784 3103 
Q 1356 3103 1142 2972 
Q 928 2841 928 2578 
Q 928 2378 1081 2264 
Q 1234 2150 1697 2047 
L 1894 2003 
Q 2506 1872 2764 1633 
Q 3022 1394 3022 966 
Q 3022 478 2636 193 
Q 2250 -91 1575 -91 
Q 1294 -91 989 -36 
Q 684 19 347 128 
L 347 722 
Q 666 556 975 473 
Q 1284 391 1588 391 
Q 1994 391 2212 530 
Q 2431 669 2431 922 
Q 2431 1156 2273 1281 
Q 2116 1406 1581 1522 
L 1381 1569 
Q 847 1681 609 1914 
Q 372 2147 372 2553 
Q 372 3047 722 3315 
Q 1072 3584 1716 3584 
Q 2034 3584 2315 3537 
Q 2597 3491 2834 3397 
z
" transform="scale(0.015625)"/>
      <path id="DejaVuSans-75" d="M 544 1381 
L 544 3500 
L 1119 3500 
L 1119 1403 
Q 1119 906 1312 657 
Q 1506 409 1894 409 
Q 2359 409 2629 706 
Q 2900 1003 2900 1516 
L 2900 3500 
L 3475 3500 
L 3475 0 
L 2900 0 
L 2900 538 
Q 2691 219 2414 64 
Q 2138 -91 1772 -91 
Q 1169 -91 856 284 
Q 544 659 544 1381 
z
M 1991 3584 
L 1991 3584 
z
" transform="scale(0.015625)"/>
      <path id="DejaVuSans-62" d="M 3116 1747 
Q 3116 2381 2855 2742 
Q 2594 3103 2138 3103 
Q 1681 3103 1420 2742 
Q 1159 2381 1159 1747 
Q 1159 1113 1420 752 
Q 1681 391 2138 391 
Q 2594 391 2855 752 
Q 3116 1113 3116 1747 
z
M 1159 2969 
Q 1341 3281 1617 3432 
Q 1894 3584 2278 3584 
Q 2916 3584 3314 3078 
Q 3713 2572 3713 1747 
Q 3713 922 3314 415 
Q 2916 -91 2278 -91 
Q 1894 -91 1617 61 
Q 1341 213 1159 525 
L 1159 0 
L 581 0 
L 581 4863 
L 1159 4863 
L 1159 2969 
z
" transform="scale(0.015625)"/>
      <path id="DejaVuSans-63" d="M 3122 3366 
L 3122 2828 
Q 2878 2963 2633 3030 
Q 2388 3097 2138 3097 
Q 1578 3097 1268 2742 
Q 959 2388 959 1747 
Q 959 1106 1268 751 
Q 1578 397 2138 397 
Q 2388 397 2633 464 
Q 2878 531 3122 666 
L 3122 134 
Q 2881 22 2623 -34 
Q 2366 -91 2075 -91 
Q 1284 -91 818 406 
Q 353 903 353 1747 
Q 353 2603 823 3093 
Q 1294 3584 2113 3584 
Q 2378 3584 2631 3529 
Q 2884 3475 3122 3366 
z
" transform="scale(0.015625)"/>
      <path id="DejaVuSans-72" d="M 2631 2963 
Q 2534 3019 2420 3045 
Q 2306 3072 2169 3072 
Q 1681 3072 1420 2755 
Q 1159 2438 1159 1844 
L 1159 0 
L 581 0 
L 581 3500 
L 1159 3500 
L 1159 2956 
Q 1341 3275 1631 3429 
Q 1922 3584 2338 3584 
Q 2397 3584 2469 3576 
Q 2541 3569 2628 3553 
L 2631 2963 
z
" transform="scale(0.015625)"/>
      <path id="DejaVuSans-69" d="M 603 3500 
L 1178 3500 
L 1178 0 
L 603 0 
L 603 3500 
z
M 603 4863 
L 1178 4863 
L 1178 4134 
L 603 4134 
L 603 4863 
z
" transform="scale(0.015625)"/>
      <path id="DejaVuSans-20" transform="scale(0.015625)"/>
      <path id="DejaVuSans-68" d="M 3513 2113 
L 3513 0 
L 2938 0 
L 2938 2094 
Q 2938 2591 2744 2837 
Q 2550 3084 2163 3084 
Q 1697 3084 1428 2787 
Q 1159 2491 1159 1978 
L 1159 0 
L 581 0 
L 581 4863 
L 1159 4863 
L 1159 2956 
Q 1366 3272 1645 3428 
Q 1925 3584 2291 3584 
Q 2894 3584 3203 3211 
Q 3513 2838 3513 2113 
z
" transform="scale(0.015625)"/>
      <path id="DejaVuSans-6f" d="M 1959 3097 
Q 1497 3097 1228 2736 
Q 959 2375 959 1747 
Q 959 1119 1226 758 
Q 1494 397 1959 397 
Q 2419 397 2687 759 
Q 2956 1122 2956 1747 
Q 2956 2369 2687 2733 
Q 2419 3097 1959 3097 
z
M 1959 3584 
Q 2709 3584 3137 3096 
Q 3566 2609 3566 1747 
Q 3566 888 3137 398 
Q 2709 -91 1959 -91 
Q 1206 -91 779 398 
Q 353 888 353 1747 
Q 353 2609 779 3096 
Q 1206 3584 1959 3584 
z
" transform="scale(0.015625)"/>
      <path id="DejaVuSans-79" d="M 2059 -325 
Q 1816 -950 1584 -1140 
Q 1353 -1331 966 -1331 
L 506 -1331 
L 506 -850 
L 844 -850 
Q 1081 -850 1212 -737 
Q 1344 -625 1503 -206 
L 1606 56 
L 191 3500 
L 800 3500 
L 1894 763 
L 2988 3500 
L 3597 3500 
L 2059 -325 
z
" transform="scale(0.015625)"/>
     </defs>
     <use xlink:href="#DejaVuSans-67"/>
     <use xlink:href="#DejaVuSans-65" x="63.476562"/>
     <use xlink:href="#DejaVuSans-74" x="125"/>
     <use xlink:href="#DejaVuSans-5f" x="164.208984"/>
     <use xlink:href="#DejaVuSans-73" x="214.208984"/>
     <use xlink:href="#DejaVuSans-75" x="266.308594"/>
     <use xlink:href="#DejaVuSans-62" x="329.6875"/>
     <use xlink:href="#DejaVuSans-73" x="393.164062"/>
     <use xlink:href="#DejaVuSans-63" x="445.263672"/>
     <use xlink:href="#DejaVuSans-72" x="500.244141"/>
     <use xlink:href="#DejaVuSans-69" x="541.357422"/>
     <use xlink:href="#DejaVuSans-62" x="569.140625"/>
     <use xlink:href="#DejaVuSans-65" x="632.617188"/>
     <use xlink:href="#DejaVuSans-20" x="694.140625"/>
     <use xlink:href="#DejaVuSans-68" x="725.927734"/>
     <use xlink:href="#DejaVuSans-69" x="789.306641"/>
     <use xlink:href="#DejaVuSans-73" x="817.089844"/>
     <use xlink:href="#DejaVuSans-74" x="869.189453"/>
     <use xlink:href="#DejaVuSans-6f" x="908.398438"/>
     <use xlink:href="#DejaVuSans-72" x="969.580078"/>
     <use xlink:href="#DejaVuSans-79" x="1010.693359"/>
    </g>
   </g>
   <g id="legend_1">
    <g id="line2d_41">
     <path d="M 815.08 328.498438 
L 825.08 328.498438 
L 835.08 328.498438 
" style="fill: none; stroke: #1f77b4; stroke-width: 1.5; stroke-linecap: square"/>
    </g>
    <g id="text_21">
     <!-- star -->
     <g style="fill: #a9a9a9" transform="translate(843.08 331.998438) scale(0.1 -0.1)">
      <defs>
       <path id="DejaVuSans-61" d="M 2194 1759 
Q 1497 1759 1228 1600 
Q 959 1441 959 1056 
Q 959 750 1161 570 
Q 1363 391 1709 391 
Q 2188 391 2477 730 
Q 2766 1069 2766 1631 
L 2766 1759 
L 2194 1759 
z
M 3341 1997 
L 3341 0 
L 2766 0 
L 2766 531 
Q 2569 213 2275 61 
Q 1981 -91 1556 -91 
Q 1019 -91 701 211 
Q 384 513 384 1019 
Q 384 1609 779 1909 
Q 1175 2209 1959 2209 
L 2766 2209 
L 2766 2266 
Q 2766 2663 2505 2880 
Q 2244 3097 1772 3097 
Q 1472 3097 1187 3025 
Q 903 2953 641 2809 
L 641 3341 
Q 956 3463 1253 3523 
Q 1550 3584 1831 3584 
Q 2591 3584 2966 3190 
Q 3341 2797 3341 1997 
z
" transform="scale(0.015625)"/>
      </defs>
      <use xlink:href="#DejaVuSans-73"/>
      <use xlink:href="#DejaVuSans-74" x="52.099609"/>
      <use xlink:href="#DejaVuSans-61" x="91.308594"/>
      <use xlink:href="#DejaVuSans-72" x="152.587891"/>
     </g>
    </g>
    <g id="line2d_42">
     <path d="M 815.08 343.176562 
L 825.08 343.176562 
L 835.08 343.176562 
" style="fill: none; stroke: #ff7f0e; stroke-width: 1.5; stroke-linecap: square"/>
    </g>
    <g id="text_22">
     <!-- fork -->
     <g style="fill: #a9a9a9" transform="translate(843.08 346.676562) scale(0.1 -0.1)">
      <defs>
       <path id="DejaVuSans-66" d="M 2375 4863 
L 2375 4384 
L 1825 4384 
Q 1516 4384 1395 4259 
Q 1275 4134 1275 3809 
L 1275 3500 
L 2222 3500 
L 2222 3053 
L 1275 3053 
L 1275 0 
L 697 0 
L 697 3053 
L 147 3053 
L 147 3500 
L 697 3500 
L 697 3744 
Q 697 4328 969 4595 
Q 1241 4863 1831 4863 
L 2375 4863 
z
" transform="scale(0.015625)"/>
       <path id="DejaVuSans-6b" d="M 581 4863 
L 1159 4863 
L 1159 1991 
L 2875 3500 
L 3609 3500 
L 1753 1863 
L 3688 0 
L 2938 0 
L 1159 1709 
L 1159 0 
L 581 0 
L 581 4863 
z
" transform="scale(0.015625)"/>
      </defs>
      <use xlink:href="#DejaVuSans-66"/>
      <use xlink:href="#DejaVuSans-6f" x="35.205078"/>
      <use xlink:href="#DejaVuSans-72" x="96.386719"/>
      <use xlink:href="#DejaVuSans-6b" x="137.5"/>
     </g>
    </g>
   </g>
  </g>
 </g>
 <defs>
  <clipPath id="p2a56b420ba">
   <rect x="108" y="43.2" width="669.6" height="277.2"/>
  </clipPath>
 </defs>
</svg>
