<?xml version="1.0" encoding="utf-8" standalone="no"?>
<!DOCTYPE svg PUBLIC "-//W3C//DTD SVG 1.1//EN"
  "http://www.w3.org/Graphics/SVG/1.1/DTD/svg11.dtd">
<svg xmlns:xlink="http://www.w3.org/1999/xlink" width="864pt" height="360pt" viewBox="0 0 864 360" xmlns="http://www.w3.org/2000/svg" version="1.1">
 <metadata>
  <rdf:RDF xmlns:dc="http://purl.org/dc/elements/1.1/" xmlns:cc="http://creativecommons.org/ns#" xmlns:rdf="http://www.w3.org/1999/02/22-rdf-syntax-ns#">
   <cc:Work>
    <dc:type rdf:resource="http://purl.org/dc/dcmitype/StillImage"/>
    <dc:date>2024-09-11T08:13:07.440243</dc:date>
    <dc:format>image/svg+xml</dc:format>
    <dc:creator>
     <cc:Agent>
      <dc:title>Matplotlib v3.9.2, https://matplotlib.org/</dc:title>
     </cc:Agent>
    </dc:creator>
   </cc:Work>
  </rdf:RDF>
 </metadata>
 <defs>
  <style type="text/css">*{stroke-linejoin: round; stroke-linecap: butt}</style>
 </defs>
 <g id="figure_1">
  <g id="patch_1">
   <path d="M 0 360 
L 864 360 
L 864 0 
L 0 0 
L 0 360 
z
" style="fill: none; opacity: 0"/>
  </g>
  <g id="axes_1">
   <g id="patch_2">
    <path d="M 108 320.4 
L 777.6 320.4 
L 777.6 43.2 
L 108 43.2 
L 108 320.4 
z
" style="fill: none; opacity: 0"/>
   </g>
   <g id="matplotlib.axis_1">
    <g id="xtick_1">
     <g id="line2d_1">
      <path d="M 159.170306 320.4 
L 159.170306 43.2 
" clip-path="url(#p61ce8629a1)" style="fill: none; stroke-dasharray: 5.12,1.28,0.8,1.28; stroke-dashoffset: 0; stroke: #b0b0b0; stroke-width: 0.8"/>
     </g>
     <g id="line2d_2">
      <defs>
       <path id="m4b8e4c7343" d="M 0 0 
L 0 3.5 
" style="stroke: #a9a9a9; stroke-width: 0.8"/>
      </defs>
      <g>
       <use xlink:href="#m4b8e4c7343" x="159.170306" y="320.4" style="fill: #a9a9a9; stroke: #a9a9a9; stroke-width: 0.8"/>
      </g>
     </g>
     <g id="text_1">
      <!-- 2021-09 -->
      <g style="fill: #a9a9a9" transform="translate(138.278899 334.998438) scale(0.1 -0.1)">
       <defs>
        <path id="DejaVuSans-32" d="M 1228 531 
L 3431 531 
L 3431 0 
L 469 0 
L 469 531 
Q 828 903 1448 1529 
Q 2069 2156 2228 2338 
Q 2531 2678 2651 2914 
Q 2772 3150 2772 3378 
Q 2772 3750 2511 3984 
Q 2250 4219 1831 4219 
Q 1534 4219 1204 4116 
Q 875 4013 500 3803 
L 500 4441 
Q 881 4594 1212 4672 
Q 1544 4750 1819 4750 
Q 2544 4750 2975 4387 
Q 3406 4025 3406 3419 
Q 3406 3131 3298 2873 
Q 3191 2616 2906 2266 
Q 2828 2175 2409 1742 
Q 1991 1309 1228 531 
z
" transform="scale(0.015625)"/>
        <path id="DejaVuSans-30" d="M 2034 4250 
Q 1547 4250 1301 3770 
Q 1056 3291 1056 2328 
Q 1056 1369 1301 889 
Q 1547 409 2034 409 
Q 2525 409 2770 889 
Q 3016 1369 3016 2328 
Q 3016 3291 2770 3770 
Q 2525 4250 2034 4250 
z
M 2034 4750 
Q 2819 4750 3233 4129 
Q 3647 3509 3647 2328 
Q 3647 1150 3233 529 
Q 2819 -91 2034 -91 
Q 1250 -91 836 529 
Q 422 1150 422 2328 
Q 422 3509 836 4129 
Q 1250 4750 2034 4750 
z
" transform="scale(0.015625)"/>
        <path id="DejaVuSans-31" d="M 794 531 
L 1825 531 
L 1825 4091 
L 703 3866 
L 703 4441 
L 1819 4666 
L 2450 4666 
L 2450 531 
L 3481 531 
L 3481 0 
L 794 0 
L 794 531 
z
" transform="scale(0.015625)"/>
        <path id="DejaVuSans-2d" d="M 313 2009 
L 1997 2009 
L 1997 1497 
L 313 1497 
L 313 2009 
z
" transform="scale(0.015625)"/>
        <path id="DejaVuSans-39" d="M 703 97 
L 703 672 
Q 941 559 1184 500 
Q 1428 441 1663 441 
Q 2288 441 2617 861 
Q 2947 1281 2994 2138 
Q 2813 1869 2534 1725 
Q 2256 1581 1919 1581 
Q 1219 1581 811 2004 
Q 403 2428 403 3163 
Q 403 3881 828 4315 
Q 1253 4750 1959 4750 
Q 2769 4750 3195 4129 
Q 3622 3509 3622 2328 
Q 3622 1225 3098 567 
Q 2575 -91 1691 -91 
Q 1453 -91 1209 -44 
Q 966 3 703 97 
z
M 1959 2075 
Q 2384 2075 2632 2365 
Q 2881 2656 2881 3163 
Q 2881 3666 2632 3958 
Q 2384 4250 1959 4250 
Q 1534 4250 1286 3958 
Q 1038 3666 1038 3163 
Q 1038 2656 1286 2365 
Q 1534 2075 1959 2075 
z
" transform="scale(0.015625)"/>
       </defs>
       <use xlink:href="#DejaVuSans-32"/>
       <use xlink:href="#DejaVuSans-30" x="63.623047"/>
       <use xlink:href="#DejaVuSans-32" x="127.246094"/>
       <use xlink:href="#DejaVuSans-31" x="190.869141"/>
       <use xlink:href="#DejaVuSans-2d" x="254.492188"/>
       <use xlink:href="#DejaVuSans-30" x="290.576172"/>
       <use xlink:href="#DejaVuSans-39" x="354.199219"/>
      </g>
     </g>
    </g>
    <g id="xtick_2">
     <g id="line2d_3">
      <path d="M 224.030329 320.4 
L 224.030329 43.2 
" clip-path="url(#p61ce8629a1)" style="fill: none; stroke-dasharray: 5.12,1.28,0.8,1.28; stroke-dashoffset: 0; stroke: #b0b0b0; stroke-width: 0.8"/>
     </g>
     <g id="line2d_4">
      <g>
       <use xlink:href="#m4b8e4c7343" x="224.030329" y="320.4" style="fill: #a9a9a9; stroke: #a9a9a9; stroke-width: 0.8"/>
      </g>
     </g>
     <g id="text_2">
      <!-- 2022-01 -->
      <g style="fill: #a9a9a9" transform="translate(203.138923 334.998438) scale(0.1 -0.1)">
       <use xlink:href="#DejaVuSans-32"/>
       <use xlink:href="#DejaVuSans-30" x="63.623047"/>
       <use xlink:href="#DejaVuSans-32" x="127.246094"/>
       <use xlink:href="#DejaVuSans-32" x="190.869141"/>
       <use xlink:href="#DejaVuSans-2d" x="254.492188"/>
       <use xlink:href="#DejaVuSans-30" x="290.576172"/>
       <use xlink:href="#DejaVuSans-31" x="354.199219"/>
      </g>
     </g>
    </g>
    <g id="xtick_3">
     <g id="line2d_5">
      <path d="M 287.827074 320.4 
L 287.827074 43.2 
" clip-path="url(#p61ce8629a1)" style="fill: none; stroke-dasharray: 5.12,1.28,0.8,1.28; stroke-dashoffset: 0; stroke: #b0b0b0; stroke-width: 0.8"/>
     </g>
     <g id="line2d_6">
      <g>
       <use xlink:href="#m4b8e4c7343" x="287.827074" y="320.4" style="fill: #a9a9a9; stroke: #a9a9a9; stroke-width: 0.8"/>
      </g>
     </g>
     <g id="text_3">
      <!-- 2022-05 -->
      <g style="fill: #a9a9a9" transform="translate(266.935668 334.998438) scale(0.1 -0.1)">
       <defs>
        <path id="DejaVuSans-35" d="M 691 4666 
L 3169 4666 
L 3169 4134 
L 1269 4134 
L 1269 2991 
Q 1406 3038 1543 3061 
Q 1681 3084 1819 3084 
Q 2600 3084 3056 2656 
Q 3513 2228 3513 1497 
Q 3513 744 3044 326 
Q 2575 -91 1722 -91 
Q 1428 -91 1123 -41 
Q 819 9 494 109 
L 494 744 
Q 775 591 1075 516 
Q 1375 441 1709 441 
Q 2250 441 2565 725 
Q 2881 1009 2881 1497 
Q 2881 1984 2565 2268 
Q 2250 2553 1709 2553 
Q 1456 2553 1204 2497 
Q 953 2441 691 2322 
L 691 4666 
z
" transform="scale(0.015625)"/>
       </defs>
       <use xlink:href="#DejaVuSans-32"/>
       <use xlink:href="#DejaVuSans-30" x="63.623047"/>
       <use xlink:href="#DejaVuSans-32" x="127.246094"/>
       <use xlink:href="#DejaVuSans-32" x="190.869141"/>
       <use xlink:href="#DejaVuSans-2d" x="254.492188"/>
       <use xlink:href="#DejaVuSans-30" x="290.576172"/>
       <use xlink:href="#DejaVuSans-35" x="354.199219"/>
      </g>
     </g>
    </g>
    <g id="xtick_4">
     <g id="line2d_7">
      <path d="M 353.218738 320.4 
L 353.218738 43.2 
" clip-path="url(#p61ce8629a1)" style="fill: none; stroke-dasharray: 5.12,1.28,0.8,1.28; stroke-dashoffset: 0; stroke: #b0b0b0; stroke-width: 0.8"/>
     </g>
     <g id="line2d_8">
      <g>
       <use xlink:href="#m4b8e4c7343" x="353.218738" y="320.4" style="fill: #a9a9a9; stroke: #a9a9a9; stroke-width: 0.8"/>
      </g>
     </g>
     <g id="text_4">
      <!-- 2022-09 -->
      <g style="fill: #a9a9a9" transform="translate(332.327331 334.998438) scale(0.1 -0.1)">
       <use xlink:href="#DejaVuSans-32"/>
       <use xlink:href="#DejaVuSans-30" x="63.623047"/>
       <use xlink:href="#DejaVuSans-32" x="127.246094"/>
       <use xlink:href="#DejaVuSans-32" x="190.869141"/>
       <use xlink:href="#DejaVuSans-2d" x="254.492188"/>
       <use xlink:href="#DejaVuSans-30" x="290.576172"/>
       <use xlink:href="#DejaVuSans-39" x="354.199219"/>
      </g>
     </g>
    </g>
    <g id="xtick_5">
     <g id="line2d_9">
      <path d="M 418.078761 320.4 
L 418.078761 43.2 
" clip-path="url(#p61ce8629a1)" style="fill: none; stroke-dasharray: 5.12,1.28,0.8,1.28; stroke-dashoffset: 0; stroke: #b0b0b0; stroke-width: 0.8"/>
     </g>
     <g id="line2d_10">
      <g>
       <use xlink:href="#m4b8e4c7343" x="418.078761" y="320.4" style="fill: #a9a9a9; stroke: #a9a9a9; stroke-width: 0.8"/>
      </g>
     </g>
     <g id="text_5">
      <!-- 2023-01 -->
      <g style="fill: #a9a9a9" transform="translate(397.187355 334.998438) scale(0.1 -0.1)">
       <defs>
        <path id="DejaVuSans-33" d="M 2597 2516 
Q 3050 2419 3304 2112 
Q 3559 1806 3559 1356 
Q 3559 666 3084 287 
Q 2609 -91 1734 -91 
Q 1441 -91 1130 -33 
Q 819 25 488 141 
L 488 750 
Q 750 597 1062 519 
Q 1375 441 1716 441 
Q 2309 441 2620 675 
Q 2931 909 2931 1356 
Q 2931 1769 2642 2001 
Q 2353 2234 1838 2234 
L 1294 2234 
L 1294 2753 
L 1863 2753 
Q 2328 2753 2575 2939 
Q 2822 3125 2822 3475 
Q 2822 3834 2567 4026 
Q 2313 4219 1838 4219 
Q 1578 4219 1281 4162 
Q 984 4106 628 3988 
L 628 4550 
Q 988 4650 1302 4700 
Q 1616 4750 1894 4750 
Q 2613 4750 3031 4423 
Q 3450 4097 3450 3541 
Q 3450 3153 3228 2886 
Q 3006 2619 2597 2516 
z
" transform="scale(0.015625)"/>
       </defs>
       <use xlink:href="#DejaVuSans-32"/>
       <use xlink:href="#DejaVuSans-30" x="63.623047"/>
       <use xlink:href="#DejaVuSans-32" x="127.246094"/>
       <use xlink:href="#DejaVuSans-33" x="190.869141"/>
       <use xlink:href="#DejaVuSans-2d" x="254.492188"/>
       <use xlink:href="#DejaVuSans-30" x="290.576172"/>
       <use xlink:href="#DejaVuSans-31" x="354.199219"/>
      </g>
     </g>
    </g>
    <g id="xtick_6">
     <g id="line2d_11">
      <path d="M 481.875506 320.4 
L 481.875506 43.2 
" clip-path="url(#p61ce8629a1)" style="fill: none; stroke-dasharray: 5.12,1.28,0.8,1.28; stroke-dashoffset: 0; stroke: #b0b0b0; stroke-width: 0.8"/>
     </g>
     <g id="line2d_12">
      <g>
       <use xlink:href="#m4b8e4c7343" x="481.875506" y="320.4" style="fill: #a9a9a9; stroke: #a9a9a9; stroke-width: 0.8"/>
      </g>
     </g>
     <g id="text_6">
      <!-- 2023-05 -->
      <g style="fill: #a9a9a9" transform="translate(460.9841 334.998438) scale(0.1 -0.1)">
       <use xlink:href="#DejaVuSans-32"/>
       <use xlink:href="#DejaVuSans-30" x="63.623047"/>
       <use xlink:href="#DejaVuSans-32" x="127.246094"/>
       <use xlink:href="#DejaVuSans-33" x="190.869141"/>
       <use xlink:href="#DejaVuSans-2d" x="254.492188"/>
       <use xlink:href="#DejaVuSans-30" x="290.576172"/>
       <use xlink:href="#DejaVuSans-35" x="354.199219"/>
      </g>
     </g>
    </g>
    <g id="xtick_7">
     <g id="line2d_13">
      <path d="M 547.26717 320.4 
L 547.26717 43.2 
" clip-path="url(#p61ce8629a1)" style="fill: none; stroke-dasharray: 5.12,1.28,0.8,1.28; stroke-dashoffset: 0; stroke: #b0b0b0; stroke-width: 0.8"/>
     </g>
     <g id="line2d_14">
      <g>
       <use xlink:href="#m4b8e4c7343" x="547.26717" y="320.4" style="fill: #a9a9a9; stroke: #a9a9a9; stroke-width: 0.8"/>
      </g>
     </g>
     <g id="text_7">
      <!-- 2023-09 -->
      <g style="fill: #a9a9a9" transform="translate(526.375763 334.998438) scale(0.1 -0.1)">
       <use xlink:href="#DejaVuSans-32"/>
       <use xlink:href="#DejaVuSans-30" x="63.623047"/>
       <use xlink:href="#DejaVuSans-32" x="127.246094"/>
       <use xlink:href="#DejaVuSans-33" x="190.869141"/>
       <use xlink:href="#DejaVuSans-2d" x="254.492188"/>
       <use xlink:href="#DejaVuSans-30" x="290.576172"/>
       <use xlink:href="#DejaVuSans-39" x="354.199219"/>
      </g>
     </g>
    </g>
    <g id="xtick_8">
     <g id="line2d_15">
      <path d="M 612.127193 320.4 
L 612.127193 43.2 
" clip-path="url(#p61ce8629a1)" style="fill: none; stroke-dasharray: 5.12,1.28,0.8,1.28; stroke-dashoffset: 0; stroke: #b0b0b0; stroke-width: 0.8"/>
     </g>
     <g id="line2d_16">
      <g>
       <use xlink:href="#m4b8e4c7343" x="612.127193" y="320.4" style="fill: #a9a9a9; stroke: #a9a9a9; stroke-width: 0.8"/>
      </g>
     </g>
     <g id="text_8">
      <!-- 2024-01 -->
      <g style="fill: #a9a9a9" transform="translate(591.235787 334.998438) scale(0.1 -0.1)">
       <defs>
        <path id="DejaVuSans-34" d="M 2419 4116 
L 825 1625 
L 2419 1625 
L 2419 4116 
z
M 2253 4666 
L 3047 4666 
L 3047 1625 
L 3713 1625 
L 3713 1100 
L 3047 1100 
L 3047 0 
L 2419 0 
L 2419 1100 
L 313 1100 
L 313 1709 
L 2253 4666 
z
" transform="scale(0.015625)"/>
       </defs>
       <use xlink:href="#DejaVuSans-32"/>
       <use xlink:href="#DejaVuSans-30" x="63.623047"/>
       <use xlink:href="#DejaVuSans-32" x="127.246094"/>
       <use xlink:href="#DejaVuSans-34" x="190.869141"/>
       <use xlink:href="#DejaVuSans-2d" x="254.492188"/>
       <use xlink:href="#DejaVuSans-30" x="290.576172"/>
       <use xlink:href="#DejaVuSans-31" x="354.199219"/>
      </g>
     </g>
    </g>
    <g id="xtick_9">
     <g id="line2d_17">
      <path d="M 676.455578 320.4 
L 676.455578 43.2 
" clip-path="url(#p61ce8629a1)" style="fill: none; stroke-dasharray: 5.12,1.28,0.8,1.28; stroke-dashoffset: 0; stroke: #b0b0b0; stroke-width: 0.8"/>
     </g>
     <g id="line2d_18">
      <g>
       <use xlink:href="#m4b8e4c7343" x="676.455578" y="320.4" style="fill: #a9a9a9; stroke: #a9a9a9; stroke-width: 0.8"/>
      </g>
     </g>
     <g id="text_9">
      <!-- 2024-05 -->
      <g style="fill: #a9a9a9" transform="translate(655.564171 334.998438) scale(0.1 -0.1)">
       <use xlink:href="#DejaVuSans-32"/>
       <use xlink:href="#DejaVuSans-30" x="63.623047"/>
       <use xlink:href="#DejaVuSans-32" x="127.246094"/>
       <use xlink:href="#DejaVuSans-34" x="190.869141"/>
       <use xlink:href="#DejaVuSans-2d" x="254.492188"/>
       <use xlink:href="#DejaVuSans-30" x="290.576172"/>
       <use xlink:href="#DejaVuSans-35" x="354.199219"/>
      </g>
     </g>
    </g>
    <g id="xtick_10">
     <g id="line2d_19">
      <path d="M 741.847241 320.4 
L 741.847241 43.2 
" clip-path="url(#p61ce8629a1)" style="fill: none; stroke-dasharray: 5.12,1.28,0.8,1.28; stroke-dashoffset: 0; stroke: #b0b0b0; stroke-width: 0.8"/>
     </g>
     <g id="line2d_20">
      <g>
       <use xlink:href="#m4b8e4c7343" x="741.847241" y="320.4" style="fill: #a9a9a9; stroke: #a9a9a9; stroke-width: 0.8"/>
      </g>
     </g>
     <g id="text_10">
      <!-- 2024-09 -->
      <g style="fill: #a9a9a9" transform="translate(720.955835 334.998438) scale(0.1 -0.1)">
       <use xlink:href="#DejaVuSans-32"/>
       <use xlink:href="#DejaVuSans-30" x="63.623047"/>
       <use xlink:href="#DejaVuSans-32" x="127.246094"/>
       <use xlink:href="#DejaVuSans-34" x="190.869141"/>
       <use xlink:href="#DejaVuSans-2d" x="254.492188"/>
       <use xlink:href="#DejaVuSans-30" x="290.576172"/>
       <use xlink:href="#DejaVuSans-39" x="354.199219"/>
      </g>
     </g>
    </g>
   </g>
   <g id="matplotlib.axis_2">
    <g id="ytick_1">
     <g id="line2d_21">
      <path d="M 108 307.837923 
L 777.6 307.837923 
" clip-path="url(#p61ce8629a1)" style="fill: none; stroke-dasharray: 5.12,1.28,0.8,1.28; stroke-dashoffset: 0; stroke: #b0b0b0; stroke-width: 0.8"/>
     </g>
     <g id="line2d_22">
      <defs>
       <path id="mbf1bda5347" d="M 0 0 
L -3.5 0 
" style="stroke: #a9a9a9; stroke-width: 0.8"/>
      </defs>
      <g>
       <use xlink:href="#mbf1bda5347" x="108" y="307.837923" style="fill: #a9a9a9; stroke: #a9a9a9; stroke-width: 0.8"/>
      </g>
     </g>
     <g id="text_11">
      <!-- 0 -->
      <g style="fill: #a9a9a9" transform="translate(94.6375 311.637142) scale(0.1 -0.1)">
       <use xlink:href="#DejaVuSans-30"/>
      </g>
     </g>
    </g>
    <g id="ytick_2">
     <g id="line2d_23">
      <path d="M 108 277.499323 
L 777.6 277.499323 
" clip-path="url(#p61ce8629a1)" style="fill: none; stroke-dasharray: 5.12,1.28,0.8,1.28; stroke-dashoffset: 0; stroke: #b0b0b0; stroke-width: 0.8"/>
     </g>
     <g id="line2d_24">
      <g>
       <use xlink:href="#mbf1bda5347" x="108" y="277.499323" style="fill: #a9a9a9; stroke: #a9a9a9; stroke-width: 0.8"/>
      </g>
     </g>
     <g id="text_12">
      <!-- 800 -->
      <g style="fill: #a9a9a9" transform="translate(81.9125 281.298542) scale(0.1 -0.1)">
       <defs>
        <path id="DejaVuSans-38" d="M 2034 2216 
Q 1584 2216 1326 1975 
Q 1069 1734 1069 1313 
Q 1069 891 1326 650 
Q 1584 409 2034 409 
Q 2484 409 2743 651 
Q 3003 894 3003 1313 
Q 3003 1734 2745 1975 
Q 2488 2216 2034 2216 
z
M 1403 2484 
Q 997 2584 770 2862 
Q 544 3141 544 3541 
Q 544 4100 942 4425 
Q 1341 4750 2034 4750 
Q 2731 4750 3128 4425 
Q 3525 4100 3525 3541 
Q 3525 3141 3298 2862 
Q 3072 2584 2669 2484 
Q 3125 2378 3379 2068 
Q 3634 1759 3634 1313 
Q 3634 634 3220 271 
Q 2806 -91 2034 -91 
Q 1263 -91 848 271 
Q 434 634 434 1313 
Q 434 1759 690 2068 
Q 947 2378 1403 2484 
z
M 1172 3481 
Q 1172 3119 1398 2916 
Q 1625 2713 2034 2713 
Q 2441 2713 2670 2916 
Q 2900 3119 2900 3481 
Q 2900 3844 2670 4047 
Q 2441 4250 2034 4250 
Q 1625 4250 1398 4047 
Q 1172 3844 1172 3481 
z
" transform="scale(0.015625)"/>
       </defs>
       <use xlink:href="#DejaVuSans-38"/>
       <use xlink:href="#DejaVuSans-30" x="63.623047"/>
       <use xlink:href="#DejaVuSans-30" x="127.246094"/>
      </g>
     </g>
    </g>
    <g id="ytick_3">
     <g id="line2d_25">
      <path d="M 108 247.160722 
L 777.6 247.160722 
" clip-path="url(#p61ce8629a1)" style="fill: none; stroke-dasharray: 5.12,1.28,0.8,1.28; stroke-dashoffset: 0; stroke: #b0b0b0; stroke-width: 0.8"/>
     </g>
     <g id="line2d_26">
      <g>
       <use xlink:href="#mbf1bda5347" x="108" y="247.160722" style="fill: #a9a9a9; stroke: #a9a9a9; stroke-width: 0.8"/>
      </g>
     </g>
     <g id="text_13">
      <!-- 1600 -->
      <g style="fill: #a9a9a9" transform="translate(75.55 250.959941) scale(0.1 -0.1)">
       <defs>
        <path id="DejaVuSans-36" d="M 2113 2584 
Q 1688 2584 1439 2293 
Q 1191 2003 1191 1497 
Q 1191 994 1439 701 
Q 1688 409 2113 409 
Q 2538 409 2786 701 
Q 3034 994 3034 1497 
Q 3034 2003 2786 2293 
Q 2538 2584 2113 2584 
z
M 3366 4563 
L 3366 3988 
Q 3128 4100 2886 4159 
Q 2644 4219 2406 4219 
Q 1781 4219 1451 3797 
Q 1122 3375 1075 2522 
Q 1259 2794 1537 2939 
Q 1816 3084 2150 3084 
Q 2853 3084 3261 2657 
Q 3669 2231 3669 1497 
Q 3669 778 3244 343 
Q 2819 -91 2113 -91 
Q 1303 -91 875 529 
Q 447 1150 447 2328 
Q 447 3434 972 4092 
Q 1497 4750 2381 4750 
Q 2619 4750 2861 4703 
Q 3103 4656 3366 4563 
z
" transform="scale(0.015625)"/>
       </defs>
       <use xlink:href="#DejaVuSans-31"/>
       <use xlink:href="#DejaVuSans-36" x="63.623047"/>
       <use xlink:href="#DejaVuSans-30" x="127.246094"/>
       <use xlink:href="#DejaVuSans-30" x="190.869141"/>
      </g>
     </g>
    </g>
    <g id="ytick_4">
     <g id="line2d_27">
      <path d="M 108 216.822122 
L 777.6 216.822122 
" clip-path="url(#p61ce8629a1)" style="fill: none; stroke-dasharray: 5.12,1.28,0.8,1.28; stroke-dashoffset: 0; stroke: #b0b0b0; stroke-width: 0.8"/>
     </g>
     <g id="line2d_28">
      <g>
       <use xlink:href="#mbf1bda5347" x="108" y="216.822122" style="fill: #a9a9a9; stroke: #a9a9a9; stroke-width: 0.8"/>
      </g>
     </g>
     <g id="text_14">
      <!-- 2400 -->
      <g style="fill: #a9a9a9" transform="translate(75.55 220.621341) scale(0.1 -0.1)">
       <use xlink:href="#DejaVuSans-32"/>
       <use xlink:href="#DejaVuSans-34" x="63.623047"/>
       <use xlink:href="#DejaVuSans-30" x="127.246094"/>
       <use xlink:href="#DejaVuSans-30" x="190.869141"/>
      </g>
     </g>
    </g>
    <g id="ytick_5">
     <g id="line2d_29">
      <path d="M 108 186.483521 
L 777.6 186.483521 
" clip-path="url(#p61ce8629a1)" style="fill: none; stroke-dasharray: 5.12,1.28,0.8,1.28; stroke-dashoffset: 0; stroke: #b0b0b0; stroke-width: 0.8"/>
     </g>
     <g id="line2d_30">
      <g>
       <use xlink:href="#mbf1bda5347" x="108" y="186.483521" style="fill: #a9a9a9; stroke: #a9a9a9; stroke-width: 0.8"/>
      </g>
     </g>
     <g id="text_15">
      <!-- 3200 -->
      <g style="fill: #a9a9a9" transform="translate(75.55 190.28274) scale(0.1 -0.1)">
       <use xlink:href="#DejaVuSans-33"/>
       <use xlink:href="#DejaVuSans-32" x="63.623047"/>
       <use xlink:href="#DejaVuSans-30" x="127.246094"/>
       <use xlink:href="#DejaVuSans-30" x="190.869141"/>
      </g>
     </g>
    </g>
    <g id="ytick_6">
     <g id="line2d_31">
      <path d="M 108 156.144921 
L 777.6 156.144921 
" clip-path="url(#p61ce8629a1)" style="fill: none; stroke-dasharray: 5.12,1.28,0.8,1.28; stroke-dashoffset: 0; stroke: #b0b0b0; stroke-width: 0.8"/>
     </g>
     <g id="line2d_32">
      <g>
       <use xlink:href="#mbf1bda5347" x="108" y="156.144921" style="fill: #a9a9a9; stroke: #a9a9a9; stroke-width: 0.8"/>
      </g>
     </g>
     <g id="text_16">
      <!-- 4000 -->
      <g style="fill: #a9a9a9" transform="translate(75.55 159.94414) scale(0.1 -0.1)">
       <use xlink:href="#DejaVuSans-34"/>
       <use xlink:href="#DejaVuSans-30" x="63.623047"/>
       <use xlink:href="#DejaVuSans-30" x="127.246094"/>
       <use xlink:href="#DejaVuSans-30" x="190.869141"/>
      </g>
     </g>
    </g>
    <g id="ytick_7">
     <g id="line2d_33">
      <path d="M 108 125.806321 
L 777.6 125.806321 
" clip-path="url(#p61ce8629a1)" style="fill: none; stroke-dasharray: 5.12,1.28,0.8,1.28; stroke-dashoffset: 0; stroke: #b0b0b0; stroke-width: 0.8"/>
     </g>
     <g id="line2d_34">
      <g>
       <use xlink:href="#mbf1bda5347" x="108" y="125.806321" style="fill: #a9a9a9; stroke: #a9a9a9; stroke-width: 0.8"/>
      </g>
     </g>
     <g id="text_17">
      <!-- 4800 -->
      <g style="fill: #a9a9a9" transform="translate(75.55 129.605539) scale(0.1 -0.1)">
       <use xlink:href="#DejaVuSans-34"/>
       <use xlink:href="#DejaVuSans-38" x="63.623047"/>
       <use xlink:href="#DejaVuSans-30" x="127.246094"/>
       <use xlink:href="#DejaVuSans-30" x="190.869141"/>
      </g>
     </g>
    </g>
    <g id="ytick_8">
     <g id="line2d_35">
      <path d="M 108 95.46772 
L 777.6 95.46772 
" clip-path="url(#p61ce8629a1)" style="fill: none; stroke-dasharray: 5.12,1.28,0.8,1.28; stroke-dashoffset: 0; stroke: #b0b0b0; stroke-width: 0.8"/>
     </g>
     <g id="line2d_36">
      <g>
       <use xlink:href="#mbf1bda5347" x="108" y="95.46772" style="fill: #a9a9a9; stroke: #a9a9a9; stroke-width: 0.8"/>
      </g>
     </g>
     <g id="text_18">
      <!-- 5600 -->
      <g style="fill: #a9a9a9" transform="translate(75.55 99.266939) scale(0.1 -0.1)">
       <use xlink:href="#DejaVuSans-35"/>
       <use xlink:href="#DejaVuSans-36" x="63.623047"/>
       <use xlink:href="#DejaVuSans-30" x="127.246094"/>
       <use xlink:href="#DejaVuSans-30" x="190.869141"/>
      </g>
     </g>
    </g>
    <g id="ytick_9">
     <g id="line2d_37">
      <path d="M 108 65.12912 
L 777.6 65.12912 
" clip-path="url(#p61ce8629a1)" style="fill: none; stroke-dasharray: 5.12,1.28,0.8,1.28; stroke-dashoffset: 0; stroke: #b0b0b0; stroke-width: 0.8"/>
     </g>
     <g id="line2d_38">
      <g>
       <use xlink:href="#mbf1bda5347" x="108" y="65.12912" style="fill: #a9a9a9; stroke: #a9a9a9; stroke-width: 0.8"/>
      </g>
     </g>
     <g id="text_19">
      <!-- 6400 -->
      <g style="fill: #a9a9a9" transform="translate(75.55 68.928338) scale(0.1 -0.1)">
       <use xlink:href="#DejaVuSans-36"/>
       <use xlink:href="#DejaVuSans-34" x="63.623047"/>
       <use xlink:href="#DejaVuSans-30" x="127.246094"/>
       <use xlink:href="#DejaVuSans-30" x="190.869141"/>
      </g>
     </g>
    </g>
   </g>
   <g id="line2d_39">
    <path d="M 138.436364 307.724153 
L 141.626201 307.458691 
L 142.15784 307.231151 
L 143.752759 307.079458 
L 146.942596 306.434763 
L 150.132434 306.1693 
L 151.195713 305.752144 
L 151.727352 305.069526 
L 152.258992 304.690293 
L 152.790631 303.514673 
L 153.322271 303.438826 
L 153.85391 303.02167 
L 154.917189 302.490745 
L 157.043748 300.822122 
L 159.170306 299.798194 
L 160.765224 299.077652 
L 161.296864 298.243341 
L 162.360143 297.484876 
L 162.891782 297.257336 
L 168.208178 296.498871 
L 168.739817 296.271332 
L 172.461294 295.967946 
L 174.587852 295.474944 
L 178.840969 294.906095 
L 179.372608 294.602709 
L 179.904248 294.526862 
L 180.967527 294.185553 
L 184.689004 293.578781 
L 185.752283 293.275395 
L 187.347201 293.123702 
L 188.41048 293.009932 
L 191.068678 292.327314 
L 192.131957 292.251467 
L 193.195236 292.099774 
L 194.258515 291.872235 
L 194.790155 291.720542 
L 195.321794 291 
L 196.916713 290.393228 
L 198.511632 289.976072 
L 199.043271 289.710609 
L 199.574911 289.672686 
L 202.233108 288.914221 
L 203.296387 288.838375 
L 203.828027 288.762528 
L 205.422946 288.269526 
L 207.549504 287.7386 
L 208.081143 287.511061 
L 208.612783 287.435214 
L 209.144422 287.169752 
L 214.460818 286.373363 
L 217.119015 285.614898 
L 217.650655 285.273589 
L 220.308853 284.401354 
L 221.372132 283.680813 
L 222.96705 283.377427 
L 233.068202 280.457336 
L 234.131481 280.040181 
L 235.19476 279.964334 
L 236.789678 279.509255 
L 237.321318 279.509255 
L 237.852958 279.281716 
L 238.916237 279.167946 
L 239.447876 278.97833 
L 240.511155 278.940406 
L 242.637713 278.674944 
L 243.700992 278.144018 
L 250.080667 275.299774 
L 250.612306 274.730926 
L 251.675586 273.138149 
L 252.207225 272.986456 
L 252.738865 272.986456 
L 253.802144 272.190068 
L 255.397062 271.659142 
L 255.928702 271.16614 
L 256.991981 270.748984 
L 258.05526 270.255982 
L 259.118539 268.739052 
L 259.650179 268.397743 
L 260.181818 267.487585 
L 260.713458 266.918736 
L 263.903295 265.288036 
L 264.966574 264.453725 
L 265.498214 264.112415 
L 266.029853 263.316027 
L 266.561493 262.140406 
L 267.093132 261.344018 
L 267.624772 260.926862 
L 268.156411 260.699323 
L 269.75133 259.296163 
L 271.877888 257.551693 
L 272.409528 256.831151 
L 273.472807 255.88307 
L 275.599365 254.47991 
L 276.131004 254.024831 
L 276.662644 253.911061 
L 277.725923 253.342212 
L 279.852481 252.242438 
L 280.91576 251.21851 
L 281.4474 250.573815 
L 282.510679 249.81535 
L 283.573958 249.398194 
L 284.637237 248.677652 
L 285.168877 248.374266 
L 285.700516 248.29842 
L 289.421993 245.985102 
L 291.548551 244.847404 
L 292.080191 244.354402 
L 300.586423 241.396388 
L 301.649702 240.448307 
L 302.712981 239.955305 
L 303.77626 239.386456 
L 304.3079 239.08307 
L 305.371179 238.779684 
L 305.902819 238.438375 
L 306.434458 238.286682 
L 308.029377 237.262754 
L 310.687574 236.655982 
L 312.282493 235.745824 
L 312.814133 235.669977 
L 313.877412 235.404515 
L 314.409051 235.252822 
L 316.00397 234.039278 
L 317.598888 233.660045 
L 318.130528 233.470429 
L 318.662168 233.053273 
L 321.852005 231.991422 
L 322.383644 231.953499 
L 323.446923 231.536343 
L 327.70004 230.019413 
L 328.763319 229.86772 
L 330.358237 229.336795 
L 333.016435 228.085327 
L 335.142993 226.94763 
L 339.39611 225.241084 
L 339.927749 225.165237 
L 340.991028 224.520542 
L 341.522668 224.444695 
L 343.649226 223.57246 
L 345.775784 223.269074 
L 346.839063 222.738149 
L 347.370703 222.28307 
L 347.902342 221.334989 
L 349.497261 221.031603 
L 351.623819 219.969752 
L 352.155459 219.855982 
L 356.408575 217.84605 
L 358.003493 217.50474 
L 359.066773 216.973815 
L 359.598412 216.746275 
L 360.130052 216.670429 
L 362.25661 215.722348 
L 363.851528 214.736343 
L 364.383168 214.660497 
L 364.914807 214.47088 
L 365.446447 214.432957 
L 368.104645 213.788262 
L 368.636284 213.371106 
L 370.231203 212.802257 
L 372.357761 211.967946 
L 372.889401 211.588713 
L 373.42104 211.399097 
L 374.484319 210.830248 
L 377.142517 209.958014 
L 378.737435 208.706546 
L 379.269075 208.592777 
L 380.332354 207.758465 
L 380.863994 207.682619 
L 381.395633 206.848307 
L 381.927273 206.620767 
L 382.458912 206.203612 
L 382.990552 206.127765 
L 384.053831 205.48307 
L 384.58547 205.3693 
L 385.11711 205.141761 
L 385.64875 204.724605 
L 386.180389 204.534989 
L 387.775308 203.435214 
L 389.901866 202.33544 
L 390.433505 202.259594 
L 392.028424 201.463205 
L 392.560064 200.590971 
L 393.091703 200.135892 
L 393.623343 199.832506 
L 394.154982 199.718736 
L 395.218261 199.036117 
L 395.749901 198.922348 
L 396.81318 198.391422 
L 398.408098 197.708804 
L 399.471378 196.950339 
L 401.066296 195.509255 
L 402.129575 194.902483 
L 402.661215 194.333634 
L 404.787773 192.892551 
L 405.319412 192.285779 
L 405.851052 191.868623 
L 406.914331 191.489391 
L 407.97761 190.768849 
L 409.572529 189.97246 
L 410.104168 189.896614 
L 411.699087 189.062302 
L 412.762366 188.417607 
L 418.078761 186.521445 
L 418.610401 186.104289 
L 420.736959 185.307901 
L 421.268599 185.156208 
L 421.800238 184.739052 
L 424.458436 183.297968 
L 425.521715 181.21219 
L 426.584994 179.998646 
L 427.648273 179.35395 
L 429.243192 178.709255 
L 429.774831 178.633409 
L 430.306471 178.330023 
L 432.964669 177.495711 
L 433.496308 177.268172 
L 434.559587 176.54763 
L 436.154506 175.865011 
L 437.217785 175.296163 
L 437.749424 174.91693 
L 438.281064 174.689391 
L 438.812703 174.310158 
L 439.344343 173.741309 
L 440.407622 173.17246 
L 443.06582 171.7693 
L 446.255657 170.214447 
L 446.787297 170.100677 
L 448.382215 169.531828 
L 449.445494 169.114673 
L 449.977134 168.73544 
L 451.040413 168.432054 
L 452.103692 168.014898 
L 452.635331 167.597743 
L 453.698611 167.256433 
L 456.888448 165.625734 
L 457.951727 164.791422 
L 459.015006 164.41219 
L 459.546645 163.957111 
L 460.078285 163.881264 
L 461.141564 163.084876 
L 462.204843 162.55395 
L 462.736483 162.326411 
L 463.268122 161.795485 
L 466.989599 160.354402 
L 468.052878 159.899323 
L 469.647797 159.406321 
L 470.711076 159.254628 
L 471.242715 159.027088 
L 471.774355 158.951242 
L 472.837634 158.496163 
L 473.369274 158.458239 
L 475.495832 157.661851 
L 477.09075 156.562077 
L 479.748948 155.310609 
L 482.407146 153.869526 
L 482.938785 153.755756 
L 484.533704 152.845598 
L 486.128622 152.314673 
L 487.191902 151.973363 
L 489.31846 151.290745 
L 490.381739 150.949436 
L 491.976657 150.683973 
L 494.103216 150.001354 
L 494.634855 149.773815 
L 495.166495 149.697968 
L 495.698134 149.432506 
L 496.761413 149.242889 
L 498.356332 148.674041 
L 499.419611 148.560271 
L 501.01453 148.218962 
L 502.077809 148.029345 
L 503.141088 147.839729 
L 504.204367 147.61219 
L 504.736006 147.49842 
L 505.267646 147.27088 
L 505.799285 147.232957 
L 508.457483 146.360722 
L 508.989123 146.171106 
L 509.520762 146.171106 
L 515.368797 144.46456 
L 515.900437 144.199097 
L 516.432076 144.199097 
L 517.495355 143.819865 
L 518.026995 143.288939 
L 519.090274 142.871783 
L 522.280111 141.734086 
L 522.811751 141.392777 
L 523.34339 141.279007 
L 523.87503 140.975621 
L 524.938309 140.786005 
L 526.001588 140.368849 
L 526.533227 140.255079 
L 527.064867 139.91377 
L 527.596507 139.8 
L 528.128146 139.344921 
L 529.723065 139.041535 
L 530.786344 138.548533 
L 531.317983 137.979684 
L 533.444541 137.486682 
L 537.166018 136.728217 
L 537.697658 136.728217 
L 538.229297 136.500677 
L 540.355855 136.121445 
L 540.887495 135.893905 
L 543.014053 135.514673 
L 544.077332 135.059594 
L 544.608972 135.02167 
L 553.646844 132.32912 
L 554.178484 132.10158 
L 554.710123 131.722348 
L 555.773402 131.418962 
L 556.836681 131.077652 
L 557.89996 130.660497 
L 559.494879 129.977878 
L 561.089798 129.864108 
L 563.216356 129.257336 
L 563.747995 128.916027 
L 564.811274 128.612641 
L 567.469472 127.43702 
L 568.001112 127.399097 
L 573.849146 125.389165 
L 575.975705 124.858239 
L 577.038984 124.441084 
L 577.570623 124.213544 
L 578.633902 123.986005 
L 579.165542 123.872235 
L 579.697181 123.455079 
L 580.228821 123.189616 
L 580.760461 122.544921 
L 581.2921 122.165688 
L 582.355379 121.862302 
L 582.887019 121.445147 
L 585.545216 120.345372 
L 586.076856 120.231603 
L 586.608495 119.890293 
L 587.671775 119.586907 
L 588.203414 119.245598 
L 590.861612 118.373363 
L 592.45653 117.463205 
L 592.98817 117.349436 
L 594.051449 116.742664 
L 594.583089 116.515124 
L 595.646368 115.870429 
L 597.241286 115.111964 
L 597.772926 114.732731 
L 598.836205 114.391422 
L 599.899484 113.78465 
L 600.431123 113.595034 
L 600.962763 113.215801 
L 607.874077 110.826637 
L 608.405717 110.712867 
L 608.937356 110.371558 
L 609.468996 110.295711 
L 610.532275 110.030248 
L 611.595554 109.802709 
L 615.317031 107.982393 
L 615.84867 107.906546 
L 617.443589 107.034312 
L 620.633426 105.782844 
L 622.759984 104.948533 
L 623.291624 104.79684 
L 623.823263 104.45553 
L 624.886542 104.303837 
L 625.418182 103.962528 
L 625.949821 103.924605 
L 627.0131 103.583296 
L 628.07638 103.05237 
L 628.608019 102.976524 
L 631.266217 101.914673 
L 631.797856 101.800903 
L 632.861135 101.459594 
L 633.924414 101.194131 
L 634.987694 100.928668 
L 636.582612 100.321896 
L 638.70917 99.146275 
L 639.772449 98.72912 
L 640.304089 98.38781 
L 641.367368 98.160271 
L 641.899008 97.856885 
L 642.430647 97.743115 
L 644.025566 96.908804 
L 645.088845 96.491648 
L 646.683763 95.771106 
L 648.278682 95.35395 
L 651.468519 94.102483 
L 653.063438 93.571558 
L 661.038031 90.158465 
L 661.569671 90.082619 
L 663.696229 89.248307 
L 665.291147 88.376072 
L 665.822787 88.262302 
L 666.886066 87.845147 
L 667.417705 87.845147 
L 668.480985 87.390068 
L 669.544264 86.441986 
L 670.075903 85.986907 
L 671.670822 85.228442 
L 672.202461 85.114673 
L 672.734101 84.84921 
L 673.26574 84.773363 
L 673.79738 84.394131 
L 674.329019 84.280361 
L 675.392299 83.635666 
L 676.987217 82.839278 
L 678.050496 82.422122 
L 678.582136 82.156659 
L 680.177054 81.777427 
L 682.835252 80.905192 
L 683.366892 80.791422 
L 685.49345 79.767494 
L 686.556729 79.274492 
L 687.620008 79.009029 
L 691.341485 77.26456 
L 693.999682 76.316479 
L 695.594601 75.368397 
L 696.126241 75.254628 
L 697.18952 74.723702 
L 698.252799 74.34447 
L 698.784438 73.889391 
L 699.316078 73.586005 
L 700.910996 73.093002 
L 701.974276 72.37246 
L 702.505915 72.334537 
L 703.569194 72.031151 
L 704.100834 71.917381 
L 706.227392 71.120993 
L 707.82231 70.627991 
L 708.35395 70.552144 
L 709.417229 69.983296 
L 709.948869 69.793679 
L 710.480508 69.376524 
L 712.075427 68.959368 
L 712.607066 68.655982 
L 713.670345 68.390519 
L 715.265264 67.518284 
L 715.796904 67.480361 
L 717.391822 66.987359 
L 718.455101 66.873589 
L 719.51838 66.456433 
L 722.708218 65.546275 
L 723.771497 65.508352 
L 726.961334 64.484424 
L 727.492973 64.408578 
L 729.087892 63.574266 
L 729.619532 63.119187 
L 730.682811 62.474492 
L 732.277729 61.450564 
L 735.467566 60.35079 
L 735.999206 59.933634 
L 737.594125 59.213093 
L 738.125764 59.099323 
L 739.189043 58.606321 
L 740.783962 58.189165 
L 742.378881 57.506546 
L 743.44216 57.013544 
L 745.037078 56.368849 
L 745.568718 56.255079 
L 746.631997 55.8 
L 747.163636 55.8 
L 747.163636 55.8 
" clip-path="url(#p61ce8629a1)" style="fill: none; stroke: #1f77b4; stroke-width: 1.5; stroke-linecap: square"/>
   </g>
   <g id="line2d_40">
    <path d="M 138.968003 307.8 
L 140.562922 307.724153 
L 142.15784 307.68623 
L 145.347678 307.610384 
L 148.005875 307.496614 
L 150.132434 307.496614 
L 150.664073 307.344921 
L 152.790631 307.269074 
L 154.38555 307.079458 
L 155.980468 306.927765 
L 159.170306 306.776072 
L 159.701945 306.776072 
L 160.233585 306.662302 
L 162.360143 306.586456 
L 163.423422 306.510609 
L 167.676538 306.434763 
L 170.334736 306.320993 
L 176.71441 306.245147 
L 179.372608 306.131377 
L 182.562445 306.05553 
L 184.689004 305.979684 
L 189.473759 305.903837 
L 191.068678 305.865914 
L 192.663597 305.827991 
L 194.258515 305.638375 
L 197.448353 305.600451 
L 198.511632 305.524605 
L 202.233108 305.448758 
L 208.081143 305.107449 
L 211.80262 305.031603 
L 212.865899 304.955756 
L 214.460818 304.87991 
L 217.650655 304.728217 
L 219.777213 304.690293 
L 221.372132 304.5386 
L 228.283446 304.121445 
L 230.941644 304.045598 
L 235.726399 303.780135 
L 237.321318 303.704289 
L 242.637713 303.400903 
L 248.485748 303.325056 
L 250.612306 303.097517 
L 251.675586 303.02167 
L 258.5869 302.452822 
L 261.776737 302.035666 
L 263.903295 301.959819 
L 268.156411 301.390971 
L 271.346249 301.315124 
L 272.941167 301.163431 
L 274.004446 301.125508 
L 275.067725 301.011738 
L 276.662644 300.935892 
L 277.725923 300.784199 
L 280.384121 300.480813 
L 282.510679 300.404966 
L 283.573958 300.32912 
L 285.700516 300.253273 
L 286.763795 300.177427 
L 289.421993 299.911964 
L 290.485272 299.722348 
L 292.080191 299.684424 
L 293.14347 299.608578 
L 295.801667 299.532731 
L 302.712981 299.115576 
L 304.3079 299.039729 
L 311.219214 298.622573 
L 314.940691 298.546727 
L 315.47233 298.432957 
L 319.725447 298.357111 
L 323.446923 298.167494 
L 329.294958 298.091648 
L 333.016435 297.902032 
L 337.269551 297.826185 
L 341.522668 297.598646 
L 345.244145 297.522799 
L 355.345296 296.878104 
L 360.661691 296.802257 
L 362.788249 296.574718 
L 364.383168 296.536795 
L 365.978087 296.498871 
L 368.104645 296.271332 
L 373.42104 295.967946 
L 376.610877 295.892099 
L 378.205796 295.854176 
L 379.800715 295.816253 
L 381.395633 295.66456 
L 385.64875 295.588713 
L 386.712029 295.43702 
L 387.775308 295.361174 
L 390.433505 295.247404 
L 391.496784 295.171558 
L 392.560064 295.095711 
L 397.344819 295.019865 
L 398.408098 294.906095 
L 400.534657 294.868172 
L 401.066296 294.754402 
L 402.129575 294.678555 
L 402.661215 294.564786 
L 404.256133 294.488939 
L 409.040889 294.223476 
L 410.104168 294.185553 
L 411.699087 294.03386 
L 413.294006 293.995937 
L 414.888924 293.92009 
L 417.547122 293.806321 
L 424.990075 293.730474 
L 428.711552 293.540858 
L 432.964669 293.465011 
L 435.091227 293.389165 
L 437.217785 293.351242 
L 438.281064 293.237472 
L 440.407622 293.161625 
L 445.724017 292.858239 
L 448.913855 292.820316 
L 450.508773 292.668623 
L 452.103692 292.6307 
L 455.825169 292.554853 
L 457.951727 292.479007 
L 464.331401 292.40316 
L 466.989599 292.289391 
L 470.179436 292.213544 
L 471.774355 292.023928 
L 474.964192 291.986005 
L 476.559111 291.834312 
L 478.685669 291.758465 
L 485.065343 291.682619 
L 487.723541 291.568849 
L 496.761413 291.530926 
L 497.824692 291.455079 
L 499.419611 291.417156 
L 506.330925 291.341309 
L 507.394204 291.265463 
L 513.242239 291.189616 
L 515.368797 291.11377 
L 525.469948 291.037923 
L 527.064867 291 
L 531.849623 290.924153 
L 532.912902 290.848307 
L 545.672251 290.77246 
L 547.26717 290.734537 
L 561.621437 290.658691 
L 563.216356 290.620767 
L 572.785867 290.544921 
L 573.849146 290.469074 
L 576.507344 290.393228 
L 578.102263 290.241535 
L 580.760461 290.165688 
L 583.950298 290.013995 
L 588.203414 289.938149 
L 589.266693 289.862302 
L 593.519809 289.786456 
L 596.709647 289.634763 
L 599.367844 289.558916 
L 603.620961 289.331377 
L 606.810798 289.25553 
L 608.937356 289.179684 
L 615.84867 289.103837 
L 617.975228 289.027991 
L 622.228345 288.952144 
L 625.949821 288.762528 
L 630.734577 288.686682 
L 631.797856 288.610835 
L 641.367368 288.534989 
L 642.962287 288.497065 
L 645.620484 288.459142 
L 647.747042 288.231603 
L 649.341961 288.193679 
L 652.531798 288.117833 
L 657.848194 287.814447 
L 660.506391 287.7386 
L 662.63295 287.662754 
L 668.480985 287.586907 
L 671.139182 287.283521 
L 673.26574 287.207675 
L 676.987217 287.131828 
L 677.518857 287.018059 
L 682.303613 286.942212 
L 684.96181 286.828442 
L 691.873124 286.790519 
L 692.404764 286.676749 
L 696.65788 286.600903 
L 698.252799 286.56298 
L 700.910996 286.487133 
L 702.505915 286.44921 
L 711.543787 286.373363 
L 714.201985 286.259594 
L 721.644938 286.183747 
L 723.771497 286.107901 
L 729.619532 286.032054 
L 730.151171 285.918284 
L 735.467566 285.880361 
L 736.530846 285.804515 
L 739.189043 285.728668 
L 740.783962 285.690745 
L 747.163636 285.614898 
L 747.163636 285.614898 
" clip-path="url(#p61ce8629a1)" style="fill: none; stroke: #ff7f0e; stroke-width: 1.5; stroke-linecap: square"/>
   </g>
   <g id="patch_3">
    <path d="M 108 320.4 
L 108 43.2 
" style="fill: none; stroke: #a9a9a9; stroke-width: 0.8; stroke-linejoin: miter; stroke-linecap: square"/>
   </g>
   <g id="patch_4">
    <path d="M 777.6 320.4 
L 777.6 43.2 
" style="fill: none"/>
   </g>
   <g id="patch_5">
    <path d="M 108 320.4 
L 777.6 320.4 
" style="fill: none; stroke: #a9a9a9; stroke-width: 0.8; stroke-linejoin: miter; stroke-linecap: square"/>
   </g>
   <g id="patch_6">
    <path d="M 108 43.2 
L 777.6 43.2 
" style="fill: none"/>
   </g>
   <g id="text_20">
    <!-- get_subscribe history -->
    <g style="fill: #a9a9a9" transform="translate(378.6075 37.2) scale(0.12 -0.12)">
     <defs>
      <path id="DejaVuSans-67" d="M 2906 1791 
Q 2906 2416 2648 2759 
Q 2391 3103 1925 3103 
Q 1463 3103 1205 2759 
Q 947 2416 947 1791 
Q 947 1169 1205 825 
Q 1463 481 1925 481 
Q 2391 481 2648 825 
Q 2906 1169 2906 1791 
z
M 3481 434 
Q 3481 -459 3084 -895 
Q 2688 -1331 1869 -1331 
Q 1566 -1331 1297 -1286 
Q 1028 -1241 775 -1147 
L 775 -588 
Q 1028 -725 1275 -790 
Q 1522 -856 1778 -856 
Q 2344 -856 2625 -561 
Q 2906 -266 2906 331 
L 2906 616 
Q 2728 306 2450 153 
Q 2172 0 1784 0 
Q 1141 0 747 490 
Q 353 981 353 1791 
Q 353 2603 747 3093 
Q 1141 3584 1784 3584 
Q 2172 3584 2450 3431 
Q 2728 3278 2906 2969 
L 2906 3500 
L 3481 3500 
L 3481 434 
z
" transform="scale(0.015625)"/>
      <path id="DejaVuSans-65" d="M 3597 1894 
L 3597 1613 
L 953 1613 
Q 991 1019 1311 708 
Q 1631 397 2203 397 
Q 2534 397 2845 478 
Q 3156 559 3463 722 
L 3463 178 
Q 3153 47 2828 -22 
Q 2503 -91 2169 -91 
Q 1331 -91 842 396 
Q 353 884 353 1716 
Q 353 2575 817 3079 
Q 1281 3584 2069 3584 
Q 2775 3584 3186 3129 
Q 3597 2675 3597 1894 
z
M 3022 2063 
Q 3016 2534 2758 2815 
Q 2500 3097 2075 3097 
Q 1594 3097 1305 2825 
Q 1016 2553 972 2059 
L 3022 2063 
z
" transform="scale(0.015625)"/>
      <path id="DejaVuSans-74" d="M 1172 4494 
L 1172 3500 
L 2356 3500 
L 2356 3053 
L 1172 3053 
L 1172 1153 
Q 1172 725 1289 603 
Q 1406 481 1766 481 
L 2356 481 
L 2356 0 
L 1766 0 
Q 1100 0 847 248 
Q 594 497 594 1153 
L 594 3053 
L 172 3053 
L 172 3500 
L 594 3500 
L 594 4494 
L 1172 4494 
z
" transform="scale(0.015625)"/>
      <path id="DejaVuSans-5f" d="M 3263 -1063 
L 3263 -1509 
L -63 -1509 
L -63 -1063 
L 3263 -1063 
z
" transform="scale(0.015625)"/>
      <path id="DejaVuSans-73" d="M 2834 3397 
L 2834 2853 
Q 2591 2978 2328 3040 
Q 2066 3103 1784 3103 
Q 1356 3103 1142 2972 
Q 928 2841 928 2578 
Q 928 2378 1081 2264 
Q 1234 2150 1697 2047 
L 1894 2003 
Q 2506 1872 2764 1633 
Q 3022 1394 3022 966 
Q 3022 478 2636 193 
Q 2250 -91 1575 -91 
Q 1294 -91 989 -36 
Q 684 19 347 128 
L 347 722 
Q 666 556 975 473 
Q 1284 391 1588 391 
Q 1994 391 2212 530 
Q 2431 669 2431 922 
Q 2431 1156 2273 1281 
Q 2116 1406 1581 1522 
L 1381 1569 
Q 847 1681 609 1914 
Q 372 2147 372 2553 
Q 372 3047 722 3315 
Q 1072 3584 1716 3584 
Q 2034 3584 2315 3537 
Q 2597 3491 2834 3397 
z
" transform="scale(0.015625)"/>
      <path id="DejaVuSans-75" d="M 544 1381 
L 544 3500 
L 1119 3500 
L 1119 1403 
Q 1119 906 1312 657 
Q 1506 409 1894 409 
Q 2359 409 2629 706 
Q 2900 1003 2900 1516 
L 2900 3500 
L 3475 3500 
L 3475 0 
L 2900 0 
L 2900 538 
Q 2691 219 2414 64 
Q 2138 -91 1772 -91 
Q 1169 -91 856 284 
Q 544 659 544 1381 
z
M 1991 3584 
L 1991 3584 
z
" transform="scale(0.015625)"/>
      <path id="DejaVuSans-62" d="M 3116 1747 
Q 3116 2381 2855 2742 
Q 2594 3103 2138 3103 
Q 1681 3103 1420 2742 
Q 1159 2381 1159 1747 
Q 1159 1113 1420 752 
Q 1681 391 2138 391 
Q 2594 391 2855 752 
Q 3116 1113 3116 1747 
z
M 1159 2969 
Q 1341 3281 1617 3432 
Q 1894 3584 2278 3584 
Q 2916 3584 3314 3078 
Q 3713 2572 3713 1747 
Q 3713 922 3314 415 
Q 2916 -91 2278 -91 
Q 1894 -91 1617 61 
Q 1341 213 1159 525 
L 1159 0 
L 581 0 
L 581 4863 
L 1159 4863 
L 1159 2969 
z
" transform="scale(0.015625)"/>
      <path id="DejaVuSans-63" d="M 3122 3366 
L 3122 2828 
Q 2878 2963 2633 3030 
Q 2388 3097 2138 3097 
Q 1578 3097 1268 2742 
Q 959 2388 959 1747 
Q 959 1106 1268 751 
Q 1578 397 2138 397 
Q 2388 397 2633 464 
Q 2878 531 3122 666 
L 3122 134 
Q 2881 22 2623 -34 
Q 2366 -91 2075 -91 
Q 1284 -91 818 406 
Q 353 903 353 1747 
Q 353 2603 823 3093 
Q 1294 3584 2113 3584 
Q 2378 3584 2631 3529 
Q 2884 3475 3122 3366 
z
" transform="scale(0.015625)"/>
      <path id="DejaVuSans-72" d="M 2631 2963 
Q 2534 3019 2420 3045 
Q 2306 3072 2169 3072 
Q 1681 3072 1420 2755 
Q 1159 2438 1159 1844 
L 1159 0 
L 581 0 
L 581 3500 
L 1159 3500 
L 1159 2956 
Q 1341 3275 1631 3429 
Q 1922 3584 2338 3584 
Q 2397 3584 2469 3576 
Q 2541 3569 2628 3553 
L 2631 2963 
z
" transform="scale(0.015625)"/>
      <path id="DejaVuSans-69" d="M 603 3500 
L 1178 3500 
L 1178 0 
L 603 0 
L 603 3500 
z
M 603 4863 
L 1178 4863 
L 1178 4134 
L 603 4134 
L 603 4863 
z
" transform="scale(0.015625)"/>
      <path id="DejaVuSans-20" transform="scale(0.015625)"/>
      <path id="DejaVuSans-68" d="M 3513 2113 
L 3513 0 
L 2938 0 
L 2938 2094 
Q 2938 2591 2744 2837 
Q 2550 3084 2163 3084 
Q 1697 3084 1428 2787 
Q 1159 2491 1159 1978 
L 1159 0 
L 581 0 
L 581 4863 
L 1159 4863 
L 1159 2956 
Q 1366 3272 1645 3428 
Q 1925 3584 2291 3584 
Q 2894 3584 3203 3211 
Q 3513 2838 3513 2113 
z
" transform="scale(0.015625)"/>
      <path id="DejaVuSans-6f" d="M 1959 3097 
Q 1497 3097 1228 2736 
Q 959 2375 959 1747 
Q 959 1119 1226 758 
Q 1494 397 1959 397 
Q 2419 397 2687 759 
Q 2956 1122 2956 1747 
Q 2956 2369 2687 2733 
Q 2419 3097 1959 3097 
z
M 1959 3584 
Q 2709 3584 3137 3096 
Q 3566 2609 3566 1747 
Q 3566 888 3137 398 
Q 2709 -91 1959 -91 
Q 1206 -91 779 398 
Q 353 888 353 1747 
Q 353 2609 779 3096 
Q 1206 3584 1959 3584 
z
" transform="scale(0.015625)"/>
      <path id="DejaVuSans-79" d="M 2059 -325 
Q 1816 -950 1584 -1140 
Q 1353 -1331 966 -1331 
L 506 -1331 
L 506 -850 
L 844 -850 
Q 1081 -850 1212 -737 
Q 1344 -625 1503 -206 
L 1606 56 
L 191 3500 
L 800 3500 
L 1894 763 
L 2988 3500 
L 3597 3500 
L 2059 -325 
z
" transform="scale(0.015625)"/>
     </defs>
     <use xlink:href="#DejaVuSans-67"/>
     <use xlink:href="#DejaVuSans-65" x="63.476562"/>
     <use xlink:href="#DejaVuSans-74" x="125"/>
     <use xlink:href="#DejaVuSans-5f" x="164.208984"/>
     <use xlink:href="#DejaVuSans-73" x="214.208984"/>
     <use xlink:href="#DejaVuSans-75" x="266.308594"/>
     <use xlink:href="#DejaVuSans-62" x="329.6875"/>
     <use xlink:href="#DejaVuSans-73" x="393.164062"/>
     <use xlink:href="#DejaVuSans-63" x="445.263672"/>
     <use xlink:href="#DejaVuSans-72" x="500.244141"/>
     <use xlink:href="#DejaVuSans-69" x="541.357422"/>
     <use xlink:href="#DejaVuSans-62" x="569.140625"/>
     <use xlink:href="#DejaVuSans-65" x="632.617188"/>
     <use xlink:href="#DejaVuSans-20" x="694.140625"/>
     <use xlink:href="#DejaVuSans-68" x="725.927734"/>
     <use xlink:href="#DejaVuSans-69" x="789.306641"/>
     <use xlink:href="#DejaVuSans-73" x="817.089844"/>
     <use xlink:href="#DejaVuSans-74" x="869.189453"/>
     <use xlink:href="#DejaVuSans-6f" x="908.398438"/>
     <use xlink:href="#DejaVuSans-72" x="969.580078"/>
     <use xlink:href="#DejaVuSans-79" x="1010.693359"/>
    </g>
   </g>
   <g id="legend_1">
    <g id="line2d_41">
     <path d="M 815.08 328.498438 
L 825.08 328.498438 
L 835.08 328.498438 
" style="fill: none; stroke: #1f77b4; stroke-width: 1.5; stroke-linecap: square"/>
    </g>
    <g id="text_21">
     <!-- star -->
     <g style="fill: #a9a9a9" transform="translate(843.08 331.998438) scale(0.1 -0.1)">
      <defs>
       <path id="DejaVuSans-61" d="M 2194 1759 
Q 1497 1759 1228 1600 
Q 959 1441 959 1056 
Q 959 750 1161 570 
Q 1363 391 1709 391 
Q 2188 391 2477 730 
Q 2766 1069 2766 1631 
L 2766 1759 
L 2194 1759 
z
M 3341 1997 
L 3341 0 
L 2766 0 
L 2766 531 
Q 2569 213 2275 61 
Q 1981 -91 1556 -91 
Q 1019 -91 701 211 
Q 384 513 384 1019 
Q 384 1609 779 1909 
Q 1175 2209 1959 2209 
L 2766 2209 
L 2766 2266 
Q 2766 2663 2505 2880 
Q 2244 3097 1772 3097 
Q 1472 3097 1187 3025 
Q 903 2953 641 2809 
L 641 3341 
Q 956 3463 1253 3523 
Q 1550 3584 1831 3584 
Q 2591 3584 2966 3190 
Q 3341 2797 3341 1997 
z
" transform="scale(0.015625)"/>
      </defs>
      <use xlink:href="#DejaVuSans-73"/>
      <use xlink:href="#DejaVuSans-74" x="52.099609"/>
      <use xlink:href="#DejaVuSans-61" x="91.308594"/>
      <use xlink:href="#DejaVuSans-72" x="152.587891"/>
     </g>
    </g>
    <g id="line2d_42">
     <path d="M 815.08 343.176562 
L 825.08 343.176562 
L 835.08 343.176562 
" style="fill: none; stroke: #ff7f0e; stroke-width: 1.5; stroke-linecap: square"/>
    </g>
    <g id="text_22">
     <!-- fork -->
     <g style="fill: #a9a9a9" transform="translate(843.08 346.676562) scale(0.1 -0.1)">
      <defs>
       <path id="DejaVuSans-66" d="M 2375 4863 
L 2375 4384 
L 1825 4384 
Q 1516 4384 1395 4259 
Q 1275 4134 1275 3809 
L 1275 3500 
L 2222 3500 
L 2222 3053 
L 1275 3053 
L 1275 0 
L 697 0 
L 697 3053 
L 147 3053 
L 147 3500 
L 697 3500 
L 697 3744 
Q 697 4328 969 4595 
Q 1241 4863 1831 4863 
L 2375 4863 
z
" transform="scale(0.015625)"/>
       <path id="DejaVuSans-6b" d="M 581 4863 
L 1159 4863 
L 1159 1991 
L 2875 3500 
L 3609 3500 
L 1753 1863 
L 3688 0 
L 2938 0 
L 1159 1709 
L 1159 0 
L 581 0 
L 581 4863 
z
" transform="scale(0.015625)"/>
      </defs>
      <use xlink:href="#DejaVuSans-66"/>
      <use xlink:href="#DejaVuSans-6f" x="35.205078"/>
      <use xlink:href="#DejaVuSans-72" x="96.386719"/>
      <use xlink:href="#DejaVuSans-6b" x="137.5"/>
     </g>
    </g>
   </g>
  </g>
 </g>
 <defs>
  <clipPath id="p61ce8629a1">
   <rect x="108" y="43.2" width="669.6" height="277.2"/>
  </clipPath>
 </defs>
</svg>
