<?xml version="1.0" encoding="utf-8" standalone="no"?>
<!DOCTYPE svg PUBLIC "-//W3C//DTD SVG 1.1//EN"
  "http://www.w3.org/Graphics/SVG/1.1/DTD/svg11.dtd">
<svg xmlns:xlink="http://www.w3.org/1999/xlink" width="864pt" height="360pt" viewBox="0 0 864 360" xmlns="http://www.w3.org/2000/svg" version="1.1">
 <metadata>
  <rdf:RDF xmlns:dc="http://purl.org/dc/elements/1.1/" xmlns:cc="http://creativecommons.org/ns#" xmlns:rdf="http://www.w3.org/1999/02/22-rdf-syntax-ns#">
   <cc:Work>
    <dc:type rdf:resource="http://purl.org/dc/dcmitype/StillImage"/>
    <dc:date>2024-09-12T08:13:00.646550</dc:date>
    <dc:format>image/svg+xml</dc:format>
    <dc:creator>
     <cc:Agent>
      <dc:title>Matplotlib v3.9.2, https://matplotlib.org/</dc:title>
     </cc:Agent>
    </dc:creator>
   </cc:Work>
  </rdf:RDF>
 </metadata>
 <defs>
  <style type="text/css">*{stroke-linejoin: round; stroke-linecap: butt}</style>
 </defs>
 <g id="figure_1">
  <g id="patch_1">
   <path d="M 0 360 
L 864 360 
L 864 0 
L 0 0 
L 0 360 
z
" style="fill: none; opacity: 0"/>
  </g>
  <g id="axes_1">
   <g id="patch_2">
    <path d="M 108 320.4 
L 777.6 320.4 
L 777.6 43.2 
L 108 43.2 
L 108 320.4 
z
" style="fill: none; opacity: 0"/>
   </g>
   <g id="matplotlib.axis_1">
    <g id="xtick_1">
     <g id="line2d_1">
      <path d="M 159.152213 320.4 
L 159.152213 43.2 
" clip-path="url(#p41d22157e2)" style="fill: none; stroke-dasharray: 5.12,1.28,0.8,1.28; stroke-dashoffset: 0; stroke: #b0b0b0; stroke-width: 0.8"/>
     </g>
     <g id="line2d_2">
      <defs>
       <path id="m0972e9bc07" d="M 0 0 
L 0 3.5 
" style="stroke: #a9a9a9; stroke-width: 0.8"/>
      </defs>
      <g>
       <use xlink:href="#m0972e9bc07" x="159.152213" y="320.4" style="fill: #a9a9a9; stroke: #a9a9a9; stroke-width: 0.8"/>
      </g>
     </g>
     <g id="text_1">
      <!-- 2021-09 -->
      <g style="fill: #a9a9a9" transform="translate(138.260807 334.998438) scale(0.1 -0.1)">
       <defs>
        <path id="DejaVuSans-32" d="M 1228 531 
L 3431 531 
L 3431 0 
L 469 0 
L 469 531 
Q 828 903 1448 1529 
Q 2069 2156 2228 2338 
Q 2531 2678 2651 2914 
Q 2772 3150 2772 3378 
Q 2772 3750 2511 3984 
Q 2250 4219 1831 4219 
Q 1534 4219 1204 4116 
Q 875 4013 500 3803 
L 500 4441 
Q 881 4594 1212 4672 
Q 1544 4750 1819 4750 
Q 2544 4750 2975 4387 
Q 3406 4025 3406 3419 
Q 3406 3131 3298 2873 
Q 3191 2616 2906 2266 
Q 2828 2175 2409 1742 
Q 1991 1309 1228 531 
z
" transform="scale(0.015625)"/>
        <path id="DejaVuSans-30" d="M 2034 4250 
Q 1547 4250 1301 3770 
Q 1056 3291 1056 2328 
Q 1056 1369 1301 889 
Q 1547 409 2034 409 
Q 2525 409 2770 889 
Q 3016 1369 3016 2328 
Q 3016 3291 2770 3770 
Q 2525 4250 2034 4250 
z
M 2034 4750 
Q 2819 4750 3233 4129 
Q 3647 3509 3647 2328 
Q 3647 1150 3233 529 
Q 2819 -91 2034 -91 
Q 1250 -91 836 529 
Q 422 1150 422 2328 
Q 422 3509 836 4129 
Q 1250 4750 2034 4750 
z
" transform="scale(0.015625)"/>
        <path id="DejaVuSans-31" d="M 794 531 
L 1825 531 
L 1825 4091 
L 703 3866 
L 703 4441 
L 1819 4666 
L 2450 4666 
L 2450 531 
L 3481 531 
L 3481 0 
L 794 0 
L 794 531 
z
" transform="scale(0.015625)"/>
        <path id="DejaVuSans-2d" d="M 313 2009 
L 1997 2009 
L 1997 1497 
L 313 1497 
L 313 2009 
z
" transform="scale(0.015625)"/>
        <path id="DejaVuSans-39" d="M 703 97 
L 703 672 
Q 941 559 1184 500 
Q 1428 441 1663 441 
Q 2288 441 2617 861 
Q 2947 1281 2994 2138 
Q 2813 1869 2534 1725 
Q 2256 1581 1919 1581 
Q 1219 1581 811 2004 
Q 403 2428 403 3163 
Q 403 3881 828 4315 
Q 1253 4750 1959 4750 
Q 2769 4750 3195 4129 
Q 3622 3509 3622 2328 
Q 3622 1225 3098 567 
Q 2575 -91 1691 -91 
Q 1453 -91 1209 -44 
Q 966 3 703 97 
z
M 1959 2075 
Q 2384 2075 2632 2365 
Q 2881 2656 2881 3163 
Q 2881 3666 2632 3958 
Q 2384 4250 1959 4250 
Q 1534 4250 1286 3958 
Q 1038 3666 1038 3163 
Q 1038 2656 1286 2365 
Q 1534 2075 1959 2075 
z
" transform="scale(0.015625)"/>
       </defs>
       <use xlink:href="#DejaVuSans-32"/>
       <use xlink:href="#DejaVuSans-30" x="63.623047"/>
       <use xlink:href="#DejaVuSans-32" x="127.246094"/>
       <use xlink:href="#DejaVuSans-31" x="190.869141"/>
       <use xlink:href="#DejaVuSans-2d" x="254.492188"/>
       <use xlink:href="#DejaVuSans-30" x="290.576172"/>
       <use xlink:href="#DejaVuSans-39" x="354.199219"/>
      </g>
     </g>
    </g>
    <g id="xtick_2">
     <g id="line2d_3">
      <path d="M 223.95564 320.4 
L 223.95564 43.2 
" clip-path="url(#p41d22157e2)" style="fill: none; stroke-dasharray: 5.12,1.28,0.8,1.28; stroke-dashoffset: 0; stroke: #b0b0b0; stroke-width: 0.8"/>
     </g>
     <g id="line2d_4">
      <g>
       <use xlink:href="#m0972e9bc07" x="223.95564" y="320.4" style="fill: #a9a9a9; stroke: #a9a9a9; stroke-width: 0.8"/>
      </g>
     </g>
     <g id="text_2">
      <!-- 2022-01 -->
      <g style="fill: #a9a9a9" transform="translate(203.064234 334.998438) scale(0.1 -0.1)">
       <use xlink:href="#DejaVuSans-32"/>
       <use xlink:href="#DejaVuSans-30" x="63.623047"/>
       <use xlink:href="#DejaVuSans-32" x="127.246094"/>
       <use xlink:href="#DejaVuSans-32" x="190.869141"/>
       <use xlink:href="#DejaVuSans-2d" x="254.492188"/>
       <use xlink:href="#DejaVuSans-30" x="290.576172"/>
       <use xlink:href="#DejaVuSans-31" x="354.199219"/>
      </g>
     </g>
    </g>
    <g id="xtick_3">
     <g id="line2d_5">
      <path d="M 287.696716 320.4 
L 287.696716 43.2 
" clip-path="url(#p41d22157e2)" style="fill: none; stroke-dasharray: 5.12,1.28,0.8,1.28; stroke-dashoffset: 0; stroke: #b0b0b0; stroke-width: 0.8"/>
     </g>
     <g id="line2d_6">
      <g>
       <use xlink:href="#m0972e9bc07" x="287.696716" y="320.4" style="fill: #a9a9a9; stroke: #a9a9a9; stroke-width: 0.8"/>
      </g>
     </g>
     <g id="text_3">
      <!-- 2022-05 -->
      <g style="fill: #a9a9a9" transform="translate(266.80531 334.998438) scale(0.1 -0.1)">
       <defs>
        <path id="DejaVuSans-35" d="M 691 4666 
L 3169 4666 
L 3169 4134 
L 1269 4134 
L 1269 2991 
Q 1406 3038 1543 3061 
Q 1681 3084 1819 3084 
Q 2600 3084 3056 2656 
Q 3513 2228 3513 1497 
Q 3513 744 3044 326 
Q 2575 -91 1722 -91 
Q 1428 -91 1123 -41 
Q 819 9 494 109 
L 494 744 
Q 775 591 1075 516 
Q 1375 441 1709 441 
Q 2250 441 2565 725 
Q 2881 1009 2881 1497 
Q 2881 1984 2565 2268 
Q 2250 2553 1709 2553 
Q 1456 2553 1204 2497 
Q 953 2441 691 2322 
L 691 4666 
z
" transform="scale(0.015625)"/>
       </defs>
       <use xlink:href="#DejaVuSans-32"/>
       <use xlink:href="#DejaVuSans-30" x="63.623047"/>
       <use xlink:href="#DejaVuSans-32" x="127.246094"/>
       <use xlink:href="#DejaVuSans-32" x="190.869141"/>
       <use xlink:href="#DejaVuSans-2d" x="254.492188"/>
       <use xlink:href="#DejaVuSans-30" x="290.576172"/>
       <use xlink:href="#DejaVuSans-35" x="354.199219"/>
      </g>
     </g>
    </g>
    <g id="xtick_4">
     <g id="line2d_7">
      <path d="M 353.031318 320.4 
L 353.031318 43.2 
" clip-path="url(#p41d22157e2)" style="fill: none; stroke-dasharray: 5.12,1.28,0.8,1.28; stroke-dashoffset: 0; stroke: #b0b0b0; stroke-width: 0.8"/>
     </g>
     <g id="line2d_8">
      <g>
       <use xlink:href="#m0972e9bc07" x="353.031318" y="320.4" style="fill: #a9a9a9; stroke: #a9a9a9; stroke-width: 0.8"/>
      </g>
     </g>
     <g id="text_4">
      <!-- 2022-09 -->
      <g style="fill: #a9a9a9" transform="translate(332.139912 334.998438) scale(0.1 -0.1)">
       <use xlink:href="#DejaVuSans-32"/>
       <use xlink:href="#DejaVuSans-30" x="63.623047"/>
       <use xlink:href="#DejaVuSans-32" x="127.246094"/>
       <use xlink:href="#DejaVuSans-32" x="190.869141"/>
       <use xlink:href="#DejaVuSans-2d" x="254.492188"/>
       <use xlink:href="#DejaVuSans-30" x="290.576172"/>
       <use xlink:href="#DejaVuSans-39" x="354.199219"/>
      </g>
     </g>
    </g>
    <g id="xtick_5">
     <g id="line2d_9">
      <path d="M 417.834745 320.4 
L 417.834745 43.2 
" clip-path="url(#p41d22157e2)" style="fill: none; stroke-dasharray: 5.12,1.28,0.8,1.28; stroke-dashoffset: 0; stroke: #b0b0b0; stroke-width: 0.8"/>
     </g>
     <g id="line2d_10">
      <g>
       <use xlink:href="#m0972e9bc07" x="417.834745" y="320.4" style="fill: #a9a9a9; stroke: #a9a9a9; stroke-width: 0.8"/>
      </g>
     </g>
     <g id="text_5">
      <!-- 2023-01 -->
      <g style="fill: #a9a9a9" transform="translate(396.943339 334.998438) scale(0.1 -0.1)">
       <defs>
        <path id="DejaVuSans-33" d="M 2597 2516 
Q 3050 2419 3304 2112 
Q 3559 1806 3559 1356 
Q 3559 666 3084 287 
Q 2609 -91 1734 -91 
Q 1441 -91 1130 -33 
Q 819 25 488 141 
L 488 750 
Q 750 597 1062 519 
Q 1375 441 1716 441 
Q 2309 441 2620 675 
Q 2931 909 2931 1356 
Q 2931 1769 2642 2001 
Q 2353 2234 1838 2234 
L 1294 2234 
L 1294 2753 
L 1863 2753 
Q 2328 2753 2575 2939 
Q 2822 3125 2822 3475 
Q 2822 3834 2567 4026 
Q 2313 4219 1838 4219 
Q 1578 4219 1281 4162 
Q 984 4106 628 3988 
L 628 4550 
Q 988 4650 1302 4700 
Q 1616 4750 1894 4750 
Q 2613 4750 3031 4423 
Q 3450 4097 3450 3541 
Q 3450 3153 3228 2886 
Q 3006 2619 2597 2516 
z
" transform="scale(0.015625)"/>
       </defs>
       <use xlink:href="#DejaVuSans-32"/>
       <use xlink:href="#DejaVuSans-30" x="63.623047"/>
       <use xlink:href="#DejaVuSans-32" x="127.246094"/>
       <use xlink:href="#DejaVuSans-33" x="190.869141"/>
       <use xlink:href="#DejaVuSans-2d" x="254.492188"/>
       <use xlink:href="#DejaVuSans-30" x="290.576172"/>
       <use xlink:href="#DejaVuSans-31" x="354.199219"/>
      </g>
     </g>
    </g>
    <g id="xtick_6">
     <g id="line2d_11">
      <path d="M 481.575821 320.4 
L 481.575821 43.2 
" clip-path="url(#p41d22157e2)" style="fill: none; stroke-dasharray: 5.12,1.28,0.8,1.28; stroke-dashoffset: 0; stroke: #b0b0b0; stroke-width: 0.8"/>
     </g>
     <g id="line2d_12">
      <g>
       <use xlink:href="#m0972e9bc07" x="481.575821" y="320.4" style="fill: #a9a9a9; stroke: #a9a9a9; stroke-width: 0.8"/>
      </g>
     </g>
     <g id="text_6">
      <!-- 2023-05 -->
      <g style="fill: #a9a9a9" transform="translate(460.684415 334.998438) scale(0.1 -0.1)">
       <use xlink:href="#DejaVuSans-32"/>
       <use xlink:href="#DejaVuSans-30" x="63.623047"/>
       <use xlink:href="#DejaVuSans-32" x="127.246094"/>
       <use xlink:href="#DejaVuSans-33" x="190.869141"/>
       <use xlink:href="#DejaVuSans-2d" x="254.492188"/>
       <use xlink:href="#DejaVuSans-30" x="290.576172"/>
       <use xlink:href="#DejaVuSans-35" x="354.199219"/>
      </g>
     </g>
    </g>
    <g id="xtick_7">
     <g id="line2d_13">
      <path d="M 546.910424 320.4 
L 546.910424 43.2 
" clip-path="url(#p41d22157e2)" style="fill: none; stroke-dasharray: 5.12,1.28,0.8,1.28; stroke-dashoffset: 0; stroke: #b0b0b0; stroke-width: 0.8"/>
     </g>
     <g id="line2d_14">
      <g>
       <use xlink:href="#m0972e9bc07" x="546.910424" y="320.4" style="fill: #a9a9a9; stroke: #a9a9a9; stroke-width: 0.8"/>
      </g>
     </g>
     <g id="text_7">
      <!-- 2023-09 -->
      <g style="fill: #a9a9a9" transform="translate(526.019017 334.998438) scale(0.1 -0.1)">
       <use xlink:href="#DejaVuSans-32"/>
       <use xlink:href="#DejaVuSans-30" x="63.623047"/>
       <use xlink:href="#DejaVuSans-32" x="127.246094"/>
       <use xlink:href="#DejaVuSans-33" x="190.869141"/>
       <use xlink:href="#DejaVuSans-2d" x="254.492188"/>
       <use xlink:href="#DejaVuSans-30" x="290.576172"/>
       <use xlink:href="#DejaVuSans-39" x="354.199219"/>
      </g>
     </g>
    </g>
    <g id="xtick_8">
     <g id="line2d_15">
      <path d="M 611.713851 320.4 
L 611.713851 43.2 
" clip-path="url(#p41d22157e2)" style="fill: none; stroke-dasharray: 5.12,1.28,0.8,1.28; stroke-dashoffset: 0; stroke: #b0b0b0; stroke-width: 0.8"/>
     </g>
     <g id="line2d_16">
      <g>
       <use xlink:href="#m0972e9bc07" x="611.713851" y="320.4" style="fill: #a9a9a9; stroke: #a9a9a9; stroke-width: 0.8"/>
      </g>
     </g>
     <g id="text_8">
      <!-- 2024-01 -->
      <g style="fill: #a9a9a9" transform="translate(590.822444 334.998438) scale(0.1 -0.1)">
       <defs>
        <path id="DejaVuSans-34" d="M 2419 4116 
L 825 1625 
L 2419 1625 
L 2419 4116 
z
M 2253 4666 
L 3047 4666 
L 3047 1625 
L 3713 1625 
L 3713 1100 
L 3047 1100 
L 3047 0 
L 2419 0 
L 2419 1100 
L 313 1100 
L 313 1709 
L 2253 4666 
z
" transform="scale(0.015625)"/>
       </defs>
       <use xlink:href="#DejaVuSans-32"/>
       <use xlink:href="#DejaVuSans-30" x="63.623047"/>
       <use xlink:href="#DejaVuSans-32" x="127.246094"/>
       <use xlink:href="#DejaVuSans-34" x="190.869141"/>
       <use xlink:href="#DejaVuSans-2d" x="254.492188"/>
       <use xlink:href="#DejaVuSans-30" x="290.576172"/>
       <use xlink:href="#DejaVuSans-31" x="354.199219"/>
      </g>
     </g>
    </g>
    <g id="xtick_9">
     <g id="line2d_17">
      <path d="M 675.986102 320.4 
L 675.986102 43.2 
" clip-path="url(#p41d22157e2)" style="fill: none; stroke-dasharray: 5.12,1.28,0.8,1.28; stroke-dashoffset: 0; stroke: #b0b0b0; stroke-width: 0.8"/>
     </g>
     <g id="line2d_18">
      <g>
       <use xlink:href="#m0972e9bc07" x="675.986102" y="320.4" style="fill: #a9a9a9; stroke: #a9a9a9; stroke-width: 0.8"/>
      </g>
     </g>
     <g id="text_9">
      <!-- 2024-05 -->
      <g style="fill: #a9a9a9" transform="translate(655.094696 334.998438) scale(0.1 -0.1)">
       <use xlink:href="#DejaVuSans-32"/>
       <use xlink:href="#DejaVuSans-30" x="63.623047"/>
       <use xlink:href="#DejaVuSans-32" x="127.246094"/>
       <use xlink:href="#DejaVuSans-34" x="190.869141"/>
       <use xlink:href="#DejaVuSans-2d" x="254.492188"/>
       <use xlink:href="#DejaVuSans-30" x="290.576172"/>
       <use xlink:href="#DejaVuSans-35" x="354.199219"/>
      </g>
     </g>
    </g>
    <g id="xtick_10">
     <g id="line2d_19">
      <path d="M 741.320704 320.4 
L 741.320704 43.2 
" clip-path="url(#p41d22157e2)" style="fill: none; stroke-dasharray: 5.12,1.28,0.8,1.28; stroke-dashoffset: 0; stroke: #b0b0b0; stroke-width: 0.8"/>
     </g>
     <g id="line2d_20">
      <g>
       <use xlink:href="#m0972e9bc07" x="741.320704" y="320.4" style="fill: #a9a9a9; stroke: #a9a9a9; stroke-width: 0.8"/>
      </g>
     </g>
     <g id="text_10">
      <!-- 2024-09 -->
      <g style="fill: #a9a9a9" transform="translate(720.429298 334.998438) scale(0.1 -0.1)">
       <use xlink:href="#DejaVuSans-32"/>
       <use xlink:href="#DejaVuSans-30" x="63.623047"/>
       <use xlink:href="#DejaVuSans-32" x="127.246094"/>
       <use xlink:href="#DejaVuSans-34" x="190.869141"/>
       <use xlink:href="#DejaVuSans-2d" x="254.492188"/>
       <use xlink:href="#DejaVuSans-30" x="290.576172"/>
       <use xlink:href="#DejaVuSans-39" x="354.199219"/>
      </g>
     </g>
    </g>
   </g>
   <g id="matplotlib.axis_2">
    <g id="ytick_1">
     <g id="line2d_21">
      <path d="M 108 307.837872 
L 777.6 307.837872 
" clip-path="url(#p41d22157e2)" style="fill: none; stroke-dasharray: 5.12,1.28,0.8,1.28; stroke-dashoffset: 0; stroke: #b0b0b0; stroke-width: 0.8"/>
     </g>
     <g id="line2d_22">
      <defs>
       <path id="m79de7ff36f" d="M 0 0 
L -3.5 0 
" style="stroke: #a9a9a9; stroke-width: 0.8"/>
      </defs>
      <g>
       <use xlink:href="#m79de7ff36f" x="108" y="307.837872" style="fill: #a9a9a9; stroke: #a9a9a9; stroke-width: 0.8"/>
      </g>
     </g>
     <g id="text_11">
      <!-- 0 -->
      <g style="fill: #a9a9a9" transform="translate(94.6375 311.637091) scale(0.1 -0.1)">
       <use xlink:href="#DejaVuSans-30"/>
      </g>
     </g>
    </g>
    <g id="ytick_2">
     <g id="line2d_23">
      <path d="M 108 277.540307 
L 777.6 277.540307 
" clip-path="url(#p41d22157e2)" style="fill: none; stroke-dasharray: 5.12,1.28,0.8,1.28; stroke-dashoffset: 0; stroke: #b0b0b0; stroke-width: 0.8"/>
     </g>
     <g id="line2d_24">
      <g>
       <use xlink:href="#m79de7ff36f" x="108" y="277.540307" style="fill: #a9a9a9; stroke: #a9a9a9; stroke-width: 0.8"/>
      </g>
     </g>
     <g id="text_12">
      <!-- 800 -->
      <g style="fill: #a9a9a9" transform="translate(81.9125 281.339525) scale(0.1 -0.1)">
       <defs>
        <path id="DejaVuSans-38" d="M 2034 2216 
Q 1584 2216 1326 1975 
Q 1069 1734 1069 1313 
Q 1069 891 1326 650 
Q 1584 409 2034 409 
Q 2484 409 2743 651 
Q 3003 894 3003 1313 
Q 3003 1734 2745 1975 
Q 2488 2216 2034 2216 
z
M 1403 2484 
Q 997 2584 770 2862 
Q 544 3141 544 3541 
Q 544 4100 942 4425 
Q 1341 4750 2034 4750 
Q 2731 4750 3128 4425 
Q 3525 4100 3525 3541 
Q 3525 3141 3298 2862 
Q 3072 2584 2669 2484 
Q 3125 2378 3379 2068 
Q 3634 1759 3634 1313 
Q 3634 634 3220 271 
Q 2806 -91 2034 -91 
Q 1263 -91 848 271 
Q 434 634 434 1313 
Q 434 1759 690 2068 
Q 947 2378 1403 2484 
z
M 1172 3481 
Q 1172 3119 1398 2916 
Q 1625 2713 2034 2713 
Q 2441 2713 2670 2916 
Q 2900 3119 2900 3481 
Q 2900 3844 2670 4047 
Q 2441 4250 2034 4250 
Q 1625 4250 1398 4047 
Q 1172 3844 1172 3481 
z
" transform="scale(0.015625)"/>
       </defs>
       <use xlink:href="#DejaVuSans-38"/>
       <use xlink:href="#DejaVuSans-30" x="63.623047"/>
       <use xlink:href="#DejaVuSans-30" x="127.246094"/>
      </g>
     </g>
    </g>
    <g id="ytick_3">
     <g id="line2d_25">
      <path d="M 108 247.242741 
L 777.6 247.242741 
" clip-path="url(#p41d22157e2)" style="fill: none; stroke-dasharray: 5.12,1.28,0.8,1.28; stroke-dashoffset: 0; stroke: #b0b0b0; stroke-width: 0.8"/>
     </g>
     <g id="line2d_26">
      <g>
       <use xlink:href="#m79de7ff36f" x="108" y="247.242741" style="fill: #a9a9a9; stroke: #a9a9a9; stroke-width: 0.8"/>
      </g>
     </g>
     <g id="text_13">
      <!-- 1600 -->
      <g style="fill: #a9a9a9" transform="translate(75.55 251.04196) scale(0.1 -0.1)">
       <defs>
        <path id="DejaVuSans-36" d="M 2113 2584 
Q 1688 2584 1439 2293 
Q 1191 2003 1191 1497 
Q 1191 994 1439 701 
Q 1688 409 2113 409 
Q 2538 409 2786 701 
Q 3034 994 3034 1497 
Q 3034 2003 2786 2293 
Q 2538 2584 2113 2584 
z
M 3366 4563 
L 3366 3988 
Q 3128 4100 2886 4159 
Q 2644 4219 2406 4219 
Q 1781 4219 1451 3797 
Q 1122 3375 1075 2522 
Q 1259 2794 1537 2939 
Q 1816 3084 2150 3084 
Q 2853 3084 3261 2657 
Q 3669 2231 3669 1497 
Q 3669 778 3244 343 
Q 2819 -91 2113 -91 
Q 1303 -91 875 529 
Q 447 1150 447 2328 
Q 447 3434 972 4092 
Q 1497 4750 2381 4750 
Q 2619 4750 2861 4703 
Q 3103 4656 3366 4563 
z
" transform="scale(0.015625)"/>
       </defs>
       <use xlink:href="#DejaVuSans-31"/>
       <use xlink:href="#DejaVuSans-36" x="63.623047"/>
       <use xlink:href="#DejaVuSans-30" x="127.246094"/>
       <use xlink:href="#DejaVuSans-30" x="190.869141"/>
      </g>
     </g>
    </g>
    <g id="ytick_4">
     <g id="line2d_27">
      <path d="M 108 216.945176 
L 777.6 216.945176 
" clip-path="url(#p41d22157e2)" style="fill: none; stroke-dasharray: 5.12,1.28,0.8,1.28; stroke-dashoffset: 0; stroke: #b0b0b0; stroke-width: 0.8"/>
     </g>
     <g id="line2d_28">
      <g>
       <use xlink:href="#m79de7ff36f" x="108" y="216.945176" style="fill: #a9a9a9; stroke: #a9a9a9; stroke-width: 0.8"/>
      </g>
     </g>
     <g id="text_14">
      <!-- 2400 -->
      <g style="fill: #a9a9a9" transform="translate(75.55 220.744395) scale(0.1 -0.1)">
       <use xlink:href="#DejaVuSans-32"/>
       <use xlink:href="#DejaVuSans-34" x="63.623047"/>
       <use xlink:href="#DejaVuSans-30" x="127.246094"/>
       <use xlink:href="#DejaVuSans-30" x="190.869141"/>
      </g>
     </g>
    </g>
    <g id="ytick_5">
     <g id="line2d_29">
      <path d="M 108 186.64761 
L 777.6 186.64761 
" clip-path="url(#p41d22157e2)" style="fill: none; stroke-dasharray: 5.12,1.28,0.8,1.28; stroke-dashoffset: 0; stroke: #b0b0b0; stroke-width: 0.8"/>
     </g>
     <g id="line2d_30">
      <g>
       <use xlink:href="#m79de7ff36f" x="108" y="186.64761" style="fill: #a9a9a9; stroke: #a9a9a9; stroke-width: 0.8"/>
      </g>
     </g>
     <g id="text_15">
      <!-- 3200 -->
      <g style="fill: #a9a9a9" transform="translate(75.55 190.446829) scale(0.1 -0.1)">
       <use xlink:href="#DejaVuSans-33"/>
       <use xlink:href="#DejaVuSans-32" x="63.623047"/>
       <use xlink:href="#DejaVuSans-30" x="127.246094"/>
       <use xlink:href="#DejaVuSans-30" x="190.869141"/>
      </g>
     </g>
    </g>
    <g id="ytick_6">
     <g id="line2d_31">
      <path d="M 108 156.350045 
L 777.6 156.350045 
" clip-path="url(#p41d22157e2)" style="fill: none; stroke-dasharray: 5.12,1.28,0.8,1.28; stroke-dashoffset: 0; stroke: #b0b0b0; stroke-width: 0.8"/>
     </g>
     <g id="line2d_32">
      <g>
       <use xlink:href="#m79de7ff36f" x="108" y="156.350045" style="fill: #a9a9a9; stroke: #a9a9a9; stroke-width: 0.8"/>
      </g>
     </g>
     <g id="text_16">
      <!-- 4000 -->
      <g style="fill: #a9a9a9" transform="translate(75.55 160.149264) scale(0.1 -0.1)">
       <use xlink:href="#DejaVuSans-34"/>
       <use xlink:href="#DejaVuSans-30" x="63.623047"/>
       <use xlink:href="#DejaVuSans-30" x="127.246094"/>
       <use xlink:href="#DejaVuSans-30" x="190.869141"/>
      </g>
     </g>
    </g>
    <g id="ytick_7">
     <g id="line2d_33">
      <path d="M 108 126.05248 
L 777.6 126.05248 
" clip-path="url(#p41d22157e2)" style="fill: none; stroke-dasharray: 5.12,1.28,0.8,1.28; stroke-dashoffset: 0; stroke: #b0b0b0; stroke-width: 0.8"/>
     </g>
     <g id="line2d_34">
      <g>
       <use xlink:href="#m79de7ff36f" x="108" y="126.05248" style="fill: #a9a9a9; stroke: #a9a9a9; stroke-width: 0.8"/>
      </g>
     </g>
     <g id="text_17">
      <!-- 4800 -->
      <g style="fill: #a9a9a9" transform="translate(75.55 129.851698) scale(0.1 -0.1)">
       <use xlink:href="#DejaVuSans-34"/>
       <use xlink:href="#DejaVuSans-38" x="63.623047"/>
       <use xlink:href="#DejaVuSans-30" x="127.246094"/>
       <use xlink:href="#DejaVuSans-30" x="190.869141"/>
      </g>
     </g>
    </g>
    <g id="ytick_8">
     <g id="line2d_35">
      <path d="M 108 95.754914 
L 777.6 95.754914 
" clip-path="url(#p41d22157e2)" style="fill: none; stroke-dasharray: 5.12,1.28,0.8,1.28; stroke-dashoffset: 0; stroke: #b0b0b0; stroke-width: 0.8"/>
     </g>
     <g id="line2d_36">
      <g>
       <use xlink:href="#m79de7ff36f" x="108" y="95.754914" style="fill: #a9a9a9; stroke: #a9a9a9; stroke-width: 0.8"/>
      </g>
     </g>
     <g id="text_18">
      <!-- 5600 -->
      <g style="fill: #a9a9a9" transform="translate(75.55 99.554133) scale(0.1 -0.1)">
       <use xlink:href="#DejaVuSans-35"/>
       <use xlink:href="#DejaVuSans-36" x="63.623047"/>
       <use xlink:href="#DejaVuSans-30" x="127.246094"/>
       <use xlink:href="#DejaVuSans-30" x="190.869141"/>
      </g>
     </g>
    </g>
    <g id="ytick_9">
     <g id="line2d_37">
      <path d="M 108 65.457349 
L 777.6 65.457349 
" clip-path="url(#p41d22157e2)" style="fill: none; stroke-dasharray: 5.12,1.28,0.8,1.28; stroke-dashoffset: 0; stroke: #b0b0b0; stroke-width: 0.8"/>
     </g>
     <g id="line2d_38">
      <g>
       <use xlink:href="#m79de7ff36f" x="108" y="65.457349" style="fill: #a9a9a9; stroke: #a9a9a9; stroke-width: 0.8"/>
      </g>
     </g>
     <g id="text_19">
      <!-- 6400 -->
      <g style="fill: #a9a9a9" transform="translate(75.55 69.256568) scale(0.1 -0.1)">
       <use xlink:href="#DejaVuSans-36"/>
       <use xlink:href="#DejaVuSans-34" x="63.623047"/>
       <use xlink:href="#DejaVuSans-30" x="127.246094"/>
       <use xlink:href="#DejaVuSans-30" x="190.869141"/>
      </g>
     </g>
    </g>
   </g>
   <g id="line2d_39">
    <path d="M 138.436364 307.724256 
L 141.623417 307.459152 
L 142.154593 307.231921 
L 143.74812 307.080433 
L 147.466349 306.398738 
L 150.122228 306.171506 
L 151.184579 305.754914 
L 151.715754 305.073219 
L 152.24693 304.6945 
L 152.778106 303.520469 
L 153.309281 303.444725 
L 153.840457 303.028133 
L 154.902808 302.497926 
L 157.027511 300.83156 
L 159.152213 299.809017 
L 160.74574 299.08945 
L 161.276916 298.256267 
L 162.339267 297.498828 
L 162.870443 297.271596 
L 168.182199 296.514157 
L 168.713375 296.286925 
L 172.431604 295.98395 
L 174.556307 295.491614 
L 178.805712 294.923535 
L 179.336887 294.620559 
L 179.868063 294.544815 
L 180.930414 294.203968 
L 184.648644 293.598016 
L 185.710995 293.295041 
L 187.304522 293.143553 
L 188.366873 293.029937 
L 191.022751 292.348242 
L 192.085102 292.272498 
L 193.147454 292.12101 
L 194.209805 291.893778 
L 194.74098 291.74229 
L 195.272156 291.022723 
L 196.865683 290.416772 
L 198.45921 290.00018 
L 198.990386 289.735077 
L 199.521561 289.697205 
L 202.177439 288.939766 
L 203.239791 288.864022 
L 203.770966 288.788278 
L 205.364493 288.295942 
L 207.489196 287.765735 
L 208.020371 287.538503 
L 208.551547 287.462759 
L 209.082723 287.197656 
L 214.394479 286.402344 
L 217.050357 285.644905 
L 217.581533 285.304058 
L 220.237411 284.433003 
L 221.299762 283.713436 
L 222.893289 283.41046 
L 232.985626 280.494319 
L 234.047977 280.077728 
L 235.110328 280.001984 
L 236.703855 279.54752 
L 237.235031 279.54752 
L 237.766207 279.320289 
L 238.828558 279.206673 
L 239.359733 279.017313 
L 240.422085 278.979441 
L 242.546787 278.714337 
L 243.609139 278.18413 
L 249.983246 275.343733 
L 250.514422 274.775654 
L 251.576773 273.185032 
L 252.107949 273.033544 
L 252.639124 273.033544 
L 253.701475 272.238233 
L 255.295002 271.708025 
L 255.826178 271.21569 
L 256.888529 270.799098 
L 257.950881 270.306763 
L 259.013232 268.791885 
L 259.544407 268.451037 
L 260.075583 267.54211 
L 260.606759 266.974031 
L 263.793812 265.345537 
L 264.856164 264.512353 
L 265.387339 264.171506 
L 265.918515 263.376195 
L 266.449691 262.202164 
L 266.980866 261.406853 
L 267.512042 260.990261 
L 268.043218 260.76303 
L 270.16792 258.945176 
L 271.230271 258.074121 
L 271.761447 257.619657 
L 272.292623 256.90009 
L 273.354974 255.953291 
L 275.479676 254.552029 
L 276.010852 254.097565 
L 277.073203 253.756718 
L 278.66673 252.847791 
L 280.260257 251.825248 
L 281.853784 250.234626 
L 282.38496 249.893778 
L 283.447311 249.477187 
L 284.509662 248.757619 
L 285.040838 248.454644 
L 285.572013 248.3789 
L 289.290243 246.068711 
L 291.414945 244.932552 
L 291.946121 244.440216 
L 300.444931 241.486204 
L 301.507282 240.539405 
L 302.569634 240.047069 
L 303.631985 239.47899 
L 304.16316 239.176014 
L 305.225512 238.873039 
L 305.756687 238.532191 
L 306.287863 238.380703 
L 307.88139 237.358161 
L 310.537268 236.752209 
L 312.130795 235.843282 
L 312.66197 235.767538 
L 313.724322 235.502435 
L 314.255497 235.350947 
L 315.849024 234.139044 
L 317.973727 233.570965 
L 318.504902 233.154373 
L 321.691956 232.093959 
L 322.223132 232.056087 
L 323.285483 231.639495 
L 327.534888 230.124617 
L 328.597239 229.973129 
L 330.190766 229.442922 
L 332.846644 228.193147 
L 334.971347 227.056988 
L 339.220752 225.35275 
L 339.751928 225.277006 
L 340.814279 224.633183 
L 341.345455 224.557439 
L 343.470157 223.686384 
L 345.59486 223.383408 
L 346.657211 222.853201 
L 347.188386 222.398738 
L 347.719562 221.451939 
L 349.844265 220.883859 
L 351.437792 220.088548 
L 351.968967 219.974932 
L 356.218372 217.967719 
L 357.811899 217.626871 
L 358.87425 217.096664 
L 359.405426 216.869432 
L 359.936602 216.793688 
L 362.061304 215.846889 
L 363.654831 214.862218 
L 364.186007 214.786474 
L 364.717182 214.597115 
L 365.248358 214.559243 
L 367.904236 213.915419 
L 368.435412 213.498828 
L 370.028939 212.930748 
L 372.153641 212.097565 
L 372.684817 211.718846 
L 373.215992 211.529486 
L 374.278344 210.961407 
L 376.934222 210.090352 
L 378.527749 208.840577 
L 379.058924 208.726961 
L 380.121276 207.893778 
L 380.652451 207.818034 
L 381.183627 206.984851 
L 381.714802 206.757619 
L 382.245978 206.341028 
L 382.777154 206.265284 
L 383.839505 205.621461 
L 384.901856 205.280613 
L 385.433032 204.864022 
L 385.964208 204.674662 
L 387.557734 203.576375 
L 389.682437 202.478088 
L 390.213613 202.402344 
L 391.807139 201.607033 
L 392.338315 200.735978 
L 392.869491 200.281515 
L 393.400666 199.978539 
L 393.931842 199.864923 
L 394.994193 199.183228 
L 395.525369 199.069612 
L 396.58772 198.539405 
L 398.181247 197.85771 
L 399.243598 197.100271 
L 400.837125 195.661136 
L 401.899476 195.055185 
L 402.430652 194.487106 
L 404.555355 193.047971 
L 405.08653 192.44202 
L 405.617706 192.025428 
L 406.680057 191.646709 
L 407.742408 190.927142 
L 409.335935 190.13183 
L 409.867111 190.056087 
L 411.460638 189.222904 
L 412.522989 188.57908 
L 417.834745 186.685482 
L 418.365921 186.268891 
L 420.490624 185.47358 
L 421.021799 185.322092 
L 421.552975 184.9055 
L 424.208853 183.466366 
L 425.271204 181.383408 
L 426.333555 180.171506 
L 427.395907 179.527683 
L 428.989434 178.883859 
L 429.520609 178.808115 
L 430.051785 178.50514 
L 432.707663 177.671957 
L 433.238839 177.444725 
L 434.30119 176.725158 
L 435.894717 176.043463 
L 436.957068 175.475383 
L 437.488244 175.096664 
L 438.019419 174.869432 
L 438.550595 174.490712 
L 439.081771 173.922633 
L 440.144122 173.354554 
L 442.8 171.953291 
L 445.987054 170.400541 
L 447.049405 170.059693 
L 448.642932 169.567358 
L 450.767634 168.620559 
L 451.829986 168.203968 
L 452.361161 167.787376 
L 453.423513 167.446528 
L 456.610566 165.818034 
L 457.672918 164.984851 
L 458.735269 164.606132 
L 459.266445 164.151668 
L 459.79762 164.075924 
L 460.859971 163.280613 
L 461.922323 162.750406 
L 462.453498 162.523174 
L 462.984674 161.992967 
L 466.702903 160.553832 
L 467.765255 160.099369 
L 469.358782 159.607033 
L 470.421133 159.455546 
L 470.952308 159.228314 
L 471.483484 159.15257 
L 472.545835 158.698106 
L 473.077011 158.660234 
L 475.201713 157.864923 
L 476.79524 156.766637 
L 479.451119 155.516862 
L 482.106997 154.077728 
L 482.638172 153.964112 
L 484.231699 153.055185 
L 485.825226 152.524977 
L 486.887577 152.18413 
L 489.01228 151.502435 
L 490.074631 151.161587 
L 491.668158 150.896483 
L 493.792861 150.214788 
L 494.324036 149.987556 
L 494.855212 149.911812 
L 495.386387 149.646709 
L 496.448739 149.457349 
L 498.042266 148.88927 
L 499.104617 148.775654 
L 500.698144 148.434806 
L 501.760495 148.245446 
L 502.822846 148.056087 
L 503.885198 147.828855 
L 507.072251 147.033544 
L 507.603427 146.730568 
L 510.259305 146.086745 
L 511.321656 145.745897 
L 517.164588 144.041659 
L 517.695764 143.511452 
L 518.758115 143.09486 
L 521.945169 141.958702 
L 522.476345 141.617854 
L 523.00752 141.504238 
L 523.538696 141.201262 
L 525.132223 140.746799 
L 526.194574 140.481695 
L 526.72575 140.140848 
L 527.256925 140.027232 
L 527.788101 139.572768 
L 529.381628 139.269793 
L 530.443979 138.777457 
L 530.975155 138.171506 
L 533.099857 137.67917 
L 536.818087 136.921731 
L 537.349262 136.921731 
L 537.880438 136.6945 
L 540.00514 136.31578 
L 540.536316 136.088548 
L 542.661019 135.709829 
L 543.72337 135.255365 
L 544.254545 135.217493 
L 553.284531 132.528584 
L 553.815707 132.301353 
L 554.346882 131.922633 
L 555.409234 131.619657 
L 556.471585 131.27881 
L 557.533936 130.862218 
L 559.127463 130.180523 
L 560.72099 130.066907 
L 562.845693 129.460956 
L 563.376868 129.120108 
L 564.439219 128.817133 
L 567.095098 127.643102 
L 567.626273 127.60523 
L 573.469205 125.598016 
L 576.125083 124.916321 
L 577.187435 124.423986 
L 578.249786 124.196754 
L 578.780961 124.083138 
L 579.312137 123.666546 
L 579.843313 123.401443 
L 580.374488 122.757619 
L 580.905664 122.3789 
L 581.968015 122.075924 
L 582.499191 121.659333 
L 585.155069 120.561046 
L 585.686245 120.44743 
L 586.21742 120.106583 
L 587.279772 119.803607 
L 587.810947 119.462759 
L 590.466825 118.591704 
L 592.060352 117.682777 
L 592.591528 117.569161 
L 593.653879 116.96321 
L 594.185055 116.735978 
L 595.247406 116.092155 
L 596.840933 115.334716 
L 597.372109 114.955996 
L 598.43446 114.615149 
L 599.496811 114.009197 
L 600.027987 113.819838 
L 600.559162 113.441118 
L 607.464446 111.055185 
L 607.995621 110.941569 
L 608.526797 110.600721 
L 609.057972 110.524977 
L 610.120324 110.259874 
L 611.182675 110.032642 
L 614.900904 108.214788 
L 615.43208 108.139044 
L 617.025607 107.267989 
L 620.212661 106.018215 
L 622.337363 105.185032 
L 622.868539 105.033544 
L 623.399714 104.692696 
L 624.462066 104.541208 
L 624.993241 104.200361 
L 625.524417 104.162489 
L 626.586768 103.821641 
L 627.649119 103.291434 
L 628.180295 103.21569 
L 630.836173 102.155275 
L 632.4297 101.700812 
L 633.492051 101.435708 
L 635.085578 100.981244 
L 636.14793 100.564653 
L 638.272632 99.390622 
L 639.334983 98.974031 
L 639.866159 98.633183 
L 640.92851 98.405951 
L 641.459686 98.102976 
L 641.990861 97.98936 
L 643.584388 97.156177 
L 644.64674 96.739585 
L 646.240267 96.020018 
L 647.833793 95.603427 
L 651.020847 94.353652 
L 652.614374 93.823445 
L 660.582009 90.414968 
L 661.113184 90.339225 
L 663.237887 89.506041 
L 664.831414 88.634986 
L 665.362589 88.521371 
L 666.424941 88.104779 
L 666.956116 88.104779 
L 668.018467 87.650316 
L 669.080819 86.703517 
L 669.611994 86.249053 
L 671.205521 85.491614 
L 671.736697 85.377998 
L 672.267872 85.112894 
L 672.799048 85.037151 
L 673.330224 84.658431 
L 673.861399 84.544815 
L 674.923751 83.900992 
L 676.517277 83.105681 
L 677.579629 82.689089 
L 678.110804 82.423986 
L 680.766683 81.780162 
L 681.297858 81.515059 
L 682.891385 81.060595 
L 685.016088 80.038052 
L 686.078439 79.545717 
L 687.14079 79.280613 
L 690.85902 77.538503 
L 693.514898 76.591704 
L 695.108425 75.644905 
L 695.6396 75.531289 
L 696.701951 75.001082 
L 697.764303 74.622362 
L 698.295478 74.167899 
L 698.826654 73.864923 
L 700.420181 73.372588 
L 701.482532 72.653021 
L 702.013708 72.615149 
L 703.076059 72.312173 
L 704.13841 71.971326 
L 704.669586 71.706222 
L 705.200762 71.630478 
L 706.794288 71.062399 
L 708.387815 70.494319 
L 709.450167 70.077728 
L 709.981342 69.661136 
L 711.574869 69.244545 
L 712.106045 68.941569 
L 713.168396 68.676465 
L 714.761923 67.80541 
L 715.293099 67.767538 
L 716.886625 67.275203 
L 717.948977 67.161587 
L 719.011328 66.744995 
L 722.198382 65.836069 
L 723.260733 65.798197 
L 726.447787 64.775654 
L 726.978962 64.69991 
L 728.572489 63.866727 
L 729.103665 63.412263 
L 730.166016 62.76844 
L 731.759543 61.745897 
L 734.946597 60.64761 
L 735.477772 60.231019 
L 737.071299 59.511452 
L 737.602475 59.397836 
L 738.664826 58.9055 
L 740.258353 58.488909 
L 741.85188 57.807214 
L 742.914231 57.314878 
L 744.507758 56.671055 
L 745.038934 56.557439 
L 746.632461 55.8 
L 747.163636 55.8 
L 747.163636 55.8 
" clip-path="url(#p41d22157e2)" style="fill: none; stroke: #1f77b4; stroke-width: 1.5; stroke-linecap: square"/>
   </g>
   <g id="line2d_40">
    <path d="M 138.967539 307.8 
L 140.561066 307.724256 
L 142.154593 307.686384 
L 145.341647 307.61064 
L 147.997525 307.497024 
L 150.122228 307.497024 
L 150.653403 307.345537 
L 152.778106 307.269793 
L 154.371633 307.080433 
L 155.965159 306.928945 
L 159.152213 306.777457 
L 159.683389 306.777457 
L 160.74574 306.663841 
L 163.932794 306.512353 
L 167.651023 306.43661 
L 170.306901 306.322994 
L 176.681009 306.24725 
L 179.336887 306.133634 
L 182.523941 306.05789 
L 184.648644 305.982146 
L 189.429224 305.906402 
L 191.022751 305.86853 
L 192.616278 305.830658 
L 194.209805 305.641298 
L 197.396859 305.603427 
L 198.45921 305.527683 
L 202.177439 305.451939 
L 208.020371 305.111091 
L 211.738601 305.035347 
L 212.800952 304.959603 
L 214.394479 304.883859 
L 217.581533 304.732372 
L 219.706235 304.6945 
L 221.299762 304.543012 
L 228.205045 304.12642 
L 230.860923 304.050676 
L 235.641504 303.785573 
L 237.235031 303.709829 
L 242.546787 303.406853 
L 248.389719 303.331109 
L 250.514422 303.103877 
L 251.576773 303.028133 
L 258.482056 302.460054 
L 261.66911 302.043463 
L 263.793812 301.967719 
L 268.043218 301.399639 
L 271.230271 301.323895 
L 272.823798 301.172408 
L 273.886149 301.134536 
L 274.948501 301.02092 
L 276.542028 300.945176 
L 278.135554 300.717944 
L 278.66673 300.717944 
L 280.260257 300.490712 
L 282.38496 300.414968 
L 283.447311 300.339225 
L 285.572013 300.263481 
L 286.634365 300.187737 
L 289.290243 299.922633 
L 290.352594 299.733273 
L 291.946121 299.695401 
L 293.008472 299.619657 
L 295.66435 299.543913 
L 302.569634 299.127322 
L 304.16316 299.051578 
L 311.068444 298.634986 
L 314.786673 298.559243 
L 315.849024 298.445627 
L 319.567254 298.369883 
L 323.285483 298.180523 
L 329.128415 298.104779 
L 332.846644 297.915419 
L 337.09605 297.839675 
L 341.345455 297.612444 
L 345.063684 297.5367 
L 355.156021 296.892876 
L 360.467777 296.817133 
L 362.59248 296.589901 
L 364.186007 296.552029 
L 365.779534 296.514157 
L 367.904236 296.286925 
L 373.215992 295.98395 
L 376.403046 295.908206 
L 377.996573 295.870334 
L 379.5901 295.832462 
L 381.183627 295.680974 
L 385.433032 295.60523 
L 386.495383 295.453742 
L 387.557734 295.377998 
L 390.213613 295.264382 
L 391.275964 295.188638 
L 392.338315 295.112894 
L 397.118896 295.037151 
L 398.181247 294.923535 
L 400.30595 294.885663 
L 401.368301 294.772047 
L 402.961828 294.582687 
L 404.024179 294.506943 
L 408.80476 294.241839 
L 409.867111 294.203968 
L 411.460638 294.05248 
L 413.054165 294.014608 
L 414.647692 293.938864 
L 417.30357 293.825248 
L 424.740029 293.749504 
L 428.458258 293.560144 
L 432.707663 293.4844 
L 434.832366 293.408656 
L 436.957068 293.370784 
L 438.019419 293.257169 
L 440.144122 293.181425 
L 445.455878 292.878449 
L 448.642932 292.840577 
L 450.236459 292.689089 
L 451.829986 292.651217 
L 455.548215 292.575473 
L 457.672918 292.499729 
L 464.047025 292.423986 
L 466.702903 292.31037 
L 469.889957 292.234626 
L 471.483484 292.045266 
L 474.670538 292.007394 
L 476.264065 291.855906 
L 478.388767 291.780162 
L 484.762875 291.704418 
L 487.418753 291.590803 
L 496.448739 291.552931 
L 497.51109 291.477187 
L 499.104617 291.439315 
L 506.0099 291.363571 
L 507.072251 291.287827 
L 512.915183 291.212083 
L 515.039886 291.136339 
L 525.132223 291.060595 
L 526.72575 291.022723 
L 531.50633 290.946979 
L 532.568682 290.871235 
L 545.316897 290.795491 
L 546.910424 290.757619 
L 561.252166 290.681876 
L 562.845693 290.644004 
L 572.406854 290.56826 
L 573.469205 290.492516 
L 576.125083 290.416772 
L 577.71861 290.265284 
L 580.374488 290.18954 
L 583.561542 290.038052 
L 587.810947 289.962308 
L 588.873298 289.886564 
L 593.122703 289.810821 
L 596.309757 289.659333 
L 598.965635 289.583589 
L 603.21504 289.356357 
L 606.402094 289.280613 
L 608.526797 289.204869 
L 615.43208 289.129125 
L 617.556782 289.053381 
L 621.806188 288.977638 
L 625.524417 288.788278 
L 630.304998 288.712534 
L 631.367349 288.63679 
L 640.92851 288.561046 
L 642.522037 288.523174 
L 645.177915 288.485302 
L 647.302618 288.25807 
L 648.896145 288.220198 
L 652.083198 288.144454 
L 657.394955 287.841479 
L 660.050833 287.765735 
L 662.175535 287.689991 
L 668.018467 287.614247 
L 670.674346 287.311271 
L 672.799048 287.235528 
L 676.517277 287.159784 
L 677.579629 287.046168 
L 681.829034 286.970424 
L 684.484912 286.856808 
L 691.390195 286.818936 
L 692.452546 286.70532 
L 696.170776 286.629576 
L 697.764303 286.591704 
L 700.420181 286.51596 
L 702.013708 286.478088 
L 711.043693 286.402344 
L 713.699572 286.288729 
L 721.13603 286.212985 
L 723.260733 286.137241 
L 729.103665 286.061497 
L 730.166016 285.947881 
L 734.946597 285.910009 
L 736.008948 285.834265 
L 738.664826 285.758521 
L 740.258353 285.720649 
L 747.163636 285.644905 
L 747.163636 285.644905 
" clip-path="url(#p41d22157e2)" style="fill: none; stroke: #ff7f0e; stroke-width: 1.5; stroke-linecap: square"/>
   </g>
   <g id="patch_3">
    <path d="M 108 320.4 
L 108 43.2 
" style="fill: none; stroke: #a9a9a9; stroke-width: 0.8; stroke-linejoin: miter; stroke-linecap: square"/>
   </g>
   <g id="patch_4">
    <path d="M 777.6 320.4 
L 777.6 43.2 
" style="fill: none"/>
   </g>
   <g id="patch_5">
    <path d="M 108 320.4 
L 777.6 320.4 
" style="fill: none; stroke: #a9a9a9; stroke-width: 0.8; stroke-linejoin: miter; stroke-linecap: square"/>
   </g>
   <g id="patch_6">
    <path d="M 108 43.2 
L 777.6 43.2 
" style="fill: none"/>
   </g>
   <g id="text_20">
    <!-- get_subscribe history -->
    <g style="fill: #a9a9a9" transform="translate(378.6075 37.2) scale(0.12 -0.12)">
     <defs>
      <path id="DejaVuSans-67" d="M 2906 1791 
Q 2906 2416 2648 2759 
Q 2391 3103 1925 3103 
Q 1463 3103 1205 2759 
Q 947 2416 947 1791 
Q 947 1169 1205 825 
Q 1463 481 1925 481 
Q 2391 481 2648 825 
Q 2906 1169 2906 1791 
z
M 3481 434 
Q 3481 -459 3084 -895 
Q 2688 -1331 1869 -1331 
Q 1566 -1331 1297 -1286 
Q 1028 -1241 775 -1147 
L 775 -588 
Q 1028 -725 1275 -790 
Q 1522 -856 1778 -856 
Q 2344 -856 2625 -561 
Q 2906 -266 2906 331 
L 2906 616 
Q 2728 306 2450 153 
Q 2172 0 1784 0 
Q 1141 0 747 490 
Q 353 981 353 1791 
Q 353 2603 747 3093 
Q 1141 3584 1784 3584 
Q 2172 3584 2450 3431 
Q 2728 3278 2906 2969 
L 2906 3500 
L 3481 3500 
L 3481 434 
z
" transform="scale(0.015625)"/>
      <path id="DejaVuSans-65" d="M 3597 1894 
L 3597 1613 
L 953 1613 
Q 991 1019 1311 708 
Q 1631 397 2203 397 
Q 2534 397 2845 478 
Q 3156 559 3463 722 
L 3463 178 
Q 3153 47 2828 -22 
Q 2503 -91 2169 -91 
Q 1331 -91 842 396 
Q 353 884 353 1716 
Q 353 2575 817 3079 
Q 1281 3584 2069 3584 
Q 2775 3584 3186 3129 
Q 3597 2675 3597 1894 
z
M 3022 2063 
Q 3016 2534 2758 2815 
Q 2500 3097 2075 3097 
Q 1594 3097 1305 2825 
Q 1016 2553 972 2059 
L 3022 2063 
z
" transform="scale(0.015625)"/>
      <path id="DejaVuSans-74" d="M 1172 4494 
L 1172 3500 
L 2356 3500 
L 2356 3053 
L 1172 3053 
L 1172 1153 
Q 1172 725 1289 603 
Q 1406 481 1766 481 
L 2356 481 
L 2356 0 
L 1766 0 
Q 1100 0 847 248 
Q 594 497 594 1153 
L 594 3053 
L 172 3053 
L 172 3500 
L 594 3500 
L 594 4494 
L 1172 4494 
z
" transform="scale(0.015625)"/>
      <path id="DejaVuSans-5f" d="M 3263 -1063 
L 3263 -1509 
L -63 -1509 
L -63 -1063 
L 3263 -1063 
z
" transform="scale(0.015625)"/>
      <path id="DejaVuSans-73" d="M 2834 3397 
L 2834 2853 
Q 2591 2978 2328 3040 
Q 2066 3103 1784 3103 
Q 1356 3103 1142 2972 
Q 928 2841 928 2578 
Q 928 2378 1081 2264 
Q 1234 2150 1697 2047 
L 1894 2003 
Q 2506 1872 2764 1633 
Q 3022 1394 3022 966 
Q 3022 478 2636 193 
Q 2250 -91 1575 -91 
Q 1294 -91 989 -36 
Q 684 19 347 128 
L 347 722 
Q 666 556 975 473 
Q 1284 391 1588 391 
Q 1994 391 2212 530 
Q 2431 669 2431 922 
Q 2431 1156 2273 1281 
Q 2116 1406 1581 1522 
L 1381 1569 
Q 847 1681 609 1914 
Q 372 2147 372 2553 
Q 372 3047 722 3315 
Q 1072 3584 1716 3584 
Q 2034 3584 2315 3537 
Q 2597 3491 2834 3397 
z
" transform="scale(0.015625)"/>
      <path id="DejaVuSans-75" d="M 544 1381 
L 544 3500 
L 1119 3500 
L 1119 1403 
Q 1119 906 1312 657 
Q 1506 409 1894 409 
Q 2359 409 2629 706 
Q 2900 1003 2900 1516 
L 2900 3500 
L 3475 3500 
L 3475 0 
L 2900 0 
L 2900 538 
Q 2691 219 2414 64 
Q 2138 -91 1772 -91 
Q 1169 -91 856 284 
Q 544 659 544 1381 
z
M 1991 3584 
L 1991 3584 
z
" transform="scale(0.015625)"/>
      <path id="DejaVuSans-62" d="M 3116 1747 
Q 3116 2381 2855 2742 
Q 2594 3103 2138 3103 
Q 1681 3103 1420 2742 
Q 1159 2381 1159 1747 
Q 1159 1113 1420 752 
Q 1681 391 2138 391 
Q 2594 391 2855 752 
Q 3116 1113 3116 1747 
z
M 1159 2969 
Q 1341 3281 1617 3432 
Q 1894 3584 2278 3584 
Q 2916 3584 3314 3078 
Q 3713 2572 3713 1747 
Q 3713 922 3314 415 
Q 2916 -91 2278 -91 
Q 1894 -91 1617 61 
Q 1341 213 1159 525 
L 1159 0 
L 581 0 
L 581 4863 
L 1159 4863 
L 1159 2969 
z
" transform="scale(0.015625)"/>
      <path id="DejaVuSans-63" d="M 3122 3366 
L 3122 2828 
Q 2878 2963 2633 3030 
Q 2388 3097 2138 3097 
Q 1578 3097 1268 2742 
Q 959 2388 959 1747 
Q 959 1106 1268 751 
Q 1578 397 2138 397 
Q 2388 397 2633 464 
Q 2878 531 3122 666 
L 3122 134 
Q 2881 22 2623 -34 
Q 2366 -91 2075 -91 
Q 1284 -91 818 406 
Q 353 903 353 1747 
Q 353 2603 823 3093 
Q 1294 3584 2113 3584 
Q 2378 3584 2631 3529 
Q 2884 3475 3122 3366 
z
" transform="scale(0.015625)"/>
      <path id="DejaVuSans-72" d="M 2631 2963 
Q 2534 3019 2420 3045 
Q 2306 3072 2169 3072 
Q 1681 3072 1420 2755 
Q 1159 2438 1159 1844 
L 1159 0 
L 581 0 
L 581 3500 
L 1159 3500 
L 1159 2956 
Q 1341 3275 1631 3429 
Q 1922 3584 2338 3584 
Q 2397 3584 2469 3576 
Q 2541 3569 2628 3553 
L 2631 2963 
z
" transform="scale(0.015625)"/>
      <path id="DejaVuSans-69" d="M 603 3500 
L 1178 3500 
L 1178 0 
L 603 0 
L 603 3500 
z
M 603 4863 
L 1178 4863 
L 1178 4134 
L 603 4134 
L 603 4863 
z
" transform="scale(0.015625)"/>
      <path id="DejaVuSans-20" transform="scale(0.015625)"/>
      <path id="DejaVuSans-68" d="M 3513 2113 
L 3513 0 
L 2938 0 
L 2938 2094 
Q 2938 2591 2744 2837 
Q 2550 3084 2163 3084 
Q 1697 3084 1428 2787 
Q 1159 2491 1159 1978 
L 1159 0 
L 581 0 
L 581 4863 
L 1159 4863 
L 1159 2956 
Q 1366 3272 1645 3428 
Q 1925 3584 2291 3584 
Q 2894 3584 3203 3211 
Q 3513 2838 3513 2113 
z
" transform="scale(0.015625)"/>
      <path id="DejaVuSans-6f" d="M 1959 3097 
Q 1497 3097 1228 2736 
Q 959 2375 959 1747 
Q 959 1119 1226 758 
Q 1494 397 1959 397 
Q 2419 397 2687 759 
Q 2956 1122 2956 1747 
Q 2956 2369 2687 2733 
Q 2419 3097 1959 3097 
z
M 1959 3584 
Q 2709 3584 3137 3096 
Q 3566 2609 3566 1747 
Q 3566 888 3137 398 
Q 2709 -91 1959 -91 
Q 1206 -91 779 398 
Q 353 888 353 1747 
Q 353 2609 779 3096 
Q 1206 3584 1959 3584 
z
" transform="scale(0.015625)"/>
      <path id="DejaVuSans-79" d="M 2059 -325 
Q 1816 -950 1584 -1140 
Q 1353 -1331 966 -1331 
L 506 -1331 
L 506 -850 
L 844 -850 
Q 1081 -850 1212 -737 
Q 1344 -625 1503 -206 
L 1606 56 
L 191 3500 
L 800 3500 
L 1894 763 
L 2988 3500 
L 3597 3500 
L 2059 -325 
z
" transform="scale(0.015625)"/>
     </defs>
     <use xlink:href="#DejaVuSans-67"/>
     <use xlink:href="#DejaVuSans-65" x="63.476562"/>
     <use xlink:href="#DejaVuSans-74" x="125"/>
     <use xlink:href="#DejaVuSans-5f" x="164.208984"/>
     <use xlink:href="#DejaVuSans-73" x="214.208984"/>
     <use xlink:href="#DejaVuSans-75" x="266.308594"/>
     <use xlink:href="#DejaVuSans-62" x="329.6875"/>
     <use xlink:href="#DejaVuSans-73" x="393.164062"/>
     <use xlink:href="#DejaVuSans-63" x="445.263672"/>
     <use xlink:href="#DejaVuSans-72" x="500.244141"/>
     <use xlink:href="#DejaVuSans-69" x="541.357422"/>
     <use xlink:href="#DejaVuSans-62" x="569.140625"/>
     <use xlink:href="#DejaVuSans-65" x="632.617188"/>
     <use xlink:href="#DejaVuSans-20" x="694.140625"/>
     <use xlink:href="#DejaVuSans-68" x="725.927734"/>
     <use xlink:href="#DejaVuSans-69" x="789.306641"/>
     <use xlink:href="#DejaVuSans-73" x="817.089844"/>
     <use xlink:href="#DejaVuSans-74" x="869.189453"/>
     <use xlink:href="#DejaVuSans-6f" x="908.398438"/>
     <use xlink:href="#DejaVuSans-72" x="969.580078"/>
     <use xlink:href="#DejaVuSans-79" x="1010.693359"/>
    </g>
   </g>
   <g id="legend_1">
    <g id="line2d_41">
     <path d="M 815.08 328.498438 
L 825.08 328.498438 
L 835.08 328.498438 
" style="fill: none; stroke: #1f77b4; stroke-width: 1.5; stroke-linecap: square"/>
    </g>
    <g id="text_21">
     <!-- star -->
     <g style="fill: #a9a9a9" transform="translate(843.08 331.998438) scale(0.1 -0.1)">
      <defs>
       <path id="DejaVuSans-61" d="M 2194 1759 
Q 1497 1759 1228 1600 
Q 959 1441 959 1056 
Q 959 750 1161 570 
Q 1363 391 1709 391 
Q 2188 391 2477 730 
Q 2766 1069 2766 1631 
L 2766 1759 
L 2194 1759 
z
M 3341 1997 
L 3341 0 
L 2766 0 
L 2766 531 
Q 2569 213 2275 61 
Q 1981 -91 1556 -91 
Q 1019 -91 701 211 
Q 384 513 384 1019 
Q 384 1609 779 1909 
Q 1175 2209 1959 2209 
L 2766 2209 
L 2766 2266 
Q 2766 2663 2505 2880 
Q 2244 3097 1772 3097 
Q 1472 3097 1187 3025 
Q 903 2953 641 2809 
L 641 3341 
Q 956 3463 1253 3523 
Q 1550 3584 1831 3584 
Q 2591 3584 2966 3190 
Q 3341 2797 3341 1997 
z
" transform="scale(0.015625)"/>
      </defs>
      <use xlink:href="#DejaVuSans-73"/>
      <use xlink:href="#DejaVuSans-74" x="52.099609"/>
      <use xlink:href="#DejaVuSans-61" x="91.308594"/>
      <use xlink:href="#DejaVuSans-72" x="152.587891"/>
     </g>
    </g>
    <g id="line2d_42">
     <path d="M 815.08 343.176562 
L 825.08 343.176562 
L 835.08 343.176562 
" style="fill: none; stroke: #ff7f0e; stroke-width: 1.5; stroke-linecap: square"/>
    </g>
    <g id="text_22">
     <!-- fork -->
     <g style="fill: #a9a9a9" transform="translate(843.08 346.676562) scale(0.1 -0.1)">
      <defs>
       <path id="DejaVuSans-66" d="M 2375 4863 
L 2375 4384 
L 1825 4384 
Q 1516 4384 1395 4259 
Q 1275 4134 1275 3809 
L 1275 3500 
L 2222 3500 
L 2222 3053 
L 1275 3053 
L 1275 0 
L 697 0 
L 697 3053 
L 147 3053 
L 147 3500 
L 697 3500 
L 697 3744 
Q 697 4328 969 4595 
Q 1241 4863 1831 4863 
L 2375 4863 
z
" transform="scale(0.015625)"/>
       <path id="DejaVuSans-6b" d="M 581 4863 
L 1159 4863 
L 1159 1991 
L 2875 3500 
L 3609 3500 
L 1753 1863 
L 3688 0 
L 2938 0 
L 1159 1709 
L 1159 0 
L 581 0 
L 581 4863 
z
" transform="scale(0.015625)"/>
      </defs>
      <use xlink:href="#DejaVuSans-66"/>
      <use xlink:href="#DejaVuSans-6f" x="35.205078"/>
      <use xlink:href="#DejaVuSans-72" x="96.386719"/>
      <use xlink:href="#DejaVuSans-6b" x="137.5"/>
     </g>
    </g>
   </g>
  </g>
 </g>
 <defs>
  <clipPath id="p41d22157e2">
   <rect x="108" y="43.2" width="669.6" height="277.2"/>
  </clipPath>
 </defs>
</svg>
