<?xml version="1.0" encoding="utf-8" standalone="no"?>
<!DOCTYPE svg PUBLIC "-//W3C//DTD SVG 1.1//EN"
  "http://www.w3.org/Graphics/SVG/1.1/DTD/svg11.dtd">
<svg xmlns:xlink="http://www.w3.org/1999/xlink" width="864pt" height="360pt" viewBox="0 0 864 360" xmlns="http://www.w3.org/2000/svg" version="1.1">
 <metadata>
  <rdf:RDF xmlns:dc="http://purl.org/dc/elements/1.1/" xmlns:cc="http://creativecommons.org/ns#" xmlns:rdf="http://www.w3.org/1999/02/22-rdf-syntax-ns#">
   <cc:Work>
    <dc:type rdf:resource="http://purl.org/dc/dcmitype/StillImage"/>
    <dc:date>2024-09-10T20:05:44.843949</dc:date>
    <dc:format>image/svg+xml</dc:format>
    <dc:creator>
     <cc:Agent>
      <dc:title>Matplotlib v3.9.2, https://matplotlib.org/</dc:title>
     </cc:Agent>
    </dc:creator>
   </cc:Work>
  </rdf:RDF>
 </metadata>
 <defs>
  <style type="text/css">*{stroke-linejoin: round; stroke-linecap: butt}</style>
 </defs>
 <g id="figure_1">
  <g id="patch_1">
   <path d="M 0 360 
L 864 360 
L 864 0 
L 0 0 
L 0 360 
z
" style="fill: none; opacity: 0"/>
  </g>
  <g id="axes_1">
   <g id="patch_2">
    <path d="M 108 320.4 
L 777.6 320.4 
L 777.6 43.2 
L 108 43.2 
L 108 320.4 
z
" style="fill: none; opacity: 0"/>
   </g>
   <g id="matplotlib.axis_1">
    <g id="xtick_1">
     <g id="line2d_1">
      <path d="M 159.18843 320.4 
L 159.18843 43.2 
" clip-path="url(#p984abf2223)" style="fill: none; stroke-dasharray: 5.12,1.28,0.8,1.28; stroke-dashoffset: 0; stroke: #b0b0b0; stroke-width: 0.8"/>
     </g>
     <g id="line2d_2">
      <defs>
       <path id="m397c1b879e" d="M 0 0 
L 0 3.5 
" style="stroke: #a9a9a9; stroke-width: 0.8"/>
      </defs>
      <g>
       <use xlink:href="#m397c1b879e" x="159.18843" y="320.4" style="fill: #a9a9a9; stroke: #a9a9a9; stroke-width: 0.8"/>
      </g>
     </g>
     <g id="text_1">
      <!-- 2021-09 -->
      <g style="fill: #a9a9a9" transform="translate(138.297024 334.998438) scale(0.1 -0.1)">
       <defs>
        <path id="DejaVuSans-32" d="M 1228 531 
L 3431 531 
L 3431 0 
L 469 0 
L 469 531 
Q 828 903 1448 1529 
Q 2069 2156 2228 2338 
Q 2531 2678 2651 2914 
Q 2772 3150 2772 3378 
Q 2772 3750 2511 3984 
Q 2250 4219 1831 4219 
Q 1534 4219 1204 4116 
Q 875 4013 500 3803 
L 500 4441 
Q 881 4594 1212 4672 
Q 1544 4750 1819 4750 
Q 2544 4750 2975 4387 
Q 3406 4025 3406 3419 
Q 3406 3131 3298 2873 
Q 3191 2616 2906 2266 
Q 2828 2175 2409 1742 
Q 1991 1309 1228 531 
z
" transform="scale(0.015625)"/>
        <path id="DejaVuSans-30" d="M 2034 4250 
Q 1547 4250 1301 3770 
Q 1056 3291 1056 2328 
Q 1056 1369 1301 889 
Q 1547 409 2034 409 
Q 2525 409 2770 889 
Q 3016 1369 3016 2328 
Q 3016 3291 2770 3770 
Q 2525 4250 2034 4250 
z
M 2034 4750 
Q 2819 4750 3233 4129 
Q 3647 3509 3647 2328 
Q 3647 1150 3233 529 
Q 2819 -91 2034 -91 
Q 1250 -91 836 529 
Q 422 1150 422 2328 
Q 422 3509 836 4129 
Q 1250 4750 2034 4750 
z
" transform="scale(0.015625)"/>
        <path id="DejaVuSans-31" d="M 794 531 
L 1825 531 
L 1825 4091 
L 703 3866 
L 703 4441 
L 1819 4666 
L 2450 4666 
L 2450 531 
L 3481 531 
L 3481 0 
L 794 0 
L 794 531 
z
" transform="scale(0.015625)"/>
        <path id="DejaVuSans-2d" d="M 313 2009 
L 1997 2009 
L 1997 1497 
L 313 1497 
L 313 2009 
z
" transform="scale(0.015625)"/>
        <path id="DejaVuSans-39" d="M 703 97 
L 703 672 
Q 941 559 1184 500 
Q 1428 441 1663 441 
Q 2288 441 2617 861 
Q 2947 1281 2994 2138 
Q 2813 1869 2534 1725 
Q 2256 1581 1919 1581 
Q 1219 1581 811 2004 
Q 403 2428 403 3163 
Q 403 3881 828 4315 
Q 1253 4750 1959 4750 
Q 2769 4750 3195 4129 
Q 3622 3509 3622 2328 
Q 3622 1225 3098 567 
Q 2575 -91 1691 -91 
Q 1453 -91 1209 -44 
Q 966 3 703 97 
z
M 1959 2075 
Q 2384 2075 2632 2365 
Q 2881 2656 2881 3163 
Q 2881 3666 2632 3958 
Q 2384 4250 1959 4250 
Q 1534 4250 1286 3958 
Q 1038 3666 1038 3163 
Q 1038 2656 1286 2365 
Q 1534 2075 1959 2075 
z
" transform="scale(0.015625)"/>
       </defs>
       <use xlink:href="#DejaVuSans-32"/>
       <use xlink:href="#DejaVuSans-30" x="63.623047"/>
       <use xlink:href="#DejaVuSans-32" x="127.246094"/>
       <use xlink:href="#DejaVuSans-31" x="190.869141"/>
       <use xlink:href="#DejaVuSans-2d" x="254.492188"/>
       <use xlink:href="#DejaVuSans-30" x="290.576172"/>
       <use xlink:href="#DejaVuSans-39" x="354.199219"/>
      </g>
     </g>
    </g>
    <g id="xtick_2">
     <g id="line2d_3">
      <path d="M 224.105149 320.4 
L 224.105149 43.2 
" clip-path="url(#p984abf2223)" style="fill: none; stroke-dasharray: 5.12,1.28,0.8,1.28; stroke-dashoffset: 0; stroke: #b0b0b0; stroke-width: 0.8"/>
     </g>
     <g id="line2d_4">
      <g>
       <use xlink:href="#m397c1b879e" x="224.105149" y="320.4" style="fill: #a9a9a9; stroke: #a9a9a9; stroke-width: 0.8"/>
      </g>
     </g>
     <g id="text_2">
      <!-- 2022-01 -->
      <g style="fill: #a9a9a9" transform="translate(203.213743 334.998438) scale(0.1 -0.1)">
       <use xlink:href="#DejaVuSans-32"/>
       <use xlink:href="#DejaVuSans-30" x="63.623047"/>
       <use xlink:href="#DejaVuSans-32" x="127.246094"/>
       <use xlink:href="#DejaVuSans-32" x="190.869141"/>
       <use xlink:href="#DejaVuSans-2d" x="254.492188"/>
       <use xlink:href="#DejaVuSans-30" x="290.576172"/>
       <use xlink:href="#DejaVuSans-31" x="354.199219"/>
      </g>
     </g>
    </g>
    <g id="xtick_3">
     <g id="line2d_5">
      <path d="M 287.957661 320.4 
L 287.957661 43.2 
" clip-path="url(#p984abf2223)" style="fill: none; stroke-dasharray: 5.12,1.28,0.8,1.28; stroke-dashoffset: 0; stroke: #b0b0b0; stroke-width: 0.8"/>
     </g>
     <g id="line2d_6">
      <g>
       <use xlink:href="#m397c1b879e" x="287.957661" y="320.4" style="fill: #a9a9a9; stroke: #a9a9a9; stroke-width: 0.8"/>
      </g>
     </g>
     <g id="text_3">
      <!-- 2022-05 -->
      <g style="fill: #a9a9a9" transform="translate(267.066254 334.998438) scale(0.1 -0.1)">
       <defs>
        <path id="DejaVuSans-35" d="M 691 4666 
L 3169 4666 
L 3169 4134 
L 1269 4134 
L 1269 2991 
Q 1406 3038 1543 3061 
Q 1681 3084 1819 3084 
Q 2600 3084 3056 2656 
Q 3513 2228 3513 1497 
Q 3513 744 3044 326 
Q 2575 -91 1722 -91 
Q 1428 -91 1123 -41 
Q 819 9 494 109 
L 494 744 
Q 775 591 1075 516 
Q 1375 441 1709 441 
Q 2250 441 2565 725 
Q 2881 1009 2881 1497 
Q 2881 1984 2565 2268 
Q 2250 2553 1709 2553 
Q 1456 2553 1204 2497 
Q 953 2441 691 2322 
L 691 4666 
z
" transform="scale(0.015625)"/>
       </defs>
       <use xlink:href="#DejaVuSans-32"/>
       <use xlink:href="#DejaVuSans-30" x="63.623047"/>
       <use xlink:href="#DejaVuSans-32" x="127.246094"/>
       <use xlink:href="#DejaVuSans-32" x="190.869141"/>
       <use xlink:href="#DejaVuSans-2d" x="254.492188"/>
       <use xlink:href="#DejaVuSans-30" x="290.576172"/>
       <use xlink:href="#DejaVuSans-35" x="354.199219"/>
      </g>
     </g>
    </g>
    <g id="xtick_4">
     <g id="line2d_7">
      <path d="M 353.406484 320.4 
L 353.406484 43.2 
" clip-path="url(#p984abf2223)" style="fill: none; stroke-dasharray: 5.12,1.28,0.8,1.28; stroke-dashoffset: 0; stroke: #b0b0b0; stroke-width: 0.8"/>
     </g>
     <g id="line2d_8">
      <g>
       <use xlink:href="#m397c1b879e" x="353.406484" y="320.4" style="fill: #a9a9a9; stroke: #a9a9a9; stroke-width: 0.8"/>
      </g>
     </g>
     <g id="text_4">
      <!-- 2022-09 -->
      <g style="fill: #a9a9a9" transform="translate(332.515078 334.998438) scale(0.1 -0.1)">
       <use xlink:href="#DejaVuSans-32"/>
       <use xlink:href="#DejaVuSans-30" x="63.623047"/>
       <use xlink:href="#DejaVuSans-32" x="127.246094"/>
       <use xlink:href="#DejaVuSans-32" x="190.869141"/>
       <use xlink:href="#DejaVuSans-2d" x="254.492188"/>
       <use xlink:href="#DejaVuSans-30" x="290.576172"/>
       <use xlink:href="#DejaVuSans-39" x="354.199219"/>
      </g>
     </g>
    </g>
    <g id="xtick_5">
     <g id="line2d_9">
      <path d="M 418.323204 320.4 
L 418.323204 43.2 
" clip-path="url(#p984abf2223)" style="fill: none; stroke-dasharray: 5.12,1.28,0.8,1.28; stroke-dashoffset: 0; stroke: #b0b0b0; stroke-width: 0.8"/>
     </g>
     <g id="line2d_10">
      <g>
       <use xlink:href="#m397c1b879e" x="418.323204" y="320.4" style="fill: #a9a9a9; stroke: #a9a9a9; stroke-width: 0.8"/>
      </g>
     </g>
     <g id="text_5">
      <!-- 2023-01 -->
      <g style="fill: #a9a9a9" transform="translate(397.431798 334.998438) scale(0.1 -0.1)">
       <defs>
        <path id="DejaVuSans-33" d="M 2597 2516 
Q 3050 2419 3304 2112 
Q 3559 1806 3559 1356 
Q 3559 666 3084 287 
Q 2609 -91 1734 -91 
Q 1441 -91 1130 -33 
Q 819 25 488 141 
L 488 750 
Q 750 597 1062 519 
Q 1375 441 1716 441 
Q 2309 441 2620 675 
Q 2931 909 2931 1356 
Q 2931 1769 2642 2001 
Q 2353 2234 1838 2234 
L 1294 2234 
L 1294 2753 
L 1863 2753 
Q 2328 2753 2575 2939 
Q 2822 3125 2822 3475 
Q 2822 3834 2567 4026 
Q 2313 4219 1838 4219 
Q 1578 4219 1281 4162 
Q 984 4106 628 3988 
L 628 4550 
Q 988 4650 1302 4700 
Q 1616 4750 1894 4750 
Q 2613 4750 3031 4423 
Q 3450 4097 3450 3541 
Q 3450 3153 3228 2886 
Q 3006 2619 2597 2516 
z
" transform="scale(0.015625)"/>
       </defs>
       <use xlink:href="#DejaVuSans-32"/>
       <use xlink:href="#DejaVuSans-30" x="63.623047"/>
       <use xlink:href="#DejaVuSans-32" x="127.246094"/>
       <use xlink:href="#DejaVuSans-33" x="190.869141"/>
       <use xlink:href="#DejaVuSans-2d" x="254.492188"/>
       <use xlink:href="#DejaVuSans-30" x="290.576172"/>
       <use xlink:href="#DejaVuSans-31" x="354.199219"/>
      </g>
     </g>
    </g>
    <g id="xtick_6">
     <g id="line2d_11">
      <path d="M 482.175715 320.4 
L 482.175715 43.2 
" clip-path="url(#p984abf2223)" style="fill: none; stroke-dasharray: 5.12,1.28,0.8,1.28; stroke-dashoffset: 0; stroke: #b0b0b0; stroke-width: 0.8"/>
     </g>
     <g id="line2d_12">
      <g>
       <use xlink:href="#m397c1b879e" x="482.175715" y="320.4" style="fill: #a9a9a9; stroke: #a9a9a9; stroke-width: 0.8"/>
      </g>
     </g>
     <g id="text_6">
      <!-- 2023-05 -->
      <g style="fill: #a9a9a9" transform="translate(461.284309 334.998438) scale(0.1 -0.1)">
       <use xlink:href="#DejaVuSans-32"/>
       <use xlink:href="#DejaVuSans-30" x="63.623047"/>
       <use xlink:href="#DejaVuSans-32" x="127.246094"/>
       <use xlink:href="#DejaVuSans-33" x="190.869141"/>
       <use xlink:href="#DejaVuSans-2d" x="254.492188"/>
       <use xlink:href="#DejaVuSans-30" x="290.576172"/>
       <use xlink:href="#DejaVuSans-35" x="354.199219"/>
      </g>
     </g>
    </g>
    <g id="xtick_7">
     <g id="line2d_13">
      <path d="M 547.624539 320.4 
L 547.624539 43.2 
" clip-path="url(#p984abf2223)" style="fill: none; stroke-dasharray: 5.12,1.28,0.8,1.28; stroke-dashoffset: 0; stroke: #b0b0b0; stroke-width: 0.8"/>
     </g>
     <g id="line2d_14">
      <g>
       <use xlink:href="#m397c1b879e" x="547.624539" y="320.4" style="fill: #a9a9a9; stroke: #a9a9a9; stroke-width: 0.8"/>
      </g>
     </g>
     <g id="text_7">
      <!-- 2023-09 -->
      <g style="fill: #a9a9a9" transform="translate(526.733133 334.998438) scale(0.1 -0.1)">
       <use xlink:href="#DejaVuSans-32"/>
       <use xlink:href="#DejaVuSans-30" x="63.623047"/>
       <use xlink:href="#DejaVuSans-32" x="127.246094"/>
       <use xlink:href="#DejaVuSans-33" x="190.869141"/>
       <use xlink:href="#DejaVuSans-2d" x="254.492188"/>
       <use xlink:href="#DejaVuSans-30" x="290.576172"/>
       <use xlink:href="#DejaVuSans-39" x="354.199219"/>
      </g>
     </g>
    </g>
    <g id="xtick_8">
     <g id="line2d_15">
      <path d="M 612.541259 320.4 
L 612.541259 43.2 
" clip-path="url(#p984abf2223)" style="fill: none; stroke-dasharray: 5.12,1.28,0.8,1.28; stroke-dashoffset: 0; stroke: #b0b0b0; stroke-width: 0.8"/>
     </g>
     <g id="line2d_16">
      <g>
       <use xlink:href="#m397c1b879e" x="612.541259" y="320.4" style="fill: #a9a9a9; stroke: #a9a9a9; stroke-width: 0.8"/>
      </g>
     </g>
     <g id="text_8">
      <!-- 2024-01 -->
      <g style="fill: #a9a9a9" transform="translate(591.649852 334.998438) scale(0.1 -0.1)">
       <defs>
        <path id="DejaVuSans-34" d="M 2419 4116 
L 825 1625 
L 2419 1625 
L 2419 4116 
z
M 2253 4666 
L 3047 4666 
L 3047 1625 
L 3713 1625 
L 3713 1100 
L 3047 1100 
L 3047 0 
L 2419 0 
L 2419 1100 
L 313 1100 
L 313 1709 
L 2253 4666 
z
" transform="scale(0.015625)"/>
       </defs>
       <use xlink:href="#DejaVuSans-32"/>
       <use xlink:href="#DejaVuSans-30" x="63.623047"/>
       <use xlink:href="#DejaVuSans-32" x="127.246094"/>
       <use xlink:href="#DejaVuSans-34" x="190.869141"/>
       <use xlink:href="#DejaVuSans-2d" x="254.492188"/>
       <use xlink:href="#DejaVuSans-30" x="290.576172"/>
       <use xlink:href="#DejaVuSans-31" x="354.199219"/>
      </g>
     </g>
    </g>
    <g id="xtick_9">
     <g id="line2d_17">
      <path d="M 676.925874 320.4 
L 676.925874 43.2 
" clip-path="url(#p984abf2223)" style="fill: none; stroke-dasharray: 5.12,1.28,0.8,1.28; stroke-dashoffset: 0; stroke: #b0b0b0; stroke-width: 0.8"/>
     </g>
     <g id="line2d_18">
      <g>
       <use xlink:href="#m397c1b879e" x="676.925874" y="320.4" style="fill: #a9a9a9; stroke: #a9a9a9; stroke-width: 0.8"/>
      </g>
     </g>
     <g id="text_9">
      <!-- 2024-05 -->
      <g style="fill: #a9a9a9" transform="translate(656.034468 334.998438) scale(0.1 -0.1)">
       <use xlink:href="#DejaVuSans-32"/>
       <use xlink:href="#DejaVuSans-30" x="63.623047"/>
       <use xlink:href="#DejaVuSans-32" x="127.246094"/>
       <use xlink:href="#DejaVuSans-34" x="190.869141"/>
       <use xlink:href="#DejaVuSans-2d" x="254.492188"/>
       <use xlink:href="#DejaVuSans-30" x="290.576172"/>
       <use xlink:href="#DejaVuSans-35" x="354.199219"/>
      </g>
     </g>
    </g>
    <g id="xtick_10">
     <g id="line2d_19">
      <path d="M 742.374698 320.4 
L 742.374698 43.2 
" clip-path="url(#p984abf2223)" style="fill: none; stroke-dasharray: 5.12,1.28,0.8,1.28; stroke-dashoffset: 0; stroke: #b0b0b0; stroke-width: 0.8"/>
     </g>
     <g id="line2d_20">
      <g>
       <use xlink:href="#m397c1b879e" x="742.374698" y="320.4" style="fill: #a9a9a9; stroke: #a9a9a9; stroke-width: 0.8"/>
      </g>
     </g>
     <g id="text_10">
      <!-- 2024-09 -->
      <g style="fill: #a9a9a9" transform="translate(721.483292 334.998438) scale(0.1 -0.1)">
       <use xlink:href="#DejaVuSans-32"/>
       <use xlink:href="#DejaVuSans-30" x="63.623047"/>
       <use xlink:href="#DejaVuSans-32" x="127.246094"/>
       <use xlink:href="#DejaVuSans-34" x="190.869141"/>
       <use xlink:href="#DejaVuSans-2d" x="254.492188"/>
       <use xlink:href="#DejaVuSans-30" x="290.576172"/>
       <use xlink:href="#DejaVuSans-39" x="354.199219"/>
      </g>
     </g>
    </g>
   </g>
   <g id="matplotlib.axis_2">
    <g id="ytick_1">
     <g id="line2d_21">
      <path d="M 108 307.837929 
L 777.6 307.837929 
" clip-path="url(#p984abf2223)" style="fill: none; stroke-dasharray: 5.12,1.28,0.8,1.28; stroke-dashoffset: 0; stroke: #b0b0b0; stroke-width: 0.8"/>
     </g>
     <g id="line2d_22">
      <defs>
       <path id="mfaed46f830" d="M 0 0 
L -3.5 0 
" style="stroke: #a9a9a9; stroke-width: 0.8"/>
      </defs>
      <g>
       <use xlink:href="#mfaed46f830" x="108" y="307.837929" style="fill: #a9a9a9; stroke: #a9a9a9; stroke-width: 0.8"/>
      </g>
     </g>
     <g id="text_11">
      <!-- 0 -->
      <g style="fill: #a9a9a9" transform="translate(94.6375 311.637148) scale(0.1 -0.1)">
       <use xlink:href="#DejaVuSans-30"/>
      </g>
     </g>
    </g>
    <g id="ytick_2">
     <g id="line2d_23">
      <path d="M 108 277.494762 
L 777.6 277.494762 
" clip-path="url(#p984abf2223)" style="fill: none; stroke-dasharray: 5.12,1.28,0.8,1.28; stroke-dashoffset: 0; stroke: #b0b0b0; stroke-width: 0.8"/>
     </g>
     <g id="line2d_24">
      <g>
       <use xlink:href="#mfaed46f830" x="108" y="277.494762" style="fill: #a9a9a9; stroke: #a9a9a9; stroke-width: 0.8"/>
      </g>
     </g>
     <g id="text_12">
      <!-- 800 -->
      <g style="fill: #a9a9a9" transform="translate(81.9125 281.293981) scale(0.1 -0.1)">
       <defs>
        <path id="DejaVuSans-38" d="M 2034 2216 
Q 1584 2216 1326 1975 
Q 1069 1734 1069 1313 
Q 1069 891 1326 650 
Q 1584 409 2034 409 
Q 2484 409 2743 651 
Q 3003 894 3003 1313 
Q 3003 1734 2745 1975 
Q 2488 2216 2034 2216 
z
M 1403 2484 
Q 997 2584 770 2862 
Q 544 3141 544 3541 
Q 544 4100 942 4425 
Q 1341 4750 2034 4750 
Q 2731 4750 3128 4425 
Q 3525 4100 3525 3541 
Q 3525 3141 3298 2862 
Q 3072 2584 2669 2484 
Q 3125 2378 3379 2068 
Q 3634 1759 3634 1313 
Q 3634 634 3220 271 
Q 2806 -91 2034 -91 
Q 1263 -91 848 271 
Q 434 634 434 1313 
Q 434 1759 690 2068 
Q 947 2378 1403 2484 
z
M 1172 3481 
Q 1172 3119 1398 2916 
Q 1625 2713 2034 2713 
Q 2441 2713 2670 2916 
Q 2900 3119 2900 3481 
Q 2900 3844 2670 4047 
Q 2441 4250 2034 4250 
Q 1625 4250 1398 4047 
Q 1172 3844 1172 3481 
z
" transform="scale(0.015625)"/>
       </defs>
       <use xlink:href="#DejaVuSans-38"/>
       <use xlink:href="#DejaVuSans-30" x="63.623047"/>
       <use xlink:href="#DejaVuSans-30" x="127.246094"/>
      </g>
     </g>
    </g>
    <g id="ytick_3">
     <g id="line2d_25">
      <path d="M 108 247.151595 
L 777.6 247.151595 
" clip-path="url(#p984abf2223)" style="fill: none; stroke-dasharray: 5.12,1.28,0.8,1.28; stroke-dashoffset: 0; stroke: #b0b0b0; stroke-width: 0.8"/>
     </g>
     <g id="line2d_26">
      <g>
       <use xlink:href="#mfaed46f830" x="108" y="247.151595" style="fill: #a9a9a9; stroke: #a9a9a9; stroke-width: 0.8"/>
      </g>
     </g>
     <g id="text_13">
      <!-- 1600 -->
      <g style="fill: #a9a9a9" transform="translate(75.55 250.950814) scale(0.1 -0.1)">
       <defs>
        <path id="DejaVuSans-36" d="M 2113 2584 
Q 1688 2584 1439 2293 
Q 1191 2003 1191 1497 
Q 1191 994 1439 701 
Q 1688 409 2113 409 
Q 2538 409 2786 701 
Q 3034 994 3034 1497 
Q 3034 2003 2786 2293 
Q 2538 2584 2113 2584 
z
M 3366 4563 
L 3366 3988 
Q 3128 4100 2886 4159 
Q 2644 4219 2406 4219 
Q 1781 4219 1451 3797 
Q 1122 3375 1075 2522 
Q 1259 2794 1537 2939 
Q 1816 3084 2150 3084 
Q 2853 3084 3261 2657 
Q 3669 2231 3669 1497 
Q 3669 778 3244 343 
Q 2819 -91 2113 -91 
Q 1303 -91 875 529 
Q 447 1150 447 2328 
Q 447 3434 972 4092 
Q 1497 4750 2381 4750 
Q 2619 4750 2861 4703 
Q 3103 4656 3366 4563 
z
" transform="scale(0.015625)"/>
       </defs>
       <use xlink:href="#DejaVuSans-31"/>
       <use xlink:href="#DejaVuSans-36" x="63.623047"/>
       <use xlink:href="#DejaVuSans-30" x="127.246094"/>
       <use xlink:href="#DejaVuSans-30" x="190.869141"/>
      </g>
     </g>
    </g>
    <g id="ytick_4">
     <g id="line2d_27">
      <path d="M 108 216.808429 
L 777.6 216.808429 
" clip-path="url(#p984abf2223)" style="fill: none; stroke-dasharray: 5.12,1.28,0.8,1.28; stroke-dashoffset: 0; stroke: #b0b0b0; stroke-width: 0.8"/>
     </g>
     <g id="line2d_28">
      <g>
       <use xlink:href="#mfaed46f830" x="108" y="216.808429" style="fill: #a9a9a9; stroke: #a9a9a9; stroke-width: 0.8"/>
      </g>
     </g>
     <g id="text_14">
      <!-- 2400 -->
      <g style="fill: #a9a9a9" transform="translate(75.55 220.607647) scale(0.1 -0.1)">
       <use xlink:href="#DejaVuSans-32"/>
       <use xlink:href="#DejaVuSans-34" x="63.623047"/>
       <use xlink:href="#DejaVuSans-30" x="127.246094"/>
       <use xlink:href="#DejaVuSans-30" x="190.869141"/>
      </g>
     </g>
    </g>
    <g id="ytick_5">
     <g id="line2d_29">
      <path d="M 108 186.465262 
L 777.6 186.465262 
" clip-path="url(#p984abf2223)" style="fill: none; stroke-dasharray: 5.12,1.28,0.8,1.28; stroke-dashoffset: 0; stroke: #b0b0b0; stroke-width: 0.8"/>
     </g>
     <g id="line2d_30">
      <g>
       <use xlink:href="#mfaed46f830" x="108" y="186.465262" style="fill: #a9a9a9; stroke: #a9a9a9; stroke-width: 0.8"/>
      </g>
     </g>
     <g id="text_15">
      <!-- 3200 -->
      <g style="fill: #a9a9a9" transform="translate(75.55 190.264481) scale(0.1 -0.1)">
       <use xlink:href="#DejaVuSans-33"/>
       <use xlink:href="#DejaVuSans-32" x="63.623047"/>
       <use xlink:href="#DejaVuSans-30" x="127.246094"/>
       <use xlink:href="#DejaVuSans-30" x="190.869141"/>
      </g>
     </g>
    </g>
    <g id="ytick_6">
     <g id="line2d_31">
      <path d="M 108 156.122095 
L 777.6 156.122095 
" clip-path="url(#p984abf2223)" style="fill: none; stroke-dasharray: 5.12,1.28,0.8,1.28; stroke-dashoffset: 0; stroke: #b0b0b0; stroke-width: 0.8"/>
     </g>
     <g id="line2d_32">
      <g>
       <use xlink:href="#mfaed46f830" x="108" y="156.122095" style="fill: #a9a9a9; stroke: #a9a9a9; stroke-width: 0.8"/>
      </g>
     </g>
     <g id="text_16">
      <!-- 4000 -->
      <g style="fill: #a9a9a9" transform="translate(75.55 159.921314) scale(0.1 -0.1)">
       <use xlink:href="#DejaVuSans-34"/>
       <use xlink:href="#DejaVuSans-30" x="63.623047"/>
       <use xlink:href="#DejaVuSans-30" x="127.246094"/>
       <use xlink:href="#DejaVuSans-30" x="190.869141"/>
      </g>
     </g>
    </g>
    <g id="ytick_7">
     <g id="line2d_33">
      <path d="M 108 125.778928 
L 777.6 125.778928 
" clip-path="url(#p984abf2223)" style="fill: none; stroke-dasharray: 5.12,1.28,0.8,1.28; stroke-dashoffset: 0; stroke: #b0b0b0; stroke-width: 0.8"/>
     </g>
     <g id="line2d_34">
      <g>
       <use xlink:href="#mfaed46f830" x="108" y="125.778928" style="fill: #a9a9a9; stroke: #a9a9a9; stroke-width: 0.8"/>
      </g>
     </g>
     <g id="text_17">
      <!-- 4800 -->
      <g style="fill: #a9a9a9" transform="translate(75.55 129.578147) scale(0.1 -0.1)">
       <use xlink:href="#DejaVuSans-34"/>
       <use xlink:href="#DejaVuSans-38" x="63.623047"/>
       <use xlink:href="#DejaVuSans-30" x="127.246094"/>
       <use xlink:href="#DejaVuSans-30" x="190.869141"/>
      </g>
     </g>
    </g>
    <g id="ytick_8">
     <g id="line2d_35">
      <path d="M 108 95.435762 
L 777.6 95.435762 
" clip-path="url(#p984abf2223)" style="fill: none; stroke-dasharray: 5.12,1.28,0.8,1.28; stroke-dashoffset: 0; stroke: #b0b0b0; stroke-width: 0.8"/>
     </g>
     <g id="line2d_36">
      <g>
       <use xlink:href="#mfaed46f830" x="108" y="95.435762" style="fill: #a9a9a9; stroke: #a9a9a9; stroke-width: 0.8"/>
      </g>
     </g>
     <g id="text_18">
      <!-- 5600 -->
      <g style="fill: #a9a9a9" transform="translate(75.55 99.23498) scale(0.1 -0.1)">
       <use xlink:href="#DejaVuSans-35"/>
       <use xlink:href="#DejaVuSans-36" x="63.623047"/>
       <use xlink:href="#DejaVuSans-30" x="127.246094"/>
       <use xlink:href="#DejaVuSans-30" x="190.869141"/>
      </g>
     </g>
    </g>
    <g id="ytick_9">
     <g id="line2d_37">
      <path d="M 108 65.092595 
L 777.6 65.092595 
" clip-path="url(#p984abf2223)" style="fill: none; stroke-dasharray: 5.12,1.28,0.8,1.28; stroke-dashoffset: 0; stroke: #b0b0b0; stroke-width: 0.8"/>
     </g>
     <g id="line2d_38">
      <g>
       <use xlink:href="#mfaed46f830" x="108" y="65.092595" style="fill: #a9a9a9; stroke: #a9a9a9; stroke-width: 0.8"/>
      </g>
     </g>
     <g id="text_19">
      <!-- 6400 -->
      <g style="fill: #a9a9a9" transform="translate(75.55 68.891814) scale(0.1 -0.1)">
       <use xlink:href="#DejaVuSans-36"/>
       <use xlink:href="#DejaVuSans-34" x="63.623047"/>
       <use xlink:href="#DejaVuSans-30" x="127.246094"/>
       <use xlink:href="#DejaVuSans-30" x="190.869141"/>
      </g>
     </g>
    </g>
   </g>
   <g id="line2d_39">
    <path d="M 138.436364 307.724142 
L 141.628989 307.458639 
L 142.161093 307.231066 
L 143.757406 307.07935 
L 146.950032 306.434557 
L 150.142657 306.169055 
L 151.206866 305.751836 
L 151.73897 305.069115 
L 152.271074 304.689825 
L 152.803179 303.514028 
L 153.335283 303.43817 
L 153.867387 303.020951 
L 154.931596 302.489946 
L 157.060013 300.821072 
L 159.18843 299.79699 
L 160.784743 299.07634 
L 161.316847 298.241902 
L 162.381055 297.483323 
L 162.91316 297.25575 
L 168.234202 296.49717 
L 168.766306 296.269597 
L 172.491036 295.966165 
L 174.619453 295.473089 
L 178.876287 294.904154 
L 179.408392 294.600722 
L 179.940496 294.524865 
L 181.004704 294.183504 
L 184.729434 293.576641 
L 185.793643 293.273209 
L 187.389955 293.121493 
L 188.454164 293.007706 
L 191.114685 292.324985 
L 192.178894 292.249127 
L 193.243102 292.097411 
L 194.307311 291.869837 
L 194.839415 291.718122 
L 195.371519 290.997471 
L 196.967832 290.390608 
L 198.564145 289.97339 
L 199.096249 289.707887 
L 199.628353 289.669958 
L 202.288875 288.911379 
L 203.353083 288.835521 
L 203.885188 288.759663 
L 205.4815 288.266586 
L 207.609917 287.735581 
L 208.142022 287.508007 
L 208.674126 287.432149 
L 209.20623 287.166647 
L 214.527273 286.370138 
L 217.187794 285.611559 
L 217.719898 285.270199 
L 220.38042 284.397833 
L 221.444628 283.677182 
L 223.040941 283.373751 
L 233.150922 280.453221 
L 234.21513 280.036002 
L 235.279339 279.960144 
L 236.875652 279.504997 
L 237.407756 279.504997 
L 237.93986 279.277423 
L 239.004069 279.163636 
L 239.536173 278.973992 
L 240.600381 278.936063 
L 242.728798 278.67056 
L 243.793007 278.139554 
L 250.178258 275.294883 
L 250.710362 274.725948 
L 251.774571 273.132932 
L 252.306675 272.981216 
L 252.838779 272.981216 
L 253.902988 272.184708 
L 255.499301 271.653703 
L 256.031405 271.160626 
L 257.095613 270.743408 
L 258.159822 270.250331 
L 259.224031 268.733173 
L 259.756135 268.391812 
L 260.288239 267.481517 
L 260.820343 266.912583 
L 264.012969 265.281638 
L 265.077177 264.4472 
L 265.609282 264.10584 
L 266.141386 263.309332 
L 266.67349 262.133534 
L 267.205594 261.337026 
L 267.737699 260.919807 
L 268.269803 260.692234 
L 269.866116 259.288862 
L 271.994533 257.54413 
L 272.526637 256.82348 
L 273.590846 255.875256 
L 275.719263 254.471884 
L 276.251367 254.016737 
L 276.783471 253.90295 
L 277.84768 253.334016 
L 279.976097 252.234076 
L 281.040305 251.209994 
L 281.572409 250.565202 
L 282.636618 249.806623 
L 283.700826 249.389404 
L 284.765035 248.668754 
L 285.297139 248.365322 
L 285.829243 248.289464 
L 289.553973 245.975798 
L 291.68239 244.837929 
L 292.214495 244.344852 
L 300.728163 241.386394 
L 301.792371 240.43817 
L 302.85658 239.945093 
L 303.920788 239.376159 
L 304.452893 239.072727 
L 305.517101 238.769296 
L 306.049205 238.427935 
L 306.58131 238.276219 
L 308.177622 237.252137 
L 310.838144 236.645274 
L 312.434456 235.734979 
L 312.966561 235.659121 
L 314.030769 235.393618 
L 314.562873 235.241902 
L 316.159186 234.028176 
L 317.755499 233.648886 
L 318.287603 233.459241 
L 318.819708 233.042023 
L 322.012333 231.980012 
L 322.544437 231.942083 
L 323.608646 231.524865 
L 327.86548 230.007706 
L 328.929688 229.85599 
L 330.526001 229.324985 
L 333.186523 228.073329 
L 335.31494 226.935461 
L 339.571774 225.228657 
L 340.103878 225.1528 
L 341.168086 224.508007 
L 341.700191 224.432149 
L 343.828608 223.559783 
L 345.957025 223.256352 
L 347.021233 222.725346 
L 347.553338 222.270199 
L 348.085442 221.321975 
L 349.681755 221.018543 
L 351.810172 219.956532 
L 352.342276 219.842745 
L 356.59911 217.832511 
L 358.195423 217.49115 
L 359.259631 216.960144 
L 359.791736 216.732571 
L 360.32384 216.656713 
L 362.452257 215.708489 
L 364.04857 214.722336 
L 364.580674 214.646478 
L 365.112778 214.456833 
L 365.644882 214.418904 
L 368.305404 213.774112 
L 368.837508 213.356893 
L 370.433821 212.787959 
L 372.562238 211.953522 
L 373.094342 211.574232 
L 373.626446 211.384588 
L 374.690655 210.815653 
L 377.351176 209.943287 
L 378.947489 208.691632 
L 379.479593 208.577845 
L 380.543802 207.743408 
L 381.075906 207.66755 
L 381.60801 206.833113 
L 382.140114 206.605539 
L 382.672219 206.18832 
L 383.204323 206.112462 
L 384.268531 205.46767 
L 384.800636 205.353883 
L 385.33274 205.126309 
L 385.864844 204.709091 
L 386.396949 204.519446 
L 387.993261 203.419506 
L 390.121678 202.319567 
L 390.653783 202.243709 
L 392.250095 201.4472 
L 392.7822 200.574834 
L 393.314304 200.119687 
L 393.846408 199.816255 
L 394.378512 199.702468 
L 395.442721 199.019747 
L 395.974825 198.90596 
L 397.039034 198.374955 
L 398.635346 197.692234 
L 399.699555 196.933654 
L 401.295868 195.492354 
L 402.360076 194.885491 
L 402.892181 194.316556 
L 405.020598 192.875256 
L 405.552702 192.268393 
L 406.084806 191.851174 
L 407.149015 191.471884 
L 408.213223 190.751234 
L 409.809536 189.954726 
L 410.34164 189.878868 
L 411.937953 189.044431 
L 413.002161 188.399639 
L 418.323204 186.503191 
L 418.855308 186.085972 
L 420.983725 185.289464 
L 421.51583 185.137748 
L 422.047934 184.72053 
L 424.708455 183.279229 
L 425.772664 181.193137 
L 426.836872 179.97941 
L 427.901081 179.334618 
L 429.497394 178.689825 
L 430.029498 178.613967 
L 430.561602 178.310536 
L 433.222123 177.476099 
L 433.754228 177.248525 
L 434.818436 176.527875 
L 436.414749 175.845154 
L 437.478957 175.276219 
L 438.011062 174.89693 
L 438.543166 174.669356 
L 439.07527 174.290066 
L 439.607374 173.721132 
L 440.671583 173.152197 
L 443.332104 171.748826 
L 446.52473 170.193739 
L 447.056834 170.079952 
L 448.653147 169.511017 
L 449.717355 169.093799 
L 450.24946 168.714509 
L 451.313668 168.411078 
L 452.377877 167.993859 
L 452.909981 167.576641 
L 453.974189 167.23528 
L 457.166815 165.604335 
L 458.231024 164.769898 
L 459.295232 164.390608 
L 459.827336 163.935461 
L 460.359441 163.859603 
L 461.423649 163.063095 
L 462.487858 162.532089 
L 463.019962 162.304515 
L 463.552066 161.77351 
L 467.276796 160.33221 
L 468.341004 159.877062 
L 469.937317 159.383986 
L 471.001526 159.23227 
L 471.53363 159.004696 
L 472.065734 158.928838 
L 473.129943 158.473691 
L 473.662047 158.435762 
L 475.790464 157.639253 
L 477.386777 156.539314 
L 480.047298 155.287658 
L 482.707819 153.846358 
L 483.239924 153.732571 
L 484.836236 152.822276 
L 486.432549 152.29127 
L 487.496758 151.94991 
L 489.625175 151.267188 
L 490.689383 150.925828 
L 492.285696 150.660325 
L 494.414113 149.977604 
L 494.946217 149.75003 
L 495.478322 149.674172 
L 496.010426 149.408669 
L 497.074634 149.219025 
L 498.670947 148.65009 
L 499.735156 148.536303 
L 501.331469 148.194943 
L 502.395677 148.005298 
L 503.459886 147.815653 
L 504.524094 147.588079 
L 505.056198 147.474293 
L 505.588303 147.246719 
L 506.120407 147.20879 
L 508.780928 146.336424 
L 509.313032 146.146779 
L 509.845137 146.146779 
L 515.698284 144.439976 
L 516.230388 144.174473 
L 516.762492 144.174473 
L 517.826701 143.795184 
L 518.358805 143.264178 
L 519.423013 142.84696 
L 522.615639 141.709091 
L 523.147743 141.36773 
L 523.679847 141.253943 
L 524.211952 140.950512 
L 525.27616 140.760867 
L 526.340369 140.343648 
L 526.872473 140.229862 
L 527.404577 139.888501 
L 527.936682 139.774714 
L 528.468786 139.319567 
L 530.065099 139.016135 
L 531.129307 138.523058 
L 531.661411 137.954124 
L 533.789828 137.461048 
L 537.514558 136.702468 
L 538.046662 136.702468 
L 538.578767 136.474895 
L 540.707184 136.095605 
L 541.239288 135.868031 
L 543.367705 135.488742 
L 544.431914 135.033594 
L 544.964018 134.995665 
L 554.00979 132.302709 
L 554.541894 132.075135 
L 555.073999 131.695846 
L 556.138207 131.392414 
L 557.202416 131.051054 
L 558.266624 130.633835 
L 559.862937 129.951114 
L 561.45925 129.837327 
L 563.587667 129.230464 
L 564.119771 128.889103 
L 565.18398 128.585671 
L 567.844501 127.409874 
L 568.376605 127.371945 
L 574.229752 125.36171 
L 576.358169 124.830704 
L 577.422378 124.413486 
L 577.954482 124.185912 
L 579.01869 123.958338 
L 579.550795 123.844551 
L 580.082899 123.427333 
L 580.615003 123.16183 
L 581.147107 122.517038 
L 581.679212 122.137748 
L 582.74342 121.834317 
L 583.275524 121.417098 
L 585.936046 120.317158 
L 586.46815 120.203371 
L 587.000254 119.862011 
L 588.064463 119.558579 
L 588.596567 119.217219 
L 591.257088 118.344852 
L 592.853401 117.434557 
L 593.385505 117.320771 
L 594.449714 116.713907 
L 594.981818 116.486334 
L 596.046027 115.841541 
L 597.642339 115.082962 
L 598.174444 114.703672 
L 599.238652 114.362312 
L 600.302861 113.755449 
L 600.834965 113.565804 
L 601.367069 113.186514 
L 608.284425 110.79699 
L 608.816529 110.683203 
L 609.348633 110.341842 
L 609.880737 110.265984 
L 610.944946 110.000482 
L 612.009154 109.772908 
L 615.733884 107.952318 
L 616.265989 107.87646 
L 617.862301 107.004094 
L 621.054927 105.752438 
L 623.183344 104.918001 
L 623.715448 104.766285 
L 624.247552 104.424925 
L 625.311761 104.273209 
L 625.843865 103.931848 
L 626.375969 103.893919 
L 627.440178 103.552559 
L 628.504387 103.021553 
L 629.036491 102.945695 
L 631.697012 101.883685 
L 632.229116 101.769898 
L 633.293325 101.428537 
L 634.357533 101.163034 
L 635.421742 100.897532 
L 637.018055 100.290668 
L 639.146472 99.114871 
L 640.21068 98.697652 
L 640.742784 98.356291 
L 641.806993 98.128718 
L 642.339097 97.825286 
L 642.871202 97.711499 
L 644.467514 96.877062 
L 645.531723 96.459843 
L 647.128036 95.739193 
L 648.724348 95.321975 
L 651.916974 94.070319 
L 653.513287 93.539314 
L 661.494851 90.125707 
L 662.026955 90.049849 
L 664.155372 89.215412 
L 665.751685 88.343046 
L 666.283789 88.229259 
L 667.347997 87.812041 
L 667.880102 87.812041 
L 668.94431 87.356893 
L 670.008519 86.408669 
L 670.540623 85.953522 
L 672.136936 85.194943 
L 672.66904 85.081156 
L 673.201144 84.815653 
L 673.733249 84.739795 
L 674.265353 84.360506 
L 674.797457 84.246719 
L 675.861666 83.601927 
L 677.457978 82.805418 
L 678.522187 82.3882 
L 679.054291 82.122697 
L 680.650604 81.743408 
L 683.311125 80.871042 
L 683.843229 80.757255 
L 685.971647 79.733173 
L 687.035855 79.240096 
L 688.100064 78.974594 
L 691.824793 77.229862 
L 694.485315 76.281638 
L 696.081627 75.333414 
L 696.613732 75.219627 
L 697.67794 74.688621 
L 698.742149 74.309332 
L 699.274253 73.854184 
L 699.806357 73.550753 
L 701.40267 73.057676 
L 702.466879 72.337026 
L 702.998983 72.299097 
L 704.063191 71.995665 
L 704.595296 71.881878 
L 706.723713 71.08537 
L 708.320025 70.592294 
L 708.85213 70.516436 
L 709.916338 69.947502 
L 710.448442 69.757857 
L 710.980547 69.340638 
L 712.57686 68.92342 
L 713.108964 68.619988 
L 714.173172 68.354485 
L 715.769485 67.482119 
L 716.301589 67.44419 
L 717.897902 66.951114 
L 718.962111 66.837327 
L 720.026319 66.420108 
L 723.218945 65.509813 
L 724.283153 65.471884 
L 727.475779 64.447803 
L 728.007883 64.371945 
L 729.604196 63.537508 
L 730.1363 63.08236 
L 731.200509 62.437568 
L 732.796821 61.413486 
L 735.989447 60.313546 
L 736.521551 59.896328 
L 738.117864 59.175677 
L 738.649968 59.06189 
L 739.714177 58.568814 
L 741.31049 58.151595 
L 742.906802 57.468874 
L 743.971011 56.975798 
L 745.567324 56.331005 
L 746.099428 56.217219 
L 747.163636 55.8 
L 747.163636 55.8 
" clip-path="url(#p984abf2223)" style="fill: none; stroke: #1f77b4; stroke-width: 1.5; stroke-linecap: square"/>
   </g>
   <g id="line2d_40">
    <path d="M 138.968468 307.8 
L 140.564781 307.724142 
L 142.161093 307.686213 
L 145.353719 307.610355 
L 148.01424 307.496568 
L 150.142657 307.496568 
L 150.674762 307.344852 
L 152.803179 307.268995 
L 154.399491 307.07935 
L 155.995804 306.927634 
L 159.18843 306.775918 
L 159.720534 306.775918 
L 160.252638 306.662131 
L 162.381055 306.586273 
L 163.445264 306.510415 
L 167.702098 306.434557 
L 170.362619 306.320771 
L 176.74787 306.244913 
L 179.408392 306.131126 
L 182.601017 306.055268 
L 184.729434 305.97941 
L 189.518373 305.903552 
L 191.114685 305.865623 
L 192.710998 305.827694 
L 194.307311 305.638049 
L 197.499936 305.60012 
L 198.564145 305.524262 
L 202.288875 305.448405 
L 208.142022 305.107044 
L 211.866751 305.031186 
L 212.93096 304.955328 
L 214.527273 304.87947 
L 217.719898 304.727754 
L 219.848315 304.689825 
L 221.444628 304.53811 
L 228.361983 304.120891 
L 231.022505 304.045033 
L 235.811443 303.77953 
L 237.407756 303.703672 
L 242.728798 303.400241 
L 248.581945 303.324383 
L 250.710362 303.096809 
L 251.774571 303.020951 
L 258.691926 302.452017 
L 261.884552 302.034798 
L 264.012969 301.95894 
L 268.269803 301.390006 
L 271.462428 301.314148 
L 273.058741 301.162432 
L 274.12295 301.124503 
L 275.187158 301.010716 
L 276.783471 300.934859 
L 277.84768 300.783143 
L 280.508201 300.479711 
L 282.636618 300.403853 
L 283.700826 300.327995 
L 285.829243 300.252137 
L 286.893452 300.176279 
L 289.553973 299.910777 
L 290.618182 299.721132 
L 292.214495 299.683203 
L 293.278703 299.607345 
L 295.939224 299.531487 
L 302.85658 299.114269 
L 304.452893 299.038411 
L 311.370248 298.621192 
L 315.094978 298.545334 
L 315.627082 298.431547 
L 319.883916 298.355689 
L 323.608646 298.166045 
L 329.461793 298.090187 
L 333.186523 297.900542 
L 337.443357 297.824684 
L 341.700191 297.59711 
L 345.424921 297.521252 
L 355.534901 296.87646 
L 360.855944 296.800602 
L 362.984361 296.573028 
L 364.580674 296.535099 
L 366.176987 296.49717 
L 368.305404 296.269597 
L 373.626446 295.966165 
L 376.819072 295.890307 
L 378.415385 295.852378 
L 380.011697 295.814449 
L 381.60801 295.662733 
L 385.864844 295.586875 
L 386.929053 295.43516 
L 387.993261 295.359302 
L 390.653783 295.245515 
L 391.717991 295.169657 
L 392.7822 295.093799 
L 397.571138 295.017941 
L 398.635346 294.904154 
L 400.763764 294.866225 
L 401.295868 294.752438 
L 402.360076 294.67658 
L 402.892181 294.562793 
L 404.488493 294.486936 
L 409.277432 294.221433 
L 410.34164 294.183504 
L 411.937953 294.031788 
L 413.534266 293.993859 
L 415.130579 293.918001 
L 417.7911 293.804214 
L 425.240559 293.728356 
L 428.965289 293.538712 
L 433.222123 293.462854 
L 435.35054 293.386996 
L 437.478957 293.349067 
L 438.543166 293.23528 
L 440.671583 293.159422 
L 445.992626 292.85599 
L 449.185251 292.818061 
L 450.781564 292.666346 
L 452.377877 292.628417 
L 456.102606 292.552559 
L 458.231024 292.476701 
L 464.616275 292.400843 
L 467.276796 292.287056 
L 470.469421 292.211198 
L 472.065734 292.021553 
L 475.25836 291.983624 
L 476.854673 291.831908 
L 478.98309 291.756051 
L 485.368341 291.680193 
L 488.028862 291.566406 
L 497.074634 291.528477 
L 498.138843 291.452619 
L 499.735156 291.41469 
L 506.652511 291.338832 
L 507.71672 291.262974 
L 513.569866 291.187116 
L 515.698284 291.111258 
L 525.808264 291.0354 
L 527.404577 290.997471 
L 532.193516 290.921613 
L 533.257724 290.845756 
L 546.028226 290.769898 
L 547.624539 290.731969 
L 561.991354 290.656111 
L 563.587667 290.618182 
L 573.165544 290.542324 
L 574.229752 290.466466 
L 576.890273 290.390608 
L 578.486586 290.238892 
L 581.147107 290.163034 
L 584.339733 290.011318 
L 588.596567 289.935461 
L 589.660776 289.859603 
L 593.91761 289.783745 
L 597.110235 289.632029 
L 599.770757 289.556171 
L 604.027591 289.328597 
L 607.220216 289.252739 
L 609.348633 289.176881 
L 616.265989 289.101023 
L 618.394406 289.025166 
L 622.65124 288.949308 
L 626.375969 288.759663 
L 631.164908 288.683805 
L 632.229116 288.607947 
L 641.806993 288.532089 
L 643.403306 288.49416 
L 646.063827 288.456231 
L 648.192244 288.228657 
L 649.788557 288.190728 
L 652.981182 288.114871 
L 658.302225 287.811439 
L 660.962746 287.735581 
L 663.091163 287.659723 
L 668.94431 287.583865 
L 671.604832 287.280433 
L 673.733249 287.204576 
L 677.457978 287.128718 
L 677.990083 287.014931 
L 682.779021 286.939073 
L 685.439542 286.825286 
L 692.356898 286.787357 
L 692.889002 286.67357 
L 697.145836 286.597712 
L 698.742149 286.559783 
L 701.40267 286.483925 
L 702.998983 286.445996 
L 712.044755 286.370138 
L 714.705277 286.256352 
L 722.154736 286.180494 
L 724.283153 286.104636 
L 730.1363 286.028778 
L 730.668404 285.914991 
L 735.989447 285.877062 
L 737.053655 285.801204 
L 739.714177 285.725346 
L 741.31049 285.687417 
L 747.163636 285.611559 
L 747.163636 285.611559 
" clip-path="url(#p984abf2223)" style="fill: none; stroke: #ff7f0e; stroke-width: 1.5; stroke-linecap: square"/>
   </g>
   <g id="patch_3">
    <path d="M 108 320.4 
L 108 43.2 
" style="fill: none; stroke: #a9a9a9; stroke-width: 0.8; stroke-linejoin: miter; stroke-linecap: square"/>
   </g>
   <g id="patch_4">
    <path d="M 777.6 320.4 
L 777.6 43.2 
" style="fill: none"/>
   </g>
   <g id="patch_5">
    <path d="M 108 320.4 
L 777.6 320.4 
" style="fill: none; stroke: #a9a9a9; stroke-width: 0.8; stroke-linejoin: miter; stroke-linecap: square"/>
   </g>
   <g id="patch_6">
    <path d="M 108 43.2 
L 777.6 43.2 
" style="fill: none"/>
   </g>
   <g id="text_20">
    <!-- get_subscribe history -->
    <g style="fill: #a9a9a9" transform="translate(378.6075 37.2) scale(0.12 -0.12)">
     <defs>
      <path id="DejaVuSans-67" d="M 2906 1791 
Q 2906 2416 2648 2759 
Q 2391 3103 1925 3103 
Q 1463 3103 1205 2759 
Q 947 2416 947 1791 
Q 947 1169 1205 825 
Q 1463 481 1925 481 
Q 2391 481 2648 825 
Q 2906 1169 2906 1791 
z
M 3481 434 
Q 3481 -459 3084 -895 
Q 2688 -1331 1869 -1331 
Q 1566 -1331 1297 -1286 
Q 1028 -1241 775 -1147 
L 775 -588 
Q 1028 -725 1275 -790 
Q 1522 -856 1778 -856 
Q 2344 -856 2625 -561 
Q 2906 -266 2906 331 
L 2906 616 
Q 2728 306 2450 153 
Q 2172 0 1784 0 
Q 1141 0 747 490 
Q 353 981 353 1791 
Q 353 2603 747 3093 
Q 1141 3584 1784 3584 
Q 2172 3584 2450 3431 
Q 2728 3278 2906 2969 
L 2906 3500 
L 3481 3500 
L 3481 434 
z
" transform="scale(0.015625)"/>
      <path id="DejaVuSans-65" d="M 3597 1894 
L 3597 1613 
L 953 1613 
Q 991 1019 1311 708 
Q 1631 397 2203 397 
Q 2534 397 2845 478 
Q 3156 559 3463 722 
L 3463 178 
Q 3153 47 2828 -22 
Q 2503 -91 2169 -91 
Q 1331 -91 842 396 
Q 353 884 353 1716 
Q 353 2575 817 3079 
Q 1281 3584 2069 3584 
Q 2775 3584 3186 3129 
Q 3597 2675 3597 1894 
z
M 3022 2063 
Q 3016 2534 2758 2815 
Q 2500 3097 2075 3097 
Q 1594 3097 1305 2825 
Q 1016 2553 972 2059 
L 3022 2063 
z
" transform="scale(0.015625)"/>
      <path id="DejaVuSans-74" d="M 1172 4494 
L 1172 3500 
L 2356 3500 
L 2356 3053 
L 1172 3053 
L 1172 1153 
Q 1172 725 1289 603 
Q 1406 481 1766 481 
L 2356 481 
L 2356 0 
L 1766 0 
Q 1100 0 847 248 
Q 594 497 594 1153 
L 594 3053 
L 172 3053 
L 172 3500 
L 594 3500 
L 594 4494 
L 1172 4494 
z
" transform="scale(0.015625)"/>
      <path id="DejaVuSans-5f" d="M 3263 -1063 
L 3263 -1509 
L -63 -1509 
L -63 -1063 
L 3263 -1063 
z
" transform="scale(0.015625)"/>
      <path id="DejaVuSans-73" d="M 2834 3397 
L 2834 2853 
Q 2591 2978 2328 3040 
Q 2066 3103 1784 3103 
Q 1356 3103 1142 2972 
Q 928 2841 928 2578 
Q 928 2378 1081 2264 
Q 1234 2150 1697 2047 
L 1894 2003 
Q 2506 1872 2764 1633 
Q 3022 1394 3022 966 
Q 3022 478 2636 193 
Q 2250 -91 1575 -91 
Q 1294 -91 989 -36 
Q 684 19 347 128 
L 347 722 
Q 666 556 975 473 
Q 1284 391 1588 391 
Q 1994 391 2212 530 
Q 2431 669 2431 922 
Q 2431 1156 2273 1281 
Q 2116 1406 1581 1522 
L 1381 1569 
Q 847 1681 609 1914 
Q 372 2147 372 2553 
Q 372 3047 722 3315 
Q 1072 3584 1716 3584 
Q 2034 3584 2315 3537 
Q 2597 3491 2834 3397 
z
" transform="scale(0.015625)"/>
      <path id="DejaVuSans-75" d="M 544 1381 
L 544 3500 
L 1119 3500 
L 1119 1403 
Q 1119 906 1312 657 
Q 1506 409 1894 409 
Q 2359 409 2629 706 
Q 2900 1003 2900 1516 
L 2900 3500 
L 3475 3500 
L 3475 0 
L 2900 0 
L 2900 538 
Q 2691 219 2414 64 
Q 2138 -91 1772 -91 
Q 1169 -91 856 284 
Q 544 659 544 1381 
z
M 1991 3584 
L 1991 3584 
z
" transform="scale(0.015625)"/>
      <path id="DejaVuSans-62" d="M 3116 1747 
Q 3116 2381 2855 2742 
Q 2594 3103 2138 3103 
Q 1681 3103 1420 2742 
Q 1159 2381 1159 1747 
Q 1159 1113 1420 752 
Q 1681 391 2138 391 
Q 2594 391 2855 752 
Q 3116 1113 3116 1747 
z
M 1159 2969 
Q 1341 3281 1617 3432 
Q 1894 3584 2278 3584 
Q 2916 3584 3314 3078 
Q 3713 2572 3713 1747 
Q 3713 922 3314 415 
Q 2916 -91 2278 -91 
Q 1894 -91 1617 61 
Q 1341 213 1159 525 
L 1159 0 
L 581 0 
L 581 4863 
L 1159 4863 
L 1159 2969 
z
" transform="scale(0.015625)"/>
      <path id="DejaVuSans-63" d="M 3122 3366 
L 3122 2828 
Q 2878 2963 2633 3030 
Q 2388 3097 2138 3097 
Q 1578 3097 1268 2742 
Q 959 2388 959 1747 
Q 959 1106 1268 751 
Q 1578 397 2138 397 
Q 2388 397 2633 464 
Q 2878 531 3122 666 
L 3122 134 
Q 2881 22 2623 -34 
Q 2366 -91 2075 -91 
Q 1284 -91 818 406 
Q 353 903 353 1747 
Q 353 2603 823 3093 
Q 1294 3584 2113 3584 
Q 2378 3584 2631 3529 
Q 2884 3475 3122 3366 
z
" transform="scale(0.015625)"/>
      <path id="DejaVuSans-72" d="M 2631 2963 
Q 2534 3019 2420 3045 
Q 2306 3072 2169 3072 
Q 1681 3072 1420 2755 
Q 1159 2438 1159 1844 
L 1159 0 
L 581 0 
L 581 3500 
L 1159 3500 
L 1159 2956 
Q 1341 3275 1631 3429 
Q 1922 3584 2338 3584 
Q 2397 3584 2469 3576 
Q 2541 3569 2628 3553 
L 2631 2963 
z
" transform="scale(0.015625)"/>
      <path id="DejaVuSans-69" d="M 603 3500 
L 1178 3500 
L 1178 0 
L 603 0 
L 603 3500 
z
M 603 4863 
L 1178 4863 
L 1178 4134 
L 603 4134 
L 603 4863 
z
" transform="scale(0.015625)"/>
      <path id="DejaVuSans-20" transform="scale(0.015625)"/>
      <path id="DejaVuSans-68" d="M 3513 2113 
L 3513 0 
L 2938 0 
L 2938 2094 
Q 2938 2591 2744 2837 
Q 2550 3084 2163 3084 
Q 1697 3084 1428 2787 
Q 1159 2491 1159 1978 
L 1159 0 
L 581 0 
L 581 4863 
L 1159 4863 
L 1159 2956 
Q 1366 3272 1645 3428 
Q 1925 3584 2291 3584 
Q 2894 3584 3203 3211 
Q 3513 2838 3513 2113 
z
" transform="scale(0.015625)"/>
      <path id="DejaVuSans-6f" d="M 1959 3097 
Q 1497 3097 1228 2736 
Q 959 2375 959 1747 
Q 959 1119 1226 758 
Q 1494 397 1959 397 
Q 2419 397 2687 759 
Q 2956 1122 2956 1747 
Q 2956 2369 2687 2733 
Q 2419 3097 1959 3097 
z
M 1959 3584 
Q 2709 3584 3137 3096 
Q 3566 2609 3566 1747 
Q 3566 888 3137 398 
Q 2709 -91 1959 -91 
Q 1206 -91 779 398 
Q 353 888 353 1747 
Q 353 2609 779 3096 
Q 1206 3584 1959 3584 
z
" transform="scale(0.015625)"/>
      <path id="DejaVuSans-79" d="M 2059 -325 
Q 1816 -950 1584 -1140 
Q 1353 -1331 966 -1331 
L 506 -1331 
L 506 -850 
L 844 -850 
Q 1081 -850 1212 -737 
Q 1344 -625 1503 -206 
L 1606 56 
L 191 3500 
L 800 3500 
L 1894 763 
L 2988 3500 
L 3597 3500 
L 2059 -325 
z
" transform="scale(0.015625)"/>
     </defs>
     <use xlink:href="#DejaVuSans-67"/>
     <use xlink:href="#DejaVuSans-65" x="63.476562"/>
     <use xlink:href="#DejaVuSans-74" x="125"/>
     <use xlink:href="#DejaVuSans-5f" x="164.208984"/>
     <use xlink:href="#DejaVuSans-73" x="214.208984"/>
     <use xlink:href="#DejaVuSans-75" x="266.308594"/>
     <use xlink:href="#DejaVuSans-62" x="329.6875"/>
     <use xlink:href="#DejaVuSans-73" x="393.164062"/>
     <use xlink:href="#DejaVuSans-63" x="445.263672"/>
     <use xlink:href="#DejaVuSans-72" x="500.244141"/>
     <use xlink:href="#DejaVuSans-69" x="541.357422"/>
     <use xlink:href="#DejaVuSans-62" x="569.140625"/>
     <use xlink:href="#DejaVuSans-65" x="632.617188"/>
     <use xlink:href="#DejaVuSans-20" x="694.140625"/>
     <use xlink:href="#DejaVuSans-68" x="725.927734"/>
     <use xlink:href="#DejaVuSans-69" x="789.306641"/>
     <use xlink:href="#DejaVuSans-73" x="817.089844"/>
     <use xlink:href="#DejaVuSans-74" x="869.189453"/>
     <use xlink:href="#DejaVuSans-6f" x="908.398438"/>
     <use xlink:href="#DejaVuSans-72" x="969.580078"/>
     <use xlink:href="#DejaVuSans-79" x="1010.693359"/>
    </g>
   </g>
   <g id="legend_1">
    <g id="line2d_41">
     <path d="M 815.08 328.498438 
L 825.08 328.498438 
L 835.08 328.498438 
" style="fill: none; stroke: #1f77b4; stroke-width: 1.5; stroke-linecap: square"/>
    </g>
    <g id="text_21">
     <!-- star -->
     <g style="fill: #a9a9a9" transform="translate(843.08 331.998438) scale(0.1 -0.1)">
      <defs>
       <path id="DejaVuSans-61" d="M 2194 1759 
Q 1497 1759 1228 1600 
Q 959 1441 959 1056 
Q 959 750 1161 570 
Q 1363 391 1709 391 
Q 2188 391 2477 730 
Q 2766 1069 2766 1631 
L 2766 1759 
L 2194 1759 
z
M 3341 1997 
L 3341 0 
L 2766 0 
L 2766 531 
Q 2569 213 2275 61 
Q 1981 -91 1556 -91 
Q 1019 -91 701 211 
Q 384 513 384 1019 
Q 384 1609 779 1909 
Q 1175 2209 1959 2209 
L 2766 2209 
L 2766 2266 
Q 2766 2663 2505 2880 
Q 2244 3097 1772 3097 
Q 1472 3097 1187 3025 
Q 903 2953 641 2809 
L 641 3341 
Q 956 3463 1253 3523 
Q 1550 3584 1831 3584 
Q 2591 3584 2966 3190 
Q 3341 2797 3341 1997 
z
" transform="scale(0.015625)"/>
      </defs>
      <use xlink:href="#DejaVuSans-73"/>
      <use xlink:href="#DejaVuSans-74" x="52.099609"/>
      <use xlink:href="#DejaVuSans-61" x="91.308594"/>
      <use xlink:href="#DejaVuSans-72" x="152.587891"/>
     </g>
    </g>
    <g id="line2d_42">
     <path d="M 815.08 343.176562 
L 825.08 343.176562 
L 835.08 343.176562 
" style="fill: none; stroke: #ff7f0e; stroke-width: 1.5; stroke-linecap: square"/>
    </g>
    <g id="text_22">
     <!-- fork -->
     <g style="fill: #a9a9a9" transform="translate(843.08 346.676562) scale(0.1 -0.1)">
      <defs>
       <path id="DejaVuSans-66" d="M 2375 4863 
L 2375 4384 
L 1825 4384 
Q 1516 4384 1395 4259 
Q 1275 4134 1275 3809 
L 1275 3500 
L 2222 3500 
L 2222 3053 
L 1275 3053 
L 1275 0 
L 697 0 
L 697 3053 
L 147 3053 
L 147 3500 
L 697 3500 
L 697 3744 
Q 697 4328 969 4595 
Q 1241 4863 1831 4863 
L 2375 4863 
z
" transform="scale(0.015625)"/>
       <path id="DejaVuSans-6b" d="M 581 4863 
L 1159 4863 
L 1159 1991 
L 2875 3500 
L 3609 3500 
L 1753 1863 
L 3688 0 
L 2938 0 
L 1159 1709 
L 1159 0 
L 581 0 
L 581 4863 
z
" transform="scale(0.015625)"/>
      </defs>
      <use xlink:href="#DejaVuSans-66"/>
      <use xlink:href="#DejaVuSans-6f" x="35.205078"/>
      <use xlink:href="#DejaVuSans-72" x="96.386719"/>
      <use xlink:href="#DejaVuSans-6b" x="137.5"/>
     </g>
    </g>
   </g>
  </g>
 </g>
 <defs>
  <clipPath id="p984abf2223">
   <rect x="108" y="43.2" width="669.6" height="277.2"/>
  </clipPath>
 </defs>
</svg>
